<?xml version="1.0" encoding="utf-8"?>
<!-- Generator: Adobe Illustrator 22.0.1, SVG Export Plug-In . SVG Version: 6.00 Build 0)  -->
<svg version="1.1" id="圖層_1" xmlns="http://www.w3.org/2000/svg" xmlns:xlink="http://www.w3.org/1999/xlink" x="0px" y="0px"
	 viewBox="0 0 261.8 111.3" style="enable-background:new 0 0 261.8 111.3;" xml:space="preserve">
<style type="text/css">
	.st0{fill:none;stroke:#00FF00;stroke-width:2;stroke-miterlimit:10;}
	.st1{fill:none;stroke:#00FF00;stroke-width:1.5;stroke-miterlimit:10;}
</style>
<g>
	<path class="st0" d="M19.3,30.7c2.5,0,5.4,1.4,8.7,4.2c0.8,1.2,1.5,3.6,1.9,7V44c0,3.6-2.1,6.5-6.4,8.7c-1.7,0.7-3.3,1.1-4.8,1.1
		H18c-1.8,0-3.3-0.8-4.6-2.5c-0.5-0.3-1.4-1.9-2.6-4.9h-0.2c-1.5,2.3-2.3,4.7-2.3,7.4c1.2,3.2,3.9,4.9,7.8,5.1
		c2.8,0,6.4-0.9,10.8-2.8l2.5-0.2c0,0.3,0.4,0.8,1.1,1.5c0.2,0.3,0.3,0.6,0.3,0.9l-0.3,1.3c0.2,0.2,0.3,0.6,0.3,1.1
		c0,0.2-0.4,0.7-1.3,1.7l0.5,0.7v0.4c-0.8,1.8-2.4,3.1-4.9,4c-3.2,1-5.5,1.5-7,1.5h-1.7C10.1,69,5.3,63.8,2,53.3
		c-0.1-2.3-0.2-3.6-0.2-4c0-7.6,4.5-13.6,13.5-18C16.8,30.8,18.1,30.7,19.3,30.7z M12.4,44v0.5h2.3c4.3,0,7.2-1.4,8.9-4.2v-0.7
		c-1.2-0.3-2.4-0.4-3.4-0.4C17.5,39.2,14.9,40.8,12.4,44z"/>
	<path class="st0" d="M44.5,2.3c2.3,0.3,3.7,0.8,4.3,1.7c0.5,0,0.9,0.4,1.3,1.1v0.4c-1.8,12.2-2.8,20.6-3.2,25.2h0.2
		c7.2,0,11.9,2.5,13.9,7.6c1.9,3.8,2.8,7,2.8,9.5v2.6c0,7.9-5.9,13.7-17.8,17.4c-1.8,0.4-4.3,0.8-7.6,1.1c-0.4,0-1.7-1.4-3.9-4.1
		c-2-0.5-3-1-3.2-1.5c3.9-20.8,6.7-38,8.5-51.5c0.7-5.9,1.9-8.9,3.4-8.9C43.2,2.6,43.7,2.4,44.5,2.3z M41.7,58.7h0.7
		c9.4-3,14.1-8.2,14.1-15.4v-0.9c0-1.1-1.3-1.9-3.9-2.4h-0.7c-5.1,0.5-7.6,2-7.6,4.5L41.7,58.7z"/>
	<path class="st0" d="M78.2,2.3c2.3,0.3,3.7,0.8,4.3,1.7c0.5,0,0.9,0.4,1.3,1.1v0.4C82,17.7,81,26.1,80.6,30.7h0.2
		c7.2,0,11.9,2.5,13.9,7.6c1.9,3.8,2.8,7,2.8,9.5v2.6c0,7.9-5.9,13.7-17.8,17.4c-1.8,0.4-4.3,0.8-7.6,1.1c-0.4,0-1.7-1.4-3.9-4.1
		c-2-0.5-3-1-3.2-1.5c3.9-20.8,6.7-38,8.5-51.5c0.7-5.9,1.9-8.9,3.4-8.9C76.9,2.6,77.3,2.4,78.2,2.3z M75.4,58.7H76
		c9.4-3,14.1-8.2,14.1-15.4v-0.9c0-1.1-1.3-1.9-3.9-2.4h-0.7c-5.1,0.5-7.6,2-7.6,4.5L75.4,58.7z"/>
	<path class="st0" d="M173.8,13.2c1.3,0,3.5,1.7,6.5,5.1v0.2c-0.7,5.6-1.5,11.4-2.6,17.6h0.2l9.3-5.1c0.2-0.1,0.5-0.2,0.8-0.2
		l0.4,0.2c0.4-0.3,0.8-0.4,1-0.4c1.4,0.1,2.3,0.3,2.6,0.6l-0.4,2.8c0.1,0.5,0.2,1,0.2,1.4c-0.9,2.6-2.7,4.8-5.5,6.5l-4.4,3v0.6
		c5.7,8.4,9.8,14.6,12.1,18.8c-0.4,0.6-1,1.4-2,2.4h-0.6c-0.4,0-0.8-0.1-1.2-0.4c-0.7,0.4-1.1,0.6-1.4,0.6l-0.4-0.2
		c-0.7,0.1-1,0.3-1,0.4c0.1,0.3,0.2,0.5,0.2,0.6l-0.4,0.2c-2-1.9-5.8-6.8-11.5-14.5l-0.4-0.2l-2.8,14.3l-1.2,1.4c-0.8,0-1.4-0.3-2-1
		l-0.4,0.2c-1.7-1.2-3.1-2-4.2-2.2l-0.4-0.6v-0.8c1.8-10,4.3-26.8,7.7-50.3C171.8,13.8,172.5,13.5,173.8,13.2z"/>
	<path class="st0" d="M203,30.3h1.5c3.4,2.4,5.2,4.5,5.2,6.4c-3.7,6.3-5.6,13-5.6,20.1v0.6c0.1,2.3,0.5,3.4,1.1,3.4h1.3
		c2.4,0,5.1-2.3,7.9-6.8c2.6-6.3,3.8-11.4,3.8-15.4c0.6-2.5,1.1-3.8,1.5-3.8l0.6,0.4c0.1-0.3,0.2-0.4,0.5-0.4c1.2,0,2.2,1.7,3,5.1
		c0.7,1.1,1.1,2.2,1.1,3.4h-0.2l0.2,0.5c0,11-2.8,18.5-8.3,22.5c-3.2,1.7-5.4,2.6-6.8,2.6c-3.2-0.7-6-2-8.5-3.8
		c-2.5-1.2-4.3-3.4-5.3-6.6l-0.7-3.2c0-9.9,2.3-18,7-24.2L203,30.3z"/>
	<path class="st0" d="M247.1,28.1c0.9,0,2.2,1.1,3.8,3.3c1.8,0.3,3.2,0.9,4.3,1.8c1.2,0.8,2.7,4.5,4.5,11.1c0.2,1.2,0.3,2.7,0.3,4.6
		c0,6.3-3.5,12.1-10.6,17.4c-2.4,1.7-5.7,2.5-9.9,2.5H239c-3.2,0-6.1-2.1-8.8-6.3c-2.7-3.6-4-7-4-10.4c0.2-4.6,3.1-10,8.6-16.2
		l5.8-4.8C241.9,30.3,244.1,29.3,247.1,28.1z M234.9,58l1.3,0.3h0.8c5.5,0,10.4-3.9,14.7-11.7c1.3-2.8,2-5.2,2-7.1
		c0-0.2-0.8-0.6-2.3-1.3c-3.3,2-6.3,4.1-9.1,6.6l-4.8,5.9C235.8,53.7,234.9,56.1,234.9,58z"/>
	<path class="st0" d="M196.5,60.3c-1.1,0.8-2.1,1.6-3.3,2.4c-0.3,0.2,1.2,1.6,0.9,1.8c-1.7,1.2-4.1,2.7-5.7,3.3
		c-0.1,0.1-1.5-0.7-1.7-0.6c-1.4,0.9-2.8,1.9-4.4,2.9c-17,9.7-32.8,14.6-47.5,14.6h-0.5c-3.7,0-8.5-0.4-14.4-1.2
		c0-0.4,1.1-2.4,3.5-6l4.9-9c0.2-0.8,0.9-2.5,2.1-4.9c5.2-14.8,7.8-23.5,7.8-26.1c0-0.3-0.8-0.9-2.3-1.7c-1.4-0.3-2.1-0.7-2.1-1.3
		c-1.2-0.1-1.8-0.3-1.8-0.6l-0.7,0.4h-0.2v-0.6H131c-0.5,0-1.2,2.1-2.3,6.2c-0.9,0.7-1.7,2.2-2.2,4.3c-2.8,5.9-5.6,10.7-8.4,14.4
		c-1.9,2.3-4.5,3.8-7.8,4.5c-1.1,0-1.9-2-2.5-6V54c0-2,1.2-6.7,3.5-14c1.9-4.2,2.9-6.5,2.9-7c-0.9-1.7-2.6-2.5-4.9-2.5l-0.4,0.2
		c0-0.1-0.1-0.2-0.2-0.2c-2.4,2.6-4.4,6.7-6,12.1h-0.2v-0.4h-0.4c-1.1,3.6-1.9,7.3-2.3,11.1c0,0.1,0.1,0.2,0.2,0.2
		c0,4.8,1.3,8.2,3.9,10.1c5,3.5,9,5.2,11.9,5.2c0.5-0.1,1.1-0.2,1.6-0.2h0.9c-1.4,2.8-4,7-7.8,12.5c-0.2,0-1.3-0.3-3.3-1
		c-11.2-4-19-6-23.2-6h-1.7c-7.1,0-13.7,2-20,6c-3.6,3.5-5.4,7.6-5.4,12.3c0,2,0.5,4.1,1.5,6.4c1.7,2.3,3.9,4.5,6.6,6.6
		c5.3,2.6,9.7,3.9,13.4,3.9c0.2-0.1,0.5-0.2,0.8-0.2h2.9c1.6,0,3.9-0.5,6.8-1.3c6.3-2.2,10.9-4.4,13.8-6.6
		c4.1-2.7,8.6-7.1,13.6-13.4c8.2,2.1,15.9,3.1,23.2,3.1c3.4,0,5.9-0.2,7.2-0.5c0,0.1,0.1,0.2,0.2,0.2c4.9-0.6,9.2-1.5,12.7-2.4
		c5.2-1.3,7.8-2.2,7.8-2.5c4.8-1.3,10.1-3.6,15.9-7l-0.4-0.6c0.5,0,1-0.1,1.4-0.4c0.1,0,0.2,0.1,0.2,0.4h0.2c0.3,0,0.4-0.1,0.4-0.4
		v-0.2l-0.2-0.4c0.2,0,0.4,0.1,0.7,0.2c2.3-0.8,3.5-1.6,3.5-2.3h0.6c0.9-0.3,1.4-0.6,1.4-0.8c1.8-1.1,3-1.9,3.5-2.5
		c2.6-1.4,4-2.4,4.1-3.1l1.9-0.9v-0.2l-0.2-0.4c1.2-0.2,1.8-0.5,1.8-0.8c0-0.1-0.3,0.2,0,0C199.7,65.1,197.6,62.8,196.5,60.3z
		 M102.1,44.4l-0.2,1h-0.2v-0.2l0.2-1.2h0.2V44.4z M58.2,89.6h0.3v0.8h-0.3V89.6z M58,91.7h0.2c0,1.2,0.1,2.3,0.3,3.1L58,94.6V91.7z
		 M58.2,96v-1h0.3l0.2,1H58.2z M59.3,87l-0.4,1.5h-0.2v-0.2l0.4-1.5h0.2V87z M107.1,84.9l-2.5,3.1c-3.9,3.9-7.7,7.1-11.3,9.4
		c-8.1,4.3-14.5,6.5-19.3,6.8c-2.2-0.1-3.8-0.3-4.5-0.6c-2.9-1.3-4.3-4.1-4.3-8.4c0-3.8,1.3-6.9,3.5-9.4c5.5-4,11.4-6,17.7-6h0.7
		c4.7,0,11.3,1.6,20,4.7V84.9z M189.1,68.5c-0.3,0-0.6,0.1-0.9,0.4v-0.4c0.2,0,0.4-0.1,0.7-0.2h0.2V68.5z M191.1,67.2h-0.6V67
		c0.2,0,0.4-0.1,0.6-0.2h0.3L191.1,67.2z"/>
</g>
<g>
	<path class="st0" d="M19.3,30.7c2.5,0,5.4,1.4,8.7,4.2c0.8,1.2,1.5,3.6,1.9,7V44c0,3.6-2.1,6.5-6.4,8.7c-1.7,0.7-3.3,1.1-4.8,1.1
		H18c-1.8,0-3.3-0.8-4.6-2.5c-0.5-0.3-1.4-1.9-2.6-4.9h-0.2c-1.5,2.3-2.3,4.7-2.3,7.4c1.2,3.2,3.9,4.9,7.8,5.1
		c2.8,0,6.4-0.9,10.8-2.8l2.5-0.2c0,0.3,0.4,0.8,1.1,1.5c0.2,0.3,0.3,0.6,0.3,0.9l-0.3,1.3c0.2,0.2,0.3,0.6,0.3,1.1
		c0,0.2-0.4,0.7-1.3,1.7l0.5,0.7v0.4c-0.8,1.8-2.4,3.1-4.9,4c-3.2,1-5.5,1.5-7,1.5h-1.7C10.1,69,5.3,63.8,2,53.3
		c-0.1-2.3-0.2-3.6-0.2-4c0-7.6,4.5-13.6,13.5-18C16.8,30.8,18.1,30.7,19.3,30.7z M12.4,44v0.5h2.3c4.3,0,7.2-1.4,8.9-4.2v-0.7
		c-1.2-0.3-2.4-0.4-3.4-0.4C17.5,39.2,14.9,40.8,12.4,44z"/>
	<path class="st0" d="M44.5,2.3c2.3,0.3,3.7,0.8,4.3,1.7c0.5,0,0.9,0.4,1.3,1.1v0.4c-1.8,12.2-2.8,20.6-3.2,25.2h0.2
		c7.2,0,11.9,2.5,13.9,7.6c1.9,3.8,2.8,7,2.8,9.5v2.6c0,7.9-5.9,13.7-17.8,17.4c-1.8,0.4-4.3,0.8-7.6,1.1c-0.4,0-1.7-1.4-3.9-4.1
		c-2-0.5-3-1-3.2-1.5c3.9-20.8,6.7-38,8.5-51.5c0.7-5.9,1.9-8.9,3.4-8.9C43.2,2.6,43.7,2.4,44.5,2.3z M41.7,58.7h0.7
		c9.4-3,14.1-8.2,14.1-15.4v-0.9c0-1.1-1.3-1.9-3.9-2.4h-0.7c-5.1,0.5-7.6,2-7.6,4.5L41.7,58.7z"/>
	<path class="st0" d="M78.2,2.3c2.3,0.3,3.7,0.8,4.3,1.7c0.5,0,0.9,0.4,1.3,1.1v0.4C82,17.7,81,26.1,80.6,30.7h0.2
		c7.2,0,11.9,2.5,13.9,7.6c1.9,3.8,2.8,7,2.8,9.5v2.6c0,7.9-5.9,13.7-17.8,17.4c-1.8,0.4-4.3,0.8-7.6,1.1c-0.4,0-1.7-1.4-3.9-4.1
		c-2-0.5-3-1-3.2-1.5c3.9-20.8,6.7-38,8.5-51.5c0.7-5.9,1.9-8.9,3.4-8.9C76.9,2.6,77.3,2.4,78.2,2.3z M75.4,58.7H76
		c9.4-3,14.1-8.2,14.1-15.4v-0.9c0-1.1-1.3-1.9-3.9-2.4h-0.7c-5.1,0.5-7.6,2-7.6,4.5L75.4,58.7z"/>
	<path class="st0" d="M173.8,13.2c1.3,0,3.5,1.7,6.5,5.1v0.2c-0.7,5.6-1.5,11.4-2.6,17.6h0.2l9.3-5.1c0.2-0.1,0.5-0.2,0.8-0.2
		l0.4,0.2c0.4-0.3,0.8-0.4,1-0.4c1.4,0.1,2.3,0.3,2.6,0.6l-0.4,2.8c0.1,0.5,0.2,1,0.2,1.4c-0.9,2.6-2.7,4.8-5.5,6.5l-4.4,3v0.6
		c5.7,8.4,9.8,14.6,12.1,18.8c-0.4,0.6-1,1.4-2,2.4h-0.6c-0.4,0-0.8-0.1-1.2-0.4c-0.7,0.4-1.1,0.6-1.4,0.6l-0.4-0.2
		c-0.7,0.1-1,0.3-1,0.4c0.1,0.3,0.2,0.5,0.2,0.6l-0.4,0.2c-2-1.9-5.8-6.8-11.5-14.5l-0.4-0.2l-2.8,14.3l-1.2,1.4c-0.8,0-1.4-0.3-2-1
		l-0.4,0.2c-1.7-1.2-3.1-2-4.2-2.2l-0.4-0.6v-0.8c1.8-10,4.3-26.8,7.7-50.3C171.8,13.8,172.5,13.5,173.8,13.2z"/>
	<path class="st0" d="M203,30.3h1.5c3.4,2.4,5.2,4.5,5.2,6.4c-3.7,6.3-5.6,13-5.6,20.1v0.6c0.1,2.3,0.5,3.4,1.1,3.4h1.3
		c2.4,0,5.1-2.3,7.9-6.8c2.6-6.3,3.8-11.4,3.8-15.4c0.6-2.5,1.1-3.8,1.5-3.8l0.6,0.4c0.1-0.3,0.2-0.4,0.5-0.4c1.2,0,2.2,1.7,3,5.1
		c0.7,1.1,1.1,2.2,1.1,3.4h-0.2l0.2,0.5c0,11-2.8,18.5-8.3,22.5c-3.2,1.7-5.4,2.6-6.8,2.6c-3.2-0.7-6-2-8.5-3.8
		c-2.5-1.2-4.3-3.4-5.3-6.6l-0.7-3.2c0-9.9,2.3-18,7-24.2L203,30.3z"/>
	<path class="st0" d="M247.1,28.1c0.9,0,2.2,1.1,3.8,3.3c1.8,0.3,3.2,0.9,4.3,1.8c1.2,0.8,2.7,4.5,4.5,11.1c0.2,1.2,0.3,2.7,0.3,4.6
		c0,6.3-3.5,12.1-10.6,17.4c-2.4,1.7-5.7,2.5-9.9,2.5H239c-3.2,0-6.1-2.1-8.8-6.3c-2.7-3.6-4-7-4-10.4c0.2-4.6,3.1-10,8.6-16.2
		l5.8-4.8C241.9,30.3,244.1,29.3,247.1,28.1z M234.9,58l1.3,0.3h0.8c5.5,0,10.4-3.9,14.7-11.7c1.3-2.8,2-5.2,2-7.1
		c0-0.2-0.8-0.6-2.3-1.3c-3.3,2-6.3,4.1-9.1,6.6l-4.8,5.9C235.8,53.7,234.9,56.1,234.9,58z"/>
	<g>
		<path class="st1" d="M213.3,55l-0.7-0.1l-1.4,0.8l0.4-0.8c0,0-4.1,3.2-4.8,3.6c-0.7,0.4,3.9-3.5,3.9-3.5l0.2-1.1
			c-0.3,0-0.4-0.1-0.4-0.4h-1c-2.4,2.6-0.3-0.1,0.2-0.6c0-0.1-0.1-0.2-0.2-0.2l0.2-0.4c0,0,1,0.1,1.2-0.6l-0.2-0.5
			c0-0.1,0.6-0.7,1.7-1.6l-0.2-0.4V49c0.2,0,0.5-0.2,0.8-0.5c0-0.2-0.1-0.3-0.4-0.4h-0.2c-3.2,2.3-5.7,4.3-7.3,5.8
			c-0.4,3.2-1.3,7,1.1,7C208.1,60.9,211.3,58,213.3,55z M208.2,59.4c0.1-0.3,0.6-0.7,1.4-1h0.2v0.4c-0.4,0-0.9,0.3-1.6,0.9V59.4z"/>
		<path class="st0" d="M213.8,54.3c-0.2,0-0.3,0.1-0.4,0.4l0.1,0.1C213.6,54.7,213.7,54.5,213.8,54.3
			C213.8,54.3,213.8,54.3,213.8,54.3z"/>
	</g>
</g>
</svg>
