<?xml version="1.0" encoding="utf-8"?>
<!-- Generator: Adobe Illustrator 22.0.1, SVG Export Plug-In . SVG Version: 6.00 Build 0)  -->
<svg version="1.1" id="圖層_1" xmlns="http://www.w3.org/2000/svg" xmlns:xlink="http://www.w3.org/1999/xlink" x="0px" y="0px"
	 viewBox="0 0 500 319" style="enable-background:new 0 0 500 319;" xml:space="preserve">
<style type="text/css">
	.st0{clip-path:url(#SVGID_2_);}
	.st1{fill:#FFFCD7;}
	.st2{fill:#FBC600;}
	.st3{fill:#006934;}
	.st4{fill:#0C2F54;}
	.st5{fill:#F7E2A2;}
	.st6{fill:#EA7926;}
	.st7{fill:#527E32;}
	.st8{fill:#F6AA00;}
	.st9{fill:#FFFFFF;}
</style>
<g>
	<g>
		<defs>
			<rect id="SVGID_1_" width="500" height="319"/>
		</defs>
		<clipPath id="SVGID_2_">
			<use xlink:href="#SVGID_1_"  style="overflow:visible;"/>
		</clipPath>
		<g class="st0">
			<rect class="st1" width="500" height="319"/>
			<g>
				<g>
					<path class="st2" d="M125.6,87.7c0,0,5.7-2.5,5.6-4.9s-1.8-6.7,1.2-9.6s5.8-5.7,6.3-7.8c0.4-2.1-0.7-6.4,2.6-10.4
						c3.4-4,4.6-10.8,2.9-14.9c-1.6-4.1-3-8.9-2.1-12.8s2.3-12.7-0.2-17.2s-5.4-5.6-2.8-11.8c1.8-4.1-6.3-11.4-6.3-11.4
						S135.2-8,134.6-3c-0.7,5-4.3,7.4-5.2,9.7s3.1,5.1,2.2,10.2c-0.9,5.1-6.1,10.8-5,13.9s3.1,9.1,1.5,11.2
						c-1.6,2.1-6.2,6.2-6.6,9.5s0.8,8.8-1,12.3S115,69,115,69L125.6,87.7z"/>
				</g>
				<g>
					<path class="st2" d="M70.2,77c0,0-3.8-2.3-3.6-4c0.3-1.7,1.9-4.6,0-6.9c-1.9-2.3-3.7-4.5-3.8-6s1.1-4.5-1-7.6
						c-2-3.1-2.3-8.1-0.8-10.8s2.9-6,2.5-8.9c-0.3-2.9-0.6-9.2,1.6-12.2c2.1-3,4.3-3.5,2.9-8.1c-0.9-3.1,5.4-7.6,5.4-7.6
						s-2.2,3.4-2.1,7c0,3.6,2.4,5.6,2.8,7.3c0.4,1.7-2.6,3.4-2.4,7.1s3.4,8.2,2.4,10.3c-1,2.1-3,6.2-2,7.8s3.9,4.9,3.9,7.3
						c0,2.4-1.3,6.2-0.3,8.8s3.5,4.1,3.5,4.1L70.2,77z"/>
				</g>
				<g>
					<g>
						<path class="st3" d="M114.3,71.6c-0.7-3.8,0.7-5.2,1.7-8.7c0.7-2.5,0.3-5,0.4-7.4c0.3-6.6,4.8-11.3,5.6-17.8
							c0.7-6.1,2.7-11.7,3.2-17.7c0.1-0.6,0-1.4,0.2-1.9c1.4,5.9,0.7,11.7,2.8,17.3c1.1,3,1.7,6.4,1.8,9.6c0,2.9-1.3,7.1-0.8,9.7
							c0.6,2.9,3.9,4.7,5,7.6s1.3,5.7,1.1,8.6c-0.4,5.6-2.9,11.9-9.4,12.7C119.5,84.5,115.3,76.8,114.3,71.6z"/>
					</g>
					<g>
						<path class="st2" d="M125.1,37c-0.2,0-0.3,0.2-0.3,0.3c-1.7,5.3-1,7.3-0.1,9.7c0.5,1.4,1,2.9,1.1,5.4c0,3.6-1,4.6-2.1,5.6
							c-1,1-2.1,2-2.2,5c-0.2,3.8,2.1,5.6,4,7.3c1.3,1.1,2.5,2.1,2.9,3.5c0.9,3.3-4,5.8-4,5.8c-0.2,0.1-0.3,0.4-0.2,0.6
							c0.1,0.2,0.4,0.3,0.6,0.2c0.2-0.1,5.5-2.9,4.5-6.9c-0.4-1.7-1.8-2.8-3.2-4c-1.9-1.6-3.8-3.2-3.7-6.5c0.1-2.6,0.9-3.4,1.9-4.3
							c1.1-1.1,2.4-2.3,2.4-6.3c0-2.6-0.6-4.3-1.1-5.7c-0.8-2.2-1.5-4.1,0.2-9.1c0.1-0.2-0.1-0.5-0.3-0.6
							C125.3,37,125.2,37,125.1,37z"/>
					</g>
					<g>
						<path class="st2" d="M119.1,71.2C119.1,71.2,119,71.2,119.1,71.2c-0.2,0.2-0.2,0.3-0.1,0.4l4.2,4c0.1,0.1,0.2,0.1,0.3,0
							c0.1-0.1,0.1-0.2,0-0.3l-4.2-4C119.3,71.2,119.2,71.2,119.1,71.2z"/>
					</g>
					<g>
						<path class="st2" d="M130.4,63c-0.1,0-0.1,0.1-0.2,0.1l-1.7,4.7c0,0.1,0,0.3,0.1,0.3s0.3,0,0.3-0.1l1.7-4.7
							c0-0.1,0-0.3-0.1-0.3C130.5,63,130.5,63,130.4,63z"/>
					</g>
					<g>
						<path class="st2" d="M120.4,50.9C120.3,50.9,120.3,50.9,120.4,50.9c-0.1,0.1-0.2,0.2-0.2,0.3l1.5,4c0,0.1,0.2,0.2,0.3,0.1
							c0.1,0,0.2-0.2,0.1-0.3l-1.5-4C120.6,50.9,120.5,50.8,120.4,50.9z"/>
					</g>
					<g>
						<path class="st2" d="M118.7,64.5C118.6,64.5,118.6,64.5,118.7,64.5c-0.2,0.1-0.2,0.2-0.1,0.3l1.8,3.1c0.1,0.1,0.2,0.2,0.3,0.1
							c0.1-0.1,0.2-0.2,0.1-0.3l-1.8-3.1C118.9,64.5,118.8,64.4,118.7,64.5z"/>
					</g>
				</g>
				<g>
					<path class="st4" d="M99.8,95.8c0,0-4.4-4.6-3.4-6.8c1-2.2,4.3-5.6,2.5-9.5s-3.3-7.6-2.9-9.7S99.1,64,97.5,59
						c-1.6-5.1-0.2-12,2.9-15.2s6.2-7.2,6.8-11.3c0.6-4.1,2.7-12.9,6.7-16.2c4.1-3.3,7.2-3.2,7.1-10.1c-0.1-4.6,10.3-8.4,10.3-8.4
						s-4.2,3.8-5.5,8.8s1.2,8.6,1.2,11.1c-0.1,2.5-4.9,3.6-6,8.8s1.6,12.5-0.6,15s-6.4,7.4-5.7,10c0.7,2.6,3.5,8.2,2.6,11.4
						s-4.1,8-3.8,12c0.4,4,3.2,7,3.2,7L99.8,95.8z"/>
				</g>
				<g>
					<path class="st2" d="M27.4,92.3c0,0-5.3-3.3-4.9-5.6c0.4-2.4,2.7-6.4,0.1-9.7c-2.6-3.3-5-6.4-5.2-8.5
						c-0.1-2.1,1.6-6.2-1.2-10.7c-2.8-4.4-3.1-11.4-1-15.2c2.1-3.8,4.2-8.4,3.7-12.4c-0.4-4-0.6-12.9,2.4-17
						c3.1-4.1,6.1-4.8,4.3-11.3c-1.2-4.3,7.7-10.5,7.7-10.5s-3.1,4.7-3.1,9.7S33.5,9,34,11.4c0.6,2.4-3.8,4.6-3.5,9.8
						c0.2,5.2,4.6,11.5,3.2,14.4c-1.5,3-4.3,8.6-3,10.9C32,49,36,53.6,35.9,56.9c-0.1,3.3-2,8.6-0.6,12.3c1.3,3.7,4.8,5.9,4.8,5.9
						L27.4,92.3z"/>
				</g>
				<g>
					<g>
						<path class="st3" d="M24.2,48.2c0.7-3.8-0.8-5.2-1.8-8.6c-0.7-2.5-0.3-5-0.4-7.4c-0.3-6.6-4.9-11.3-5.7-17.8
							c-0.8-6.1-2.8-11.6-3.4-17.7c-0.1-0.6,0-1.4-0.2-1.9c-1.4,5.9-0.6,11.7-2.6,17.4c-1.1,3.1-1.7,6.5-1.7,9.6
							c0,2.9,1.4,7.1,0.9,9.7c-0.6,2.9-3.8,4.8-4.9,7.6c-1.1,2.9-1.3,5.7-1,8.6c0.4,5.6,3,11.9,9.5,12.6
							C19.1,61.1,23.2,53.4,24.2,48.2z"/>
					</g>
					<g>
						<path class="st2" d="M13.1,13.7c0.2,0,0.3,0.2,0.3,0.3c1.8,5.3,1.1,7.3,0.2,9.7c-0.5,1.4-1,2.9-1,5.4c0,3.6,1,4.6,2.1,5.6
							c1,1,2.1,2,2.3,5c0.2,3.8-2,5.6-4,7.3c-1.3,1.1-2.5,2.1-2.8,3.5c-0.8,3.3,4,5.8,4,5.8c0.2,0.1,0.3,0.4,0.2,0.6
							c-0.1,0.2-0.4,0.3-0.6,0.2c-0.2-0.1-5.6-2.8-4.5-6.9c0.4-1.7,1.8-2.8,3.1-4c1.9-1.6,3.8-3.3,3.6-6.5c-0.1-2.6-1-3.4-2-4.3
							c-1.1-1.1-2.4-2.3-2.4-6.3c0-2.6,0.6-4.3,1.1-5.7c0.8-2.2,1.4-4.1-0.2-9.1c-0.1-0.2,0-0.5,0.3-0.6
							C13,13.6,13.1,13.6,13.1,13.7z"/>
					</g>
					<g>
						<path class="st2" d="M19.4,47.9c0,0,0.1,0,0.1,0.1c0.1,0.1,0.1,0.2,0,0.3l-4.1,4c-0.1,0.1-0.2,0.1-0.3,0s-0.1-0.2,0-0.3l4.1-4
							C19.2,47.9,19.3,47.8,19.4,47.9z"/>
					</g>
					<g>
						<path class="st2" d="M8,39.7c0.1,0,0.1,0.1,0.2,0.1l1.8,4.7c0,0.1,0,0.3-0.1,0.3s-0.3,0-0.3-0.1L7.8,40c0-0.1,0-0.3,0.1-0.3
							C7.9,39.7,8,39.7,8,39.7z"/>
					</g>
					<g>
						<path class="st2" d="M18,27.5L18,27.5c0.1,0.1,0.2,0.2,0.2,0.3l-1.5,4c0,0.1-0.2,0.2-0.3,0.1c-0.1,0-0.2-0.2-0.1-0.3l1.5-4
							C17.8,27.6,17.9,27.5,18,27.5z"/>
					</g>
					<g>
						<path class="st2" d="M19.8,41.1C19.8,41.1,19.9,41.1,19.8,41.1c0.2,0.1,0.2,0.2,0.1,0.3l-1.8,3.2c-0.1,0.1-0.2,0.2-0.3,0.1
							c-0.1-0.1-0.2-0.2-0.1-0.3l1.8-3.2C19.6,41.1,19.7,41.1,19.8,41.1z"/>
					</g>
				</g>
				<g>
					<path class="st4" d="M8.1,94.4c0,0,5-3.9,4.3-6.3s-3.5-6.2-1.3-9.8c2.3-3.6,4.3-7.1,4.2-9.2s-2.3-6.1,0-10.9s1.7-11.8-0.9-15.4
						c-2.6-3.6-5.2-8-5.3-12.1s-1-13.1-4.5-16.9C1,10-2.1,9.7-1.1,2.9c0.7-4.5-9.1-9.6-9.1-9.6s3.7,4.4,4.3,9.5s-2.3,8.3-2.6,10.9
						c-0.3,2.5,4.4,4.2,4.8,9.5s-3.3,12.2-1.4,15s5.4,8.2,4.3,10.7s-4.5,7.7-4,11s3,8.5,2.1,12.3c-0.9,3.9-4.1,6.5-4.1,6.5L8.1,94.4
						z"/>
				</g>
				<g>
					<g>
						<path class="st4" d="M78.5,83.1c-6.9-4.6-6.6-14.6-5.9-22.2c0.5-5.1,0.2-7.2-1-12.5c-1-4-1.7-7.8,0.3-11.4
							c2.2-4,5-6.4,6.6-10.9c1.3-3.9,2.3-7.8,3.7-11.7C85.9,4.4,89.8-4.1,98-13c-5.9,9,3.3,16.2,3.1,24.9c-0.1,4-1.3,10.1-1.9,14
							c-0.7,5.1-3.7,7.8-5.9,12.3c-4.9,10.2,1.3,15.5,3.8,25.5c1.3,5.4,0.3,9.7,2.5,14.9c1.6,3.9,7.7,15.8,0.3,14.2
							c-0.7-0.1-2.3-2.9-3.1-3.4c-1.6-1.1-3.8-1.4-5.6-1.9C87,86.1,82.3,85.7,78.5,83.1z"/>
					</g>
					<g>
						<path class="st2" d="M93.4,11.2c-0.1-0.2-0.4-0.3-0.6-0.3c-0.4,0-0.7,0.4-0.6,0.8c0.7,6.3-2.6,17.2-6.3,21.1
							c-3.8,4-6.2,11.5-2.6,18.3c3.1,5.9,3.7,11.6,1.7,17c-2.1,5.8,2.8,11,3,11.2c0.3,0.3,0.7,0.3,1,0s0.3-0.7,0-1l0,0
							c0,0-4.4-4.7-2.7-9.7c2.1-5.8,1.5-11.9-1.8-18.3c-3.3-6.2-1.1-13,2.4-16.6c3.9-4.2,7.3-15.6,6.6-22.2
							C93.5,11.4,93.5,11.3,93.4,11.2z"/>
					</g>
					<g>
						<path class="st2" d="M95.8,69.4C95.7,69.4,95.7,69.4,95.8,69.4c-0.2-0.2-0.4-0.2-0.6,0l-4.1,5.3c-0.1,0.2-0.1,0.4,0.1,0.5
							s0.4,0.1,0.5,0l4.1-5.3C95.9,69.7,95.9,69.5,95.8,69.4z"/>
					</g>
					<g>
						<path class="st2" d="M89.9,42.1c-0.1-0.1-0.3-0.2-0.5-0.1l-3.8,2.8c-0.2,0.1-0.2,0.3-0.1,0.5s0.3,0.2,0.5,0.1l3.8-2.8
							C90.1,42.5,90.1,42.3,89.9,42.1C90,42.1,90,42.1,89.9,42.1z"/>
					</g>
					<g>
						<path class="st2" d="M83.3,69.9L83.3,69.9l-5.2-4.1c-0.2-0.1-0.4-0.1-0.5,0.1s-0.1,0.4,0.1,0.5l5.2,4c0.2,0.1,0.4,0.1,0.5-0.1
							C83.4,70.2,83.4,70,83.3,69.9z"/>
					</g>
					<g>
						<path class="st2" d="M81.3,58.1C81.3,58.1,81.2,58.1,81.3,58.1l-4.7-3.5c-0.2-0.1-0.4-0.1-0.5,0.1c-0.1,0.2-0.1,0.4,0.1,0.5
							l4.7,3.5c0.2,0.1,0.4,0.1,0.5-0.1C81.4,58.4,81.4,58.2,81.3,58.1z"/>
					</g>
					<g>
						<path class="st2" d="M78.1,44C78.1,44,78.1,43.9,78.1,44l-4.2-3c-0.2-0.1-0.4-0.1-0.5,0.1c-0.1,0.2-0.1,0.4,0.1,0.5l4.2,2.9
							c0.2,0.1,0.4,0.1,0.5-0.1C78.3,44.3,78.2,44.1,78.1,44z"/>
					</g>
					<g>
						<path class="st2" d="M83.1,20.6c-0.1-0.1-0.3-0.2-0.5-0.1s-0.2,0.3-0.1,0.5l3.9,6.1c0.1,0.2,0.3,0.2,0.5,0.1s0.2-0.3,0.1-0.5
							L83.1,20.6C83.1,20.7,83.1,20.6,83.1,20.6z"/>
					</g>
					<g>
						<path class="st2" d="M97.8,24.1c-0.1-0.2-0.4-0.2-0.5,0l-3.2,2.8c-0.1,0.1-0.2,0.4,0,0.5c0.1,0.2,0.4,0.2,0.5,0l3.2-2.8
							C98,24.5,98,24.3,97.8,24.1z"/>
					</g>
				</g>
				<g>
					<g>
						<path class="st4" d="M44.9,71.9C38,67.3,38.3,57.3,39,49.7c0.5-5.1,0.2-7.2-1-12.5c-1-4-1.7-7.8,0.3-11.4
							c2.2-4,5-6.4,6.6-10.9c1.3-3.9,2.3-7.8,3.7-11.7c3.7-10,7.6-18.5,15.8-27.4c-5.9,9,3.3,16.2,3.1,24.9c-0.1,4-1.3,10.1-1.9,14
							c-0.7,5.1-3.7,7.8-5.9,12.3c-4.9,10.2,1.3,15.5,3.8,25.5c1.3,5.4,0.3,9.7,2.5,14.9c1.6,3.9,7.7,15.8,0.3,14.2
							c-0.7-0.1-2.3-2.9-3.1-3.4c-1.6-1.1-3.8-1.4-5.6-1.9C53.5,75,48.7,74.5,44.9,71.9z"/>
					</g>
					<g>
						<path class="st2" d="M59.8,0c-0.1-0.2-0.4-0.3-0.6-0.3c-0.4,0-0.7,0.4-0.6,0.8c0.7,6.3-2.6,17.2-6.3,21.1
							c-3.8,4-6.2,11.5-2.6,18.3c3.1,5.9,3.7,11.7,1.7,17.1c-2.1,5.8,2.8,11,3,11.2c0.3,0.3,0.7,0.3,1,0s0.3-0.7,0-1l0,0
							c0,0-4.4-4.7-2.7-9.7c2.1-5.8,1.5-11.9-1.8-18.3c-3.3-6.2-1.1-13,2.4-16.6c4-4.1,7.4-15.6,6.7-22.2C60,0.2,59.9,0.1,59.8,0z"
							/>
					</g>
					<g>
						<path class="st2" d="M62.2,58.2L62.2,58.2c-0.2-0.2-0.4-0.2-0.6,0l-4.1,5.3c-0.1,0.2-0.1,0.4,0.1,0.5c0.2,0.1,0.4,0.1,0.5,0
							l4.1-5.3C62.3,58.6,62.3,58.4,62.2,58.2z"/>
					</g>
					<g>
						<path class="st2" d="M56.4,30.9c-0.1-0.1-0.3-0.2-0.5-0.1l-3.8,2.8c-0.2,0.1-0.2,0.3-0.1,0.5c0.1,0.2,0.3,0.2,0.5,0.1l3.8-2.8
							C56.5,31.3,56.5,31.1,56.4,30.9L56.4,30.9z"/>
					</g>
					<g>
						<path class="st2" d="M49.7,58.7L49.7,58.7l-5.2-4.1c-0.2-0.1-0.4-0.1-0.5,0.1c-0.1,0.2-0.1,0.4,0.1,0.5l5.2,4
							c0.2,0.1,0.4,0.1,0.5-0.1C49.9,59,49.9,58.8,49.7,58.7z"/>
					</g>
					<g>
						<path class="st2" d="M47.7,46.9L47.7,46.9L43,43.4c-0.2-0.1-0.4-0.1-0.5,0.1c-0.1,0.2-0.1,0.4,0.1,0.5l4.7,3.5
							c0.2,0.1,0.4,0.1,0.5-0.1C47.8,47.2,47.8,47,47.7,46.9z"/>
					</g>
					<g>
						<path class="st2" d="M44.6,32.8C44.5,32.8,44.5,32.8,44.6,32.8l-4.2-3c-0.2-0.1-0.4-0.1-0.5,0.1s-0.1,0.4,0.1,0.5l4.2,2.9
							c0.2,0.1,0.4,0.1,0.5-0.1C44.7,33.1,44.7,32.9,44.6,32.8z"/>
					</g>
					<g>
						<path class="st2" d="M49.5,9.4c-0.1-0.1-0.3-0.2-0.5-0.1c-0.2,0.1-0.2,0.3-0.1,0.5l3.9,6.1c0.1,0.2,0.3,0.2,0.5,0.1
							s0.2-0.3,0.1-0.5L49.5,9.4C49.6,9.5,49.6,9.5,49.5,9.4z"/>
					</g>
					<g>
						<path class="st2" d="M64.3,12.9c-0.1-0.2-0.4-0.2-0.5,0l-3.2,2.8c-0.1,0.1-0.2,0.4,0,0.5c0.1,0.2,0.4,0.2,0.5,0l3.2-2.8
							C64.4,13.3,64.4,13.1,64.3,12.9z"/>
					</g>
				</g>
				<g>
					<g>
						<path class="st3" d="M93.6,84.5c-3.7-5.4-4-9.8-3.7-16.2c0.2-5.9,1.3-12.1,2.1-18c0.7-5.6,0.7-11.1,1.5-16.5
							c0.9-5.7,2.2-13.8,4.9-18.8c1.4-2.6,3.7-4.5,5-7.4c1.1-2.5,1.5-5.5,2.8-7.8c0.5,2.7-0.5,5.4-0.5,8.1c0,3,0.9,4.2,2.3,7
							c3.1,6.3-2.6,9.3-1.1,15.3c0.7,2.7,1.7,4.6,1.3,7.6c-0.5,3.2-2.6,6.1-3,9.4c-0.7,5.7,3.9,9.8,4.1,15.5c0.1,3.2-2,6.2-1.9,9.2
							c0.1,2.5,2,4.7,2.9,6.9c1.7,4.1,4.4,12.1-1.1,14.6C103.2,96.3,96.5,88.7,93.6,84.5z"/>
					</g>
					<g>
						<path class="st2" d="M103.2,19.7c0.1,0.1,0.1,0.3,0,0.4c-0.2,0.5-0.5,0.9-0.8,1.4c-1.2,2-2.5,4.3-1.2,8.7
							c1.3,4.1,1.7,9.6-0.1,12.6c-1.1,1.8-2.9,6.5-1.2,11.2c1.6,4.7,2.6,12.3,0.3,19.4c-2,6.4,4.6,12.8,4.7,12.9
							c0.2,0.2,0.2,0.5,0,0.7s-0.5,0.2-0.7,0c-0.1-0.1-1.8-1.7-3.3-4.3c-2-3.4-2.6-6.7-1.6-9.6c2.2-6.9,1.3-14.2-0.3-18.8
							c-1.8-5,0-10,1.3-12.1c1.7-2.7,1.3-7.9,0-11.8c-1.5-4.7,0-7.3,1.3-9.4c0.3-0.5,0.5-0.9,0.7-1.4c0.1-0.2,0.4-0.3,0.6-0.2
							C103.1,19.5,103.1,19.6,103.2,19.7z"/>
					</g>
					<g>
						<path class="st2" d="M106.5,77.9c0,0.1,0,0.2,0,0.2c-0.3,0.7-1.5,3-1.9,3.2c-0.1,0.1-0.3,0-0.3-0.1c-0.1-0.1,0-0.3,0.1-0.3
							c0.2-0.2,1.1-1.7,1.7-3C106.2,77.8,106.3,77.7,106.5,77.9C106.5,77.8,106.5,77.8,106.5,77.9z"/>
					</g>
					<g>
						<path class="st2" d="M106.5,61.3c0,0.1,0,0.2,0,0.3l-3.1,4.1c-0.1,0.1-0.2,0.1-0.3,0c-0.1-0.1-0.1-0.2,0-0.3l3.1-4.1
							C106.2,61.2,106.3,61.2,106.5,61.3C106.4,61.3,106.5,61.3,106.5,61.3z"/>
					</g>
					<g>
						<path class="st2" d="M103.8,50.9c0,0.1,0,0.2,0,0.2l-1.6,3.4c-0.1,0.1-0.2,0.2-0.3,0.1c-0.1-0.1-0.2-0.2-0.1-0.3l1.6-3.4
							C103.5,50.8,103.6,50.7,103.8,50.9C103.7,50.8,103.8,50.8,103.8,50.9z"/>
					</g>
					<g>
						<path class="st2" d="M97.2,68.3c0.1,0.1,0,0.2,0,0.3c-0.1,0.1-0.2,0.1-0.3,0l-4-4.4c-0.1-0.1-0.1-0.2,0-0.3
							c0.1-0.1,0.2-0.1,0.3,0L97.2,68.3C97.1,68.3,97.1,68.3,97.2,68.3z"/>
					</g>
					<g>
						<path class="st2" d="M94.6,54.1L94.6,54.1l3.1,6c0.1,0.1,0,0.3-0.1,0.3c-0.1,0.1-0.3,0-0.3-0.1l-3.1-5.9
							c-0.1-0.1,0-0.3,0.1-0.3C94.4,53.9,94.5,54,94.6,54.1z"/>
					</g>
					<g>
						<path class="st2" d="M99.1,39.2c0.1,0.1,0,0.2,0,0.3c-0.1,0.1-0.3,0.1-0.3,0l-3.3-3.9c-0.1-0.1-0.1-0.3,0-0.3
							c0.1-0.1,0.3-0.1,0.3,0L99.1,39.2L99.1,39.2z"/>
					</g>
					<g>
						<path class="st2" d="M106.6,34.5c0.1,0.1,0,0.2,0,0.3l-2.2,1.9c-0.1,0.1-0.2,0.1-0.3,0c-0.1-0.1-0.1-0.2,0-0.3l2.2-1.9
							C106.3,34.3,106.5,34.3,106.6,34.5C106.6,34.4,106.6,34.4,106.6,34.5z"/>
					</g>
					<g>
						<path class="st2" d="M99,82.1c0,0.1,0,0.2,0,0.3c-0.1,0.1-0.2,0.1-0.3,0.1l-5-3.6c-0.1-0.1-0.1-0.2-0.1-0.3
							c0.1-0.1,0.2-0.1,0.3-0.1L99,82.1C99,82,99,82,99,82.1z"/>
					</g>
				</g>
				<g>
					<path class="st2" d="M468.3,111.6c0,0,2.7-1.6,2.5-2.8c-0.2-1.2-1.3-3.2,0-4.8c1.3-1.6,2.6-3.1,2.6-4.2
						c0.1-1.1-0.7-3.1,0.7-5.3c1.4-2.2,1.6-5.6,0.6-7.5s-2-4.2-1.8-6.2s0.4-6.4-1.1-8.5s-3-2.4-2.1-5.7c0.6-2.1-3.8-5.3-3.8-5.3
						s1.5,2.4,1.5,4.9c0,2.5-1.7,3.9-2,5.1s1.8,2.3,1.7,4.9c-0.1,2.6-2.4,5.7-1.7,7.2c0.7,1.5,2.1,4.3,1.4,5.5
						c-0.7,1.1-2.7,3.4-2.7,5.1c0,1.6,0.9,4.3,0.2,6.1c-0.7,1.8-2.4,2.9-2.4,2.9L468.3,111.6z"/>
				</g>
				<g>
					<path class="st4" d="M447.7,124.7c0,0,3.1-3.2,2.4-4.7c-0.7-1.6-3-3.9-1.8-6.6s2.3-5.3,2-6.8s-2.2-4-1-7.5
						c1.1-3.5,0.1-8.3-2-10.6c-2.1-2.2-4.3-5-4.8-7.8c-0.4-2.8-1.9-9-4.7-11.3c-2.8-2.3-5-2.2-4.9-7c0.1-3.2-7.1-5.8-7.1-5.8
						s3,2.7,3.9,6.1c0.9,3.5-0.8,6-0.8,7.8c0,1.8,3.4,2.5,4.2,6.1c0.8,3.6-1.1,8.7,0.4,10.5s4.5,5.1,4,7c-0.5,1.8-2.4,5.7-1.8,8
						s2.9,5.6,2.6,8.3c-0.3,2.8-2.2,4.9-2.2,4.9L447.7,124.7z"/>
				</g>
				<g>
					<g>
						<path class="st4" d="M462.6,115.9c4.8-3.2,4.6-10.2,4.1-15.5c-0.3-3.5-0.2-5,0.7-8.7c0.7-2.8,1.2-5.5-0.2-7.9
							c-1.5-2.8-3.5-4.4-4.6-7.6c-0.9-2.7-1.6-5.4-2.6-8.2c-2.6-7-5.3-12.9-11-19.1c4.1,6.3-2.3,11.3-2.2,17.3c0,2.8,0.9,7,1.3,9.8
							c0.5,3.6,2.6,5.4,4.1,8.6c3.4,7.1-0.9,10.8-2.7,17.8c-0.9,3.7-0.2,6.7-1.7,10.4c-1.1,2.7-5.4,11-0.2,9.9
							c0.5-0.1,1.6-2,2.1-2.4c1.1-0.8,2.6-1,3.9-1.4C456.6,118,459.9,117.6,462.6,115.9z"/>
					</g>
					<g>
						<path class="st2" d="M452.2,65.7c0.1-0.1,0.3-0.2,0.4-0.2c0.3,0,0.5,0.3,0.4,0.5c-0.5,4.4,1.8,12,4.4,14.7
							c2.6,2.8,4.3,8,1.8,12.8c-2.2,4.1-2.6,8.1-1.2,11.9c1.5,4-1.9,7.7-2.1,7.8c-0.2,0.2-0.5,0.2-0.7,0s-0.2-0.5,0-0.7l0,0
							c0,0,3.1-3.3,1.8-6.7c-1.5-4-1.1-8.3,1.3-12.7c2.3-4.3,0.7-9-1.7-11.6c-2.7-2.9-5.1-10.9-4.6-15.5
							C452,65.9,452.1,65.8,452.2,65.7z"/>
					</g>
					<g>
						<path class="st2" d="M450.5,106.3L450.5,106.3c0.1-0.1,0.3-0.1,0.4,0l2.8,3.7c0.1,0.1,0.1,0.3-0.1,0.4c-0.1,0.1-0.3,0.1-0.4,0
							l-2.8-3.7C450.4,106.5,450.4,106.4,450.5,106.3z"/>
					</g>
					<g>
						<path class="st2" d="M454.5,87.3c0.1-0.1,0.2-0.1,0.3,0l2.7,1.9c0.1,0.1,0.1,0.2,0,0.4c-0.1,0.1-0.2,0.1-0.4,0.1l-2.7-1.9
							C454.5,87.6,454.4,87.4,454.5,87.3L454.5,87.3z"/>
					</g>
					<g>
						<path class="st2" d="M459.2,106.6L459.2,106.6l3.6-2.8c0.1-0.1,0.3-0.1,0.4,0s0.1,0.3-0.1,0.4l-3.6,2.8
							c-0.1,0.1-0.3,0.1-0.4,0C459.1,106.9,459.1,106.7,459.2,106.6z"/>
					</g>
					<g>
						<path class="st2" d="M460.6,98.4L460.6,98.4l3.3-2.5c0.1-0.1,0.3-0.1,0.3,0c0.1,0.1,0,0.3-0.1,0.4l-3.3,2.4
							c-0.1,0.1-0.3,0.1-0.3,0C460.5,98.6,460.5,98.5,460.6,98.4z"/>
					</g>
					<g>
						<path class="st2" d="M462.8,88.6L462.8,88.6l3-2.1c0.1-0.1,0.3-0.1,0.3,0.1c0.1,0.1,0,0.3-0.1,0.4l-2.9,2
							c-0.1,0.1-0.3,0.1-0.3-0.1C462.7,88.8,462.7,88.7,462.8,88.6z"/>
					</g>
					<g>
						<path class="st2" d="M459.3,72.3c0.1-0.1,0.2-0.1,0.3-0.1c0.1,0.1,0.1,0.2,0.1,0.3l-2.7,4.3c-0.1,0.1-0.2,0.2-0.3,0.1
							c-0.1-0.1-0.1-0.2-0.1-0.3L459.3,72.3L459.3,72.3z"/>
					</g>
					<g>
						<path class="st2" d="M449.1,74.7c0.1-0.1,0.3-0.1,0.4,0l2.2,2c0.1,0.1,0.1,0.3,0,0.4s-0.3,0.1-0.4,0l-2.2-2
							C449,75,449,74.8,449.1,74.7z"/>
					</g>
				</g>
				<g>
					<g>
						<path class="st4" d="M483.1,111.8c3.7-2.5,3.5-7.9,3.2-12c-0.3-2.7-0.1-3.9,0.6-6.7c0.5-2.2,0.9-4.2-0.1-6.2
							c-1.2-2.1-2.7-3.4-3.5-5.9c-0.7-2.1-1.2-4.2-2-6.3c-2-5.4-4.1-10-8.5-14.8c3.2,4.9-1.8,8.7-1.7,13.4c0,2.2,0.7,5.4,1,7.6
							c0.4,2.8,2,4.2,3.2,6.6c2.6,5.5-0.7,8.4-2.1,13.8c-0.7,2.9-0.2,5.2-1.3,8.1c-0.9,2.1-4.2,8.5-0.1,7.7c0.4-0.1,1.2-1.6,1.7-1.9
							c0.9-0.6,2-0.8,3-1C478.5,113.5,481.1,113.2,483.1,111.8z"/>
					</g>
					<g>
						<path class="st2" d="M475.1,73c0.1-0.1,0.2-0.1,0.3-0.1c0.2,0,0.4,0.2,0.3,0.4c-0.4,3.4,1.4,9.3,3.4,11.4
							c2,2.2,3.3,6.2,1.4,9.9c-1.7,3.2-2,6.3-0.9,9.2c1.1,3.1-1.5,5.9-1.6,6c-0.2,0.2-0.4,0.2-0.6,0c-0.2-0.1-0.1-0.4,0-0.6l0,0
							c0,0,2.4-2.6,1.4-5.2c-1.1-3.1-0.8-6.4,1-9.8s0.6-7-1.3-9c-2.1-2.2-3.9-8.4-3.6-12C475,73.1,475,73,475.1,73z"/>
					</g>
					<g>
						<path class="st2" d="M473.8,104.4L473.8,104.4c0.1-0.1,0.2-0.1,0.3,0l2.2,2.9c0.1,0.1,0,0.2,0,0.3c-0.1,0.1-0.2,0.1-0.3,0
							l-2.2-2.9C473.7,104.6,473.7,104.5,473.8,104.4z"/>
					</g>
					<g>
						<path class="st2" d="M476.9,89.7c0.1-0.1,0.2-0.1,0.3,0l2.1,1.5c0.1,0.1,0.1,0.2,0,0.3c-0.1,0.1-0.2,0.1-0.3,0.1l-2-1.6
							C476.9,89.9,476.8,89.8,476.9,89.7L476.9,89.7z"/>
					</g>
					<g>
						<path class="st2" d="M480.5,104.7L480.5,104.7l2.8-2.2c0.1-0.1,0.2-0.1,0.3,0c0.1,0.1,0,0.2,0,0.3l-2.8,2.2
							c-0.1,0.1-0.2,0.1-0.3,0C480.4,104.9,480.5,104.8,480.5,104.7z"/>
					</g>
					<g>
						<path class="st2" d="M481.6,98.3L481.6,98.3l2.6-1.9c0.1-0.1,0.2,0,0.3,0c0.1,0.1,0,0.2-0.1,0.3l-2.5,1.9
							c-0.1,0.1-0.2,0-0.3,0C481.5,98.5,481.5,98.4,481.6,98.3z"/>
					</g>
					<g>
						<path class="st2" d="M483.3,90.7L483.3,90.7l2.3-1.6c0.1-0.1,0.2,0,0.3,0c0.1,0.1,0,0.2-0.1,0.3l-2.3,1.6
							c-0.1,0.1-0.2,0-0.3,0C483.2,90.9,483.2,90.8,483.3,90.7z"/>
					</g>
					<g>
						<path class="st2" d="M480.6,78.1c0.1-0.1,0.2-0.1,0.2,0c0.1,0.1,0.1,0.2,0.1,0.3l-2.1,3.3c-0.1,0.1-0.2,0.1-0.3,0.1
							c-0.1-0.1-0.1-0.2-0.1-0.3L480.6,78.1L480.6,78.1z"/>
					</g>
					<g>
						<path class="st2" d="M472.7,80c0.1-0.1,0.2-0.1,0.3,0l1.7,1.5c0.1,0.1,0.1,0.2,0,0.3c-0.1,0.1-0.2,0.1-0.3,0l-1.7-1.5
							C472.6,80.2,472.6,80.1,472.7,80z"/>
					</g>
				</g>
				<g>
					<g>
						<path class="st3" d="M452,116.8c2.6-3.8,2.8-6.8,2.6-11.3c-0.2-4.1-0.9-8.4-1.4-12.5c-0.5-3.9-0.5-7.7-1.1-11.5
							c-0.6-3.9-1.5-9.6-3.4-13.1c-1-1.8-2.6-3.2-3.5-5.1c-0.8-1.7-1-3.8-1.9-5.5c-0.3,1.9,0.4,3.8,0.4,5.7c0,2.1-0.6,2.9-1.6,4.9
							c-2.1,4.4,1.8,6.5,0.8,10.7c-0.5,1.9-1.2,3.2-0.9,5.3c0.3,2.3,1.8,4.2,2.1,6.5c0.5,4-2.7,6.8-2.8,10.8
							c-0.1,2.2,1.4,4.4,1.3,6.4c-0.1,1.8-1.4,3.3-2,4.8c-1.2,2.9-3.1,8.4,0.8,10.2C445.3,125,450,119.8,452,116.8z"/>
					</g>
					<g>
						<path class="st2" d="M445.3,71.6c-0.1,0.1-0.1,0.2,0,0.3c0.2,0.3,0.3,0.7,0.5,1c0.8,1.4,1.8,3,0.8,6c-0.9,2.9-1.2,6.7,0.1,8.8
							c0.8,1.3,2,4.5,0.8,7.8c-1.1,3.3-1.8,8.5-0.2,13.5c1.4,4.5-3.2,8.9-3.3,9c-0.1,0.1-0.1,0.3,0,0.5c0.1,0.1,0.3,0.1,0.5,0
							c0.1,0,1.3-1.2,2.3-3c1.4-2.4,1.8-4.7,1.1-6.7c-1.5-4.8-0.9-9.9,0.2-13.1c1.2-3.5,0-6.9-0.9-8.4c-1.2-1.9-0.9-5.5,0-8.2
							c1-3.3,0-5.1-0.9-6.6c-0.2-0.3-0.4-0.6-0.5-0.9c-0.1-0.2-0.3-0.2-0.4-0.2C445.4,71.5,445.4,71.6,445.3,71.6z"/>
					</g>
					<g>
						<path class="st2" d="M443,112.2c0,0,0,0.1,0,0.2c0.2,0.5,1,2.1,1.3,2.3c0.1,0,0.2,0,0.2-0.1s0-0.2-0.1-0.2
							c-0.2-0.1-0.7-1.2-1.2-2.1C443.3,112.1,443.2,112.1,443,112.2C443,112.1,443,112.2,443,112.2z"/>
					</g>
					<g>
						<path class="st2" d="M443,100.7c0,0.1,0,0.1,0,0.2l2.1,2.9c0.1,0.1,0.2,0.1,0.2,0c0.1-0.1,0.1-0.2,0-0.2l-2.1-2.9
							C443.3,100.6,443.2,100.6,443,100.7C443.1,100.6,443,100.7,443,100.7z"/>
					</g>
					<g>
						<path class="st2" d="M444.9,93.4c0,0,0,0.1,0,0.2L446,96c0,0.1,0.1,0.1,0.2,0.1s0.1-0.1,0.1-0.2l-1.1-2.4
							C445.1,93.3,445.1,93.3,444.9,93.4C444.9,93.3,444.9,93.4,444.9,93.4z"/>
					</g>
					<g>
						<path class="st2" d="M449.5,105.6c0,0.1,0,0.2,0,0.2c0.1,0.1,0.2,0.1,0.2,0l2.8-3.1c0.1-0.1,0.1-0.2,0-0.2
							c-0.1-0.1-0.2-0.1-0.2,0L449.5,105.6C449.5,105.5,449.5,105.5,449.5,105.6z"/>
					</g>
					<g>
						<path class="st2" d="M451.3,95.6L451.3,95.6l-2.1,4.1c0,0.1,0,0.2,0.1,0.2s0.2,0,0.2-0.1l2.1-4.1c0-0.1,0-0.2-0.1-0.2
							C451.5,95.5,451.4,95.5,451.3,95.6z"/>
					</g>
					<g>
						<path class="st2" d="M448.2,85.3c0,0.1,0,0.2,0,0.2c0.1,0.1,0.2,0.1,0.2,0l2.3-2.7c0.1-0.1,0.1-0.2,0-0.2
							c-0.1-0.1-0.2-0.1-0.2,0L448.2,85.3L448.2,85.3z"/>
					</g>
					<g>
						<path class="st2" d="M442.9,81.9c0,0.1,0,0.2,0,0.2l1.5,1.3c0.1,0.1,0.2,0.1,0.2,0c0.1-0.1,0.1-0.2,0-0.2l-1.5-1.3
							C443.1,81.8,443,81.9,442.9,81.9C443,81.9,442.9,81.9,442.9,81.9z"/>
					</g>
					<g>
						<path class="st2" d="M448.2,115.1c0,0.1,0,0.1,0,0.2c0.1,0.1,0.2,0.1,0.2,0l3.5-2.5c0.1-0.1,0.1-0.2,0-0.2
							c-0.1-0.1-0.2-0.1-0.2,0L448.2,115.1L448.2,115.1z"/>
					</g>
				</g>
				<g>
					<g>
						<path class="st3" d="M26.2,54.4c-0.8-3.8,0.6-5.3,1.5-8.7c0.7-2.5,0.1-5,0.2-7.4c0.1-6.6,4.5-11.4,5.1-18
							c0.6-6.2,2.4-11.7,2.7-17.8c0-0.6,0-1.4,0.1-1.9c1.6,5.9,1,11.6,3.2,17.3c1.2,3,1.9,6.4,2,9.6c0.1,2.9-1.1,7.1-0.6,9.7
							c0.7,2.9,4,4.6,5.2,7.4c1.2,2.8,1.5,5.6,1.3,8.5c-0.2,5.7-2.6,12-9.1,13C31.7,67.1,27.4,59.6,26.2,54.4z"/>
					</g>
					<g>
						<path class="st2" d="M36.1,19.5c-0.2,0-0.3,0.2-0.3,0.3c-1.6,5.3-0.8,7.3,0.1,9.7c0.6,1.4,1.1,2.9,1.2,5.4
							c0.1,3.6-0.9,4.6-1.9,5.7c-1,1-2,2-2.1,5c-0.1,3.8,2.2,5.6,4.2,7.2c1.3,1,2.6,2,3,3.4c0.9,3.3-3.8,5.9-3.8,5.9
							c-0.2,0.1-0.3,0.4-0.2,0.6c0.1,0.2,0.4,0.3,0.6,0.2c0.2-0.1,5.5-3,4.3-7c-0.5-1.7-1.8-2.8-3.3-3.9C36,50.5,34,48.9,34,45.6
							c0-2.6,0.9-3.4,1.8-4.4c1.1-1.1,2.3-2.3,2.2-6.4c-0.1-2.6-0.7-4.3-1.3-5.7c-0.8-2.2-1.6-4.1-0.1-9.1c0.1-0.3-0.1-0.5-0.3-0.6
							C36.2,19.5,36.2,19.5,36.1,19.5z"/>
					</g>
					<g>
						<path class="st2" d="M31,53.9c0,0-0.1,0-0.1,0.1c-0.1,0.1-0.1,0.2,0,0.3l4.3,3.9c0.1,0.1,0.2,0.1,0.3,0s0.1-0.2,0-0.3L31.2,54
							C31.2,53.9,31.1,53.8,31,53.9z"/>
					</g>
					<g>
						<path class="st2" d="M42.1,45.4c-0.1,0-0.1,0.1-0.2,0.2l-1.6,4.8c0,0.1,0,0.3,0.2,0.3c0.1,0,0.3,0,0.3-0.1l1.6-4.8
							c0-0.1,0-0.3-0.2-0.3C42.2,45.4,42.1,45.4,42.1,45.4z"/>
					</g>
					<g>
						<path class="st2" d="M31.7,33.5L31.7,33.5c-0.1,0.1-0.2,0.2-0.2,0.3l1.7,4c0.1,0.1,0.2,0.2,0.3,0.1c0.1-0.1,0.2-0.2,0.1-0.3
							l-1.7-4C31.9,33.5,31.8,33.5,31.7,33.5z"/>
					</g>
					<g>
						<path class="st2" d="M30.4,47.1C30.3,47.1,30.3,47.1,30.4,47.1c-0.2,0.1-0.2,0.2-0.1,0.4l1.9,3.1c0.1,0.1,0.2,0.1,0.3,0.1
							c0.1-0.1,0.1-0.2,0.1-0.3l-1.9-3.1C30.6,47.1,30.5,47.1,30.4,47.1z"/>
					</g>
				</g>
			</g>
			<path class="st5" d="M575,319H0V63c0,0,218.4,10.2,330,72S575,319,575,319z"/>
			<g>
				<g>
					<path class="st6" d="M566,319H-38.2c0,0,62.9-113.3,170.8-127.7s120.3,31.5,192.3,18.9C396.8,197.6,431.1,81.6,566,79.8V319z"
						/>
				</g>
			</g>
			<g>
				<path class="st7" d="M467.6,269.3c0,0-13.6,3.9-11.5,16.1C456.1,285.4,469.9,282.8,467.6,269.3z"/>
				<path class="st7" d="M207,257.9c0,0-9.5,2.7-8,11.3C199,269.2,208.6,267.4,207,257.9z"/>
				<path class="st7" d="M477.3,253.6c0,0-1.4,12,8.8,14.4C486.1,268,488.7,256.3,477.3,253.6z"/>
				<path class="st7" d="M374,269.2c0,0-9.5,2.7-8,11.3C365.9,280.5,375.6,278.7,374,269.2z"/>
				<path class="st7" d="M485.7,178.3c0,0-9.5,2.7-8,11.3C477.6,189.6,487.2,187.8,485.7,178.3z"/>
				<path class="st7" d="M96.9,255c0,0-9.5,2.7-8,11.3C88.8,266.3,98.4,264.5,96.9,255z"/>
				<path class="st8" d="M326.3,249.4c0,0-1.7,12.9,9.4,15.7C335.7,265.2,338.6,252.5,326.3,249.4z"/>
				<path class="st8" d="M450.9,157.2c0,0-12.8-2.6-16.4,8.2C434.6,165.4,447,169.2,450.9,157.2z"/>
				<path class="st4" d="M223.5,283.7c0,0-2.3-9.8-11.1-8.7C212.4,275,213.8,284.9,223.5,283.7z"/>
				<path class="st4" d="M456.5,213.7c0,0-2.3-9.8-11.1-8.7C445.5,205,446.8,214.8,456.5,213.7z"/>
				<path class="st4" d="M391.7,250.6c0,0-1.3,10,7.2,12.1C398.9,262.7,401.2,253,391.7,250.6z"/>
				<path class="st4" d="M305.2,272.9c0,0-1,7.4,5.4,9C310.5,281.9,312.2,274.7,305.2,272.9z"/>
				<path class="st8" d="M469,224.6c0,0-1.3,10,7.2,12.1C476.2,236.7,478.4,227,469,224.6z"/>
				<path class="st8" d="M72.9,270.4c0,0-1.3,10,7.2,12.1C80.1,282.5,82.3,272.8,72.9,270.4z"/>
				<path class="st8" d="M378.6,246.9c0,0-9.8,2.2-8.9,10.9C369.7,257.8,379.6,256.6,378.6,246.9z"/>
				<path class="st8" d="M168.8,265.8c0,0-9.5,3.3-7.5,11.9C161.2,277.7,170.9,275.3,168.8,265.8z"/>
				<path class="st4" d="M473.7,150.8c0,0-1.3,10,7.2,12.1C480.9,162.9,483.2,153.2,473.7,150.8z"/>
			</g>
			<g>
				<g>
					<g>
						<g>
							<g>
								<polygon class="st9" points="285.1,210.4 282.5,209.3 317.2,127.7 319.8,128.8 								"/>
							</g>
							<g>
								<polygon class="st9" points="362.6,210.7 360.1,209.2 400.6,144.2 403.1,145.6 								"/>
							</g>
							<g>
								<path class="st9" d="M361.4,211.3l-1.1-0.4l-53.7-53.8l1-2.4l88.1-0.2l1.2,0.6l36.6,51l-1.1,2.2L361.4,211.3z M311.1,157.5
									l50.9,51l67.8-2.9l-34.7-48.3L311.1,157.5z"/>
							</g>
							<g>
								<path class="st9" d="M282.9,249.6c-21.7,0.2-39.4-17.4-39.6-39.1c-0.2-21.7,17.3-39.6,39-39.7c21.7-0.2,39.4,17.4,39.6,39.1
									C322,231.6,304.5,249.5,282.9,249.6z M282.3,178.5c-17.3,0.1-31.3,14.5-31.2,31.9c0.1,17.5,14.4,31.6,31.7,31.4
									c17.3-0.1,31.3-14.5,31.2-31.9C313.8,192.5,299.6,178.4,282.3,178.5z"/>
							</g>
							<g>
								<path class="st9" d="M436.6,244.8c-21.7,0.2-39.4-17.4-39.6-39.1s17.3-39.6,39-39.7c21.7-0.2,39.4,17.4,39.6,39.1
									C475.7,226.8,458.3,244.7,436.6,244.8z M436,173.7c-17.3,0.1-31.3,14.5-31.2,31.9c0.1,17.5,14.4,31.6,31.7,31.4
									c17.3-0.1,31.3-14.5,31.2-31.9C467.6,187.7,453.3,173.6,436,173.7z"/>
							</g>
							<g>
								<path class="st9" d="M320.9,130c-1,0-1.8-0.2-2.5-0.6c-10-4.9-3.4-20.4-1.2-25c1.1-2.3,3.5-2.9,7-3.7c1.8-0.4,4-1,6.7-1.8
									l0.9,2.7c-2.8,0.9-5.1,1.5-7,1.9c-3.3,0.8-4.6,1.1-5.1,2.2c-1,2.1-2.8,6.2-3.6,10.4c-1,5.5,0.2,9.2,3.5,10.8
									c3.6,1.7,8.5-5.3,10.1-8.1c0.3-1,1.4-2.7,3.8-2.7c2.1,0,10.9-0.1,10.9-0.1v2.8c0,0-8.8,0.1-10.9,0.1c-0.9,0-1.1,0.6-1.1,0.7
									v0.2l-0.1,0.2c-0.1,0.1-1.7,3.1-4.1,5.7C325.3,128.9,322.8,130,320.9,130z"/>
							</g>
							<g>
								<path class="st9" d="M402.2,140.3c-2.6-0.4-6,0.6-8,1.6c-2.2,1-5.2,0.4-7.1,1.4c-6.9,3.6,5.6,4.9,8.7,4.9s10.9,2.9,13,0.2
									C411.6,144.7,405.2,140.7,402.2,140.3z"/>
							</g>
						</g>
						<g>
							<g>
								<polygon class="st9" points="428.9,246.3 433.6,254 438.8,250.6 433.7,242 								"/>
								<path class="st9" d="M437.1,246.4l-6.7,4.1c0,0,2.3,3.1,1.7,5.9c-0.5,2.8-6.7,4.5-7,6.8c-0.4,2.8,6.2-0.2,12.1-3.6
									c5.9-3.3,5.4-4.8,5.4-4.8L437.1,246.4z"/>
							</g>
							<g>
								<polygon class="st9" points="415,218.3 426.6,220.7 427.3,214.6 414.8,212 								"/>
								<path class="st9" d="M422.9,213.2l-1.1,7.7c0,0,3.9,0.3,5.7,2.5c1.8,2.2-0.8,7.9,0.8,9.7c1.9,2,3.8-4.8,5-11.4
									c1.2-6.6-0.3-7.1-0.3-7.1L422.9,213.2z"/>
							</g>
							<path class="st9" d="M408.2,198.6c0.5-2,7-32.9,7-32.9c11.7-14.5,2.8-30.8,2.8-30.8c-35.5,1.2-47.9,7.7-47.9,7.7
								c-15.4,22.3-18.6,34.6-22,47.7c-4.6,17.6,43.5,26.9,49.2,27.9c-0.1-0.1-10.8-11.8-15.5-21.3l-10.4-5.5c3-1.7,5.1-5,6.6-8.2
								c-0.6-1-0.4-5.3,7.7-23.2c0,0-5,11.6-6.5,20.1c0.1-0.2,0.1-0.4,0.2-0.6c-5.8,20.8,48.4,69.9,48.4,69.9l8.7-7.4
								C426.9,221.4,407.6,200.7,408.2,198.6z"/>
							<g>
								<path class="st9" d="M350.1,42.3L347,52c0,0,0.5,1.8,2.1,1.9c0,0,0.4,4.9,3.8,4.7c0,0,1.3,2.8,1,5s5.8,1.8,10.2-6.2
									c0,0-2.4-4.5-1.9-8.4C362.6,45.2,357.3,39.6,350.1,42.3z"/>
								<path class="st9" d="M350.6,41.4L348.2,52c0,0,0.7,0.8,2.1,0.7c0,0,0,5.1,3.4,5c0,0,1,3.6,0.7,5.7c-0.3,2.2,6.5,2,10.9-5.9
									c0,0-2.4-4.5-1.9-8.4C363.8,45.2,357.7,38.8,350.6,41.4z"/>
								<path class="st9" d="M346.8,37.8c0,0,2.6,3.8,6.6,5.6c0,0,0.9,1.5,1.7,2.5c0.8,0.9,1.2-0.2,1.6-0.8c0.3-0.7,4.1-1.3,3.5,2
									c0,0-0.9,4,3.1,3.5c0,0,1.4-8.9,1.8-11.8c0,0-0.3-0.5-1.5-0.9C362.4,37.4,345.1,32.6,346.8,37.8z"/>
								<path class="st9" d="M350.3,54.2c0,0,2.4-0.8,3.8-1.7c0,0-0.5,2.9-3.2,3.5C350.9,56,350.6,55.4,350.3,54.2z"/>
							</g>
							<g>
								<path class="st9" d="M367,56.4c-3-1.4-2.2,0.8-2.2,0.8c-4.8,8.3-10.3,6.5-10.3,6.5c-13.3,7.3,0.9,42.5,1.9,44.8
									c2.4-1.2,3.8-2.2,8.7-5.7c0,0-1.2-4.7-1-11.7c0,0,0.7,8.6,2,12.4c0,0-11.5,9.6-21.6,11.5c0,0,2,3.8,3.3,6.8
									c0,0,16.8,4.2,32.2-8.2c3.9-3.1,2.3-19.6,2.3-19.6s2.6,16.4-1.3,20.7c-4.4,4.9-13,7.1-17.2,8.6c5,8.6,9.8,14.6,9.8,14.6
									c-3,3.3-6,6.3-6,6.3c40,5.6,52.2-6.3,52.2-6.3C417.8,47.9,370,57.8,367,56.4z"/>
								<path class="st9" d="M348.9,89.5c-3.9,1.8-8.6,3.9-22.8,7.6c0,0,2.3,4.9,2.3,6.8c0,0,8.9,1.8,24.2-2.3
									C351,97.5,349.6,93.4,348.9,89.5z"/>
							</g>
							<path class="st9" d="M322,99.9c-0.7,1.3-1.9,4.2,1.2,4.5c1.7,0.2,4.1-1.1,5.6-1.9c1.7-0.9,0.6-4.1-1-4.8
								c-0.9-0.4-2.2-0.1-3.1,0.3C323.2,98.6,322.7,98.7,322,99.9z"/>
							<path class="st9" d="M339,117.5c-2,1.7,0,3.4,2,3.1c1.2,2.7,5.8,1.8,7.1,0.1c1.2-1.5-0.2-4.2-2-4.7
								C344,115.2,340.7,116.1,339,117.5z"/>
						</g>
					</g>
					<g>
						<g>
							<polygon class="st9" points="253.5,212.7 249.6,218 242.3,212.7 246.2,207.5 							"/>
							<path class="st9" d="M252.5,210.8l-5.2,6.9c0,0,3.8,3.2,4.5,5.6c0.7,2.4-4.7,6.8-3.2,9.3c1.5,2.4,13.3-13.5,12.9-15.2
								C261.2,215.7,252.5,210.8,252.5,210.8z"/>
						</g>
						<g>
							<g>
								<polygon class="st9" points="154.4,252.1 151.7,251 188.2,165 191,166.2 								"/>
							</g>
							<g>
								<polygon class="st9" points="236.1,252.4 233.5,250.9 276.1,182.4 278.7,183.9 								"/>
							</g>
							<g>
								<path class="st9" d="M234.8,253.2l-1.1-0.4L177.1,196l1.1-2.5l92.9-0.2l1.2,0.6l38.6,53.8l-1.2,2.3L234.8,253.2z
									 M181.7,196.4l53.6,53.8l71.4-3.1l-36.5-50.9L181.7,196.4z"/>
							</g>
							<g>
								<path class="st9" d="M152,293.5c-22.8,0.2-41.6-18.3-41.7-41.2c-0.2-22.9,18.2-41.7,41.1-41.9c22.8-0.2,41.6,18.3,41.7,41.2
									C193.3,274.5,174.9,293.3,152,293.5z M151.4,218.6c-18.3,0.1-33,15.2-32.8,33.7c0.2,18.4,15.1,33.3,33.4,33.1
									c18.3-0.1,33-15.2,32.8-33.7C184.6,233.3,169.7,218.4,151.4,218.6z"/>
							</g>
							<g>
								<path class="st9" d="M314,288.5c-22.8,0.2-41.5-18.3-41.7-41.2s18.2-41.7,41.1-41.9c22.8-0.2,41.5,18.3,41.7,41.2
									C355.3,269.5,336.9,288.3,314,288.5z M313.4,213.5c-18.3,0.1-33,15.2-32.8,33.7c0.2,18.4,15.1,33.3,33.4,33.1
									c18.3-0.1,33-15.2,32.8-33.7C346.7,228.2,331.7,213.4,313.4,213.5z"/>
							</g>
							<g>
								<path class="st9" d="M192.2,167.5c-0.9,0-1.9-0.2-2.8-0.7c-10.5-5.2-3.6-21.5-1.3-26.3c1.2-2.4,3.7-3,7.4-3.9
									c1.9-0.5,4.2-1,7.1-1.9l0.9,2.8c-3,1-5.4,1.5-7.3,2c-3.4,0.8-4.9,1.2-5.4,2.3c-1.1,2.2-3,6.5-3.8,11
									c-1,5.8,0.2,9.7,3.7,11.4c3.8,1.9,9-5,10.4-7.6c0.2-0.4,2.3-3.9,4.9-4.7c2.9-1,9.4-2.5,9.7-2.5l0.7,2.9
									c-0.1,0-6.6,1.5-9.4,2.4c-1.2,0.4-2.7,2.5-3.2,3.4C203.6,158.5,198.3,167.4,192.2,167.5z"/>
							</g>
							<g>
								<path class="st9" d="M277.7,178.3c-2.7-0.4-6.3,0.7-8.5,1.7c-2.3,1.1-5.5,0.4-7.5,1.5c-7.2,3.8,5.9,5.2,9.2,5.2
									c3.3,0,11.4,3.1,13.7,0.2C287.7,182.9,280.9,178.7,277.7,178.3z"/>
							</g>
						</g>
						<g>
							<g>
								<polygon class="st9" points="252.6,271 245.6,272.4 243.7,263.1 250.7,261.7 								"/>
								<path class="st9" d="M253.3,268.8l-9.2,1.9c0,0,0.7,5.2-0.6,7.6c-1.2,2.4-8.8,2.1-9.4,5.1c-0.6,3,20.4-1.4,21.5-3
									C256.6,278.8,253.3,268.8,253.3,268.8z"/>
							</g>
							<path class="st9" d="M286.1,159.8c0,0-1.7-3.8-1.5-6.6s-31.9-2.8-31.9-2.8s-3.2,7.5-4.4,11.9c0,0-56.3,0-50.8,20.9
								c0,0,1.7,8,23.1,18.9c0,0-9.5,8.3,11.8,38.3c0,0,10.6,16.6,8.8,25.5c0,0,15.3-1.9,13.1-3.7c0,0-3.4-13.2-4.7-25.7
								s-3.8-19.1-5.1-22.7c0,0,24.4-17.9,29.5-22.8C279,186.2,295.9,183.4,286.1,159.8z M230.5,193.8l-2.1-3.4
								c1.2,0.6,4.3,0.8,4.3,0.8C230.9,192.6,230.5,193.8,230.5,193.8z"/>
						</g>
						<g>
							<path class="st9" d="M191.2,137.8c1.4,0,2.9-0.2,2.6,2c-0.9,0.4-1.9,0.5-1.5,1.5c0.4,0.9,2.3,1.1,3.5,1
								c1.7-0.1,3-0.9,4.2-2.1c1.1-1.1,2.7-3.3,1.5-4.9c-0.9-1.3-2.6-0.4-3.9-0.3c-1.5,0.1-3.1-0.3-4.6,0.2
								c-0.6,0.2-1.1,0.4-1.5,0.9C191.5,136.3,190.9,137.8,191.2,137.8z"/>
							<g>
								<path class="st9" d="M257.9,68.7c0,0-3.3,2.4-4,3.3s-2.2,1.5-2.5,2.1c-0.2,0.3,0.3,0.4,0.6,0.5c0.3,0.2-1.6,6.4,1.9,8.7
									c0,0,0.7,5.2,0.6,7l8.2,3.2c0,0-0.2-6.8,2.2-7.9C273.4,81.7,275.8,66,257.9,68.7z"/>
								<path class="st9" d="M258.1,68.6c0,0-2.3,2.8-3,3.7c-0.7,0.8-2.2,1.4-2.5,2c-0.2,0.3,0.3,0.4,0.6,0.5
									c0.3,0.2-1.8,5.4,1.7,7.7c0,0,0,5.8,0,7.6l9.1,3.4c0,0-0.3-6.7,2.1-7.8C274.6,81.9,275.9,66.1,258.1,68.6z"/>
								<path class="st9" d="M253.2,76.3c0,0,2.4,0,4-0.4c0,0-1.7,2.3-4.3,2.1C252.9,77.9,252.9,77.4,253.2,76.3z"/>
								<path class="st9" d="M258,67c-1.1,0.9-1.6,1.7-1.6,3.1c-0.1,2.1,1.5,3.6,3.1,4.7c1.5,1,3.3,0.8,4.7,1.7c1.3,0.8,2,2.8,2.8,4
									c1.6,2.3,3.8,4.4,6.4,5.5s5.5,1.3,8.2,1.8c5.1,0.8,9.8,2.8,14.3,5.1c6,3,12.4,3.3,12.4,3.3s-0.4-4.9-0.2-5.8
									c0.6-2.7,2-4.8,3.9-6.8c0.9-1,1.9-1.9,3-2.8c1-0.8,2.2-1.1,3-2.2s0.9-2.5,1.1-3.8c0.2-1.5,0.1-3-0.2-4.5
									c-0.1-0.7-0.5-4-0.5-4s-4,3.5-5.3,4.2c-2,1-4.2,2-6.4,2.6c-4.7,1.4-10.3,1.8-15.1,1.4c-4.3-0.4-7.1-2.9-10.4-5.1
									c-2.3-1.5-5-2.5-7.7-3.4c-2.3-0.7-4.7-1.1-7-1.5C264.6,64.2,261.3,64.4,258,67z"/>
							</g>
							<path class="st9" d="M302,26.8c1.9-4.3,4.5-6.6,8.5-9.1c2.2-1.4,6.4-3.3,7.2-1.3c0.8,2-4.4,4.2-6.2,6.1c-2.2,2.3-4,5.8-5,8.7
								L302,26.8z"/>
							<path class="st9" d="M266.8,86.9c-2.4-4.4-14.1-0.7-14.1,3.7c0,0,1.7,4-0.3,7s-11,7.7-24.3,22.1c0,0-19.3,6.6-29.3,13.9
								l1.9,4.4c0,0,20.6,2.4,31.8-5.7c0,0,9.6-4.1,11.6-8.9c0,0,0.3,5.8,5.8,7.4c0,0-1.8,7.9,0.8,20.7c0,0,17.7-1.8,34.1,2.9
								c0,0,10.4-33.2,2.1-55.9c0,0,6-16.7,6.2-38c0,0,11.3-14.2,15.7-32.1l-7.2-3.2c0,0-10.8,6.7-17.7,31.7
								c0,0-11.3,21.4-13.4,30.5L266.8,86.9z"/>
						</g>
					</g>
				</g>
				<g>
					<g>
						<g>
							<g>
								<polygon class="st4" points="282.8,210.4 280.1,209.3 314.8,127.7 317.5,128.8 								"/>
							</g>
							<g>
								<polygon class="st4" points="360.2,210.7 357.8,209.2 398.3,144.2 400.7,145.6 								"/>
							</g>
							<g>
								<path class="st4" d="M359.1,211.3l-1.1-0.4l-53.7-53.8l1-2.4l88.1-0.2l1.2,0.6l36.6,51l-1.1,2.2L359.1,211.3z M308.7,157.5
									l50.9,51l67.8-2.9l-34.7-48.3L308.7,157.5z"/>
							</g>
							<g>
								<path class="st4" d="M280.5,249.6c-21.7,0.2-39.4-17.4-39.6-39.1c-0.2-21.7,17.3-39.6,39-39.7c21.7-0.2,39.4,17.4,39.6,39.1
									C319.6,231.6,302.2,249.5,280.5,249.6z M279.9,178.5c-17.3,0.1-31.3,14.5-31.2,31.9c0.1,17.5,14.4,31.6,31.7,31.4
									s31.3-14.5,31.2-31.9C311.4,192.5,297.2,178.4,279.9,178.5z"/>
							</g>
							<g>
								<path class="st4" d="M434.2,244.8c-21.7,0.2-39.4-17.4-39.6-39.1s17.3-39.6,39-39.7c21.7-0.2,39.4,17.4,39.6,39.1
									C473.4,226.8,455.9,244.7,434.2,244.8z M433.7,173.7c-17.3,0.1-31.3,14.5-31.2,31.9c0.1,17.5,14.4,31.6,31.7,31.4
									c17.3-0.1,31.3-14.5,31.2-31.9C465.2,187.7,451,173.6,433.7,173.7z"/>
							</g>
							<g>
								<path class="st4" d="M318.5,130c-1,0-1.8-0.2-2.5-0.6c-10-4.9-3.4-20.4-1.2-25c1.1-2.3,3.5-2.9,7-3.7c1.8-0.4,4-1,6.7-1.8
									l0.9,2.7c-2.8,0.9-5.1,1.5-7,1.9c-3.3,0.8-4.6,1.1-5.1,2.2c-1,2.1-2.8,6.2-3.6,10.4c-1,5.5,0.2,9.2,3.5,10.8
									c3.6,1.7,8.5-5.3,10.1-8.1c0.3-1,1.4-2.7,3.8-2.7c2.1,0,10.9-0.1,10.9-0.1v2.8c0,0-8.8,0.1-10.9,0.1c-0.9,0-1.1,0.6-1.1,0.7
									v0.2l-0.1,0.2c-0.1,0.1-1.7,3.1-4.1,5.7C322.9,128.9,320.4,130,318.5,130z"/>
							</g>
							<g>
								<path class="st4" d="M399.8,140.3c-2.6-0.4-6,0.6-8,1.6c-2.2,1-5.2,0.4-7.1,1.4c-6.9,3.6,5.6,4.9,8.7,4.9s10.9,2.9,13,0.2
									C409.3,144.7,402.8,140.7,399.8,140.3z"/>
							</g>
						</g>
						<g>
							<g>
								<polygon class="st9" points="426.5,246.3 431.2,254 436.4,250.6 431.3,242 								"/>
								<path class="st4" d="M434.7,246.4l-6.7,4.1c0,0,2.3,3.1,1.7,5.9c-0.5,2.8-6.7,4.5-7,6.8c-0.4,2.8,6.2-0.2,12.1-3.6
									c5.9-3.3,5.4-4.8,5.4-4.8L434.7,246.4z"/>
							</g>
							<g>
								<polygon class="st9" points="412.7,218.3 424.2,220.7 424.9,214.6 412.4,212 								"/>
								<path class="st4" d="M420.6,213.2l-1.1,7.7c0,0,3.9,0.3,5.7,2.5c1.8,2.2-0.8,7.9,0.8,9.7c1.9,2,3.8-4.8,5-11.4
									c1.2-6.6-0.3-7.1-0.3-7.1L420.6,213.2z"/>
							</g>
							<path class="st8" d="M405.8,198.6c0.5-2,7-32.9,7-32.9c11.7-14.5,2.8-30.8,2.8-30.8c-35.5,1.2-47.9,7.7-47.9,7.7
								c-15.4,22.3-18.6,34.6-22,47.7c-4.6,17.6,43.5,26.9,49.2,27.9c-0.1-0.1-10.8-11.8-15.5-21.3l-10.4-5.5c3-1.7,5.1-5,6.6-8.2
								c-0.6-1-0.4-5.3,7.7-23.2c0,0-5,11.6-6.5,20.1c0.1-0.2,0.1-0.4,0.2-0.6c-5.8,20.8,48.4,69.9,48.4,69.9l8.7-7.4
								C424.6,221.4,405.3,200.7,405.8,198.6z"/>
							<g>
								<path class="st4" d="M347.7,42.3l-3.1,9.7c0,0,0.5,1.8,2.1,1.9c0,0,0.4,4.9,3.8,4.7c0,0,1.3,2.8,1,5s5.8,1.8,10.2-6.2
									c0,0-2.4-4.5-1.9-8.4C360.2,45.2,354.9,39.6,347.7,42.3z"/>
								<path class="st9" d="M348.2,41.4L345.8,52c0,0,0.7,0.8,2.1,0.7c0,0,0,5.1,3.4,5c0,0,1,3.6,0.7,5.7c-0.3,2.2,6.5,2,10.9-5.9
									c0,0-2.4-4.5-1.9-8.4C361.4,45.2,355.4,38.8,348.2,41.4z"/>
								<path class="st4" d="M344.4,37.8c0,0,2.6,3.8,6.6,5.6c0,0,0.9,1.5,1.7,2.5c0.8,0.9,1.2-0.2,1.6-0.8c0.3-0.7,4.1-1.3,3.5,2
									c0,0-0.9,4,3.1,3.5c0,0,1.4-8.9,1.8-11.8c0,0-0.3-0.5-1.5-0.9C360.1,37.4,342.8,32.6,344.4,37.8z"/>
								<path class="st4" d="M347.9,54.2c0,0,2.4-0.8,3.8-1.7c0,0-0.5,2.9-3.2,3.5C348.5,56,348.2,55.4,347.9,54.2z"/>
							</g>
							<g>
								<path class="st4" d="M364.6,56.4c-3-1.4-2.2,0.8-2.2,0.8c-4.8,8.3-10.3,6.5-10.3,6.5c-13.3,7.3,0.9,42.5,1.9,44.8
									c2.4-1.2,3.8-2.2,8.7-5.7c0,0-1.2-4.7-1-11.7c0,0,0.7,8.6,2,12.4c0,0-11.5,9.6-21.6,11.5c0,0,2,3.8,3.3,6.8
									c0,0,16.8,4.2,32.2-8.2c3.9-3.1,2.3-19.6,2.3-19.6s2.6,16.4-1.3,20.7c-4.4,4.9-13,7.1-17.2,8.6c5,8.6,9.8,14.6,9.8,14.6
									c-3,3.3-6,6.3-6,6.3c40,5.6,52.2-6.3,52.2-6.3C415.4,47.9,367.6,57.8,364.6,56.4z"/>
								<path class="st4" d="M346.5,89.5c-3.9,1.8-8.6,3.9-22.8,7.6c0,0,2.3,4.9,2.3,6.8c0,0,8.9,1.8,24.2-2.3
									C348.6,97.5,347.3,93.4,346.5,89.5z"/>
							</g>
							<path class="st9" d="M319.7,99.9c-0.7,1.3-1.9,4.2,1.2,4.5c1.7,0.2,4.1-1.1,5.6-1.9c1.7-0.9,0.6-4.1-1-4.8
								c-0.9-0.4-2.2-0.1-3.1,0.3C320.8,98.6,320.3,98.7,319.7,99.9z"/>
							<path class="st9" d="M336.7,117.5c-2,1.7,0,3.4,2,3.1c1.2,2.7,5.8,1.8,7.1,0.1c1.2-1.5-0.2-4.2-2-4.7
								C341.6,115.2,338.3,116.1,336.7,117.5z"/>
						</g>
					</g>
					<g>
						<g>
							<polygon class="st9" points="251.1,212.7 247.2,218 239.9,212.7 243.8,207.5 							"/>
							<path class="st8" d="M250.2,210.8l-5.2,6.9c0,0,3.8,3.2,4.5,5.6c0.7,2.4-4.7,6.8-3.2,9.3c1.5,2.4,13.3-13.5,12.9-15.2
								C258.9,215.7,250.2,210.8,250.2,210.8z"/>
						</g>
						<g>
							<g>
								<polygon class="st3" points="152.1,252.1 149.3,251 185.9,165 188.6,166.2 								"/>
							</g>
							<g>
								<polygon class="st3" points="233.7,252.4 231.1,250.9 273.8,182.4 276.3,183.9 								"/>
							</g>
							<g>
								<path class="st3" d="M232.5,253.2l-1.1-0.4L174.7,196l1.1-2.5l92.9-0.2l1.2,0.6l38.6,53.8l-1.2,2.3L232.5,253.2z
									 M179.4,196.4l53.6,53.8l71.4-3.1l-36.5-50.9L179.4,196.4z"/>
							</g>
							<g>
								<path class="st3" d="M149.7,293.5c-22.8,0.2-41.6-18.3-41.7-41.2c-0.2-22.9,18.2-41.7,41.1-41.9
									c22.8-0.2,41.6,18.3,41.7,41.2S172.5,293.3,149.7,293.5z M149.1,218.6c-18.3,0.1-33,15.2-32.8,33.7
									c0.2,18.4,15.1,33.3,33.4,33.1c18.3-0.1,33-15.2,32.8-33.7C182.3,233.3,167.3,218.4,149.1,218.6z"/>
							</g>
							<g>
								<path class="st3" d="M311.7,288.5c-22.8,0.2-41.5-18.3-41.7-41.2s18.2-41.7,41.1-41.9c22.8-0.2,41.5,18.3,41.7,41.2
									C352.9,269.5,334.5,288.3,311.7,288.5z M311.1,213.5c-18.3,0.1-33,15.2-32.8,33.7c0.2,18.4,15.1,33.3,33.4,33.1
									c18.3-0.1,33-15.2,32.8-33.7C344.3,228.2,329.3,213.4,311.1,213.5z"/>
							</g>
							<g>
								<path class="st3" d="M189.9,167.5c-0.9,0-1.9-0.2-2.8-0.7c-10.5-5.2-3.6-21.5-1.3-26.3c1.2-2.4,3.7-3,7.4-3.9
									c1.9-0.5,4.2-1,7.1-1.9l0.9,2.8c-3,1-5.4,1.5-7.3,2c-3.4,0.8-4.9,1.2-5.4,2.3c-1.1,2.2-3,6.5-3.8,11
									c-1,5.8,0.2,9.7,3.7,11.4c3.8,1.9,9-5,10.4-7.6c0.2-0.4,2.3-3.9,4.9-4.7c2.9-1,9.4-2.5,9.7-2.5l0.7,2.9
									c-0.1,0-6.6,1.5-9.4,2.4c-1.2,0.4-2.7,2.5-3.2,3.4C201.2,158.5,196,167.4,189.9,167.5z"/>
							</g>
							<g>
								<path class="st3" d="M275.4,178.3c-2.7-0.4-6.3,0.7-8.5,1.7c-2.3,1.1-5.5,0.4-7.5,1.5c-7.2,3.8,5.9,5.2,9.2,5.2
									c3.3,0,11.4,3.1,13.7,0.2C285.4,182.9,278.6,178.7,275.4,178.3z"/>
							</g>
						</g>
						<g>
							<g>
								<polygon class="st9" points="250.3,271 243.3,272.4 241.3,263.1 248.3,261.7 								"/>
								<path class="st8" d="M250.9,268.8l-9.2,1.9c0,0,0.7,5.2-0.6,7.6c-1.2,2.4-8.8,2.1-9.4,5.1c-0.6,3,20.4-1.4,21.5-3
									S250.9,268.8,250.9,268.8z"/>
							</g>
							<path class="st4" d="M283.8,159.8c0,0-1.7-3.8-1.5-6.6s-31.9-2.8-31.9-2.8s-3.2,7.5-4.4,11.9c0,0-56.3,0-50.8,20.9
								c0,0,1.7,8,23.1,18.9c0,0-9.5,8.3,11.8,38.3c0,0,10.6,16.6,8.8,25.5c0,0,15.3-1.9,13.1-3.7c0,0-3.4-13.2-4.7-25.7
								s-3.8-19.1-5.1-22.7c0,0,24.4-17.9,29.5-22.8C276.6,186.2,293.6,183.4,283.8,159.8z M228.2,193.8l-2.1-3.4
								c1.2,0.6,4.3,0.8,4.3,0.8C228.6,192.6,228.2,193.8,228.2,193.8z"/>
						</g>
						<g>
							<path class="st9" d="M188.8,137.8c1.4,0,2.9-0.2,2.6,2c-0.9,0.4-1.9,0.5-1.5,1.5c0.4,0.9,2.3,1.1,3.5,1
								c1.7-0.1,3-0.9,4.2-2.1c1.1-1.1,2.7-3.3,1.5-4.9c-0.9-1.3-2.6-0.4-3.9-0.3c-1.5,0.1-3.1-0.3-4.6,0.2
								c-0.6,0.2-1.1,0.4-1.5,0.9C189.1,136.3,188.5,137.8,188.8,137.8z"/>
							<g>
								<path class="st4" d="M255.5,68.7c0,0-3.3,2.4-4,3.3s-2.2,1.5-2.5,2.1c-0.2,0.3,0.3,0.4,0.6,0.5c0.3,0.2-1.6,6.4,1.9,8.7
									c0,0,0.7,5.2,0.6,7l8.2,3.2c0,0-0.2-6.8,2.2-7.9C271,81.7,273.4,66,255.5,68.7z"/>
								<path class="st9" d="M255.8,68.6c0,0-2.3,2.8-3,3.7c-0.7,0.8-2.2,1.4-2.5,2c-0.2,0.3,0.3,0.4,0.6,0.5
									c0.3,0.2-1.8,5.4,1.7,7.7c0,0,0,5.8,0,7.6l9.1,3.4c0,0-0.3-6.7,2.1-7.8C272.3,81.9,273.6,66.1,255.8,68.6z"/>
								<path class="st4" d="M250.8,76.3c0,0,2.4,0,4-0.4c0,0-1.7,2.3-4.3,2.1C250.5,77.9,250.5,77.4,250.8,76.3z"/>
								<path class="st8" d="M255.6,67c-1.1,0.9-1.6,1.7-1.6,3.1c-0.1,2.1,1.5,3.6,3.1,4.7c1.5,1,3.3,0.8,4.7,1.7
									c1.3,0.8,2,2.8,2.8,4c1.6,2.3,3.8,4.4,6.4,5.5s5.5,1.3,8.2,1.8c5.1,0.8,9.8,2.8,14.3,5.1c6,3,12.4,3.3,12.4,3.3
									s-0.4-4.9-0.2-5.8c0.6-2.7,2-4.8,3.9-6.8c0.9-1,1.9-1.9,3-2.8c1-0.8,2.2-1.1,3-2.2s0.9-2.5,1.1-3.8c0.2-1.5,0.1-3-0.2-4.5
									c-0.1-0.7-0.5-4-0.5-4s-4,3.5-5.3,4.2c-2,1-4.2,2-6.4,2.6c-4.7,1.4-10.3,1.8-15.1,1.4c-4.3-0.4-7.1-2.9-10.4-5.1
									c-2.3-1.5-5-2.5-7.7-3.4c-2.3-0.7-4.7-1.1-7-1.5C262.2,64.2,258.9,64.4,255.6,67z"/>
							</g>
							<path class="st9" d="M299.6,26.8c1.9-4.3,4.5-6.6,8.5-9.1c2.2-1.4,6.4-3.3,7.2-1.3c0.8,2-4.4,4.2-6.2,6.1
								c-2.2,2.3-4,5.8-5,8.7L299.6,26.8z"/>
							<path class="st3" d="M264.4,86.9c-2.4-4.4-14.1-0.7-14.1,3.7c0,0,1.7,4-0.3,7s-11,7.7-24.3,22.1c0,0-19.3,6.6-29.3,13.9
								l1.9,4.4c0,0,20.6,2.4,31.8-5.7c0,0,9.6-4.1,11.6-8.9c0,0,0.3,5.8,5.8,7.4c0,0-1.8,7.9,0.8,20.7c0,0,17.7-1.8,34.1,2.9
								c0,0,10.4-33.2,2.1-55.9c0,0,6-16.7,6.2-38c0,0,11.3-14.2,15.7-32.1l-7.2-3.2c0,0-10.8,6.7-17.7,31.7
								c0,0-11.3,21.4-13.4,30.5L264.4,86.9z"/>
						</g>
					</g>
				</g>
			</g>
		</g>
	</g>
</g>
</svg>
