<?xml version="1.0" encoding="utf-8"?>
<!-- Generator: Adobe Illustrator 22.0.1, SVG Export Plug-In . SVG Version: 6.00 Build 0)  -->
<svg version="1.1" id="圖層_1" xmlns="http://www.w3.org/2000/svg" xmlns:xlink="http://www.w3.org/1999/xlink" x="0px" y="0px"
	 viewBox="0 0 500 319" style="enable-background:new 0 0 500 319;" xml:space="preserve">
<style type="text/css">
	.st0{clip-path:url(#SVGID_2_);}
	.st1{fill:#B39A18;}
	.st2{fill:#81C7A2;}
	.st3{fill:#C0DBC5;}
	.st4{fill:#527E32;}
	.st5{fill:#0C2F54;}
	.st6{fill:#F6AA00;}
	.st7{fill:#006934;}
	.st8{fill:#171C61;}
	.st9{fill:#FBC600;}
	.st10{fill:#E95513;}
	.st11{fill:#FFFCD7;}
	.st12{fill:#FFFFFF;}
	.st13{clip-path:url(#SVGID_4_);}
	.st14{fill:#7AC498;}
	.st15{fill:none;stroke:#102848;stroke-width:1.8934;stroke-miterlimit:10;}
</style>
<g>
	<g>
		<defs>
			<rect id="SVGID_1_" x="-1" y="-0.6" width="502" height="320.3"/>
		</defs>
		<clipPath id="SVGID_2_">
			<use xlink:href="#SVGID_1_"  style="overflow:visible;"/>
		</clipPath>
		<g class="st0">
			<rect x="-1" y="-0.6" class="st1" width="502" height="320.3"/>
			<g>
				<g>
					<path class="st2" d="M-81.3,209.2h606.6c0,0-63.2-113.8-171.5-128.2C245.5,66.5,233,112.6,160.7,100
						C88.6,87.3,54.1-29.2-81.3-31V209.2z"/>
				</g>
			</g>
			<g>
				<g>
					<path class="st3" d="M506,48.6c0,0-100.4-52.2-151.6,20.1c-57.5,81.2-37.8,94.2-95.7,105.3c-57.9,11.1-80.2-38.2-138.2-40.1
						C53.8,131.6-4.1,165-19.8,220.7c-15.6,55.7-53.5,60.1-78,64.6l96.4,74.5H506V48.6z"/>
				</g>
				<path class="st4" d="M478.4,107.8c0,0-18.6,5.4-15.8,22.1C462.6,129.9,481.5,126.3,478.4,107.8z"/>
				<path class="st4" d="M365.9,88.9c0,0-13,3.7-11,15.4C354.8,104.4,368,101.9,365.9,88.9z"/>
				<path class="st4" d="M288.2,186.7c0,0-15.9,4.6-13.5,18.9C274.7,205.6,290.9,202.6,288.2,186.7z"/>
				<path class="st4" d="M34.9,188.2c0,0-13,3.7-11,15.4C24,203.6,37.2,201.2,34.9,188.2z"/>
				<path class="st5" d="M446.3,205.2c0,0-19.5,5.6-16.6,23.2C429.6,228.4,449.5,224.8,446.3,205.2z"/>
				<path class="st6" d="M395.5,53.9c0,0-2.3,17.7,12.9,21.5C408.3,75.5,412.3,58.2,395.5,53.9z"/>
				<path class="st5" d="M24.7,237.9c0,0-1.8,13.7,9.9,16.6C34.6,254.5,37.8,241.2,24.7,237.9z"/>
				<path class="st5" d="M419.5,93.5c0,0-1.8,13.7,9.9,16.6C429.4,110,432.5,96.8,419.5,93.5z"/>
				<path class="st5" d="M453.9,73.7c0,0-1.3,10.1,7.3,12.3C461.2,85.9,463.6,76.1,453.9,73.7z"/>
				<path class="st6" d="M312.5,170.7c0,0-1.8,13.7,9.9,16.6C322.4,187.3,325.5,174,312.5,170.7z"/>
				<path class="st6" d="M465.4,304.2c0,0-1.8,13.7,9.9,16.6C475.2,320.7,478.3,307.4,465.4,304.2z"/>
				<path class="st5" d="M381.8,156.8c0,0-1.8,13.7,9.9,16.6C391.8,173.4,394.9,160,381.8,156.8z"/>
				<path class="st4" d="M414.8,184.5c0,0,11.6,6.7,18.8-2.7C433.4,181.8,422.6,174,414.8,184.5z"/>
				<path class="st4" d="M337.7,207.1c0,0,17.6,10.1,28.2-4.1C366.1,203.1,349.6,191.3,337.7,207.1z"/>
				<path class="st6" d="M399.7,138c0,0,11-8.1,5.1-18.6C404.8,119.4,393.1,126.4,399.7,138z"/>
				<path class="st6" d="M167.7,190.7c0,0,1.1-13.7-10.7-16.1C156.9,174.8,154.5,188.1,167.7,190.7z"/>
				<path class="st5" d="M463.5,165.9c0,0,11-8.1,5.1-18.6C468.6,147.4,456.8,154.4,463.5,165.9z"/>
				<path class="st5" d="M462.4,288.4c0,0,11-8.1,5.1-18.6C467.6,269.8,455.8,276.9,462.4,288.4z"/>
			</g>
			<g>
				<g>
					<g>
						<path class="st7" d="M189.8-53.2c0,0,11.3,8.2,19.9,10.8c8.4,2.6,29.4,29.6,36.1,55.7c6.8,26.1,6.8,42.6,14.7,54.9
							c0,0-14.1-9.9-27.7-11.8s-36.3-5.8-47-34.7s-15-39.7-4.9-56.2C180.7-34.5,190.4-46.4,189.8-53.2z"/>
					</g>
					<g>
						<g>
							<path class="st4" d="M198.5,4c-1.7-4.5-2.1-8.7-2.1-18.3c0-14.6-3.7-21.9-3.7-21.9c-0.4-0.7-0.1-1.6,0.6-2
								c0.7-0.4,1.6-0.1,2,0.6c0.2,0.3,4,7.9,4.1,23.3c0,14.2,0.8,15.7,6,25.6l0.7,1.4c2.8,5.7,10.7,11.3,18.4,16.8
								c7.3,5.1,14.2,10,17.8,15.4c0.5,0.7,0.3,1.6-0.4,2c-0.7,0.5-1.6,0.3-2-0.4c-3.3-4.9-10.2-9.8-17.1-14.7
								c-7.9-5.6-16.2-11.4-19.5-17.8l-0.7-1.4C200.7,9.1,199.4,6.5,198.5,4z"/>
						</g>
						<g>
							<path class="st4" d="M204,13.7c0-0.1,0-0.2,0-0.3c0-0.4,0.3-0.7,0.7-0.7c0.2,0,17.2,0.1,28.1,13.4c0.3,0.3,0.2,0.8-0.1,1
								c-0.3,0.3-0.8,0.2-1-0.1c-10.4-12.8-26.8-12.9-26.9-12.9C204.4,14.2,204.1,14,204,13.7z"/>
						</g>
						<g>
							<path class="st4" d="M214.1,39.6c-2.8-7.3-2.2-15.8-2.1-16.2c0-0.4,0.4-0.7,0.8-0.7s0.7,0.4,0.7,0.8c0,0.1-0.8,11.2,3.5,18.7
								c0.2,0.3,0.1,0.8-0.3,1c-0.3,0.2-0.8,0.1-1-0.3C215.1,41.8,214.6,40.7,214.1,39.6z"/>
						</g>
						<g>
							<path class="st4" d="M194.8-32.6c0-0.1,0-0.1,0-0.2c0-0.4,0.3-0.8,0.7-0.8c0.3,0,7.6-0.5,17.3,6.9
								C228.5-14.4,238,9.7,243,27.7c0.1,0.4-0.1,0.8-0.5,0.9c-0.4,0.1-0.8-0.1-0.9-0.5c-5-17.8-14.2-41.5-29.6-53.5
								c-9.1-7.1-16.3-6.7-16.4-6.7C195.2-32.1,194.9-32.3,194.8-32.6z"/>
						</g>
						<g>
							<path class="st4" d="M189.4,8.2c-3.7-9.7-5.2-19-2.2-25.8c3.1-6.9,9.3-8,9.6-8.1c0.4-0.1,0.8,0.2,0.8,0.6
								c0.1,0.4-0.2,0.8-0.6,0.8l0,0c-0.2,0-5.8,1-8.5,7.2c-3.1,7.1-2.7,22.1,17.1,52.5c0.2,0.3,0.1,0.8-0.2,1
								c-0.3,0.2-0.8,0.1-1-0.2C198.7,27.8,193,17.8,189.4,8.2z"/>
						</g>
						<g>
							<path class="st4" d="M197.1-14c-0.1-0.2-0.1-0.4,0-0.6c0.2-0.4,0.6-0.5,1-0.3c0,0,4.7,2.5,10.2,6.4
								c5.1,3.6,12.1,9.3,16.2,15.8c0.2,0.3,0.1,0.8-0.2,1c-0.3,0.2-0.8,0.1-1-0.2c-7.6-11.9-25.7-21.6-25.9-21.7
								C197.3-13.7,197.2-13.9,197.1-14z"/>
						</g>
					</g>
				</g>
				<g>
					<g>
						<g>
							<path class="st6" d="M233,39.2c-2.2-2.9-6.4-3.4-9.2-1.2c-2.9,2.2-3.4,6.4-1.2,9.2c2.2,2.9,6.4,3.4,9.2,1.2
								C234.6,46.2,235.2,42.1,233,39.2z"/>
						</g>
					</g>
					<g>
						<g>
							<path class="st8" d="M234,43.8c0,0-3.8-1.6-5.4-7c0,0,3.5-0.8,5.8,0.2C235.9,37.6,234.9,45.4,234,43.8z"/>
						</g>
					</g>
					<g>
						<g>
							<g>
								<path class="st6" d="M251.3,29.5c-2.1,3-1.5,7.1,1.5,9.2c3,2.1,7.1,1.5,9.2-1.5c2.1-3,1.5-7.1-1.5-9.2
									C257.6,25.9,253.5,26.5,251.3,29.5z"/>
							</g>
						</g>
						<g>
							<g>
								<path class="st8" d="M255.4,27.2c0,0-0.4,4.1-5.1,7.2c0,0-1.8-3.1-1.5-5.6C249,27.1,256.8,25.8,255.4,27.2z"/>
							</g>
						</g>
					</g>
					<g>
						<g>
							<g>
								<path class="st6" d="M245.6,40.2c-3.5,0.9-5.6,4.5-4.7,8s4.5,5.6,8,4.7c3.5-0.9,5.6-4.5,4.7-8S249.1,39.3,245.6,40.2z"/>
							</g>
						</g>
						<g>
							<g>
								<path class="st8" d="M250.2,41c0,0-2.9,2.8-8.5,2.2c0,0,0.6-3.5,2.5-5.3C245.3,36.9,252.1,40.9,250.2,41z"/>
							</g>
						</g>
					</g>
					<g>
						<g>
							<path class="st8" d="M229.8,16.6c-0.1,0.1-0.2,0.2-0.2,0.3c-0.2,0.4,0,0.8,0.4,0.9c5.9,2.5,10.1,6,11.2,6.9
								c-0.3,2.7-0.7,5.7-1,6.2c-0.3,0.4-4.2,4-6.6,6.4c-0.3,0.3-0.3,0.7,0,1c0.3,0.3,0.7,0.3,1,0c0.6-0.6,6.2-5.9,6.8-6.5
								c0.4-0.5,0.9-3,1.3-7.3v-0.3l-0.3-0.2c-0.2-0.2-4.8-4.4-11.8-7.4C230.3,16.4,230,16.4,229.8,16.6z"/>
						</g>
					</g>
					<g>
						<g>
							<path class="st8" d="M240.4,30.9c-0.3,0.2-0.4,0.6-0.2,0.9l3.8,7c0.2,0.3,0.6,0.5,0.9,0.3c0.3-0.2,0.5-0.6,0.3-0.9l-3.8-7
								C241.2,30.8,240.8,30.6,240.4,30.9C240.4,30.8,240.4,30.9,240.4,30.9z"/>
						</g>
					</g>
					<g>
						<g>
							<path class="st8" d="M241.5,24c-0.1,0.1-0.2,0.2-0.2,0.3c-0.1,0.4,0.1,0.8,0.5,0.9l4.9,1.5l2.8,3.2c0.3,0.3,0.7,0.3,1,0.1
								c0.3-0.3,0.3-0.7,0.1-1l-3.1-3.5l-5.3-1.6C241.9,23.8,241.7,23.8,241.5,24z"/>
						</g>
					</g>
					<g>
						<g>
							<path class="st8" d="M250,21.9l-3.8,2.9c-0.3,0.2-0.4,0.7-0.1,1c0.2,0.3,0.7,0.4,1,0.1l3.1-2.4c1.1,0.5,2.3,1,2.5,1.2
								c0.3,0.2,0.8,0.1,1-0.2c0.2-0.3,0.1-0.7-0.2-1c-0.4-0.3-2.5-1.2-3.1-1.5L250,21.9z"/>
						</g>
					</g>
				</g>
				<g>
					<g>
						<path class="st5" d="M120.2-37.6c0,0,3.4,22.7,12,39.2s7.7,19.2,4.4,31.1s-34,40.8-47.3,64c0,0-2.2-20.9-8.7-38.2
							c-6.5-17.4-11.9-30.4-10.2-39.8c1.7-9.3,1.8-13.6,8-21.2C84.5-10.2,110.7-22.7,120.2-37.6z"/>
					</g>
					<g>
						<g>
							<path class="st9" d="M115.2-22.2c0.5-0.4,1.2-0.5,1.7,0c0.5,0.4,0.6,1.2,0.1,1.7l0,0c-0.1,0.1-9.8,11.8-6.8,28.1
								c2.8,15.4,2.3,26-1.8,36.6c-1.3,3.4-3.1,6.5-4.7,9.4c-2.7,4.8-5.6,9.7-6.6,16.7c-0.1,0.7-0.7,1.1-1.4,1
								c-0.7-0.1-1.1-0.7-1-1.4c1.1-7.3,4.1-12.6,6.9-17.5c1.7-3,3.3-5.8,4.6-9.1c2.8-7.4,5-16.9,1.7-35.3
								C104.5-9.4,114.7-21.6,115.2-22.2C115.2-22.1,115.2-22.1,115.2-22.2z"/>
						</g>
						<g>
							<path class="st9" d="M94.4-3.8c7.6-7.3,15.9-10.6,16-10.6c0.3-0.1,0.7,0,0.8,0.3c0.1,0.3,0,0.7-0.3,0.8
								c-0.2,0.1-19.6,7.8-26.2,26.2c-4.4,12.2-2.4,26.4,6.1,42.1c0.2,0.3,0.1,0.7-0.2,0.8c-0.3,0.2-0.7,0.1-0.8-0.2
								c-8.7-16-10.8-30.5-6.2-43.1C85.9,5.8,90.1,0.4,94.4-3.8z"/>
						</g>
						<g>
							<path class="st9" d="M109.7-8.7c0.2-0.2,0.5-0.2,0.8-0.1c0.3,0.2,7.4,5.1,12.6,14c4.7,8.2,8.4,21.5-0.7,38.1
								c-0.2,0.3-0.5,0.4-0.8,0.2c-0.3-0.2-0.4-0.5-0.2-0.8c7.1-12.9,7.3-25.2,0.7-36.7c-5-8.6-12.1-13.6-12.2-13.7
								c-0.3-0.2-0.4-0.6-0.2-0.9C109.7-8.7,109.7-8.7,109.7-8.7z"/>
						</g>
						<g>
							<path class="st9" d="M101.4,14.1c3.4-3.3,6.8-3.7,7-3.7c0.3,0,0.6,0.2,0.7,0.6c0,0.3-0.2,0.6-0.6,0.7l0,0
								c-0.1,0-12.1,1.4-13.8,23.4c0,0.3-0.3,0.6-0.7,0.6c-0.3,0-0.6-0.3-0.6-0.7C94.5,23.5,98,17.3,101.4,14.1z"/>
						</g>
						<g>
							<path class="st9" d="M110.6,29.4L110.6,29.4c0.4-0.3,0.8-0.2,0.9,0.1c0.1,0.1,7.1,11.4,1.2,25.2c-0.1,0.3-0.5,0.5-0.8,0.3
								c-0.3-0.1-0.5-0.5-0.3-0.8c5.7-13.2-1-23.9-1.1-24C110.3,29.9,110.3,29.6,110.6,29.4z"/>
						</g>
					</g>
				</g>
				<g>
					<g>
						<path class="st7" d="M13.3-31.3c0,0,15.2,10.2,26.3,13.3C50.7-14.9,79,19.2,89.1,52.9c9.9,33.6,10.7,55,21.5,70.7
							c0,0-18.7-12.3-36.5-14.2c-17.9-1.8-47.5-5.9-62.6-43.1S-9.8,15.4,2.4-6.6C2.4-6.6,14.4-22.4,13.3-31.3z"/>
					</g>
					<g>
						<g>
							<path class="st4" d="M27.1,42.7C24.7,36.9,24,31.6,23.5,19C22.8,0.2,17.8-9.2,17.7-9.3c-0.5-0.9-0.2-2.1,0.7-2.6
								c0.9-0.5,2.1-0.2,2.6,0.7c0.2,0.4,5.6,10.1,6.3,30.1c0.6,18.4,1.7,20.4,8.9,33l1,1.8c4.1,7.2,14.7,14.2,24.8,20.9
								c9.7,6.4,18.9,12.4,23.8,19.2c0.6,0.8,0.4,2-0.4,2.7c-0.9,0.6-2,0.4-2.7-0.4C78.3,89.9,69,83.8,59.9,77.9
								c-10.5-6.9-21.5-14.2-26-22.2l-1-1.8C30.3,49.2,28.4,45.9,27.1,42.7z"/>
						</g>
						<g>
							<path class="st4" d="M34.7,55.1c0-0.1-0.1-0.2-0.1-0.3c0-0.5,0.4-1,0.9-1c0.2,0,22.4-0.7,37,16.2c0.3,0.4,0.3,1-0.1,1.3
								s-1,0.3-1.3-0.1C57.1,55.1,35.8,55.7,35.6,55.7C35.2,55.7,34.8,55.5,34.7,55.1z"/>
						</g>
						<g>
							<path class="st4" d="M49,88.3c-3.9-9.4-3.5-20.4-3.5-20.9s0.5-0.9,1-0.9c0.5,0,0.9,0.5,0.9,1c0,0.1-0.6,14.6,5.3,24.1
								c0.3,0.4,0.1,1-0.3,1.3c-0.4,0.3-1,0.1-1.3-0.3C50.3,91.2,49.6,89.8,49,88.3z"/>
						</g>
						<g>
							<path class="st4" d="M20.7-4.6c0-0.1-0.1-0.2-0.1-0.3c-0.1-0.5,0.3-1,0.8-1c0.4,0,9.9-1,22.7,8.2
								c21.1,15.2,34.3,46.1,41.7,69.3c0.2,0.5-0.1,1-0.6,1.2s-1-0.1-1.2-0.6C76.8,49.4,63.8,18.9,43.2,4.1C30.9-4.8,21.7-4,21.6-4
								C21.3-4,20.9-4.2,20.7-4.6z"/>
						</g>
						<g>
							<path class="st4" d="M15.5,48.7c-5.2-12.4-7.6-24.4-4-33.4C15.1,6,23.2,4.3,23.6,4.3c0.5-0.1,1,0.2,1.1,0.7S24.5,6,24,6.1
								l0,0c-0.3,0.1-7.5,1.6-10.8,9.8c-3.8,9.4-2.6,28.8,24.5,67.4c0.3,0.4,0.2,1-0.2,1.3c-0.4,0.3-1,0.2-1.3-0.2
								C28.5,73.7,20.6,60.9,15.5,48.7z"/>
						</g>
						<g>
							<path class="st4" d="M24.5,19.3c-0.1-0.2-0.1-0.5,0-0.8c0.2-0.5,0.8-0.7,1.3-0.4c0.1,0,6.2,3,13.6,7.9
								c6.8,4.5,16.2,11.6,21.8,19.8c0.3,0.4,0.2,1-0.2,1.3c-0.4,0.3-1,0.2-1.3-0.2C49.2,31.8,25.2,19.9,25,19.8
								C24.8,19.7,24.6,19.5,24.5,19.3z"/>
						</g>
					</g>
				</g>
				<g>
					<g>
						<path class="st6" d="M120.1-1c0,0,30.7,4.5,33.1,32.8c2.4,28.2-17.8,30.3-22.3,39c0,0,5.4-11.5,1.6-17.8
							c-3.8-6.1-11.6-19.6-12.5-25.4C117.1,6.4,124.4,4.8,120.1-1z"/>
					</g>
					<g>
						<path class="st9" d="M126.2,7.5c0-0.3,0-0.5,0.2-0.8c0.3-0.5,1-0.6,1.5-0.3c0.2,0.1,4.8,3.3,8.5,10.7
							c6.2,12.3,5.3,26.8,3.4,36.7c-0.1,0.6-0.7,1-1.3,0.9c-0.6-0.1-1-0.7-0.9-1.3c6.3-33.1-10.9-45.2-11.1-45.3
							C126.4,8,126.3,7.8,126.2,7.5z"/>
					</g>
					<g>
						<path class="st9" d="M130,11.9c0-0.1,0-0.1,0-0.2c0.1-0.3,0.4-0.5,0.6-0.4c0.2,0,4.5,1.1,9,5.1c4.1,3.6,9,10.5,9.1,22.5
							c0,0.3-0.2,0.5-0.5,0.5c-0.3,0-0.5-0.2-0.5-0.5c-0.3-22.2-17.2-26.6-17.3-26.6C130.2,12.3,130.1,12.1,130,11.9z"/>
					</g>
					<g>
						<path class="st9" d="M129.3,34.4c-0.9-5-0.3-9.2,0.5-12c1.2-4.3,3-6.7,3.1-6.8c0.2-0.2,0.5-0.3,0.8-0.1
							c0.2,0.2,0.3,0.5,0.1,0.8c-0.1,0.1-7.1,9.5-1.9,23.7c0.1,0.3,0,0.6-0.3,0.7c-0.3,0.1-0.6,0-0.7-0.3
							C130.1,38.2,129.6,36.2,129.3,34.4z"/>
					</g>
					<g>
						<path class="st9" d="M139.8,39c0-0.1,0-0.3,0.1-0.4c0.2-0.2,0.5-0.3,0.7-0.2c0.1,0,6,4,4.6,11.4c-0.1,0.3-0.3,0.5-0.6,0.4
							s-0.5-0.3-0.4-0.6c1.2-6.7-4.1-10.3-4.2-10.3C139.9,39.2,139.8,39.1,139.8,39z"/>
					</g>
				</g>
				<g>
					<g>
						<path class="st5" d="M198.8-36.9c0,0,2.6,22.8,10.7,39.6s7,19.5,3.4,31.3c-3.7,11.8-35.4,39.6-49.4,62.2
							c0,0-1.5-20.9-7.5-38.5c-5.9-17.6-10.9-30.8-8.9-40.1c2-9.2,2.3-13.5,8.7-20.9C162.4-10.6,189-22.3,198.8-36.9z"/>
					</g>
					<g>
						<g>
							<path class="st9" d="M193.4-21.6c0.5-0.4,1.2-0.4,1.7,0c0.5,0.5,0.5,1.2,0.1,1.7l0,0c-0.1,0.1-10.2,11.5-7.8,27.8
								c2.3,15.5,1.4,26-3,36.5c-1.4,3.4-3.3,6.4-5.1,9.3c-2.9,4.7-5.9,9.5-7.2,16.5c-0.1,0.7-0.8,1.1-1.4,1c-0.7-0.1-1.1-0.8-1-1.4
								c1.4-7.3,4.5-12.3,7.5-17.3c1.8-2.9,3.5-5.7,4.9-8.9c3.1-7.3,5.6-16.8,2.9-35.2C182.2-9.2,192.8-21,193.4-21.6
								C193.3-21.5,193.3-21.6,193.4-21.6z"/>
						</g>
						<g>
							<path class="st9" d="M171.9-3.9c7.9-7,16.3-10,16.4-10.1c0.3-0.1,0.7,0.1,0.8,0.4c0.1,0.3-0.1,0.7-0.4,0.8
								c-0.2,0.1-19.8,7.2-27.1,25.3c-4.8,12.1-3.3,26.3,4.7,42.3c0.2,0.3,0,0.7-0.3,0.8c-0.3,0.2-0.7,0-0.8-0.3
								C157,39,155.4,24.5,160.4,12C163.2,5.3,167.5,0.1,171.9-3.9z"/>
						</g>
						<g>
							<path class="st9" d="M187.5-8.4c0.2-0.2,0.5-0.2,0.8,0c0.3,0.2,7.2,5.3,12,14.5c4.4,8.4,7.7,21.8-2,38
								c-0.2,0.3-0.6,0.4-0.8,0.2c-0.3-0.2-0.4-0.6-0.2-0.8c7.5-12.6,8.2-25,2-36.7c-4.6-8.8-11.6-14-11.7-14.1
								C187.3-7.6,187.1-8,187.5-8.4C187.4-8.3,187.5-8.3,187.5-8.4z"/>
						</g>
						<g>
							<path class="st9" d="M178.3,14.2c3.6-3.2,6.9-3.4,7.2-3.4c0.3,0,0.6,0.2,0.7,0.6c0,0.3-0.2,0.6-0.6,0.7l0,0
								c-0.1,0-12.1,1-14.6,22.9c0,0.3-0.3,0.6-0.7,0.5c-0.3,0-0.6-0.3-0.5-0.7C171.1,23.4,174.8,17.3,178.3,14.2z"/>
						</g>
						<g>
							<path class="st9" d="M187,29.8C187,29.7,187,29.7,187,29.8c0.4-0.2,0.8-0.1,0.9,0.1c0.1,0.1,6.8,11.6,0.4,25.2
								c-0.1,0.3-0.5,0.4-0.8,0.3c-0.3-0.1-0.4-0.5-0.3-0.8c6.1-13-0.2-24-0.3-24.1C186.7,30.3,186.7,30,187,29.8z"/>
						</g>
					</g>
				</g>
				<g>
					<g>
						<path class="st5" d="M-138.6-44.4c18.4-6.3,36.3,8.5,49.5,20.7c8.7,8,13,10.6,24.6,15.9c8.7,3.9,17,7.9,20.8,16.7
							c4.2,9.6,4.6,18.4,10.8,27.6c5.3,7.9,11.1,15.2,16.5,23.6C-3.3,81.1,7,100.5,11.9,128.2c-8.3-23.6-34.6-16.9-50.5-29.4
							c-7.4-5.8-16.8-16.8-23.3-23.3c-8.5-8.6-9.1-17.9-14.5-28.3c-11.9-23.4-30.5-19.5-52.7-29.1c-11.8-5.1-18.4-13.2-31.2-16.6
							c-9.4-2.5-40.2-8-26.7-19.8c1.2-1,8.6-0.1,10.7-0.8c4.3-1.5,7.9-5,11.5-7.6C-156.4-32.9-148.8-40.9-138.6-44.4z"/>
					</g>
				</g>
				<g>
					<g>
						<path class="st8" d="M60.1,50.1c-0.6-4.3,2.4-8.3,6.7-8.9c4.4-0.6,8.4,2.4,8.9,6.7c0.6,4.3-2.4,8.3-6.7,8.9
							C64.8,57.4,60.7,54.4,60.1,50.1z"/>
					</g>
					<g>
						<path class="st6" d="M63.3,54.8c0,0,1.8-4.5-1.4-10.4c0,0-3.6,2.3-4.7,5.1C56.4,51.3,64,57,63.3,54.8z"/>
					</g>
					<g>
						<g>
							<path class="st8" d="M36.5,57.4c4.3,0.7,7.2,4.7,6.5,9c-0.7,4.3-4.7,7.2-9,6.5s-7.2-4.7-6.5-9C28.2,59.6,32.2,56.7,36.5,57.4
								z"/>
						</g>
						<g>
							<path class="st6" d="M31.1,58.9c0,0,3.8,3,10.4,1.7c0,0-1.2-4.1-3.5-6C36.4,53.4,28.8,59,31.1,58.9z"/>
						</g>
					</g>
					<g>
						<g>
							<path class="st8" d="M50.5,61.5c3.7-2.2,8.6-1,10.8,2.7c2.2,3.7,1,8.6-2.7,10.8c-3.7,2.2-8.6,1-10.8-2.7
								C45.5,68.6,46.8,63.7,50.5,61.5z"/>
						</g>
						<g>
							<path class="st6" d="M47.3,66.2c0,0,4.9-0.1,9-5.4c0,0-3.5-2.4-6.5-2.3C47.9,58.5,45.6,67.6,47.3,66.2z"/>
						</g>
					</g>
					<g>
						<path class="st10" d="M43.8,28.4c0.1,0,0.3,0,0.4,0c0.4,0.2,0.6,0.6,0.5,1.1c-2.8,7.1-3.4,13.7-3.5,15.4
							c2.5,2,5.4,4.2,6.1,4.4c0.9,0,7-0.1,11-0.2c0.5,0,0.8,0.3,0.9,0.8c0,0.5-0.4,0.8-0.8,0.9c-1,0-10.3,0.3-11.2,0.2
							c-0.8,0-3.3-1.7-7.3-5l-0.3-0.3v-0.4c0-0.3,0.3-7.7,3.7-16.3C43.2,28.6,43.5,28.4,43.8,28.4z"/>
					</g>
					<g>
						<path class="st10" d="M47,49.3c0.4-0.1,0.8,0.2,0.9,0.6l2.7,9.1c0.1,0.4-0.1,0.9-0.6,1c-0.4,0.1-0.9-0.1-1-0.6l-2.7-9.1
							c-0.1-0.4,0.1-0.9,0.6-1C46.9,49.3,46.9,49.3,47,49.3z"/>
					</g>
					<g>
						<path class="st10" d="M40.2,44.4c0.2,0,0.3,0,0.5,0.1c0.4,0.2,0.6,0.7,0.3,1.1l-2.8,5.4l0.3,5.1c0,0.5-0.3,0.8-0.8,0.9
							c-0.5,0-0.9-0.3-0.9-0.8l-0.4-5.6l3.1-5.8C39.7,44.5,39.9,44.4,40.2,44.4z"/>
					</g>
					<g>
						<path class="st10" d="M31.2,50l5.6-0.8c0.5-0.1,0.9,0.3,0.9,0.7c0.1,0.5-0.3,0.9-0.7,0.9l-4.6,0.6c-0.5,1.4-1.1,2.8-1.1,3.1
							c-0.1,0.5-0.5,0.7-1,0.7c-0.5-0.1-0.7-0.5-0.7-1c0.1-0.6,1.1-3.1,1.4-3.9L31.2,50z"/>
					</g>
				</g>
			</g>
			<path class="st11" d="M-5,219.1c0,0,231.5-48.4,394.9,59.5c0,0,88.5-26.3,127.7,49H-6L-5,219.1z"/>
			<g>
				<g>
					<path class="st12" d="M208.7,146.3c-9.9-2.4-18.8,11.6-24,28.7c-5.2,17.1-2.7,31.5,4.8,33.6c7.5,2.2,16.8-10,22.2-27.1
						C218.1,162,217.8,148.6,208.7,146.3z M200.6,176.8c-2.7,8.6-6.5,15.2-8.9,14.5c-2.5-0.7-2.6-7.6,0.1-16.4
						c2.7-8.6,6.4-16,9.6-15.3C204.3,160.2,203.7,166.8,200.6,176.8z"/>
					<g>
						<path class="st12" d="M183,187.2c7-1,10.1-7.4,16.3-10.2c1.4-0.7,2.9-0.4,4.5-0.3c1.1,0.1,4.1-0.2,4.8,0.4
							c1.2,1,0.4,3.5,0.8,4.5c0.1,0.4,1,1.3,1.3,1.8c1,2.1-0.5,3.2-2.1,4.3c-2.3,1.6-4.4,3.5-6.8,4.9c-2.5,1.4-6.2,1-9.1,1.7
							c-2.3,0.6-4.8,0.8-7.3,0.7c-0.2-2.7-1.1-5-1.9-7.6L183,187.2z"/>
						<path class="st12" d="M185.3,164.4c-1.6,1.4-4.5,4-5.5,5.9c-3.2,5.9-6.7,6.3-6.8,7c-0.1,0.7,2.8,2.1,3.2,2.9
							c0.6,1.1,1,2.2,1.4,3.4c1.6-0.2,3.7-1.7,5.1-2.6c2-1.3,3-3.1,4.1-5.2c0.8-1.6,2.2-2.9,3.9-3.5c1.4-0.6,4.2,0.2,5.3-0.7
							c1.5-1.2-0.3-3-1.5-3.4c-1.3-0.4-2.8,0.1-4.1,0.4c-1.7,0.3-2-0.5-2.7-1.9c1.2-0.7,2.9-2.5,2.6-3.2
							C189.7,161.4,186.9,163.1,185.3,164.4z"/>
						<g>
							<path class="st12" d="M89.2,100.3l5.4,15.6c0,0-1,1.3-3.2,1.2c0,0,0.2,8.1-5,8.1c0,0-2.2,4.5-1.6,7.7
								c0.6,3.2-9.3,7.6-18.5,0.2c0,0,5.9-14.7,4.9-20.5C70,107,77.9,97,89.2,100.3z"/>
							<path class="st12" d="M88.3,99l4.6,15.8c0,0-1,1.3-3.2,1.2c0,0,0.5,7.7-4.7,7.8c0,0-1.2,5.4-0.6,8.7c0.6,3.2-10.6,7-19.8-0.3
								c0,0,5.9-14.7,4.9-20.5C68.5,105.8,77.1,95.5,88.3,99z"/>
							<path class="st12" d="M93.8,93.2c0,0-3.6,6-9.5,9c0,0-1.2,2.4-2.4,3.8c-1.2,1.5-1.9-0.1-2.4-1.1c-0.5-1-6.3-1.7-5.1,3.2
								c0,0,1.7,5.9-4.5,5.5c0,0-2.9-13.3-3.7-17.7c0,0,0.5-0.8,2.1-1.5C69.8,93.9,95.9,85.2,93.8,93.2z"/>
							<path class="st12" d="M89.9,118.2c0,0-3.8-1-6-2.2c0,0,1,4.4,5.2,5C89.1,121,89.5,120.1,89.9,118.2z"/>
						</g>
						<path class="st12" d="M101.5,224.4c22.1,20.7,77.8-19.4,89.9-27.2c2.1-9.1-7-12.4-7.8-12.3c-30.7,9.8-42.2,11-44.2,11.4
							c0,0,10.1-2.4,14-3.3c12.9-3.5,25.5-8.1,28.1-9.4c-0.6-2-1.8-6.9-6.7-9.1c0,0-26.9,3.5-43.2,3.7c-9.8,0.1-28-30.9-34.7-40.6
							c-8.9-12.9-12.4-8.4-21.3-9.6c-8.8-1.2-7.3-8.4-14-3.5c-6.6,4.9-30.9,12.9-23,72.5c7.8,59.6,39.1,67.6,39.8,67.9
							c0.6,0.3,60.8,0,60.8,0l7.8-22.3l-7.1-14.1c-26.8,10.1-34.4,1.5-39.4-1.8c-4.9-3.4-26.9-30.5-26.9-30.5
							S85.3,209.3,101.5,224.4z"/>
					</g>
				</g>
				<path class="st12" d="M43,293.3C43,313.5,26.6,330,6.3,330c-20.2,0-36.6-16.4-36.6-36.6c0-20.2,16.4-36.6,36.6-36.6
					C26.5,256.7,43,273.2,43,293.3z"/>
				<path class="st12" d="M334.9,288c0,20.2-16.4,36.6-36.6,36.6c-20.2,0-36.6-16.4-36.6-36.6c0-20.2,16.4-36.6,36.6-36.6
					C318.6,251.4,334.9,267.7,334.9,288z"/>
				<path class="st12" d="M311.1,287.9c0,7.1-5.7,12.9-12.9,12.9c-7.1,0-12.9-5.7-12.9-12.9c0-7.1,5.7-12.9,12.9-12.9
					C305.4,275.2,311.1,280.9,311.1,287.9z"/>
				<path class="st12" d="M19.2,293.3c0,7.1-5.7,12.9-12.9,12.9s-12.9-5.7-12.9-12.9c0-7.1,5.7-12.9,12.9-12.9
					C13.4,280.5,19.2,286.3,19.2,293.3z"/>
				<g>
					<g>
						<path class="st12" d="M206.8,201.6c0,0,161.7-12.8,173.8,27.7c0,0,7.6,10.4-7.6,18.6c-15.4,8.2-12,13.2-12,20.3
							s-15.4,18.6-105.6,15.9c0,0-1.6,12.5-12.5,15.4c-10.9,2.7-343.1,13.7-346.9-31.2c-3.8-44.9,72.8-63.9,124.2-66.2
							c0,0,17.5-1.1,38.3,15.9C79.1,234.7,188.8,229.5,206.8,201.6z"/>
						<rect x="353.7" y="256" class="st12" width="15.5" height="3.8"/>
						<path class="st12" d="M374.9,224.4c-0.1,2.5-0.1,14.3,0,16.2c0.1,1.9,9.9,3.8,11.1-1.7C389.4,224.6,375,219.8,374.9,224.4z"/>
						<path class="st12" d="M80.4,284.5c-10.2-0.5-15-6.2-15-16.5v-46.8l-6.8-3.4v50.6c0,10.2,8.3,18.6,18.6,18.6h71.9
							c0.5,0,1,0,1.5-0.1L80.4,284.5z"/>
						<g>
							<path class="st12" d="M303.1,257.2c0-10.4-9.7-19.1-21.7-19.2c0,0-27.2-0.1-45.5-0.1c-72,0-134.3,28.9-134.3,28.9
								c-10.8,5-9.9,9.1,2,9.1l177.9,0.2C293.4,276.3,303.1,267.7,303.1,257.2z"/>
						</g>
					</g>
				</g>
			</g>
			<g>
				<g>
					<path class="st6" d="M210.4,148.9c-9.9-2.4-18.8,11.5-24,28.6s-2.7,31.5,4.8,33.6c7.5,2.2,16.8-10,22.2-27.1
						C219.8,164.5,219.4,151.1,210.4,148.9z M202.3,179.2c-2.7,8.6-6.5,15.2-8.9,14.5c-2.5-0.7-2.6-7.6,0.1-16.4
						c2.7-8.6,6.4-16,9.6-15.3C206,162.7,205.4,169.3,202.3,179.2z"/>
					<g>
						<path class="st12" d="M184.7,189.7c7-1,10.1-7.4,16.3-10.2c1.4-0.7,2.9-0.4,4.5-0.3c1.1,0.1,4.1-0.2,4.8,0.4
							c1.2,1,0.4,3.5,0.8,4.5c0.1,0.4,1,1.3,1.3,1.8c1,2.1-0.5,3.2-2.1,4.3c-2.3,1.6-4.4,3.5-6.8,4.9c-2.5,1.4-6.2,1-9.1,1.7
							c-2.3,0.6-4.8,0.8-7.3,0.7c-0.2-2.7-1.1-5-1.9-7.6L184.7,189.7z"/>
						<path class="st12" d="M187,166.9c-1.6,1.4-4.5,4-5.5,5.9c-3.2,5.9-6.7,6.3-6.8,7c-0.1,0.7,2.8,2.1,3.2,2.9
							c0.6,1.1,1,2.2,1.4,3.4c1.6-0.2,3.7-1.7,5.1-2.6c2-1.3,3-3.1,4.1-5.2c0.8-1.6,2.2-2.9,3.9-3.5c1.4-0.6,4.2,0.2,5.3-0.7
							c1.5-1.2-0.3-3-1.5-3.4c-1.3-0.4-2.8,0.1-4.1,0.4c-1.7,0.3-2-0.5-2.7-1.9c1.2-0.7,2.9-2.5,2.6-3.2
							C191.4,163.9,188.7,165.5,187,166.9z"/>
						<g>
							<path class="st5" d="M90.8,102.8l5.4,15.6c0,0-1,1.3-3.2,1.2c0,0,0.2,8.1-5,8.1c0,0-2.2,4.5-1.6,7.7
								c0.6,3.2-9.3,7.6-18.5,0.2c0,0,5.9-14.7,4.9-20.5C71.7,109.4,79.6,99.4,90.8,102.8z"/>
							<path class="st12" d="M90,101.5l4.6,15.8c0,0-1,1.3-3.2,1.2c0,0,0.5,7.7-4.7,7.8c0,0-1.2,5.4-0.6,8.7
								c0.6,3.2-10.6,7-19.8-0.3c0,0,5.9-14.7,4.9-20.5C70.1,108.3,78.7,98.1,90,101.5z"/>
							<path class="st5" d="M95.5,95.7c0,0-3.6,6-9.5,9c0,0-1.2,2.4-2.4,3.8c-1.2,1.5-1.9-0.1-2.4-1.1s-6.3-1.7-5.1,3.2
								c0,0,1.7,5.9-4.5,5.5c0,0-2.9-13.3-3.7-17.7c0,0,0.5-0.8,2.1-1.5C71.5,96.4,97.5,87.6,95.5,95.7z"/>
							<path class="st5" d="M91.5,120.7c0,0-3.8-1-6-2.2c0,0,1,4.4,5.2,5C90.8,123.6,91.2,122.7,91.5,120.7z"/>
						</g>
						<path class="st5" d="M103.1,226.9c22.1,20.7,77.8-19.4,89.9-27.2c2.1-9.1-7-12.4-7.8-12.3c-30.7,9.8-42.2,11-44.2,11.4
							c0,0,10.1-2.4,14-3.3c12.9-3.5,25.5-8.1,28.1-9.4c-0.6-2-1.8-6.9-6.7-9.1c0,0-26.9,3.5-43.2,3.7c-9.8,0.1-28-30.9-34.7-40.6
							c-8.9-12.9-12.4-8.4-21.3-9.6s-7.3-8.4-14-3.5c-6.6,4.9-30.9,12.9-23,72.5c7.8,59.6,39.1,67.6,39.8,67.9
							c0.6,0.3,60.8,0,60.8,0l7.8-22.3l-7.1-14.1c-26.8,10.1-34.4,1.5-39.4-1.8c-4.9-3.4-26.9-30.5-26.9-30.5
							S87.1,211.8,103.1,226.9z"/>
					</g>
				</g>
				<path class="st5" d="M44.6,295.8c0,20.2-16.4,36.6-36.6,36.6c-20.2,0-36.6-16.4-36.6-36.6c0-20.2,16.4-36.6,36.6-36.6
					S44.6,275.6,44.6,295.8z"/>
				<path class="st5" d="M336.6,290.4c0,20.2-16.4,36.6-36.6,36.6c-20.2,0-36.6-16.4-36.6-36.6c0-20.2,16.4-36.6,36.6-36.6
					C320.2,253.8,336.6,270.2,336.6,290.4z"/>
				<path class="st7" d="M312.9,290.4c0,7.1-5.7,12.9-12.9,12.9s-12.9-5.7-12.9-12.9c0-7.1,5.7-12.9,12.9-12.9
					C307.1,277.6,312.9,283.4,312.9,290.4z"/>
				<path class="st7" d="M20.8,295.8c0,7.1-5.7,12.9-12.9,12.9S-4.9,303-4.9,295.8c0-7.1,5.7-12.9,12.9-12.9S20.8,288.7,20.8,295.8z
					"/>
				<g>
					<g>
						<defs>
							<path id="SVGID_3_" d="M392.6,307.6h-499.9V198h499.9V307.6z M7.9,251.2c-24.2,0-43.8,19.6-43.8,43.8
								c0,24.1,19.6,43.7,43.8,43.7s43.8-19.6,43.8-43.7C51.7,270.7,32.1,251.2,7.9,251.2z M299.3,245.1
								c-24.2,0-43.8,19.6-43.8,43.8c0,24.1,19.6,43.7,43.8,43.7c24.2,0,43.8-19.6,43.8-43.7C343.1,264.7,323.5,245.1,299.3,245.1z"
								/>
						</defs>
						<clipPath id="SVGID_4_">
							<use xlink:href="#SVGID_3_"  style="overflow:visible;"/>
						</clipPath>
						<g class="st13">
							<path class="st7" d="M208.5,204.1c0,0,161.7-12.8,173.8,27.7c0,0,7.6,10.4-7.6,18.6c-15.4,8.2-12,13.2-12,20.3
								c0,7.1-15.4,18.6-105.6,15.9c0,0-1.6,12.5-12.6,15.4c-10.9,2.7-343.1,13.7-346.9-31.2c-3.8-44.9,72.8-63.9,124.2-66.2
								c0,0,17.5-1.1,38.3,15.9C80.8,237.2,190.5,232,208.5,204.1z"/>
							<rect x="355.3" y="258.5" class="st5" width="15.5" height="3.8"/>
							<path class="st5" d="M376.6,226.9c-0.1,2.5-0.1,14.3,0,16.2c0.1,1.9,9.9,3.8,11.1-1.7C391.1,227,376.7,222.3,376.6,226.9z"/>
							<path class="st14" d="M82.1,286.9c-10.2-0.5-15-6.2-15-16.5v-46.8l-6.8-3.4v50.6c0,10.2,8.3,18.6,18.6,18.6h71.9
								c0.5,0,1,0,1.5-0.1L82.1,286.9z"/>
							<g>
								<path class="st7" d="M304.7,259.7c0-10.4-9.7-19.1-21.7-19.2c0,0-27.2-0.1-45.5-0.1c-72,0-134.3,28.9-134.3,28.9
									c-10.8,5-9.9,9.1,2,9.1l177.9,0.2C295,278.8,304.7,270.2,304.7,259.7z"/>
							</g>
						</g>
					</g>
					<path class="st15" d="M198,126.4c0,0-11.9-8.8-14.2,8.7c-2.3,17.7-6.9,72.7-15.8,93.7c0,0,79.5-7.9,86.3-31.1
						C259.8,179,198,126.4,198,126.4z"/>
				</g>
			</g>
		</g>
	</g>
</g>
</svg>
