<?xml version="1.0" encoding="utf-8"?>
<!-- Generator: Adobe Illustrator 22.0.1, SVG Export Plug-In . SVG Version: 6.00 Build 0)  -->
<svg version="1.1" id="圖層_1" xmlns="http://www.w3.org/2000/svg" xmlns:xlink="http://www.w3.org/1999/xlink" x="0px" y="0px"
	 viewBox="0 0 948.1 588.2" style="enable-background:new 0 0 948.1 588.2;" xml:space="preserve">
<style type="text/css">
	.st0{clip-path:url(#SVGID_2_);}
	.st1{fill:#A2D5C9;}
	.st2{fill:#527E32;}
	.st3{fill:#F6AA00;}
	.st4{fill:#0C2F54;}
	.st5{fill:#FFFFFF;}
	.st6{fill:#006934;}
	.st7{fill:#FFFDED;}
</style>
<g>
	<defs>
		<rect id="SVGID_1_" x="1.5" y="-3.4" width="947.1" height="591.6"/>
	</defs>
	<clipPath id="SVGID_2_">
		<use xlink:href="#SVGID_1_"  style="overflow:visible;"/>
	</clipPath>
	<g class="st0">
		<g>
			<g>
				<path class="st1" d="M948.6,601.5H1.5c0,0,98.6-177.6,267.7-200.1c169.1-22.6,188.6,49.4,301.3,29.7
					c112.7-19.7,166.6-201.6,378-204.4L948.6,601.5L948.6,601.5z"/>
			</g>
		</g>
		<g>
			<path class="st2" d="M885.1,496.3c0,0-25.9,7.5-22,30.8C863.1,527.1,889.4,522.2,885.1,496.3z"/>
			<path class="st2" d="M387.6,474.6c0,0-18.1,5.2-15.4,21.5C372.3,496.1,390.6,492.7,387.6,474.6z"/>
			<path class="st2" d="M903.6,466.3c0,0-2.7,22.8,16.9,27.5C920.4,493.8,925.3,471.5,903.6,466.3z"/>
			<path class="st2" d="M706.3,496.2c0,0-18.1,5.2-15.4,21.5C691,517.7,709.3,514.3,706.3,496.2z"/>
			<path class="st2" d="M919.5,322.7c0,0-18.1,5.2-15.4,21.5C904.2,344.3,922.5,340.8,919.5,322.7z"/>
			<path class="st2" d="M177.3,469.1c0,0-18.1,5.2-15.4,21.5C162,490.6,180.3,487.1,177.3,469.1z"/>
			<path class="st3" d="M615.3,458.5c0,0-3.2,24.7,17.9,30C633.2,488.5,638.8,464.4,615.3,458.5z"/>
			<path class="st3" d="M853.2,282.3c0,0-24.4-5-31.2,15.8C822,298,845.6,305.3,853.2,282.3z"/>
			<path class="st4" d="M419,523.9c0,0-4.5-18.6-21.1-16.6C397.9,507.3,400.5,526.1,419,523.9z"/>
			<path class="st4" d="M863.9,390.2c0,0-4.5-18.6-21.1-16.6C842.8,373.5,845.4,392.4,863.9,390.2z"/>
			<path class="st4" d="M740.2,460.7c0,0-2.4,19,13.8,23.1C754,483.8,758.3,465.2,740.2,460.7z"/>
			<path class="st4" d="M575,503.2c0,0-1.9,14.1,10.3,17.1C585.2,520.4,588.4,506.6,575,503.2z"/>
			<path class="st3" d="M887.6,411.1c0,0-2.4,19,13.8,23.1C901.4,434.2,905.7,415.6,887.6,411.1z"/>
			<path class="st3" d="M131.5,498.5c0,0-2.4,19,13.8,23.1C145.4,521.6,149.7,503,131.5,498.5z"/>
			<path class="st3" d="M715.1,453.6c0,0-18.7,4.1-17,20.9C698.1,474.4,717.1,472.1,715.1,453.6z"/>
			<path class="st3" d="M314.6,489.7c0,0-18.1,6.4-14.4,22.7C300.2,512.4,318.7,507.9,314.6,489.7z"/>
			<path class="st4" d="M896.7,270.2c0,0-2.4,19,13.8,23.1C910.4,293.3,914.7,274.7,896.7,270.2z"/>
		</g>
		<g>
			<g>
				<g>
					<g>
						<g>
							<polygon class="st5" points="536.8,383.9 531.7,381.8 597.9,226.1 603,228.2 							"/>
						</g>
						<g>
							<polygon class="st5" points="684.6,384.4 679.9,381.6 757.2,257.5 761.9,260.3 							"/>
						</g>
						<g>
							<path class="st5" d="M682.4,385.7l-2.1-0.8L577.8,282.1l1.9-4.6l168.2-0.5l2.3,1.1l69.8,97.4l-2.1,4.2L682.4,385.7z
								 M586.2,282.9l97.1,97.4l129.4-5.6l-66.1-92.2L586.2,282.9z"/>
						</g>
						<g>
							<path class="st5" d="M532.4,458.8c-41.4,0.3-75.3-33.2-75.6-74.6c-0.3-41.5,33-75.5,74.3-75.9c41.4-0.3,75.3,33.2,75.6,74.6
								C607.1,424.4,573.7,458.5,532.4,458.8z M531.3,323.1c-33,0.3-59.7,27.6-59.5,61c0.3,33.4,27.4,60.2,60.4,60
								c33-0.3,59.7-27.6,59.5-61S564.3,322.8,531.3,323.1z"/>
						</g>
						<g>
							<path class="st5" d="M825.9,449.7c-41.4,0.3-75.3-33.2-75.6-74.6c-0.3-41.5,33-75.5,74.3-75.9c41.4-0.3,75.3,33.2,75.6,74.6
								C900.6,415.3,867.2,449.3,825.9,449.7z M824.8,313.9c-33,0.3-59.7,27.6-59.5,61c0.3,33.4,27.4,60.2,60.4,60
								s59.7-27.6,59.5-61C885,340.6,857.8,313.7,824.8,313.9z"/>
						</g>
						<g>
							<path class="st5" d="M604.9,230.4c-1.9,0-3.5-0.5-4.8-1.1c-19.1-9.4-6.6-38.9-2.3-47.7c2.1-4.4,6.6-5.4,13.4-7.1
								c3.4-0.8,7.7-1.9,12.8-3.5l1.7,5.1c-5.4,1.7-9.7,2.8-13.3,3.6c-6.2,1.5-8.8,2.2-9.8,4.2c-1.9,4-5.4,11.9-6.8,19.9
								c-1.9,10.6,0.3,17.5,6.6,20.6c6.8,3.3,16.2-10.1,19.3-15.5c0.6-2,2.6-5.1,7.2-5.2c4,0,20.7-0.2,20.7-0.2l0.1,5.4
								c0,0-16.8,0.2-20.8,0.2c-1.7,0-2,1.1-2.1,1.3l-0.1,0.4l-0.2,0.4c-0.1,0.3-3.2,5.9-7.8,11
								C613.4,228.5,608.6,230.4,604.9,230.4z"/>
						</g>
						<g>
							<path class="st5" d="M760.1,250c-4.9-0.7-11.5,1.2-15.4,3c-4.2,1.9-9.9,0.7-13.6,2.6c-13.1,7,10.7,9.4,16.6,9.4
								c6-0.1,20.7,5.6,24.8,0.5C778.2,258.5,765.9,250.8,760.1,250z"/>
						</g>
					</g>
					<g>
						<g>
							<polygon class="st5" points="811.1,452.4 820.1,467.1 830.1,460.7 820.3,444.3 							"/>
							<path class="st5" d="M826.8,452.7l-12.8,7.8c0,0,4.3,5.9,3.3,11.2c-1.1,5.2-12.8,8.5-13.4,13c-0.7,5.2,11.8-0.5,23.1-6.8
								c11.3-6.4,10.3-9.2,10.3-9.2L826.8,452.7z"/>
						</g>
						<g>
							<polygon class="st5" points="784.7,399.1 806.7,403.5 808.1,391.9 784.2,387 							"/>
							<path class="st5" d="M799.7,389.3l-2.1,14.6c0,0,7.4,0.5,10.9,4.7c3.4,4.2-1.6,15.2,1.6,18.5c3.7,3.9,7.2-9.1,9.5-21.8
								c2.3-12.6-0.6-13.6-0.6-13.6L799.7,389.3z"/>
						</g>
						<path class="st5" d="M771.6,361.5c1.1-3.8,13.4-62.8,13.4-62.8c22.4-27.6,5.4-58.9,5.4-58.9c-67.7,2.3-91.5,14.6-91.5,14.6
							c-29.4,42.5-35.5,65.9-42,91c-8.7,33.6,83,51.3,93.8,53.3c-0.2-0.3-20.6-22.5-29.5-40.7l-19.8-10.5c5.8-3.3,9.8-9.5,12.5-15.8
							c-1.3-1.9-0.7-10.1,14.8-44.4c0,0-9.5,22.1-12.5,38.4c0.1-0.3,0.3-0.7,0.3-1.1c-11.1,39.6,92.4,133.5,92.4,133.5l16.6-14.2
							C807.4,404.8,770.6,365.3,771.6,361.5z"/>
						<g>
							<path class="st5" d="M660.7,63l-5.9,18.6c0,0,1,3.4,4,3.6c0,0,0.7,9.3,7.2,9.1c0,0,2.5,5.4,2,9.5
								c-0.5,4.1,11.1,3.4,19.5-11.8c0,0-4.6-8.5-3.7-16C684.5,68.6,674.4,57.9,660.7,63z"/>
							<path class="st5" d="M661.6,61.4L657,81.6c0,0,1.4,1.6,4,1.3c0,0-0.1,9.7,6.5,9.5c0,0,1.9,6.8,1.4,10.9
								c-0.5,4.1,12.3,3.8,20.8-11.3c0,0-4.6-8.5-3.7-16C686.8,68.6,675.3,56.3,661.6,61.4z"/>
							<path class="st5" d="M654.4,54.5c0,0,5,7.3,12.5,10.7c0,0,1.7,2.9,3.2,4.7c1.6,1.8,2.4-0.3,3-1.6c0.6-1.3,7.8-2.5,6.6,3.7
								c0,0-1.7,7.5,6,6.7c0,0,2.7-16.9,3.4-22.4c0,0-0.7-1-2.8-1.7C684.3,53.7,651.2,44.5,654.4,54.5z"/>
							<path class="st5" d="M661.1,85.7c0,0,4.7-1.5,7.3-3.2c0,0-0.9,5.6-6.2,6.6C662.3,89.2,661.7,88,661.1,85.7z"/>
						</g>
						<g>
							<path class="st5" d="M693,89.9c-5.7-2.8-4.2,1.5-4.2,1.5c-9.1,15.8-19.7,12.4-19.7,12.4c-25.3,14,1.8,81,3.7,85.5
								c4.6-2.4,7.2-4.2,16.7-10.9c0,0-2.3-8.9-1.9-22.3c0,0,1.3,16.4,3.8,23.6c0,0-21.9,18.3-41.2,21.9c0,0,3.8,7.2,6.3,13
								c0,0,32.2,8,61.4-15.7c7.4-6,4.3-37.5,4.3-37.5s4.9,31.4-2.5,39.6c-8.3,9.3-24.8,13.5-32.9,16.4
								c9.6,16.4,18.7,27.9,18.7,27.9c-5.6,6.4-11.5,12-11.5,12c76.3,10.6,99.6-12,99.6-12C789.9,73.7,698.7,92.6,693,89.9z"/>
							<path class="st5" d="M658.5,153.2c-7.3,3.4-16.4,7.3-43.6,14.4c0,0,4.4,9.3,4.4,13c0,0,16.9,3.4,46.2-4.4
								C662.4,168.4,659.9,160.5,658.5,153.2z"/>
						</g>
						<path class="st5" d="M607.2,173.1c-1.3,2.4-3.6,8,2.3,8.6c3.2,0.3,7.9-2.1,10.7-3.6c3.2-1.7,1.2-7.9-1.8-9.2
							c-1.7-0.7-4.3-0.1-5.9,0.5C609.4,170.5,608.4,170.7,607.2,173.1z"/>
						<path class="st5" d="M639.6,206.6c-3.9,3.3-0.1,6.5,3.9,5.8c2.3,5.2,11,3.4,13.6,0.1c2.2-2.9-0.4-8-3.8-9
							C649.1,202.2,642.8,203.8,639.6,206.6z"/>
					</g>
				</g>
				<g>
					<g>
						<polygon class="st5" points="476.3,388.4 468.8,398.4 454.9,388.4 462.4,378.3 						"/>
						<path class="st5" d="M474.5,384.7l-9.9,13.2c0,0,7.2,6.1,8.5,10.7s-9.1,13-6.2,17.7c2.9,4.7,25.3-25.8,24.7-29.1
							C491.1,394,474.5,384.7,474.5,384.7z"/>
					</g>
					<g>
						<g>
							<polygon class="st5" points="287.2,463.6 281.9,461.4 351.7,297.3 357,299.5 							"/>
						</g>
						<g>
							<polygon class="st5" points="443,464.2 438.1,461.2 519.6,330.4 524.5,333.3 							"/>
						</g>
						<g>
							<path class="st5" d="M440.7,465.6l-2.2-0.9l-108-108.3l2.1-4.8l177.3-0.5l2.4,1.2l73.6,102.6l-2.3,4.4L440.7,465.6z
								 M339.4,357.2l102.4,102.6l136.3-5.9l-69.7-97.1L339.4,357.2z"/>
						</g>
						<g>
							<path class="st5" d="M282.7,542.5c-43.6,0.3-79.3-35-79.6-78.7c-0.3-43.7,34.8-79.6,78.4-79.9c43.5-0.4,79.2,34.9,79.6,78.7
								C361.4,506.3,326.2,542.2,282.7,542.5z M281.5,399.5c-34.8,0.3-63,29.1-62.7,64.2c0.3,35.2,28.9,63.5,63.7,63.2
								s63-29.1,62.7-64.2C344.9,427.6,316.3,399.2,281.5,399.5z"/>
						</g>
						<g>
							<path class="st5" d="M591.9,532.9c-43.6,0.3-79.3-35-79.6-78.7c-0.3-43.7,34.8-79.6,78.4-79.9c43.6-0.3,79.3,35,79.6,78.7
								C670.6,496.7,635.5,532.6,591.9,532.9z M590.7,389.9c-34.8,0.3-63,29.1-62.7,64.2c0.3,35.2,28.9,63.5,63.7,63.2
								c34.8-0.3,63-29.1,62.7-64.2C654.2,418,625.6,389.6,590.7,389.9z"/>
						</g>
						<g>
							<path class="st5" d="M359.4,302c-1.8,0-3.6-0.4-5.4-1.3c-20.1-9.9-7-40.9-2.4-50.3c2.3-4.6,7-5.8,14.1-7.5
								c3.6-0.9,8.1-1.9,13.6-3.7l1.8,5.4c-5.7,1.9-10.3,2.9-14,3.8c-6.6,1.6-9.3,2.3-10.3,4.4c-2.1,4.2-5.7,12.5-7.2,21
								c-2,11.1,0.4,18.5,7,21.7c7.3,3.6,17.1-9.6,19.9-14.5c0.5-0.7,4.4-7.3,9.3-9c5.5-1.9,17.9-4.7,18.5-4.8l1.3,5.5
								c-0.1,0-12.6,2.9-17.9,4.7c-2.3,0.8-5.2,4.7-6.2,6.5C381.1,284.8,371,301.9,359.4,302z"/>
						</g>
						<g>
							<path class="st5" d="M522.6,322.6c-5.2-0.7-12,1.3-16.2,3.2c-4.4,2.1-10.5,0.7-14.4,2.8c-13.8,7.3,11.3,9.9,17.5,9.9
								c6.3-0.1,21.8,5.9,26.2,0.5C541.7,331.5,528.7,323.5,522.6,322.6z"/>
						</g>
					</g>
					<g>
						<g>
							<polygon class="st5" points="474.7,499.6 461.4,502.3 457.6,484.5 471,481.8 							"/>
							<path class="st5" d="M475.9,495.3l-17.5,3.6c0,0,1.3,10-1.1,14.6c-2.3,4.6-16.8,4-17.9,9.7s39.1-2.6,41-5.7
								C482.3,514.5,475.9,495.3,475.9,495.3z"/>
						</g>
						<path class="st5" d="M538.6,287.3c0,0-3.2-7.3-2.8-12.6c0.3-5.4-61-5.3-61-5.3s-6.2,14.2-8.4,22.7c0,0-107.4,0.1-96.9,39.9
							c0,0,3.2,15.3,44,36.1c0,0-18.2,15.9,22.4,73.1c0,0,20.2,31.7,16.8,48.6c0,0,29.3-3.7,25-7.1c0,0-6.5-25.3-9-49.1
							c-2.5-23.8-7.3-36.4-9.7-43.3c0,0,46.6-34.2,56.3-43.4C525,337.6,557.4,332.4,538.6,287.3z M432.6,352.2l-4-6.5
							c2.4,1.1,8.2,1.5,8.2,1.5C433.3,349.9,432.6,352.2,432.6,352.2z"/>
					</g>
					<g>
						<path class="st5" d="M357.4,245.3c2.6-0.1,5.6-0.3,4.9,3.8c-1.8,0.8-3.5,1-2.8,2.8c0.7,1.8,4.4,2.1,6.8,2c3.3-0.2,5.7-1.7,8-4
							c2.1-2.1,5.1-6.2,2.9-9.3c-1.8-2.4-4.9-0.7-7.3-0.5c-2.9,0.3-6-0.5-8.8,0.3c-1.1,0.3-2.2,0.7-2.8,1.7
							C357.9,242.4,356.8,245.3,357.4,245.3z"/>
						<g>
							<path class="st5" d="M484.7,113.5c0,0-6.4,4.7-7.6,6.3c-1.3,1.7-4.2,2.8-4.8,4c-0.3,0.6,0.7,0.8,1.1,1
								c0.6,0.3-3.2,12.2,3.7,16.6c0,0,1.3,9.9,1.2,13.3l15.6,6c0,0-0.4-13,4.2-15.2C514.3,138.2,518.9,108.4,484.7,113.5z"/>
							<path class="st5" d="M485.2,113.3c0,0-4.4,5.4-5.7,7c-1.3,1.6-4.1,2.7-4.8,3.9c-0.3,0.5,0.7,0.8,1.1,1
								c0.6,0.3-3.5,10.4,3.3,14.7c0,0,0,11.1-0.1,14.4l17.4,6.4c0,0-0.5-12.9,4-14.9C516.6,138.6,519.2,108.4,485.2,113.3z"/>
							<path class="st5" d="M475.7,127.8c0,0,4.6,0,7.7-0.7c0,0-3.3,4.4-8.3,3.9C475.1,131,475.1,130,475.7,127.8z"/>
							<path class="st5" d="M484.9,110.2c-2.1,1.7-3,3.3-3,5.9c-0.1,4,2.8,6.8,6,9c2.8,1.9,6.3,1.6,9,3.3c2.4,1.5,3.8,5.3,5.4,7.6
								c3,4.4,7.2,8.3,12.2,10.5c4.9,2.1,10.4,2.5,15.7,3.4c9.7,1.6,18.7,5.3,27.3,9.7c11.4,5.8,23.8,6.3,23.8,6.3
								s-0.8-9.3-0.4-11.1c1.1-5.2,3.9-9.1,7.3-13c1.7-1.9,3.7-3.7,5.8-5.2c1.9-1.5,4.3-2.2,5.7-4.2c1.5-2.1,1.8-4.8,2.1-7.2
								c0.4-2.8,0.2-5.8-0.4-8.5c-0.3-1.3-0.9-7.7-0.9-7.7s-7.5,6.6-10.2,8c-3.8,2-8.1,3.8-12.2,5c-8.9,2.6-19.6,3.4-28.9,2.6
								c-8.1-0.7-13.5-5.6-19.9-9.8c-4.4-2.9-9.6-4.7-14.7-6.4c-4.4-1.5-8.9-2-13.3-2.8C497.5,104.8,491.2,105.1,484.9,110.2z"/>
						</g>
						<path class="st5" d="M568.9,33.4c3.6-8.2,8.5-12.6,16.3-17.4c4.2-2.6,12.2-6.4,13.8-2.5c1.6,3.8-8.4,8-11.9,11.7
							c-4.2,4.4-7.7,11-9.5,16.7L568.9,33.4z"/>
						<path class="st5" d="M501.7,148.2c-4.6-8.3-26.9-1.3-26.8,7.2c0,0,3.2,7.7-0.7,13.4c-3.8,5.8-20.9,14.8-46.4,42.2
							c0,0-36.9,12.6-55.9,26.5l3.6,8.4c0,0,39.4,4.7,60.7-10.9c0,0,18.3-7.8,22-17.1c0,0,0.5,11.1,11.1,14.1c0,0-3.4,15,1.5,39.5
							c0,0,33.8-3.4,65,5.6c0,0,19.9-63.4,4-106.7c0,0,11.5-31.9,11.9-72.6c0,0,21.6-27,29.9-61.2l-13.7-6c0,0-20.5,12.8-33.8,60.5
							c0,0-21.5,40.8-25.6,58.1L501.7,148.2z"/>
					</g>
				</g>
			</g>
			<g>
				<g>
					<g>
						<g>
							<polygon class="st4" points="532.3,383.9 527.2,381.8 593.4,226.1 598.5,228.2 							"/>
						</g>
						<g>
							<polygon class="st4" points="680.1,384.4 675.4,381.6 752.7,257.5 757.4,260.3 							"/>
						</g>
						<g>
							<path class="st4" d="M677.9,385.7l-2.1-0.8L573.3,282.1l1.9-4.6l168.2-0.5l2.3,1.1l69.8,97.4l-2.1,4.2L677.9,385.7z
								 M581.7,282.9l97.1,97.4l129.4-5.6l-66.1-92.2L581.7,282.9z"/>
						</g>
						<g>
							<path class="st4" d="M527.9,458.8c-41.4,0.3-75.3-33.2-75.6-74.6c-0.3-41.5,33-75.5,74.3-75.9c41.4-0.3,75.3,33.2,75.6,74.6
								C602.6,424.4,569.2,458.5,527.9,458.8z M526.8,323.1c-33,0.3-59.7,27.6-59.5,61c0.3,33.4,27.4,60.2,60.4,60
								c33-0.3,59.7-27.6,59.5-61S559.8,322.8,526.8,323.1z"/>
						</g>
						<g>
							<path class="st4" d="M821.4,449.7c-41.4,0.3-75.3-33.2-75.6-74.6c-0.3-41.5,33-75.5,74.3-75.9c41.4-0.3,75.3,33.2,75.6,74.6
								C896.1,415.3,862.7,449.3,821.4,449.7z M820.3,313.9c-33,0.3-59.7,27.6-59.5,61c0.3,33.4,27.4,60.2,60.4,60
								c33-0.3,59.7-27.6,59.5-61C880.5,340.6,853.3,313.7,820.3,313.9z"/>
						</g>
						<g>
							<path class="st4" d="M600.4,230.4c-1.9,0-3.5-0.5-4.8-1.1c-19.1-9.4-6.6-38.9-2.3-47.7c2.1-4.4,6.6-5.4,13.4-7.1
								c3.4-0.8,7.7-1.9,12.8-3.5l1.7,5.1c-5.4,1.7-9.7,2.8-13.3,3.6c-6.2,1.5-8.8,2.2-9.8,4.2c-1.9,4-5.4,11.9-6.8,19.9
								c-1.9,10.6,0.3,17.5,6.6,20.6c6.8,3.3,16.2-10.1,19.3-15.5c0.6-2,2.6-5.1,7.2-5.2c4,0,20.7-0.2,20.7-0.2l0.1,5.4
								c0,0-16.8,0.2-20.8,0.2c-1.7,0-2,1.1-2.1,1.3l-0.1,0.4l-0.2,0.4c-0.1,0.3-3.2,5.9-7.8,11
								C608.9,228.5,604.1,230.4,600.4,230.4z"/>
						</g>
						<g>
							<path class="st4" d="M755.6,250c-4.9-0.7-11.5,1.2-15.4,3c-4.2,1.9-9.9,0.7-13.6,2.6c-13.1,7,10.7,9.4,16.6,9.4
								c6-0.1,20.7,5.6,24.8,0.5C773.7,258.5,761.4,250.8,755.6,250z"/>
						</g>
					</g>
					<g>
						<g>
							<polygon class="st5" points="806.6,452.4 815.6,467.1 825.6,460.7 815.8,444.3 							"/>
							<path class="st4" d="M822.3,452.7l-12.8,7.8c0,0,4.3,5.9,3.3,11.2c-1.1,5.2-12.8,8.5-13.4,13c-0.7,5.2,11.8-0.5,23.1-6.8
								c11.3-6.4,10.3-9.2,10.3-9.2L822.3,452.7z"/>
						</g>
						<g>
							<polygon class="st5" points="780.2,399.1 802.2,403.5 803.6,391.9 779.7,387 							"/>
							<path class="st4" d="M795.2,389.3l-2.1,14.6c0,0,7.4,0.5,10.9,4.7c3.4,4.2-1.6,15.2,1.6,18.5c3.7,3.9,7.2-9.1,9.5-21.8
								c2.3-12.6-0.6-13.6-0.6-13.6L795.2,389.3z"/>
						</g>
						<path class="st3" d="M767.1,361.5c1.1-3.8,13.4-62.8,13.4-62.8c22.4-27.6,5.4-58.9,5.4-58.9c-67.7,2.3-91.5,14.6-91.5,14.6
							c-29.4,42.5-35.5,65.9-42,91c-8.7,33.6,83,51.3,93.8,53.3c-0.2-0.3-20.6-22.5-29.6-40.7l-19.8-10.5c5.8-3.3,9.8-9.5,12.5-15.8
							c-1.3-1.9-0.7-10.1,14.8-44.4c0,0-9.5,22.1-12.5,38.4c0.1-0.3,0.3-0.7,0.3-1.1c-11.1,39.6,92.4,133.5,92.4,133.5l16.6-14.2
							C802.9,404.8,766.1,365.3,767.1,361.5z"/>
						<g>
							<path class="st4" d="M656.2,63l-5.9,18.6c0,0,1,3.4,4,3.6c0,0,0.7,9.3,7.2,9.1c0,0,2.5,5.4,2,9.5
								c-0.5,4.1,11.1,3.4,19.5-11.8c0,0-4.6-8.5-3.7-16C680,68.6,669.9,57.9,656.2,63z"/>
							<path class="st5" d="M657.1,61.4l-4.6,20.2c0,0,1.4,1.6,4,1.3c0,0-0.1,9.7,6.5,9.5c0,0,1.9,6.8,1.4,10.9
								c-0.5,4.1,12.3,3.8,20.8-11.3c0,0-4.6-8.5-3.7-16C682.3,68.6,670.8,56.3,657.1,61.4z"/>
							<path class="st4" d="M649.9,54.5c0,0,5,7.3,12.5,10.7c0,0,1.7,2.9,3.2,4.7c1.6,1.8,2.4-0.3,3-1.6c0.6-1.3,7.8-2.5,6.6,3.7
								c0,0-1.7,7.5,6,6.7c0,0,2.7-16.9,3.4-22.4c0,0-0.7-1-2.8-1.7C679.8,53.7,646.7,44.5,649.9,54.5z"/>
							<path class="st4" d="M656.6,85.7c0,0,4.7-1.5,7.3-3.2c0,0-0.9,5.6-6.2,6.6C657.8,89.2,657.2,88,656.6,85.7z"/>
						</g>
						<g>
							<path class="st4" d="M688.5,89.9c-5.7-2.8-4.2,1.5-4.2,1.5c-9.1,15.8-19.7,12.4-19.7,12.4c-25.3,14,1.8,81,3.7,85.5
								c4.6-2.4,7.2-4.2,16.7-10.9c0,0-2.3-8.9-1.9-22.3c0,0,1.3,16.4,3.8,23.6c0,0-21.9,18.3-41.2,21.9c0,0,3.8,7.2,6.3,13
								c0,0,32.2,8,61.4-15.7c7.4-6,4.3-37.5,4.3-37.5s4.9,31.4-2.5,39.6c-8.3,9.3-24.8,13.5-32.9,16.4
								c9.6,16.4,18.7,27.9,18.7,27.9c-5.6,6.4-11.5,12-11.5,12c76.3,10.6,99.6-12,99.6-12C785.4,73.7,694.2,92.6,688.5,89.9z"/>
							<path class="st4" d="M654,153.2c-7.3,3.4-16.4,7.3-43.6,14.4c0,0,4.4,9.3,4.4,13c0,0,16.9,3.4,46.2-4.4
								C657.9,168.4,655.4,160.5,654,153.2z"/>
						</g>
						<path class="st5" d="M602.7,173.1c-1.3,2.4-3.6,8,2.3,8.6c3.2,0.3,7.9-2.1,10.7-3.6c3.2-1.7,1.2-7.9-1.8-9.2
							c-1.7-0.7-4.3-0.1-5.9,0.5C604.9,170.5,603.9,170.7,602.7,173.1z"/>
						<path class="st5" d="M635.1,206.6c-3.9,3.3-0.1,6.5,3.9,5.8c2.3,5.2,11,3.4,13.6,0.1c2.2-2.9-0.4-8-3.8-9
							C644.6,202.2,638.3,203.8,635.1,206.6z"/>
					</g>
				</g>
				<g>
					<g>
						<polygon class="st5" points="471.8,388.4 464.3,398.4 450.4,388.4 457.9,378.3 						"/>
						<path class="st3" d="M470,384.7l-9.9,13.2c0,0,7.2,6.1,8.5,10.7s-9.1,13-6.2,17.7c2.9,4.7,25.3-25.8,24.7-29.1
							S470,384.7,470,384.7z"/>
					</g>
					<g>
						<g>
							<polygon class="st6" points="282.7,463.6 277.4,461.4 347.2,297.3 352.5,299.5 							"/>
						</g>
						<g>
							<polygon class="st6" points="438.5,464.2 433.6,461.2 515.1,330.4 520,333.3 							"/>
						</g>
						<g>
							<path class="st6" d="M436.2,465.6l-2.2-0.9L326,356.4l2.1-4.8l177.3-0.5l2.4,1.2l73.6,102.6l-2.3,4.4L436.2,465.6z
								 M334.9,357.2l102.4,102.6l136.3-5.9l-69.7-97.1L334.9,357.2z"/>
						</g>
						<g>
							<path class="st6" d="M278.2,542.5c-43.6,0.3-79.3-35-79.6-78.7c-0.3-43.7,34.8-79.6,78.4-79.9s79.3,35,79.6,78.7
								C356.9,506.3,321.7,542.2,278.2,542.5z M277,399.5c-34.8,0.3-63,29.1-62.7,64.2c0.3,35.2,28.9,63.5,63.7,63.2
								s63-29.1,62.7-64.2C340.4,427.6,311.8,399.2,277,399.5z"/>
						</g>
						<g>
							<path class="st6" d="M587.4,532.9c-43.6,0.3-79.3-35-79.6-78.7s34.8-79.6,78.4-79.9c43.6-0.3,79.3,35,79.6,78.7
								C666.1,496.7,631,532.6,587.4,532.9z M586.2,389.9c-34.8,0.3-63,29.1-62.7,64.2c0.3,35.2,28.9,63.5,63.7,63.2
								c34.8-0.3,63-29.1,62.7-64.2C649.7,418,621.1,389.6,586.2,389.9z"/>
						</g>
						<g>
							<path class="st6" d="M354.9,302c-1.8,0-3.6-0.4-5.4-1.3c-20.1-9.9-7-40.9-2.4-50.3c2.3-4.6,7-5.8,14.1-7.5
								c3.6-0.9,8.1-1.9,13.6-3.7l1.8,5.4c-5.7,1.9-10.3,2.9-14,3.8c-6.6,1.6-9.3,2.3-10.3,4.4c-2.1,4.2-5.7,12.5-7.2,21
								c-2,11.1,0.4,18.5,7,21.7c7.3,3.6,17.1-9.6,19.9-14.5c0.5-0.7,4.4-7.3,9.3-9c5.5-1.9,17.9-4.7,18.5-4.8l1.3,5.5
								c-0.1,0-12.6,2.9-17.9,4.7c-2.3,0.8-5.2,4.7-6.2,6.5C376.6,284.8,366.5,301.9,354.9,302z"/>
						</g>
						<g>
							<path class="st6" d="M518.1,322.6c-5.2-0.7-12,1.3-16.2,3.2c-4.4,2.1-10.5,0.7-14.4,2.8c-13.8,7.3,11.3,9.9,17.5,9.9
								c6.3-0.1,21.8,5.9,26.2,0.5C537.2,331.5,524.2,323.5,518.1,322.6z"/>
						</g>
					</g>
					<g>
						<g>
							<polygon class="st5" points="470.2,499.6 456.9,502.3 453.1,484.5 466.5,481.8 							"/>
							<path class="st3" d="M471.4,495.3l-17.5,3.6c0,0,1.3,10-1.1,14.6c-2.3,4.6-16.8,4-17.9,9.7s39.1-2.6,41-5.7
								C477.8,514.5,471.4,495.3,471.4,495.3z"/>
						</g>
						<path class="st4" d="M534.1,287.3c0,0-3.2-7.3-2.8-12.6c0.3-5.4-61-5.3-61-5.3s-6.2,14.2-8.4,22.7c0,0-107.4,0.1-96.9,39.9
							c0,0,3.2,15.3,44,36.1c0,0-18.2,15.9,22.4,73.1c0,0,20.2,31.7,16.8,48.6c0,0,29.3-3.7,25-7.1c0,0-6.5-25.3-9-49.1
							c-2.5-23.8-7.3-36.4-9.7-43.3c0,0,46.6-34.2,56.3-43.4C520.5,337.6,552.9,332.4,534.1,287.3z M428.1,352.2l-4-6.5
							c2.4,1.1,8.2,1.5,8.2,1.5C428.8,349.9,428.1,352.2,428.1,352.2z"/>
					</g>
					<g>
						<path class="st5" d="M352.9,245.3c2.6-0.1,5.6-0.3,4.9,3.8c-1.8,0.8-3.5,1-2.8,2.8c0.7,1.8,4.4,2.1,6.8,2c3.3-0.2,5.7-1.7,8-4
							c2.1-2.1,5.1-6.2,2.9-9.3c-1.8-2.4-4.9-0.7-7.3-0.5c-2.9,0.3-6-0.5-8.8,0.3c-1.1,0.3-2.2,0.7-2.8,1.7
							C353.5,242.4,352.3,245.3,352.9,245.3z"/>
						<g>
							<path class="st4" d="M480.2,113.5c0,0-6.4,4.7-7.6,6.3c-1.3,1.7-4.2,2.8-4.8,4c-0.3,0.6,0.7,0.8,1.1,1
								c0.6,0.3-3.2,12.2,3.7,16.6c0,0,1.3,9.9,1.2,13.3l15.6,6c0,0-0.4-13,4.2-15.2C509.8,138.2,514.4,108.4,480.2,113.5z"/>
							<path class="st5" d="M480.7,113.3c0,0-4.4,5.4-5.7,7c-1.3,1.6-4.1,2.7-4.8,3.9c-0.3,0.5,0.7,0.8,1.1,1
								c0.6,0.3-3.5,10.4,3.3,14.7c0,0,0,11.1-0.1,14.4l17.4,6.4c0,0-0.5-12.9,4-14.9C512.1,138.6,514.7,108.4,480.7,113.3z"/>
							<path class="st4" d="M471.2,127.8c0,0,4.6,0,7.7-0.7c0,0-3.3,4.4-8.3,3.9C470.6,131,470.6,130,471.2,127.8z"/>
							<path class="st3" d="M480.4,110.2c-2.1,1.7-3,3.3-3,5.9c-0.1,4,2.8,6.8,6,9c2.8,1.9,6.3,1.6,9,3.3c2.4,1.5,3.8,5.3,5.4,7.6
								c3,4.4,7.2,8.3,12.2,10.5c4.9,2.1,10.4,2.5,15.7,3.4c9.7,1.6,18.7,5.3,27.3,9.7c11.4,5.8,23.8,6.3,23.8,6.3
								s-0.8-9.3-0.4-11.1c1.1-5.2,3.9-9.1,7.3-13c1.7-1.9,3.7-3.7,5.8-5.2c1.9-1.5,4.3-2.2,5.7-4.2c1.5-2.1,1.8-4.8,2.1-7.2
								c0.4-2.8,0.2-5.8-0.4-8.5c-0.3-1.3-0.9-7.7-0.9-7.7s-7.5,6.6-10.2,8c-3.8,2-8.1,3.8-12.2,5c-8.9,2.6-19.6,3.4-28.9,2.6
								c-8.1-0.7-13.5-5.6-19.9-9.8c-4.4-2.9-9.6-4.7-14.7-6.4c-4.4-1.5-8.9-2-13.3-2.8C492.9,104.8,486.7,105.1,480.4,110.2z"/>
						</g>
						<path class="st5" d="M564.4,33.4c3.6-8.2,8.5-12.6,16.3-17.4c4.2-2.6,12.2-6.4,13.8-2.5c1.6,3.8-8.4,8-11.9,11.7
							c-4.2,4.4-7.7,11-9.5,16.7L564.4,33.4z"/>
						<path class="st6" d="M497.2,148.2c-4.6-8.3-26.9-1.3-26.8,7.2c0,0,3.2,7.7-0.7,13.4c-3.8,5.8-20.9,14.8-46.4,42.2
							c0,0-36.9,12.6-55.9,26.5l3.6,8.4c0,0,39.4,4.7,60.7-10.9c0,0,18.3-7.8,22-17.1c0,0,0.5,11.1,11.1,14.1c0,0-3.4,15,1.5,39.5
							c0,0,33.8-3.4,65,5.6c0,0,19.9-63.4,4-106.7c0,0,11.5-31.9,11.9-72.6c0,0,21.6-27,29.9-61.2l-13.8-6c0,0-20.5,12.8-33.8,60.5
							c0,0-21.5,40.8-25.6,58.1L497.2,148.2z"/>
					</g>
				</g>
			</g>
		</g>
		<g>
			<g id="WBqmeK_27_">
				<g>
					<path class="st7" d="M594.7,603.7c127.1,0,254.2,0,381.3,0c-0.1-4.7,0.2-9.5-0.3-14.2c-1.3-12.1,2.6-22.8,9.3-32.3
						c3-4.2,0.7-7.8,1.9-11.5c-0.4-0.1-0.9-0.3-1.3-0.5c-2.2,3.9-4.4,7.9-6.6,11.9c-5.7-4.1,1.3-7.7-0.1-11.6
						c-0.7,0.3-1.3,0.3-1.4,0.5c-2.7,4.4-5.4,8.7-8.1,13.1c-0.6,0.9-1.5,1.7-2.2,2.5c-0.5-0.9-1.1-1.7-1.5-2.5
						c-0.7-1.4-1.5-2.8-2.2-4.3c-1.6,2.6-2.9,4.8-4.4,7.2c-3.2-4.2-3.4-8.1-1.3-11.9c1.9-3.3,3.6-6.8,5.5-10.2
						c-0.5-0.3-1-0.6-1.5-0.9c-2.8,4.2-5.7,8.5-8.6,12.7c-1.6-1.4-2.9-2.5-4.2-3.6c-0.4,0.3-0.7,0.5-1.1,0.7
						c0.4,2.1,0.8,4.2,1.1,6.2c0.1,0.9-0.3,1.7-0.5,2.6c-0.9-0.2-1.7-0.4-2.5-0.7c-0.5-0.2-0.9-0.6-1.3-0.9
						c-1.1,1.6-2.1,2.9-3.6,4.8c-0.5-1.8-0.9-2.7-0.9-3.6c0.3-3.8,0.8-7.6,1.2-11.4c0.1-1.3,0.9-3.3,0.3-3.8
						c-3.2-2.8-1.7-6.5-2.3-9.9c-0.3-1.9-1.1-3.6-1.6-5.4c-3.2,1.1-1.6,3.6-1.6,5.5c-0.1,3.1,0.5,6.4,0.1,9.5
						c-0.1,1.6-1.6,3-2.4,4.6c-1.1-0.7-2.3-1.3-3.4-1.9c-0.6-0.3-1.1-0.9-1.8-1.1c-4.8-1.5-6.3-4.2-5.8-9c0.3-3,0.1-6.2,0.1-9.3
						c-0.4-0.1-0.8-0.1-1.3-0.1c-0.9,5.8-1.9,11.7-2.8,18.3c-1.3-1.3-1.9-1.7-2.3-2.2c-1.6-2.1-3-4.4-4.6-6.5c-0.7-0.9-2-1.3-3-1.9
						c0.1,1.1,0.2,2.1,0.3,3.2c0.1,0.7,0.1,1.3,0.3,2.8c-2.7-2.3-4.8-4-7-5.7c-2.2,3.6-6.9,5.2-6,10.3c-2-1.7-4-3.4-6.2-5.4
						c-0.5,1.7-0.9,2.8-1.3,4.4c-2.4-4.2-4.6-7.7-7.4-12.4c-0.3,2.4-0.5,4-0.5,5.7c-0.1,1.2,0.1,2.4,0.2,3.5
						c-0.8-0.8-1.7-1.7-2.4-2.4c-0.1-0.1-0.5-0.1-1.3-0.3c-0.7,2.1-1.5,4.2-2.4,7.2c-1.2-2.6-2.2-4.4-2.8-6.4c-1-3-2.3-5.3-6.2-4
						c0.1-2.6,0.9-3.5,3.3-3.4c0.8,0.1,1.6-1.1,2.4-1.7c-0.6-0.7-1.2-2.1-1.9-2.2c-1.7-0.1-3.7-0.1-5.2,0.7
						c-3.9,1.9-6.9,4.8-8.7,8.8c-0.9,2-2,3.9-3,5.9c-1.7-2.3-2.9-4.1-4.2-5.9c-0.3,0.2-0.7,0.5-1.1,0.7c0.5,1.8,1.1,3.6,1.3,5.4
						c0.2,1.7,0.1,3.4,0.1,5.2c-0.5,0-1.1,0-1.7,0.1c-0.2-1.2-0.3-2.4-0.6-3.5c-0.2-0.7-0.4-1.9-0.9-2.1c-2.6-1.1-5.3-2-8.1-3
						c-1.8,2.8,3,6.4-1.3,8.5c-3.4-1.7-4-3.4-2.6-7.2c2.6-7.5,5.8-14.8,11.1-21c0.5-0.6,0.4-1.7,0.5-2.5c-1,0.1-2.1-0.1-3,0.3
						c-1.1,0.4-1.9,1.7-3,1.8c-3.7,0.6-6,3-7.8,5.9c-1.1,1.8-2.4,3.4-3.8,5.4c-2.1-2.3-3.4-4.6-5.4-5.6c-1.5-0.7-3.9,0.5-6.4,0.9
						c-0.7-1.4-1.9-3.6-3.6-7c-2.4,8.2-3.7,16.4-11.3,20.8c-0.5-0.5-0.9-1-1.4-1.5c-2.7-3.2-5.4-6.4-8.1-9.7
						c-0.7-0.9-1.7-1.9-1.9-2.9c-0.8-4.9-1.3-9.9-2.1-14.7c-0.2-1.1-1.3-2-1.9-3c-0.7,1.1-1.8,2.1-1.9,3.1c-0.6,6.5-0.9,13-1.4,19.5
						c-0.3,4.5-0.8,8.9-3.6,12.7c-1.3,1.7-2.5,3.4-4.2,5.8c-0.4-0.3-2.1-1.1-2.3-2.1c-0.7-2.4-0.7-5.2-1-7.7c-0.2-2.3,1.5-5.2-2.5-6
						c-0.5-0.1-0.9-1.4-1.2-2.2c-1.8-4.5-3.2-9.1-5.4-13.4c-3.8-7.9-7.3-16.2-15.2-21.8c4.8,11.5,8.7,23.2,10.3,36.6
						c-2.1-1.8-3.4-2.9-4.8-4c-0.3,0.3-0.7,0.5-1.1,0.7c3,4.3,7.5,7.9,6,14.8c-1.2-1.4-1.9-2.5-2.8-3.4c-2.1-2.1-2-6.8-6-6
						c-0.5-3.7-0.9-7.2-1.5-10.7c-0.2-1-0.9-1.9-1.4-2.9c-0.7,0.9-1.7,1.7-1.9,2.6c-0.5,2.3-1.5,2.6-3.3,1.5
						c-0.3-0.2-0.9-0.1-1.3-0.2c-0.6,1.1-1.1,2-1.7,3.2c-1.9-1.1-3.6-2.1-5.3-3.2c-2.7,3.4-3,7-1.8,10.8c0.4,1.1,0.6,2.3,0.9,3.5
						c0.9,3.4,1.9,6.8,2.8,10.3c0.5,1.9,0.7,4,0.7,6c0,0.5-1.5,1.7-2.1,1.5c-2.4-0.5-6.3-7.7-5.2-10c1.4-2.8,2.4-5-1.2-6.8
						c-0.4-0.2-0.3-1.6-0.2-2.4c0.7-7,1.4-13.9,2.4-20.9c0.4-3.1,0.4-5.8-3.9-7.2c-1.3,3.4-2.4,6.8-3.6,10.1
						c-2.3,6.2-1.1,13.4-5,19.2c-0.4,0.6-1.1,1.1-1.6,1.5c-0.3-0.6-0.9-1.1-1-1.7c-0.1-1.9-0.2-3.9,0.1-5.8c0.9-5.2,0.9-5.2-4.6-6.8
						c-0.5,1.4-1,2.8-1.5,4.3c-0.5,1.8-1.7,2.7-3.1,1.2c-2.6-2.8-5.5-2.1-8.9-1.3c0.5,2.1,0.9,4.1,1.3,5.8c-1.7,0.1-3.2,0.2-5.3,0.3
						c-0.3-1.9-0.4-3.9-0.9-5.8c-0.3-0.8-1.3-1.4-2.1-2.1c-0.4,0.8-1.1,1.5-1.3,2.3c-0.4,1.9-0.5,3.9-0.7,5.8
						c-0.3,0.1-0.7,0.1-1,0.2c-1.8-2.1-3.6-4.2-5.4-6.3c-0.3,0.3-0.7,0.5-1,0.8c0.9,1.9,1.8,3.7,2.6,5.6c-4.2,2.3-4.2,2.6-1.5,6.2
						c1.6,2.1,1.3,7.6-0.5,9.7c-2.2,2.4-3.4,2.4-4.6-0.7c-0.6-1.6-0.6-3.5-0.7-5.3c-0.1-2.4,0-4.8,0-7.2c-0.5-0.1-1-0.1-1.5-0.2
						c-0.9,2.1-1.8,4.1-2.8,6.5c-2.8-2.6-5.5-4.8-7.9-7.2c-5.8-5.6-5.8-5.6-8.5-4.8c1,1.1,1.9,2.1,2.7,2.9c2.6,2.6,5.2,5.1,7.7,7.7
						c0.4,0.4,0.2,1.3,0.3,1.9c-0.5,0.1-1.5,0.3-1.6,0.1c-2.2-3.6-4.3-1.5-6.5,0.3c-0.7-1.3-1.2-2.4-1.8-3.4
						c-2.7-5.2-5.4-10.5-8.3-15.6c-0.5-0.9-2.1-1.1-3.2-1.7c-0.1,1.1-0.2,2.3-0.3,3.3c-0.2,1.5-0.3,3-0.8,4.4
						c-0.9,2.3-2.3,4.3-3.2,6.6c-1.3,3.5-1.6,7.8-3.8,10.5c-2.3,2.9-3.1,5.1-1.1,7.9c2.3,3,1.4,5.8,0.4,9.6c-3.1-3.8-7-6.2-6.2-11.4
						c1.5-8.7,1.3-17.9,5.7-26.1c-9.3,3.2-11,12-13.8,19.5c-6.6-4.3-12.6-8.3-18.7-12.2c-1-0.7-2.6-0.5-3.8-0.7
						c0.7,1.1,1.2,2.5,2.2,3.2c2.8,2.2,6,4.2,8.9,6.2c5.1,3.6,6.6,8.7,4.2,14.5c-8.9-3.4-13.2-12-20.1-18.8c-1.5,4.4,3,5.8,3.1,9.3
						c-2.9-0.4-5.6-0.8-9-1.3c2.3,4.2,7.2,4.9,8.3,10.1c-2.1-0.7-3.3-1.2-4.6-1.5c-1.1-0.3-2.2-0.4-3.3-0.5c0.3,1.1,0.3,2.3,0.7,3.3
						c4.6,8.9,9.3,17.7,13.7,26.7c1.5,3.1,2.4,6.5,3.5,9.8c-0.5,0.3-1.1,0.6-1.7,0.9c-8.5-12.2-18.8-22.6-30.6-31.6
						c-1.1,3.9,1.7,6.1,3.6,8.4C583.8,584.1,589.7,593.7,594.7,603.7z"/>
				</g>
			</g>
			<g id="WBqmeK_26_">
				<g>
					<path class="st7" d="M-5,610.3c127.1,0,254.2,0,381.3,0c-0.1-4.7,0.2-9.5-0.3-14.2c-1.3-12.1,2.6-22.8,9.3-32.3
						c3-4.2,0.7-7.8,1.9-11.5c-0.4-0.1-0.9-0.3-1.3-0.5c-2.2,3.9-4.4,7.9-6.6,11.9c-5.7-4.1,1.3-7.7-0.1-11.6
						c-0.7,0.3-1.3,0.3-1.4,0.5c-2.7,4.4-5.4,8.7-8.1,13.1c-0.6,0.9-1.5,1.7-2.2,2.5c-0.5-0.9-1.1-1.7-1.5-2.5
						c-0.7-1.4-1.5-2.8-2.2-4.3c-1.6,2.6-2.9,4.8-4.4,7.2c-3.2-4.2-3.4-8.1-1.3-11.9c1.9-3.3,3.6-6.8,5.5-10.2
						c-0.5-0.3-1-0.6-1.5-0.9c-2.8,4.2-5.7,8.5-8.6,12.7c-1.6-1.4-2.9-2.5-4.2-3.6c-0.4,0.3-0.7,0.5-1.1,0.7
						c0.4,2.1,0.8,4.2,1.1,6.2c0.1,0.9-0.3,1.7-0.5,2.6c-0.9-0.2-1.7-0.4-2.5-0.7c-0.5-0.2-0.9-0.6-1.3-0.9
						c-1.1,1.6-2.1,2.9-3.6,4.8c-0.5-1.8-0.9-2.7-0.9-3.6c0.3-3.8,0.8-7.6,1.2-11.4c0.1-1.3,0.9-3.3,0.3-3.8
						c-3.2-2.8-1.7-6.5-2.3-9.9c-0.3-1.9-1.1-3.6-1.6-5.4c-3.2,1.1-1.6,3.6-1.6,5.5c-0.1,3.1,0.5,6.4,0.1,9.5
						c-0.1,1.6-1.6,3-2.4,4.6c-1.1-0.7-2.3-1.3-3.4-1.9c-0.6-0.3-1.1-0.9-1.8-1.1c-4.8-1.5-6.3-4.2-5.8-9c0.3-3,0.1-6.2,0.1-9.3
						c-0.4-0.1-0.8-0.1-1.3-0.1c-0.9,5.8-1.9,11.7-2.8,18.3c-1.3-1.3-1.9-1.7-2.3-2.2c-1.6-2.1-3-4.4-4.6-6.5c-0.7-0.9-2-1.3-3-1.9
						c0.1,1.1,0.2,2.1,0.3,3.2c0.1,0.7,0.1,1.3,0.3,2.8c-2.7-2.3-4.8-4-7-5.7c-2.2,3.6-6.9,5.2-6,10.3c-2-1.7-4-3.4-6.2-5.4
						c-0.5,1.7-0.9,2.8-1.3,4.4c-2.4-4.2-4.6-7.7-7.4-12.4c-0.3,2.4-0.5,4-0.5,5.7c-0.1,1.2,0.1,2.4,0.2,3.5
						c-0.8-0.8-1.7-1.7-2.4-2.4c-0.1-0.1-0.5-0.1-1.3-0.3c-0.7,2.1-1.5,4.2-2.4,7.2c-1.2-2.6-2.2-4.4-2.8-6.4c-1-3-2.3-5.3-6.2-4
						c0.1-2.6,0.9-3.5,3.3-3.4c0.8,0.1,1.6-1.1,2.4-1.7c-0.6-0.7-1.2-2.1-1.9-2.2c-1.7-0.1-3.7-0.1-5.2,0.7
						c-3.9,1.9-6.9,4.8-8.7,8.8c-0.9,2-2,3.9-3,5.9c-1.7-2.3-2.9-4.1-4.2-5.9c-0.3,0.2-0.7,0.5-1.1,0.7c0.5,1.8,1.1,3.6,1.3,5.4
						c0.2,1.7,0.1,3.4,0.1,5.2c-0.5,0-1.1,0-1.7,0.1c-0.2-1.2-0.3-2.4-0.6-3.5c-0.2-0.7-0.4-1.9-0.9-2.1c-2.6-1.1-5.3-2-8.1-3
						c-1.8,2.8,3,6.4-1.3,8.5c-3.4-1.7-4-3.4-2.6-7.2c2.6-7.5,5.8-14.8,11.1-21c0.5-0.6,0.4-1.7,0.5-2.5c-1,0.1-2.1-0.1-3,0.3
						c-1.1,0.4-1.9,1.7-3,1.8c-3.7,0.6-6,3-7.8,5.9c-1.1,1.8-2.4,3.4-3.8,5.4c-2.1-2.3-3.4-4.6-5.4-5.6c-1.5-0.7-3.9,0.5-6.4,0.9
						c-0.7-1.4-1.9-3.6-3.6-7c-2.4,8.2-3.7,16.4-11.3,20.8c-0.5-0.5-0.9-1-1.4-1.5c-2.7-3.2-5.4-6.4-8.1-9.7
						c-0.7-0.9-1.7-1.9-1.9-2.9c-0.8-4.9-1.3-9.9-2.1-14.7c-0.2-1.1-1.3-2-1.9-3c-0.7,1.1-1.8,2.1-1.9,3.1c-0.6,6.5-0.9,13-1.4,19.5
						c-0.3,4.5-0.8,8.9-3.6,12.7c-1.3,1.7-2.5,3.4-4.2,5.8c-0.4-0.3-2.1-1.1-2.3-2.1c-0.7-2.4-0.7-5.2-1-7.7c-0.2-2.3,1.5-5.2-2.5-6
						c-0.5-0.1-0.9-1.4-1.2-2.2c-1.8-4.5-3.2-9.1-5.4-13.4c-3.8-7.9-7.3-16.2-15.2-21.8c4.8,11.5,8.7,23.2,10.3,36.6
						c-2.1-1.8-3.4-2.9-4.8-4c-0.3,0.3-0.7,0.5-1.1,0.7c3,4.3,7.5,7.9,6,14.8c-1.2-1.4-1.9-2.5-2.8-3.4c-2.1-2.1-2-6.8-6-6
						c-0.5-3.7-0.9-7.2-1.5-10.7c-0.2-1-0.9-1.9-1.4-2.9c-0.7,0.9-1.7,1.7-1.9,2.6c-0.5,2.3-1.5,2.6-3.3,1.5
						c-0.3-0.2-0.9-0.1-1.3-0.2c-0.6,1.1-1.1,2-1.7,3.2c-1.9-1.1-3.6-2.1-5.3-3.2c-2.7,3.4-3,7-1.8,10.8c0.4,1.1,0.6,2.3,0.9,3.5
						c0.9,3.4,1.9,6.8,2.8,10.3c0.5,1.9,0.7,4,0.7,6c0,0.5-1.5,1.7-2.1,1.5c-2.4-0.5-6.3-7.7-5.2-10c1.4-2.8,2.4-5-1.2-6.8
						c-0.4-0.2-0.3-1.6-0.2-2.4c0.7-7,1.4-13.9,2.4-20.9c0.4-3.1,0.4-5.8-3.9-7.2c-1.3,3.4-2.4,6.8-3.6,10.1
						c-2.3,6.2-1.1,13.4-5,19.2c-0.4,0.6-1.1,1.1-1.6,1.5c-0.3-0.6-0.9-1.1-1-1.7c-0.1-1.9-0.2-3.9,0.1-5.8c0.9-5.2,0.9-5.2-4.6-6.8
						c-0.5,1.4-1,2.8-1.5,4.3c-0.5,1.8-1.7,2.7-3.1,1.2c-2.6-2.8-5.5-2.1-8.9-1.3c0.5,2.1,0.9,4.1,1.3,5.8c-1.7,0.1-3.2,0.2-5.3,0.3
						c-0.3-1.9-0.4-3.9-0.9-5.8c-0.3-0.8-1.3-1.4-2.1-2.1c-0.4,0.8-1.1,1.5-1.3,2.3c-0.4,1.9-0.5,3.9-0.7,5.8
						c-0.3,0.1-0.7,0.1-1,0.2c-1.8-2.1-3.6-4.2-5.4-6.3c-0.3,0.3-0.7,0.5-1,0.8c0.9,1.9,1.8,3.7,2.6,5.6c-4.2,2.3-4.2,2.6-1.5,6.2
						c1.6,2.1,1.3,7.6-0.5,9.7c-2.2,2.4-3.4,2.4-4.6-0.7c-0.6-1.6-0.6-3.5-0.7-5.3c-0.1-2.4,0-4.8,0-7.2c-0.5-0.1-1-0.1-1.5-0.2
						c-0.9,2.1-1.8,4.1-2.8,6.5c-2.8-2.6-5.5-4.8-7.9-7.2c-5.8-5.6-5.8-5.6-8.5-4.8c1,1.1,1.9,2.1,2.7,2.9c2.6,2.6,5.2,5.1,7.7,7.7
						c0.4,0.4,0.2,1.3,0.3,1.9c-0.5,0.1-1.5,0.3-1.6,0.1c-2.2-3.6-4.3-1.5-6.5,0.3c-0.7-1.3-1.2-2.4-1.8-3.4
						c-2.7-5.2-5.4-10.5-8.3-15.6c-0.5-0.9-2.1-1.1-3.2-1.7c-0.1,1.1-0.2,2.3-0.3,3.3c-0.2,1.5-0.3,3-0.8,4.4
						c-0.9,2.3-2.3,4.3-3.2,6.6c-1.3,3.5-1.6,7.8-3.8,10.5c-2.3,2.9-3.1,5.1-1.1,7.9c2.3,3,1.4,5.8,0.4,9.6c-3.1-3.8-7-6.2-6.2-11.4
						c1.5-8.7,1.3-17.9,5.7-26.1c-9.3,3.2-11,12-13.8,19.5C14,551.5,8,547.4,1.8,543.5c-1-0.7-2.6-0.5-3.8-0.7
						c0.7,1.1,1.2,2.5,2.2,3.2c2.8,2.2,6,4.2,8.9,6.2c5.1,3.6,6.6,8.7,4.2,14.5C4.3,563.5,0,554.8-6.8,548c-1.5,4.4,3,5.8,3.1,9.3
						c-2.9-0.4-5.6-0.8-9-1.3c2.3,4.2,7.2,4.9,8.3,10.1c-2.1-0.7-3.3-1.2-4.6-1.5c-1.1-0.3-2.2-0.4-3.3-0.5c0.3,1.1,0.3,2.3,0.7,3.3
						c4.6,8.9,9.3,17.7,13.7,26.7c1.5,3.1,2.4,6.5,3.5,9.8c-0.5,0.3-1.1,0.6-1.7,0.9c-8.5-12.2-18.8-22.6-30.6-31.6
						c-1.1,3.9,1.7,6.1,3.6,8.4C-15.8,590.7-10,600.3-5,610.3z"/>
				</g>
			</g>
			<g id="WBqmeK_25_">
				<g>
					<path class="st7" d="M378.4,604.4c74.7,0,149.4,0,224,0c-0.1-2.8,0.1-5.6-0.2-8.3c-0.8-7.1,1.5-13.4,5.4-19
						c1.7-2.4,0.4-4.6,1.1-6.8c-0.3-0.1-0.5-0.2-0.7-0.3c-1.3,2.3-2.6,4.6-3.8,7c-3.4-2.4,0.8-4.6-0.1-6.8c-0.5,0.1-0.7,0.1-0.8,0.3
						c-1.6,2.6-3.2,5.2-4.8,7.7c-0.3,0.5-0.9,1-1.3,1.5c-0.3-0.5-0.6-1-0.9-1.5c-0.5-0.8-0.9-1.7-1.3-2.5c-0.9,1.6-1.7,2.8-2.6,4.2
						c-1.9-2.4-2-4.8-0.7-7c1.1-2,2.1-4,3.2-6c-0.3-0.2-0.6-0.4-0.9-0.5c-1.7,2.5-3.4,5-5,7.4c-0.9-0.8-1.7-1.5-2.4-2.1
						c-0.2,0.1-0.5,0.3-0.7,0.4c0.2,1.2,0.5,2.4,0.6,3.6c0.1,0.5-0.2,1-0.3,1.5c-0.5-0.1-1-0.3-1.5-0.4c-0.3-0.1-0.5-0.3-0.8-0.5
						c-0.7,0.9-1.3,1.7-2.1,2.8c-0.3-1.1-0.5-1.6-0.5-2.1c0.2-2.3,0.5-4.4,0.7-6.7c0.1-0.8,0.5-1.9,0.2-2.3c-1.9-1.7-1-3.8-1.3-5.8
						c-0.2-1.1-0.6-2.1-0.9-3.2c-1.9,0.6-0.9,2.1-0.9,3.2c-0.1,1.9,0.3,3.7,0.1,5.6c-0.1,0.9-0.9,1.8-1.5,2.7
						c-0.7-0.4-1.3-0.7-2-1.1c-0.3-0.2-0.7-0.5-1.1-0.7c-2.8-0.9-3.7-2.4-3.4-5.3c0.2-1.8,0.1-3.6,0.1-5.5c-0.3,0-0.5-0.1-0.7-0.1
						c-0.5,3.4-1.1,6.9-1.7,10.7c-0.8-0.7-1.1-1-1.3-1.3c-0.9-1.3-1.7-2.6-2.7-3.8c-0.4-0.5-1.2-0.7-1.8-1.1
						c0.1,0.7,0.1,1.3,0.2,1.9c0.1,0.4,0.1,0.8,0.2,1.7c-1.6-1.3-2.8-2.3-4.1-3.3c-1.3,2.1-4,3-3.5,6c-1.2-1-2.3-2-3.6-3.1
						c-0.3,1-0.5,1.7-0.8,2.6c-1.5-2.4-2.7-4.6-4.4-7.3c-0.1,1.5-0.3,2.4-0.3,3.4c0,0.7,0.1,1.4,0.1,2.1c-0.5-0.5-0.9-1-1.5-1.5
						c-0.1-0.1-0.3-0.1-0.8-0.2c-0.4,1.2-0.9,2.4-1.5,4.2c-0.7-1.5-1.3-2.6-1.7-3.8c-0.6-1.8-1.3-3.1-3.6-2.4c0-1.5,0.5-2.1,1.9-2
						c0.5,0,0.9-0.6,1.5-0.9c-0.3-0.5-0.7-1.3-1.1-1.3c-1-0.1-2.2-0.1-3.1,0.4c-2.3,1.1-4,2.8-5.1,5.2c-0.5,1.2-1.2,2.3-1.8,3.4
						c-1-1.3-1.7-2.4-2.5-3.4c-0.2,0.1-0.4,0.3-0.7,0.4c0.3,1.1,0.6,2.1,0.8,3.2c0.1,1,0,2.1,0,3c-0.3,0-0.7,0-1,0
						c-0.1-0.7-0.2-1.4-0.4-2.1c-0.1-0.5-0.2-1.1-0.5-1.2c-1.5-0.7-3.1-1.2-4.8-1.8c-1.1,1.7,1.8,3.8-0.8,5c-2.1-1-2.3-2-1.6-4.2
						c1.5-4.4,3.4-8.7,6.5-12.3c0.3-0.3,0.2-1,0.3-1.5c-0.6,0.1-1.3-0.1-1.8,0.1c-0.6,0.3-1.1,1-1.7,1.1c-2.2,0.3-3.5,1.7-4.6,3.4
						c-0.7,1.1-1.4,2.1-2.2,3.2c-1.2-1.3-2-2.7-3.2-3.3c-0.9-0.4-2.3,0.3-3.8,0.5c-0.4-0.8-1.1-2.1-2.1-4.1
						c-1.5,4.8-2.2,9.6-6.6,12.2c-0.3-0.3-0.5-0.6-0.8-0.9c-1.6-1.9-3.2-3.8-4.8-5.7c-0.4-0.5-1-1.1-1.1-1.7
						c-0.5-2.8-0.7-5.8-1.3-8.7c-0.1-0.7-0.7-1.2-1.1-1.8c-0.4,0.6-1.1,1.2-1.1,1.9c-0.3,3.8-0.5,7.7-0.8,11.5
						c-0.2,2.6-0.5,5.2-2.1,7.5c-0.7,1-1.5,2-2.5,3.4c-0.2-0.2-1.2-0.6-1.4-1.3c-0.4-1.5-0.5-3-0.6-4.6c-0.1-1.3,0.9-3-1.5-3.6
						c-0.3-0.1-0.5-0.8-0.7-1.3c-1.1-2.6-1.9-5.4-3.1-7.9c-2.3-4.7-4.3-9.5-8.9-12.8c2.8,6.8,5.1,13.6,6.1,21.5
						c-1.3-1.1-2-1.7-2.8-2.4c-0.2,0.1-0.4,0.3-0.6,0.5c1.7,2.5,4.4,4.7,3.5,8.7c-0.7-0.9-1.1-1.5-1.7-2c-1.3-1.3-1.1-4-3.5-3.5
						c-0.3-2.2-0.5-4.2-0.9-6.3c-0.1-0.6-0.5-1.1-0.8-1.7c-0.4,0.5-1,1-1.1,1.5c-0.3,1.3-0.9,1.5-1.9,0.9c-0.2-0.1-0.5-0.1-0.8-0.1
						c-0.3,0.6-0.6,1.2-1,1.9c-1.1-0.7-2.1-1.3-3.1-1.9c-1.6,2.1-1.8,4.1-1.1,6.4c0.2,0.7,0.4,1.4,0.5,2.1c0.5,2,1.1,4,1.6,6
						c0.3,1.1,0.5,2.3,0.4,3.5c0,0.3-0.9,0.9-1.3,0.9c-1.4-0.3-3.7-4.6-3-5.9c0.8-1.6,1.5-2.9-0.7-4c-0.2-0.1-0.1-0.9-0.1-1.4
						c0.5-4.1,0.9-8.2,1.4-12.2c0.3-1.9,0.3-3.4-2.3-4.2c-0.7,2-1.4,4-2.1,6c-1.3,3.6-0.7,7.9-2.9,11.3c-0.3,0.3-0.6,0.6-0.9,0.9
						c-0.2-0.3-0.5-0.7-0.6-1c-0.1-1.1-0.1-2.3,0.1-3.4c0.5-3,0.5-3-2.7-4c-0.3,0.9-0.6,1.7-0.9,2.5c-0.3,1.1-1,1.6-1.9,0.7
						c-1.5-1.7-3.2-1.2-5.2-0.7c0.3,1.2,0.5,2.4,0.8,3.4c-1,0.1-1.9,0.1-3.1,0.2c-0.1-1.1-0.2-2.3-0.5-3.4c-0.1-0.5-0.8-0.8-1.2-1.3
						c-0.3,0.5-0.7,0.9-0.7,1.4c-0.2,1.1-0.3,2.3-0.4,3.4c-0.2,0.1-0.4,0.1-0.6,0.1c-1.1-1.3-2.1-2.4-3.2-3.7
						c-0.2,0.1-0.4,0.3-0.6,0.5c0.5,1.1,1.1,2.2,1.6,3.3c-2.4,1.3-2.4,1.5-0.9,3.6c0.9,1.3,0.7,4.5-0.3,5.7c-1.3,1.5-2,1.4-2.6-0.5
						c-0.3-0.9-0.3-2.1-0.4-3.1c-0.1-1.4,0-2.8,0-4.2c-0.3-0.1-0.6-0.1-0.9-0.1c-0.5,1.2-1.1,2.4-1.7,3.8c-1.7-1.5-3.2-2.8-4.6-4.2
						c-3.4-3.3-3.4-3.3-5-2.8c0.6,0.7,1.1,1.2,1.6,1.7c1.5,1.5,3,3,4.5,4.6c0.2,0.2,0.1,0.7,0.2,1.1c-0.3,0.1-0.9,0.2-0.9,0.1
						c-1.3-2.1-2.5-0.9-3.8,0.2c-0.4-0.8-0.7-1.4-1.1-2.1c-1.6-3-3.2-6.2-4.8-9.2c-0.3-0.5-1.3-0.7-1.9-0.9
						c-0.1,0.7-0.1,1.3-0.2,1.9c-0.1,0.9-0.1,1.8-0.5,2.6c-0.5,1.3-1.4,2.5-1.9,3.8c-0.8,2.1-0.9,4.6-2.3,6.2
						c-1.3,1.7-1.9,3-0.6,4.6c1.3,1.7,0.8,3.4,0.3,5.6c-1.8-2.3-4.1-3.6-3.6-6.7c0.9-5.2,0.7-10.5,3.3-15.4
						c-5.4,1.9-6.5,7.1-8.1,11.5c-3.8-2.5-7.4-4.9-11-7.2c-0.6-0.4-1.5-0.3-2.3-0.4c0.4,0.7,0.7,1.5,1.3,1.9
						c1.7,1.3,3.5,2.4,5.2,3.6c3,2.1,3.8,5.2,2.4,8.5c-5.3-2-7.8-7.1-11.9-11.1c-0.9,2.6,1.8,3.4,1.9,5.5c-1.7-0.3-3.3-0.5-5.3-0.7
						c1.3,2.4,4.2,2.8,4.9,6c-1.2-0.4-2-0.7-2.7-0.9c-0.6-0.1-1.3-0.2-1.9-0.3c0.1,0.7,0.1,1.4,0.5,1.9c2.6,5.2,5.4,10.5,8,15.7
						c0.9,1.8,1.4,3.8,2.1,5.8c-0.3,0.2-0.7,0.4-0.9,0.5c-5-7.2-11.1-13.2-17.9-18.5c-0.6,2.3,1,3.6,2.1,5
						C372,592.9,375.4,598.4,378.4,604.4z"/>
				</g>
			</g>
		</g>
	</g>
</g>
</svg>
