<?xml version="1.0" encoding="utf-8"?>
<!-- Generator: Adobe Illustrator 22.0.1, SVG Export Plug-In . SVG Version: 6.00 Build 0)  -->
<svg version="1.1" id="圖層_1" xmlns="http://www.w3.org/2000/svg" xmlns:xlink="http://www.w3.org/1999/xlink" x="0px" y="0px"
	 viewBox="0 0 500 319" style="enable-background:new 0 0 500 319;" xml:space="preserve">
<style type="text/css">
	.st0{fill:#333333;}
	.st1{fill:#E6E6E6;}
	.st2{fill:#4D4D4D;}
	.st3{fill:none;stroke:#000000;stroke-width:0.5971;stroke-miterlimit:10;}
	.st4{fill:#00FF00;}
	.st5{fill:none;stroke:#4D4D4D;stroke-miterlimit:10;}
	.st6{clip-path:url(#SVGID_2_);}
	.st7{fill:#F7F7F7;}
	.st8{fill:#C79F62;}
	.st9{fill:#DDAC24;}
	.st10{fill:#0B308E;}
	.st11{fill:#F29600;}
	.st12{fill:#17AF8A;}
	.st13{fill:#E95525;}
	.st14{fill:#F7B515;}
	.st15{fill:#403618;}
	.st16{fill:#C7C7C6;}
	.st17{fill:#281A16;}
	.st18{fill:#231815;}
	.st19{fill:#58441E;}
	.st20{fill:#B77823;}
	.st21{fill:#785144;}
	.st22{fill:#FFFFFF;}
	.st23{fill:#FDE9C6;}
	.st24{fill:#E14C80;}
	.st25{fill:#E9AC60;}
	.st26{fill:#33B495;}
	.st27{fill:#1C54A4;}
	.st28{fill:#F4DDBE;}
	.st29{opacity:0.5;fill:#C79F62;}
	.st30{fill:#F19A86;}
	.st31{fill:#717071;}
	.st32{opacity:0.5;fill:#F19A86;}
	.st33{opacity:0.5;fill:#717071;}
	.st34{fill:none;stroke:#231815;stroke-width:1.7508;stroke-miterlimit:10;}
	.st35{clip-path:url(#SVGID_4_);}
	.st36{fill:#FDF8D4;}
	.st37{fill:#006934;}
	.st38{fill:#527E32;}
	.st39{fill:#0C2F54;}
	.st40{fill:none;stroke:#FFFFFF;stroke-width:0.7277;stroke-miterlimit:10;}
	.st41{fill:#005280;}
	.st42{fill:#F6AA00;}
	.st43{fill:#FBC600;}
	.st44{fill:#A2D5C9;}
	.st45{fill:#FFFDED;}
	.st46{fill-rule:evenodd;clip-rule:evenodd;fill:#527E32;}
	.st47{fill-rule:evenodd;clip-rule:evenodd;fill:#006934;}
	.st48{clip-path:url(#SVGID_6_);}
	.st49{fill:none;stroke:#0C2F54;stroke-width:1.3962;stroke-miterlimit:10;}
	.st50{clip-path:url(#SVGID_8_);}
	.st51{fill:none;stroke:#102848;stroke-width:1.7658;stroke-miterlimit:10;}
	.st52{fill:#171C61;}
	.st53{fill:#E95513;}
	.st54{clip-path:url(#SVGID_10_);fill:#FFFFFF;}
	.st55{fill:none;stroke:#0C2F54;stroke-width:0.9308;stroke-miterlimit:10;}
	.st56{fill-rule:evenodd;clip-rule:evenodd;fill:#F6AA00;}
	.st57{clip-path:url(#SVGID_12_);}
	.st58{clip-path:url(#SVGID_14_);}
	.st59{clip-path:url(#SVGID_16_);}
	.st60{clip-path:url(#SVGID_18_);fill:#FFFFFF;}
	.st61{clip-path:url(#SVGID_20_);}
	.st62{fill:#FFFCD7;}
	.st63{fill:#F7E2A2;}
	.st64{fill:#EA7926;}
	.st65{clip-path:url(#SVGID_22_);}
	.st66{fill:#FFF9AB;}
	.st67{clip-path:url(#SVGID_24_);}
	.st68{fill:#B39A18;}
	.st69{fill:#81C7A2;}
	.st70{fill:#C0DBC5;}
	.st71{clip-path:url(#SVGID_26_);}
	.st72{fill:#7AC498;}
	.st73{fill:none;stroke:#102848;stroke-width:4.0463;stroke-miterlimit:10;}
	.st74{clip-path:url(#SVGID_28_);}
	.st75{clip-path:url(#SVGID_30_);}
	.st76{clip-path:url(#SVGID_32_);}
	.st77{clip-path:url(#SVGID_34_);}
	.st78{fill:none;stroke:#102848;stroke-width:1.8859;stroke-miterlimit:10;}
</style>
<g>
	<defs>
		<rect id="SVGID_29_" width="500" height="319"/>
	</defs>
	<clipPath id="SVGID_2_">
		<use xlink:href="#SVGID_29_"  style="overflow:visible;"/>
	</clipPath>
	<g class="st6">
		<rect class="st66" width="500" height="319"/>
		<g>
			<g>
				<path class="st42" d="M414.1-110.7c0,0,9.5,61.6-7,98.5c-16.5,37-31,45.3-38,52.5c-7,7.3-17.2,18.3-20.4,32.9
					c-3.3,14.5-17.1,25-33.5,31.7c-16.4,6.7-20.7,18.6-27.9,29c-7.2,10.4-30.8,26.6-50.1,29.1c-19.4,2.5-42.9,3.1-56.9,17.6
					c-13.9,14.5-18.2,22.4-33.2,23.7c-15,1.2-22.8-7-35.2-0.2c-12.4,6.8-16.4,6.7-32.4,1.3c-16-5.4-15.9-9.4-38.9-7.5
					c0,0,18.4-3.3,30.9-9.2c12.4-5.9,13.4-21.6,24.2-25.6c10.8-4,20.4,4.1,29.6,2c9.2-2.1,16-12.8,27.8-15.1
					c11.8-2.4,15.6,0.9,28.7-7.8c13.1-8.6,20.2-19.9,33.6-40.6c13.4-20.7,30.4-26.1,52.2-31.5c21.8-5.4,37.1-9.6,47.1-21
					c9.9-11.3,4.3-25.1,10.6-35.4c6.3-10.3,21.6-16.2,24-23.2c2.4-7-3.6-21.2,2.7-30.6c6.3-9.4,18.5-15.1,28.3-27.6
					c9.8-12.5,22.5-35.5,27.1-44.7c4.6-9.2,28.3-70.3,28.3-70.3l6.9,2.4L414.1-110.7z"/>
			</g>
			<g>
				<path class="st37" d="M84.9,188.7c0,0.7,0.4,1.3,1.1,1.6c6.6,2.2,12.5,2.6,17.6,1c4.5-1.4,6.9-4,9.4-6.7
					c1.1-1.2,2.2-2.5,3.6-3.7c5.7-4.9,13.3-4.2,21.3-3.5c7.1,0.6,14.5,1.2,21.2-1.9c5-2.3,8.2-6.2,11.4-10c4.4-5.2,8.1-9.7,15.9-9.8
					c2,0,4.1,0.1,6,0.2c9.9,0.6,19.3,1.2,26.6-16.1c2.7-6.4,6.4-13.4,15.7-15.2c3.3-0.6,6.8-0.6,10.1-0.6c4.7,0,9.5,0,14.2-1.7
					c8.9-3.2,11.2-9.7,13.4-15.9c1.9-5.4,3.8-10.5,9.9-14c5.5-3.1,9.7-3.8,13.8-4.5c5.9-0.9,11.4-1.8,19.2-9.1
					c3-2.9,3.7-6.9,4.4-10.9c0.7-4,1.3-7.8,4.2-10.3c3.6-3.2,7.5-4.6,10.9-5.9c4.1-1.6,8-3,10.1-7.3c2-4.1,1.6-8.5,1.2-12.7
					c-0.2-2.1-0.4-4.2-0.2-6.1c0.5-6.7,6.3-11.5,11.2-14.3c1.1-0.7,2.4-1.3,3.6-1.9c3.8-1.8,7.7-3.8,9.9-8.2
					c1.9-3.8,1.7-7.8,1.4-11.6c-0.2-2.3-0.3-4.6,0-6.7c0.8-5.2,4.7-8.2,8.8-11.5c4.8-3.8,9.7-7.7,10.2-15.1c0.2-2.3-0.2-4.3-0.5-6
					c-0.4-2.2-0.7-4.1,0-6.5c1.8-6.1,7.5-13.6,12.9-17c0.7-0.5,0.9-1.4,0.5-2.2c-0.5-0.7-1.4-0.9-2.2-0.5
					c-5.9,3.8-12.1,12-14.2,18.8c-0.9,3.1-0.5,5.6-0.1,8c0.3,1.7,0.6,3.3,0.4,5.2c-0.5,6-4.6,9.3-9.1,12.9
					c-4.4,3.5-8.9,7.1-9.9,13.5c-0.4,2.5-0.2,5-0.1,7.4c0.2,3.6,0.5,6.9-1.1,10c-1.7,3.5-5,5-8.5,6.7c-1.3,0.6-2.6,1.3-3.8,2
					c-5.5,3.2-12.2,8.8-12.7,16.8c-0.2,2.2,0.1,4.4,0.3,6.6c0.4,4,0.7,7.8-0.9,11.1c-1.5,3.1-4.6,4.3-8.4,5.7
					c-3.6,1.4-7.8,2.9-11.8,6.5c-3.7,3.3-4.5,8-5.2,12.1c-0.6,3.6-1.2,7-3.5,9.1c-7,6.7-11.9,7.4-17.5,8.3c-4.2,0.7-9,1.4-14.9,4.8
					c-7.1,4.1-9.3,10.2-11.3,15.7c-2.2,6-4,11.3-11.6,14c-4.1,1.5-8.5,1.5-13.1,1.5c-3.5,0-7.1,0-10.7,0.7c-10.3,2-14.7,9.4-18,17.1
					c-6.5,15.2-13.6,14.8-23.5,14.2c-2-0.1-4.1-0.2-6.2-0.2c-9.2,0-13.8,5.5-18.3,10.9c-2.9,3.5-5.9,7.1-10.3,9.2
					c-5.9,2.8-12.9,2.2-19.6,1.6c-8.3-0.7-17-1.5-23.6,4.3c-1.5,1.3-2.7,2.7-3.9,3.9c-2.3,2.5-4.2,4.7-8,5.8c-4.5,1.4-9.8,1-15.7-1
					c-0.8-0.3-1.7,0.2-2,1C85,188.4,84.9,188.5,84.9,188.7z"/>
			</g>
			<g>
				<path class="st37" d="M237.4,90.4c0,0.4,0.2,0.8,0.6,0.9l17.3,5.6c0.5,0.2,1-0.1,1.2-0.6c0.2-0.5-0.1-1-0.6-1.2l-17.3-5.6
					c-0.5-0.2-1,0.1-1.2,0.6C237.4,90.2,237.4,90.3,237.4,90.4z"/>
			</g>
			<g>
				<path class="st37" d="M349.3,0.9c0,0.2,0,0.3,0.1,0.5c0.2,0.5,0.8,0.7,1.3,0.4l11.1-5.4c0.5-0.2,0.7-0.8,0.4-1.3
					c-0.2-0.5-0.8-0.7-1.3-0.4l-11.1,5.4C349.5,0.3,349.3,0.6,349.3,0.9z"/>
			</g>
			<g>
				<path class="st37" d="M287.6,73.7C287.6,73.7,287.6,73.7,287.6,73.7c0,0.5,0.4,1,0.9,1l12.1,0.3c0.5,0,0.9-0.4,1-0.9
					c0-0.5-0.4-1-0.9-1l-12.1-0.3C288,72.8,287.6,73.2,287.6,73.7z"/>
			</g>
			<g>
				<path class="st37" d="M328,66.8c0,0,0,0.1,0,0.1l0.9,16.4c0,0.5,0.5,0.9,1,0.9c0.5,0,0.9-0.5,0.9-1l-0.9-16.4
					c0-0.5-0.5-0.9-1-0.9C328.4,65.9,328,66.3,328,66.8z"/>
			</g>
			<g>
				<path class="st37" d="M361.8,21.6c0,0.1,0,0.1,0,0.2l2.1,11.5c0.1,0.5,0.6,0.8,1.1,0.8c0.5-0.1,0.8-0.6,0.8-1.1l-2.1-11.5
					c-0.1-0.5-0.6-0.8-1.1-0.8C362.1,20.8,361.8,21.2,361.8,21.6z"/>
			</g>
			<g>
				<path class="st37" d="M280.3,117.7c0,0.4,0.2,0.7,0.6,0.9c0.5,0.2,1,0,1.2-0.5l6.9-15.5c0.2-0.5,0-1-0.5-1.2
					c-0.5-0.2-1,0-1.2,0.5l-6.9,15.5C280.4,117.5,280.3,117.6,280.3,117.7z"/>
			</g>
			<g>
				<path class="st37" d="M234,136.9C234,136.9,234,136.9,234,136.9l-0.5,15.2c0,0.5,0.4,1,0.9,1c0.5,0,0.9-0.4,1-0.9c0,0,0,0,0,0
					l0.5-15.2c0-0.5-0.4-1-0.9-1C234.5,136,234,136.4,234,136.9z"/>
			</g>
			<g>
				<path class="st37" d="M145.4,162.9C145.3,162.9,145.3,162.9,145.4,162.9c0,0.5,0.4,1,0.9,1l10.2,0.5c0.5,0,1-0.4,1-0.9
					c0,0,0,0,0,0c0-0.5-0.4-1-0.9-1l-10.2-0.5C145.8,162,145.4,162.4,145.4,162.9z"/>
			</g>
			<g>
				<path class="st37" d="M131.2,192.1c0,0.3,0.1,0.6,0.3,0.8c0.4,0.3,1,0.3,1.3-0.1l6.9-8.1c0.3-0.4,0.3-1-0.1-1.3
					c-0.4-0.3-1-0.3-1.3,0.1l-6.9,8.1C131.3,191.7,131.2,191.9,131.2,192.1z"/>
			</g>
			<g>
				<path class="st37" d="M196.4,138.7c0,0.4,0.3,0.9,0.7,1l9.3,2.1c0.5,0.1,1-0.2,1.1-0.7c0.1-0.5-0.2-1-0.7-1.1l-9.3-2.1
					c-0.5-0.1-1,0.2-1.1,0.7C196.4,138.6,196.4,138.6,196.4,138.7z"/>
			</g>
		</g>
		<g>
			<g>
				<path class="st42" d="M559.3,193.1c0,0,7.7,56.5-37.7,92.4c-45.4,35.9-37.3,5.5-66.7,35.5c0,0-5-74.9,24.6-99.9
					C509.1,196.2,537.4,205.9,559.3,193.1z"/>
			</g>
			<g>
				<path class="st43" d="M549.2,205.1c0.1,0.1,0.1,0.1,0.2,0.2c0.5,0.7,0.3,1.6-0.3,2.1c-7.1,5.1-21.9,21.3-29,29.1l-1.5,1.6
					c-2.4,2.6-6.1,5.4-10.4,8.6c-7.7,5.8-17.3,13-26.2,24c-13.6,16.8-15.5,26.9-15.5,27c-0.1,0.8-0.9,1.4-1.7,1.2
					c-0.8-0.1-1.4-0.9-1.2-1.7c0.1-0.4,1.9-10.9,16.1-28.4c9.1-11.2,18.9-18.6,26.7-24.5c4.2-3.1,7.8-5.8,10-8.3l1.5-1.6
					c7.2-7.9,22.1-24.3,29.4-29.5C547.9,204.6,548.7,204.6,549.2,205.1z"/>
			</g>
			<g>
				<path class="st43" d="M539.2,212.9c0.1,0.1,0.2,0.2,0.2,0.4c0.1,0.4-0.2,0.8-0.6,0.9c-0.2,0-0.5,0-1.3,0
					c-12.5-0.3-24,1.9-34.1,6.8c-19.5,9.4-32.4,27.3-38.3,53.4c-0.1,0.4-0.5,0.7-0.9,0.6c-0.4-0.1-0.7-0.5-0.6-0.9
					c6-26.5,19.2-44.8,39.1-54.4c10.4-5,22.1-7.3,34.8-7c0.5,0,0.9,0,1,0C538.8,212.7,539,212.8,539.2,212.9z"/>
			</g>
			<g>
				<path class="st43" d="M518,236.6c0.2,0.2,0.3,0.5,0.1,0.8c-0.2,0.4-0.6,0.5-1,0.4l0,0c-0.1-0.1-15.1-6.5-31.8,16
					c-0.2,0.3-0.7,0.4-1,0.2c-0.3-0.2-0.4-0.7-0.2-1c5-6.8,13.1-15.2,23.3-17.2c6.2-1.2,10.1,0.6,10.3,0.7
					C517.9,236.5,518,236.6,518,236.6z"/>
			</g>
			<g>
				<path class="st43" d="M531.4,222C531.5,222,531.5,222,531.4,222c0.4,0.5,8.2,10.8,4.6,25.7c-4.1,17-20.8,32.6-49.8,46.2
					c-0.4,0.2-0.8,0-1-0.4c-0.2-0.4,0-0.8,0.4-1c28.5-13.5,45-28.7,49-45.2c3.4-14.3-4.2-24.4-4.3-24.5c-0.2-0.3-0.2-0.8,0.1-1
					C530.8,221.7,531.2,221.7,531.4,222z"/>
			</g>
			<g>
				<path class="st43" d="M506.7,247c0.2,0.2,3.7,3.8,3.4,10c-0.3,6.4-4.6,13.1-12.7,19.7c-0.3,0.3-0.8,0.2-1-0.1
					c-0.3-0.3-0.2-0.8,0.1-1c7.8-6.4,11.9-12.6,12.2-18.6c0.3-5.6-2.9-8.9-2.9-8.9c-0.3-0.3-0.3-0.8,0-1.1
					C506,246.8,506.5,246.8,506.7,247z"/>
			</g>
		</g>
		<g>
			<g>
				<path class="st42" d="M325.7,134.2c0,0,71.8,17.2,93.7,88.8c22,71.6-10.9,47.6,11.5,97.1c0,0-92.6-29.2-108.8-76.6
					C305.8,196.1,330.7,166.5,325.7,134.2z"/>
			</g>
			<g>
				<path class="st43" d="M335.4,151.9c0.1,0,0.2-0.1,0.3-0.1c1-0.3,2.1,0.4,2.3,1.4c2.8,10.9,15.4,36.3,21.5,48.6l1.3,2.6
					c2,4.1,3.7,9.9,5.5,16.6c3.4,12,7.5,26.9,16.6,42.8c13.8,24.3,25.2,31.3,25.3,31.3c0.9,0.5,1.2,1.7,0.7,2.6
					c-0.5,0.9-1.7,1.2-2.6,0.7c-0.5-0.3-12.3-7.4-26.7-32.8c-9.3-16.3-13.5-31.5-16.9-43.7c-1.8-6.5-3.4-12.1-5.3-15.9l-1.3-2.6
					c-6.1-12.3-18.9-38-21.8-49.3C334.1,153.2,334.6,152.3,335.4,151.9z"/>
			</g>
			<g>
				<path class="st43" d="M340.1,167.7c0.2-0.1,0.4-0.1,0.6-0.1c0.5,0.1,0.9,0.6,0.8,1.1c0,0.3-0.2,0.6-0.6,1.6
					c-6.3,14.9-8.9,29.8-7.8,44.3c2.1,27.9,17.7,51.9,46.3,71.2c0.4,0.3,0.6,0.9,0.3,1.3c-0.3,0.4-0.9,0.6-1.3,0.3
					c-29.1-19.7-45-44.1-47.2-72.7c-1.1-14.8,1.6-30,8-45.2c0.2-0.6,0.5-1.1,0.5-1.2C339.6,168.1,339.8,167.8,340.1,167.7z"/>
			</g>
			<g>
				<path class="st43" d="M358.7,204.3c0.4-0.2,0.8-0.1,1.1,0.2c0.4,0.4,0.4,1,0,1.4l0,0c-0.2,0.1-14.9,15.1,4.4,45.8
					c0.3,0.4,0.1,1-0.3,1.3c-0.4,0.3-1,0.1-1.3-0.3c-5.8-9.2-12.2-23-9.7-36.1c1.5-8,5.5-11.9,5.7-12.1
					C358.5,204.4,358.6,204.4,358.7,204.3z"/>
			</g>
			<g>
				<path class="st43" d="M347.4,181.3c0,0,0.1,0,0.1,0c0.7-0.2,16.7-4.8,33.1,6.6c18.6,12.9,29.5,40.4,32.3,81.7c0,0.5-0.4,1-0.9,1
					c-0.5,0-1-0.4-1-0.9c-2.8-40.7-13.4-67.7-31.5-80.2c-15.6-10.8-31.3-6.4-31.5-6.3c-0.5,0.1-1-0.1-1.2-0.7
					C346.7,182,346.9,181.5,347.4,181.3z"/>
			</g>
			<g>
				<path class="st43" d="M365.9,222.8c0.3-0.1,6.3-2.6,13.7,0.7c7.6,3.4,13.6,11.7,17.8,24.6c0.2,0.5-0.1,1-0.6,1.2
					c-0.5,0.2-1-0.1-1.2-0.6c-4-12.3-9.6-20.2-16.7-23.4c-6.6-3-12.1-0.7-12.1-0.7c-0.5,0.2-1.1,0-1.3-0.5
					C365.2,223.6,365.5,223,365.9,222.8z"/>
			</g>
		</g>
		<g>
			<g>
				<path class="st39" d="M-5,137.3c0,0-8.6,39.9-25.9,68.2c-17.3,28.3-15.9,33.2-11.4,54.9c4.5,21.6,55.9,76.3,76.7,118.9
					c0,0,6.4-36.8,20-66.9c13.6-30.1,24.7-52.7,22.7-69.4c-2-16.7-1.7-24.2-11.8-38.6C55.1,190.1,10,164.7-5,137.3z"/>
			</g>
			<g>
				<g>
					<path class="st43" d="M2.1,165.2c-0.8-0.8-2-1-2.9-0.3c-1,0.7-1.2,2.1-0.5,3.1l0,0c0.2,0.2,16.1,22.2,9,50.7
						c-6.7,27-7,45.9-1,65.3c2,6.3,4.7,11.9,7.4,17.3c4.3,8.8,8.8,18,9.9,30.3c0.1,1.2,1.2,2.1,2.4,2c1.2-0.1,2.1-1.2,2-2.4
						c-1.2-13.2-5.8-22.7-10.3-31.9c-2.7-5.5-5.3-10.7-7.1-16.7c-4.2-13.6-7-30.6,1-62.9c7.6-30.6-9-53.4-9.7-54.4
						C2.2,165.3,2.1,165.3,2.1,165.2z"/>
				</g>
				<g>
					<path class="st43" d="M37,200.4c-12.8-13.9-27-20.7-27.2-20.8c-0.6-0.3-1.2,0-1.5,0.5c-0.3,0.6,0,1.2,0.5,1.5
						c0.3,0.2,33.8,16.2,43.6,49.6c6.5,22.3,1.2,47.2-15.7,74.1c-0.3,0.5-0.2,1.2,0.3,1.5c0.5,0.3,1.2,0.2,1.5-0.3
						c17.3-27.4,22.7-53,16-75.9C50.9,218.2,44.1,208.2,37,200.4z"/>
				</g>
				<g>
					<path class="st43" d="M10.2,189.8c-0.3-0.4-0.9-0.5-1.4-0.2C8.3,189.9-5,197.8-15.1,213c-9.3,14.1-17.5,37.3-3.1,67.7
						c0.3,0.6,0.9,0.8,1.5,0.5c0.6-0.3,0.8-0.9,0.5-1.5c-11.2-23.6-10.2-45.6,2.9-65.4c9.8-14.8,23.1-22.8,23.2-22.8
						c0.5-0.3,0.7-1,0.4-1.5C10.3,189.9,10.3,189.8,10.2,189.8z"/>
				</g>
				<g>
					<path class="st43" d="M22.4,231.3c-5.8-6.3-11.7-7.3-12.1-7.4c-0.6-0.1-1.2,0.3-1.3,0.9c-0.1,0.6,0.3,1.2,0.9,1.3l0,0
						c0.2,0,21.4,4,21.8,43.1c0,0.6,0.5,1.1,1.1,1.1c0.6,0,1.1-0.5,1.1-1.1C33.7,248.7,28.1,237.4,22.4,231.3z"/>
				</g>
				<g>
					<path class="st43" d="M4.4,257.3c0-0.1-0.1-0.1-0.2-0.1c-0.5-0.4-1.2-0.3-1.5,0.2c-0.1,0.2-14,19.5-5,44.6
						c0.2,0.6,0.8,0.9,1.4,0.7c0.6-0.2,0.9-0.8,0.7-1.4c-8.6-24,4.6-42.4,4.7-42.6C4.8,258.3,4.7,257.7,4.4,257.3z"/>
				</g>
			</g>
		</g>
		<g>
			<g>
				<path class="st37" d="M460.6,144.5c0,0-20.5,13.8-35.5,18c-15.1,4.2-53.4,50.4-66.9,95.8c-13.5,45.4-14.5,74.4-29,95.6
					c0,0,25.2-16.7,49.4-19.2c24.1-2.5,64.3-8,84.7-58.2c20.4-50.2,28.7-68.8,12-98.5C475.2,177.9,459.1,156.4,460.6,144.5z"/>
			</g>
			<g>
				<g>
					<path class="st38" d="M441.9,244.5c3.3-7.8,4.2-15.1,4.8-32c0.9-25.6,7.8-38.2,7.9-38.3c0.7-1.3,0.3-2.8-1-3.5
						c-1.2-0.7-2.8-0.3-3.5,1c-0.3,0.5-7.6,13.7-8.5,40.7c-0.9,24.9-2.4,27.5-12.1,44.7l-1.4,2.4c-5.5,9.8-19.8,19.2-33.5,28.3
						c-13.1,8.6-25.5,16.8-32.1,26c-0.8,1.2-0.6,2.8,0.6,3.6c1.2,0.8,2.8,0.6,3.6-0.6c6-8.4,18.6-16.7,30.8-24.7
						c14.3-9.4,29-19.1,35.2-30l1.4-2.4C437.5,253.3,440.1,248.8,441.9,244.5z"/>
				</g>
				<g>
					<path class="st38" d="M431.5,261.3c0.1-0.1,0.1-0.3,0.1-0.4c0-0.7-0.5-1.3-1.2-1.3c-0.3,0-30.2-0.9-50.1,21.8
						c-0.5,0.5-0.4,1.4,0.1,1.8c0.5,0.5,1.4,0.4,1.8-0.1c19.1-21.8,47.8-20.9,48.1-20.9C430.9,262.1,431.3,261.8,431.5,261.3z"/>
				</g>
				<g>
					<path class="st38" d="M412.3,306.2c5.3-12.7,4.7-27.6,4.7-28.3c0-0.7-0.6-1.3-1.3-1.2c-0.7,0-1.3,0.6-1.2,1.3
						c0,0.2,0.8,19.7-7.3,32.5c-0.4,0.6-0.2,1.4,0.4,1.8c0.6,0.4,1.4,0.2,1.8-0.4C410.4,310.1,411.4,308.2,412.3,306.2z"/>
				</g>
				<g>
					<path class="st38" d="M450.5,180.6c0-0.1,0.1-0.2,0.1-0.4c0.1-0.7-0.4-1.3-1.1-1.4c-0.5-0.1-13.4-1.3-30.7,11.2
						c-28.5,20.5-46.4,62.3-56.4,93.7c-0.2,0.7,0.2,1.4,0.8,1.6c0.7,0.2,1.4-0.2,1.6-0.8c9.8-30.9,27.4-72,55.2-92.2
						c16.5-12,29-10.9,29.1-10.9C449.8,181.5,450.3,181.1,450.5,180.6z"/>
				</g>
				<g>
					<path class="st38" d="M457.7,252.5c7.1-16.8,10.4-33.1,5.4-45.2c-5-12.4-16-14.7-16.5-14.8c-0.7-0.1-1.4,0.3-1.5,1
						c-0.1,0.7,0.3,1.4,1,1.5l0,0c0.4,0.1,10.2,2.2,14.6,13.3c5.1,12.8,3.5,38.9-33.1,91.2c-0.4,0.6-0.3,1.4,0.3,1.8
						c0.6,0.4,1.4,0.3,1.8-0.3C440,286.4,450.7,269.2,457.7,252.5z"/>
				</g>
				<g>
					<path class="st38" d="M445.3,213c0.1-0.3,0.1-0.7,0-1.1c-0.3-0.6-1.1-0.9-1.7-0.6c-0.1,0-8.4,4.1-18.4,10.7
						c-9.2,6.1-21.8,15.7-29.4,26.7c-0.4,0.6-0.3,1.4,0.3,1.8c0.6,0.4,1.4,0.3,1.8-0.3c14.1-20.5,46.5-36.5,46.8-36.6
						C445,213.5,445.2,213.2,445.3,213z"/>
				</g>
			</g>
		</g>
		<g>
			<g>
				<path class="st42" d="M471.7-37.1c0,0-50.5,22.8-40.8,72.3c9.7,49.5,45.1,43.3,57.1,55.9c0,0-14.9-17.2-11.4-29.6
					c3.5-12.4,10.5-39.2,9.1-49.6C480.6-26,467.2-25,471.7-37.1z"/>
			</g>
			<g>
				<path class="st43" d="M465.4-19.6c-0.1-0.5-0.3-0.9-0.7-1.3c-0.8-0.7-2-0.6-2.7,0.2c-0.3,0.3-6.6,8-9.5,22.6
					c-4.7,24.2,3.9,48.5,12,64.5c0.5,0.9,1.6,1.3,2.6,0.9c0.9-0.5,1.3-1.6,0.9-2.6c-26.9-53.7-3.3-82.7-3-83
					C465.3-18.5,465.4-19.1,465.4-19.6z"/>
			</g>
			<g>
				<path class="st43" d="M461-10.1c0-0.1-0.1-0.3-0.1-0.4c-0.3-0.5-0.8-0.6-1.3-0.4c-0.3,0.2-7.2,4.2-12.9,13.2
					c-5.2,8.3-10.3,22.4-4.7,43.1c0.1,0.5,0.7,0.8,1.2,0.7c0.5-0.1,0.8-0.7,0.7-1.2C433.4,6.8,460.2-9,460.5-9.1
					C460.8-9.3,461-9.7,461-10.1z"/>
			</g>
			<g>
				<path class="st43" d="M473.2,28c-1-9.1-4-15.9-6.8-20.4c-4.1-6.7-8.4-10-8.6-10.1c-0.4-0.3-1-0.2-1.3,0.2
					c-0.3,0.4-0.2,1,0.2,1.3c0.2,0.1,16.8,12.8,14.8,39.7c0,0.5,0.4,1,0.9,1c0.5,0,1-0.4,1-0.9C473.6,34.9,473.5,31.3,473.2,28z"/>
			</g>
			<g>
				<path class="st43" d="M457.5,41c0-0.2-0.1-0.5-0.3-0.6c-0.4-0.3-1-0.3-1.4,0.1c-0.1,0.1-8.3,9.8-2.4,21.8
					c0.2,0.5,0.8,0.7,1.3,0.4c0.5-0.2,0.7-0.8,0.4-1.3c-5.4-10.9,2-19.6,2.1-19.7C457.5,41.5,457.5,41.3,457.5,41z"/>
			</g>
		</g>
		<g>
			<g>
				<path class="st52" d="M432.9,322c0,5.9-4.8,10.8-10.8,10.8c-5.9,0-10.8-4.8-10.8-10.8c0-5.9,4.8-10.7,10.8-10.7
					C428,311.3,432.9,316.1,432.9,322z"/>
			</g>
			<g>
				<path class="st42" d="M429.6,315c0,0-3.3,5.8,0,14.4c0,0,5.3-2.4,7.3-6.1C438.2,321.1,429.1,312,429.6,315z"/>
			</g>
			<g>
				<g>
					<path class="st52" d="M466.1,316.4c-5.7-1.7-8.9-7.7-7.2-13.4c1.7-5.7,7.7-8.9,13.4-7.2c5.7,1.7,8.9,7.7,7.2,13.4
						C477.7,314.9,471.7,318.2,466.1,316.4z"/>
				</g>
				<g>
					<path class="st42" d="M473.7,315.4c0,0-4.6-4.8-13.8-4.2c0,0,0.8,5.8,3.7,8.7C465.4,321.8,476.7,315.7,473.7,315.4z"/>
				</g>
			</g>
			<g>
				<g>
					<path class="st52" d="M448,308.3c-5.5,2.3-11.8-0.2-14.1-5.7c-2.3-5.5,0.2-11.8,5.7-14.1c5.5-2.3,11.8,0.2,14.1,5.7
						C456,299.7,453.5,306,448,308.3z"/>
				</g>
				<g>
					<path class="st42" d="M453.2,302.6c0,0-6.6-0.8-13.2,5.6c0,0,4.3,3.9,8.4,4.4C450.9,312.8,455.8,300.9,453.2,302.6z"/>
				</g>
			</g>
			<g>
				<path class="st53" d="M450.5,325.5c-0.5,0-1-0.4-1.1-1l-2-12.9c-0.1-0.6,0.3-1.2,0.9-1.3c0.6-0.1,1.2,0.3,1.3,0.9l2,12.9
					c0.1,0.6-0.3,1.2-0.9,1.3C450.6,325.5,450.6,325.5,450.5,325.5z"/>
			</g>
			<g>
				<path class="st53" d="M458.8,333.3c-0.2,0-0.5-0.1-0.7-0.2c-0.5-0.4-0.6-1.1-0.3-1.6l4.9-6.8l0.5-7c0-0.6,0.6-1.1,1.2-1.1
					c0.6,0,1.1,0.6,1.1,1.2l-0.5,7.6l-5.2,7.3C459.5,333.1,459.2,333.3,458.8,333.3z"/>
			</g>
		</g>
		<g>
			<g>
				<path class="st37" d="M114.4-36.1c0,0,17.6,11.8,30.5,15.4c12.9,3.6,45.7,43.1,57.3,82.1c11.6,38.9,12.4,63.7,24.8,81.9
					c0,0-21.6-14.3-42.3-16.4c-20.7-2.1-55-6.8-72.5-49.9C94.7,34,87.6,18,101.9-7.4C101.9-7.4,115.7-25.9,114.4-36.1z"/>
			</g>
			<g>
				<g>
					<path class="st38" d="M130.5,49.6c-2.8-6.7-3.6-13-4.1-27.4c-0.8-21.9-6.7-32.7-6.7-32.8c-0.6-1.1-0.2-2.4,0.8-3
						c1.1-0.6,2.4-0.2,3,0.8c0.3,0.5,6.5,11.7,7.3,34.8c0.8,21.3,2,23.6,10.3,38.3l1.2,2.1c4.7,8.4,16.9,16.4,28.7,24.2
						c11.3,7.4,21.9,14.4,27.5,22.2c0.7,1,0.5,2.4-0.5,3.1c-1,0.7-2.4,0.5-3.1-0.5c-5.2-7.2-16-14.3-26.4-21.1
						c-12.2-8-24.9-16.4-30.1-25.7l-1.2-2.1C134.2,57.1,132,53.3,130.5,49.6z"/>
				</g>
				<g>
					<path class="st38" d="M139.3,64c0-0.1-0.1-0.2-0.1-0.4c0-0.6,0.5-1.1,1.1-1.1c0.3,0,25.9-0.8,42.9,18.7
						c0.4,0.5,0.4,1.2-0.1,1.6c-0.5,0.4-1.2,0.4-1.6-0.1c-16.4-18.7-41-17.9-41.2-17.9C139.9,64.7,139.5,64.4,139.3,64z"/>
				</g>
				<g>
					<path class="st38" d="M155.8,102.4c-4.6-10.9-4.1-23.6-4-24.2c0-0.6,0.5-1.1,1.2-1.1c0.6,0,1.1,0.5,1.1,1.2
						c0,0.2-0.7,16.9,6.2,27.9c0.3,0.5,0.2,1.2-0.3,1.5c-0.5,0.3-1.2,0.2-1.5-0.3C157.4,105.8,156.5,104.1,155.8,102.4z"/>
				</g>
				<g>
					<path class="st38" d="M123.1-5.1c0-0.1-0.1-0.2-0.1-0.3c-0.1-0.6,0.4-1.2,1-1.2c0.5-0.1,11.5-1.1,26.3,9.6
						c24.4,17.6,39.7,53.4,48.3,80.3c0.2,0.6-0.1,1.2-0.7,1.4c-0.6,0.2-1.2-0.1-1.4-0.7c-8.4-26.5-23.5-61.7-47.3-79
						c-14.2-10.3-24.9-9.3-25-9.3C123.7-4.4,123.2-4.7,123.1-5.1z"/>
				</g>
				<g>
					<path class="st38" d="M116.9,56.5c-6.1-14.4-8.9-28.3-4.7-38.7C116.5,7.1,126,5.2,126.4,5.1c0.6-0.1,1.2,0.3,1.3,0.9
						c0.1,0.6-0.3,1.2-0.9,1.3l0,0c-0.4,0.1-8.7,1.9-12.5,11.4c-4.4,10.9-3,33.3,28.3,78.1c0.4,0.5,0.2,1.2-0.3,1.5
						c-0.5,0.4-1.2,0.2-1.5-0.3C132.1,85.5,122.9,70.7,116.9,56.5z"/>
				</g>
				<g>
					<path class="st38" d="M127.5,22.6c-0.1-0.3-0.1-0.6,0-0.9c0.3-0.5,0.9-0.8,1.5-0.5c0.1,0,7.2,3.5,15.8,9.2
						c7.9,5.2,18.7,13.5,25.2,22.9c0.3,0.5,0.2,1.2-0.3,1.5c-0.5,0.3-1.2,0.2-1.5-0.3C156.1,37,128.3,23.3,128,23.1
						C127.8,23,127.6,22.8,127.5,22.6z"/>
				</g>
			</g>
		</g>
		<g>
			<g>
				<path class="st39" d="M2.6-24.9c24.6-8.5,48.6,11.4,66.2,27.7C80.6,13.6,86.2,17,101.8,24c11.7,5.2,22.7,10.7,27.8,22.3
					c5.7,12.9,6.2,24.6,14.5,37c7.1,10.6,15,20.3,22,31.5c17.6,28.2,31.5,54.1,37.9,91.3c-11.1-31.7-46.3-22.7-67.6-39.5
					c-9.9-7.8-22.4-22.4-31.2-31.2C93.8,123.8,93,111.4,85.9,97.5C70,66.2,45,71.4,15.4,58.5C-0.4,51.7-9.2,40.9-26.4,36.4
					C-39.1,33-80.1,25.6-62.2,10c1.6-1.4,11.5-0.1,14.3-1.1c5.8-2,10.7-6.7,15.5-10.2C-21.2-9.4-11-20.2,2.6-24.9z"/>
			</g>
			<g>
				<path class="st43" d="M152.7,148.7c0.7-0.1,1.4-0.4,1.8-1c0.7-1,0.4-2.4-0.7-3c-16.9-10.4-37.7-39-40.5-55.6
					c-2.8-17-16.6-37.1-40.5-41.1c-20.6-3.5-36-12.9-45.6-28.1C17,3.6-5.2,5.9-6.2,6c-1.3,0.1-2.2,1.2-2.1,2.4
					c0.1,1.2,1.3,2.1,2.6,1.9l0,0c0.2,0,20.2-2,29,11.8C33.6,38.4,50,48.5,72,52.2c21.6,3.7,34.2,22,36.7,37.5
					c2.9,17.6,24.7,47.7,42.5,58.6C151.7,148.6,152.2,148.7,152.7,148.7z"/>
			</g>
			<g>
				<path class="st43" d="M3.7,44c0.1,0,0.1,0,0.2,0c0.6-0.2,1-0.8,0.8-1.3l-5.4-20.2c-0.2-0.6-0.8-0.9-1.4-0.8
					c-0.6,0.2-1,0.8-0.8,1.3l5.4,20.2C2.7,43.7,3.2,44,3.7,44z"/>
			</g>
			<g>
				<path class="st43" d="M82.5,81.5c0.6,0,1.1-0.5,1.1-1.1l0.5-14.7c0-0.6-0.5-1.1-1.1-1.1c-0.6,0-1.2,0.5-1.2,1.1l-0.5,14.7
					c0,0.6,0.5,1.1,1.1,1.1C82.5,81.5,82.5,81.5,82.5,81.5z"/>
			</g>
			<g>
				<path class="st43" d="M26.2,12.2c0.1,0,0.1,0,0.2,0L46.2,7c0.6-0.2,1-0.8,0.8-1.4c-0.2-0.6-0.8-0.9-1.4-0.8L25.8,10
					c-0.6,0.2-1,0.8-0.8,1.4C25.1,11.9,25.6,12.2,26.2,12.2z"/>
			</g>
			<g>
				<path class="st43" d="M59.3,29.6c0.1,0,0.2,0,0.2,0l17.5-5c0.6-0.2,1-0.8,0.8-1.4c-0.2-0.6-0.8-0.9-1.4-0.7l-17.5,5
					c-0.6,0.2-1,0.8-0.8,1.4C58.2,29.3,58.8,29.6,59.3,29.6z"/>
			</g>
			<g>
				<path class="st43" d="M100.3,48.6c0.1,0,0.2,0,0.3-0.1l15.2-4.8c0.6-0.2,0.9-0.8,0.7-1.4c-0.2-0.6-0.9-0.9-1.5-0.7l-15.2,4.8
					c-0.6,0.2-0.9,0.8-0.7,1.4C99.2,48.3,99.7,48.6,100.3,48.6z"/>
			</g>
			<g>
				<path class="st43" d="M148.7,105.3c0.6,0,1-0.5,1.1-1c0.1-0.6-0.4-1.1-1-1.2l-22.6-2c-0.6-0.1-1.2,0.4-1.3,1
					c-0.1,0.6,0.4,1.1,1,1.2l22.6,2C148.6,105.3,148.6,105.3,148.7,105.3z"/>
			</g>
			<g>
				<path class="st43" d="M112.1,135.2c0.6,0,1.1-0.6,1.1-1.2l-1-13.2c0-0.6-0.6-1.1-1.2-1c-0.6,0-1.1,0.6-1.1,1.2l1,13.2
					C110.9,134.8,111.5,135.2,112.1,135.2z"/>
			</g>
		</g>
		<g>
			<g>
				<path class="st52" d="M374.2,68c3.3-5.1,10.1-6.6,15.2-3.3c5.1,3.3,6.6,10.1,3.3,15.2c-3.3,5.1-10.1,6.6-15.2,3.3
					C372.4,79.9,370.9,73.1,374.2,68z"/>
			</g>
			<g>
				<path class="st42" d="M373.1,75.8c0,0,6-3.2,7.9-12.3c0,0-5.9-0.8-9.6,1.2C369.1,65.8,371.9,78.6,373.1,75.8z"/>
			</g>
			<g>
				<g>
					<path class="st52" d="M342.6,54.4c3.9,4.6,3.4,11.5-1.2,15.5c-4.6,3.9-11.5,3.4-15.5-1.2c-3.9-4.6-3.4-11.5,1.2-15.5
						C331.8,49.2,338.7,49.8,342.6,54.4z"/>
				</g>
				<g>
					<path class="st42" d="M335.5,51.1c0,0,1.3,6.7,9.5,11.2c0,0,2.5-5.4,1.7-9.5C346.2,50.1,333.1,49.1,335.5,51.1z"/>
				</g>
			</g>
			<g>
				<g>
					<path class="st52" d="M353.7,71.4c6,1,10,6.7,8.9,12.7c-1,6-6.7,10-12.7,8.9c-6-1-10-6.7-8.9-12.7
						C342,74.3,347.7,70.3,353.7,71.4z"/>
				</g>
				<g>
					<path class="st42" d="M346,73.4c0,0,5.3,4.3,14.5,2.5c0,0-1.5-5.8-4.8-8.4C353.6,65.8,342.9,73.4,346,73.4z"/>
				</g>
			</g>
			<g>
				<path class="st53" d="M376.4,30.3c0.2,0.1,0.3,0.2,0.4,0.4c0.3,0.6,0.1,1.3-0.5,1.6c-9.4,5-15.9,11.3-17.6,13
					c0.8,4.4,1.9,9.3,2.4,10.1c0.9,0.8,7.5,6.2,11.9,9.8c0.5,0.4,0.6,1.1,0.2,1.6c-0.4,0.5-1.1,0.6-1.6,0.2
					c-1.1-0.9-11.1-9-12.1-9.9c-0.8-0.8-1.9-4.8-3.2-11.9l-0.1-0.6l0.4-0.4c0.3-0.3,7.4-7.9,18.6-13.9
					C375.6,30,376.1,30.1,376.4,30.3z"/>
			</g>
			<g>
				<path class="st53" d="M361,55.2c0.5,0.3,0.7,0.9,0.4,1.4L356,68.8c-0.3,0.6-0.9,0.8-1.5,0.6c-0.6-0.3-0.8-0.9-0.6-1.5l5.4-12.1
					c0.3-0.6,0.9-0.8,1.5-0.6C360.9,55.2,360.9,55.2,361,55.2z"/>
			</g>
			<g>
				<path class="st53" d="M358.2,43.9c0.2,0.1,0.4,0.3,0.4,0.5c0.2,0.6-0.1,1.3-0.6,1.5l-7.9,3.1l-4.3,5.7c-0.4,0.5-1.1,0.6-1.6,0.2
					c-0.5-0.4-0.6-1.1-0.2-1.6l4.7-6.3l8.5-3.4C357.5,43.7,357.9,43.7,358.2,43.9z"/>
			</g>
			<g>
				<path class="st53" d="M343.8,41.7l6.6,4.3c0.5,0.3,0.7,1.1,0.3,1.6c-0.3,0.5-1.1,0.7-1.6,0.3l-5.5-3.5c-1.8,1-3.7,2-4,2.3
					c-0.5,0.4-1.2,0.3-1.6-0.2c-0.4-0.5-0.3-1.2,0.2-1.6c0.7-0.5,4-2.3,5-2.8L343.8,41.7z"/>
			</g>
		</g>
		<g>
			<path class="st22" d="M287.8,279.9c0,0-5.1,13.2-0.9,23.9c4.3,10.7,10.2,20.5,10.7,24.3c0.4,3.8-0.4,10.7,0.9,13.6
				c1.3,3,5.1,13.6,5.1,13.6s6.4-10.2,6.4-16.2c0-6-3-49.9-4.7-55.9C303.6,277.4,287.8,279.9,287.8,279.9z"/>
			<path class="st22" d="M286.3,313.2l-113.9,12.2c-7,29.4,0.6,55.7,7,77.4c6.4,21.8,18.3,75.5,18.3,75.5
				c-24.7,33.3-32,70.4-32,70.4c8.3,19,17.1,13.2,17.1,13.2c11.9-20.9,37.4-40,48.6-54v-1c0,0,11.5-11.9,12.4-19.6
				c0.9-7.7-6-65.7-7.7-80.2c0,0,12.4,60.6,11.1,77.2c-0.9,11.3-5.1,15.5-11.5,23.1c-8.4,37.9-5.5,86-5.5,86
				c4.5,5.8,29.9,5.1,29.9,5.1c3.8-7,18.6-95.3,18.6-95.3c14.7-31.3,28.2-134.4,28.2-147.8C306.8,342,286.3,313.2,286.3,313.2z"/>
			<path class="st22" d="M80.1,300.2c0,0-20.3,21.1-16.9,70c0,0,32,13.7,39.5,11.9c7.5-1.8,20-9.5,22-9.5c2,0,0,5.3,7.5,7.1
				c7.5,1.8,18,2.4,20.5,3.5c2.5,1.2,21.9-14,30.9-21.1c0,0-27.6-42.7-25.6-73.7L80.1,300.2z"/>
			<g>
				<path class="st22" d="M240.9,74.9l4,20.4c0,0-1.6,3.4-4.5,2.8c0,0-1.1,10.2-8.3,9.9c0,0-4.2,5.1-4,9.8c0.2,4.7-14,8.5-25.1-3.5
					c0,0,10.9-19.3,10.7-27.7C213.4,78.1,226.3,68,240.9,74.9z"/>
				<path class="st22" d="M240.2,72.3l3.2,23c0,0-1.7,1.6-4.5,1.1c0,0-0.8,10.9-8,10c0,0-2.7,7.4-2.5,12.1
					c0.2,4.7-15.8,7.8-26.8-4.3c0,0,10.9-19.3,10.7-27.7C212,78.1,225.7,65.4,240.2,72.3z"/>
				<path class="st22" d="M248.8,65.4c0,0-6.1,7.7-14.8,10.8c0,0-2.1,3.1-4,4.9c-1.9,1.8-2.6-0.6-3.1-2.1c-0.5-1.5-8.3-3.5-7.6,3.6
					c0,0,1.2,8.6-7.2,6.9c0,0-1.4-19.2-1.6-25.4c0,0,0.8-1,3.2-1.7C216.1,61.8,253.2,54.4,248.8,65.4z"/>
				<path class="st22" d="M238.6,99.6c0,0-5-2.1-7.7-4.2c0,0,0.5,6.3,6.1,8C237,103.3,237.7,102.1,238.6,99.6z"/>
			</g>
			<path class="st22" d="M307.8,250.5c-2.2-11.2,9.3-81.6-23.7-101.4c-32.9-19.8-49.2-37.8-57.2-38.5c-8-0.6-22.1-1.9-22.1-1.9
				s-4.5,1.3-9.3,4.8c-4.8,3.5-135.2,9.1-150,65c-10.9,40.9,36.5,35.2,49.3,32l5.9-15.5c0,0-40.1-3.8-11.5-19.2
				c22.8-12.3,47.6,0.1,59.1,11c0,0,15.7,52.5,18.2,71c2.6,18.6,1,60.5,2.2,66.2c1.3,5.8,4.2,7,4.2,7c11,3.8,24.8-2.1,36.6-0.8
				c21.9,2.5,47-4.1,68.8-7.2c24.4-3.4,9.2-22.4,6.1-38.4c-4.1-13.1-15.6-61.4-14.8-63.7c0.9-2.6,5.1-19.6,5.1-19.6
				s-2.6,14.1-2.6,20.9c0,5.9,11.6,49.4,14.6,60.8c4.6-1,14.4-2.3,19.2,2.2C305.8,285.4,310,261.7,307.8,250.5z"/>
			<path class="st22" d="M160.3,257.5c8.2-23-0.5-62.5-16-75.2c-18.1-14.9-19.9-29.1-30.1-28.2c-15.7,1.3-9.5,1.7-9.5,1.7
				s-60.4,8.5-62.9,51.7c-0.9,16.4-1.4,42.3-10.6,56.4c-9.2,14.1-6.4,40.4,10.2,42.3c17.4,2,39-42.2,41.3-47.9c0,0,2.6,5.1-6.8,20.5
				c1.8,2.2,2.4,4.6,1.3,9.6c-1.5,6.6-6.3,12.7-6.3,12.7c42.8,20,95-6.8,95-6.8S154.4,274.2,160.3,257.5z"/>
			<path class="st22" d="M89.6,193.4c-9.5-2.4-19.6-7.5-1.2-17.4c0.4-0.2,0.8-0.4,1.2-0.6v-37.6c-22,9.4-39.9,22.4-44.8,40.9
				c-9.8,37.1,28,35.9,44.8,32.9V193.4z"/>
			<g>
				<path class="st22" d="M93.9,226c0,0.3-5.2,5.6-8.1,7.9c-2.9,2.3-8.2,6.5-9.3,8.6c-1.1,2.1-3.7,2.8-2.7,3.6c1,0.8,9,7,10.2,6.6
					c1.2-0.4,5.4-8.5,7-10.4c1.6-1.9,6.3-8.1,7.6-9.1c1.2-1,6.9-4.2,10.2-6.7c3.3-2.5-0.1-8.7-0.1-8.7s0.6-4.7,1.7-5
					c0.4-0.1,2.6-4.2-0.7-2.6C108.4,210.7,95.5,215.6,93.9,226z"/>
				<g>
					<path class="st22" d="M106.7,116.6c0.5-0.2,7.5,2.3,12.2,8.5c0,0,0.5,0.4,1.2,0.6c0.7,0.3,4.2,1.8,4.7,3.1
						c0.3,0.8-0.9,1.4-1.1,1.7c0,0,4.2,7.9-2.6,13c0,0-6.5,6.4-5.5,12.7c0,0-0.9,1.1-5.7,1c-4.8-0.1-6-1.4-6-1.4s3.3-9.5-3.3-10.8
						C89.4,142.8,83.5,126.1,106.7,116.6z"/>
					<path class="st22" d="M113.6,117.2c3,3.4-0.7,6.3-4.4,8.7c-1.5,1-3.8,1.2-5,2.5c-1.4,1.5,0.8,10,3.1,13.7
						c-1.5-0.5-3.9-2-5.3-0.9c-2,1.6-0.2,4.1,1.2,5.1c1.8,1.2,4.5,0.5,5.8,2.2c2.7,3.3-0.5,7.8-1.3,10.9c-1.3,4.7,2.2,7.9,2.6,12.4
						c0.3,3.4-0.3,6.8,0,10.2c0.5,7.3,8.5,9.4,10.5,16c2.8,9.2-11.6,3.5-16.2,4.2c-4.3,0.6-6.1,5.5-7.6,9.3
						c-2.3,5.7-4.3,9.1-9.4,12.9c-3.4,2.6-7.4,4.4-10.5,7.5c-2.8,2.7-5.2,5.6-8.2,8.2c-4.8,4.2-14.6,5.6-18,10.8
						c8.4-12.7,12.5-25.9,13-41.3c0.3-10.8-8-18.6-11.6-28.1c-3-7.9-5.6-21.3,4.3-25.9c2.8-1.3,6.2-1.1,8.3-3.8
						c2.5-3.2,2.7-9,2.9-12.9c0.4-8.1,1.1-14.8,8-20c2-1.5,3.9-2.7,6.4-2.9c2.3-0.2,4.4,1.1,6.7,0.9
						C91.3,116.5,102.1,104.2,113.6,117.2z"/>
					<path class="st22" d="M125.5,134.6c0,0-4.4,0.9-7.9,0.1c0,0,2.2,4.3,8.1,3.6C125.7,138.3,125.9,137.1,125.5,134.6z"/>
				</g>
				<g>
					<path class="st22" d="M102.7,200.6c4,0.4,8.6,0.9,12.6,1.3c3.3,0.3,8.9-1.7,11.8-0.3c2.5,1.1,8,6.7,5.1,11.8
						c-0.2,0.4-2.6,1.4-2.6,1.1c-0.1,1.9-0.2,2.6-2.5,2.4c-2.3,4.3-9.3-5.3-12-5.5c-2.1-0.1-4.3,0-6.3-0.1c-2.3-0.1-10.6,0.4-12-1.2
						c-3.7-4,2.6-7.1,4.9-8.6"/>
					<path class="st22" d="M96,199c0,0-2.2,10.6-5.4,13.8c0,0,6.7-0.6,8-0.6c1.3,0,5-12.3,5-12.3S99.5,198.4,96,199z"/>
				</g>
			</g>
		</g>
		<g>
			<path class="st22" d="M285.8,281.9c0,0-5.1,13.2-0.9,23.9c4.3,10.7,10.2,20.5,10.7,24.3c0.4,3.8-0.4,10.7,0.9,13.6
				c1.3,3,5.1,13.6,5.1,13.6s6.4-10.2,6.4-16.2c0-6-3-49.9-4.7-55.9C301.6,279.4,285.8,281.9,285.8,281.9z"/>
			<path class="st37" d="M284.3,315.2l-113.9,12.2c-7,29.4,0.6,55.7,7,77.4c6.4,21.8,18.3,75.5,18.3,75.5
				c-24.7,33.3-32,70.4-32,70.4c8.3,19,17.1,13.2,17.1,13.2c11.9-20.9,37.4-40,48.6-54v-1c0,0,11.5-11.9,12.4-19.6
				c0.9-7.7-6-65.7-7.7-80.2c0,0,12.4,60.6,11.1,77.2c-0.9,11.3-5.1,15.5-11.5,23.1c-8.4,37.9-5.5,86-5.5,86
				c4.5,5.8,29.9,5.1,29.9,5.1c3.8-7,18.6-95.3,18.6-95.3c14.7-31.3,28.2-134.4,28.2-147.8C304.8,344,284.3,315.2,284.3,315.2z"/>
			<path class="st39" d="M78.1,302.2c0,0-20.3,21.1-16.9,70c0,0,32,13.7,39.5,11.9c7.5-1.8,20-9.5,22-9.5c2,0,0,5.3,7.5,7.1
				c7.5,1.8,18,2.4,20.5,3.5c2.5,1.2,21.9-14,30.9-21.1c0,0-27.6-42.7-25.6-73.7L78.1,302.2z"/>
			<g>
				<path class="st39" d="M238.9,76.9l4,20.4c0,0-1.6,3.4-4.5,2.8c0,0-1.1,10.2-8.3,9.9c0,0-4.2,5.1-4,9.8c0.2,4.7-14,8.5-25.1-3.5
					c0,0,10.9-19.3,10.7-27.7C211.4,80.1,224.3,70,238.9,76.9z"/>
				<path class="st22" d="M238.2,74.3l3.2,23c0,0-1.7,1.6-4.5,1.1c0,0-0.8,10.9-8,10c0,0-2.7,7.4-2.5,12.1
					c0.2,4.7-15.8,7.8-26.8-4.3c0,0,10.9-19.3,10.7-27.7C210,80.1,223.7,67.4,238.2,74.3z"/>
				<path class="st39" d="M246.8,67.4c0,0-6.1,7.7-14.8,10.8c0,0-2.1,3.1-4,4.9c-1.9,1.8-2.6-0.6-3.1-2.1c-0.5-1.5-8.3-3.5-7.6,3.6
					c0,0,1.2,8.6-7.2,6.9c0,0-1.4-19.2-1.6-25.4c0,0,0.8-1,3.2-1.7C214.1,63.8,251.2,56.4,246.8,67.4z"/>
				<path class="st39" d="M236.6,101.6c0,0-5-2.1-7.7-4.2c0,0,0.5,6.3,6.1,8C235,105.3,235.7,104.1,236.6,101.6z"/>
			</g>
			<path class="st39" d="M305.8,252.5c-2.2-11.2,9.3-81.6-23.7-101.4c-32.9-19.8-49.2-37.8-57.2-38.5c-8-0.6-22.1-1.9-22.1-1.9
				s-4.5,1.3-9.3,4.8c-4.8,3.5-135.2,9.1-150,65c-10.9,40.9,36.5,35.2,49.3,32l5.9-15.5c0,0-40.1-3.8-11.5-19.2
				c22.8-12.3,47.6,0.1,59.1,11c0,0,15.7,52.5,18.2,71c2.6,18.6,1,60.5,2.2,66.2c1.3,5.8,4.2,7,4.2,7c11,3.8,24.8-2.1,36.6-0.8
				c21.9,2.5,47-4.1,68.8-7.2c24.4-3.4,9.2-22.4,6.1-38.4c-4.1-13.1-15.6-61.4-14.8-63.7c0.9-2.6,5.1-19.6,5.1-19.6
				s-2.6,14.1-2.6,20.9c0,5.9,11.6,49.4,14.6,60.8c4.6-1,14.4-2.3,19.2,2.2C303.8,287.4,308,263.7,305.8,252.5z"/>
			<path class="st37" d="M158.3,259.5c8.2-23-0.5-62.5-16-75.2c-18.1-14.9-19.9-29.1-30.1-28.2c-15.7,1.3-9.5,1.7-9.5,1.7
				s-60.4,8.5-62.9,51.7c-0.9,16.4-1.4,42.3-10.6,56.4c-9.2,14.1-6.4,40.4,10.2,42.3c17.4,2,39-42.2,41.3-47.9c0,0,2.6,5.1-6.8,20.5
				c1.8,2.2,2.4,4.6,1.3,9.6c-1.5,6.6-6.3,12.7-6.3,12.7c42.8,20,95-6.8,95-6.8S152.4,276.2,158.3,259.5z"/>
			<path class="st39" d="M87.6,195.4c-9.5-2.4-19.6-7.5-1.2-17.4c0.4-0.2,0.8-0.4,1.2-0.6v-37.6c-22,9.4-39.9,22.4-44.8,40.9
				c-9.8,37.1,28,35.9,44.8,32.9V195.4z"/>
			<g>
				<path class="st22" d="M91.9,228c0,0.3-5.2,5.6-8.1,7.9c-2.9,2.3-8.2,6.5-9.3,8.6c-1.1,2.1-3.7,2.8-2.7,3.6c1,0.8,9,7,10.2,6.6
					c1.2-0.4,5.4-8.5,7-10.4c1.6-1.9,6.3-8.1,7.6-9.1c1.2-1,6.9-4.2,10.2-6.7c3.3-2.5-0.1-8.7-0.1-8.7s0.6-4.7,1.7-5
					c0.4-0.1,2.6-4.2-0.7-2.6C106.4,212.7,93.5,217.6,91.9,228z"/>
				<g>
					<path class="st22" d="M104.7,118.6c0.5-0.2,7.5,2.3,12.2,8.5c0,0,0.5,0.4,1.2,0.6c0.7,0.3,4.2,1.8,4.7,3.1
						c0.3,0.8-0.9,1.4-1.1,1.7c0,0,4.2,7.9-2.6,13c0,0-6.5,6.4-5.5,12.7c0,0-0.9,1.1-5.7,1c-4.8-0.1-6-1.4-6-1.4s3.3-9.5-3.3-10.8
						C87.4,144.8,81.5,128.1,104.7,118.6z"/>
					<path class="st42" d="M111.6,119.2c3,3.4-0.7,6.3-4.4,8.7c-1.5,1-3.8,1.2-5,2.5c-1.4,1.5,0.8,10,3.1,13.7
						c-1.5-0.5-3.9-2-5.3-0.9c-2,1.6-0.2,4.1,1.2,5.1c1.8,1.2,4.5,0.5,5.8,2.2c2.7,3.3-0.5,7.8-1.3,10.9c-1.3,4.7,2.2,7.9,2.6,12.4
						c0.3,3.4-0.3,6.8,0,10.2c0.5,7.3,8.5,9.4,10.5,16c2.8,9.2-11.6,3.5-16.2,4.2c-4.3,0.6-6.1,5.5-7.6,9.3
						c-2.3,5.7-4.3,9.1-9.4,12.9c-3.4,2.6-7.4,4.4-10.5,7.5c-2.8,2.7-5.2,5.6-8.2,8.2c-4.8,4.2-14.6,5.6-18,10.8
						c8.4-12.7,12.5-25.9,13-41.3c0.3-10.8-8-18.6-11.6-28.1c-3-7.9-5.6-21.3,4.3-25.9c2.8-1.3,6.2-1.1,8.3-3.8
						c2.5-3.2,2.7-9,2.9-12.9c0.4-8.1,1.1-14.8,8-20c2-1.5,3.9-2.7,6.4-2.9c2.3-0.2,4.4,1.1,6.7,0.9
						C89.3,118.5,100.1,106.2,111.6,119.2z"/>
					<path class="st39" d="M123.5,136.6c0,0-4.4,0.9-7.9,0.1c0,0,2.2,4.3,8.1,3.6C123.7,140.3,123.9,139.1,123.5,136.6z"/>
				</g>
				<g>
					<path class="st22" d="M100.7,202.6c4,0.4,8.6,0.9,12.6,1.3c3.3,0.3,8.9-1.7,11.8-0.3c2.5,1.1,8,6.7,5.1,11.8
						c-0.2,0.4-2.6,1.4-2.6,1.1c-0.1,1.9-0.2,2.6-2.5,2.4c-2.3,4.3-9.3-5.3-12-5.5c-2.1-0.1-4.3,0-6.3-0.1c-2.3-0.1-10.6,0.4-12-1.2
						c-3.7-4,2.6-7.1,4.9-8.6"/>
					<path class="st39" d="M94,201c0,0-2.2,10.6-5.4,13.8c0,0,6.7-0.6,8-0.6c1.3,0,5-12.3,5-12.3S97.5,200.4,94,201z"/>
				</g>
			</g>
		</g>
		<g>
			<g>
				<path class="st37" d="M283.4-55.4c0,0,11,8,19.3,10.6c8.2,2.6,28.5,28.8,35.1,54.1c6.6,25.3,6.6,41.3,14.2,53.3
					c0,0-13.6-9.7-26.9-11.5c-13.3-1.8-35.3-5.6-45.6-33.7c-10.3-28.1-14.5-38.5-4.8-54.6C274.7-37.2,284-48.8,283.4-55.4z"/>
			</g>
			<g>
				<g>
					<path class="st38" d="M291.8,0.1c-1.7-4.4-2.1-8.4-2.1-17.7c0-14.1-3.6-21.2-3.6-21.3c-0.4-0.7-0.1-1.6,0.6-1.9
						c0.7-0.4,1.6-0.1,1.9,0.6c0.2,0.3,3.9,7.7,3.9,22.6c0,13.7,0.8,15.2,5.8,24.9l0.7,1.4c2.9,5.5,10.5,11,18,16.2
						c7.1,5,13.8,9.7,17.2,14.9c0.4,0.7,0.3,1.5-0.4,2c-0.7,0.4-1.5,0.3-2-0.4c-3.2-4.7-10-9.5-16.5-14.2
						c-7.7-5.4-15.7-11.1-18.8-17.2l-0.7-1.4C294.1,5.1,292.8,2.5,291.8,0.1z"/>
				</g>
				<g>
					<path class="st38" d="M297.2,9.6c0-0.1,0-0.2,0-0.2c0-0.4,0.3-0.7,0.7-0.7c0.2,0,16.7,0.1,27.2,13c0.2,0.3,0.2,0.8-0.1,1
						c-0.3,0.2-0.8,0.2-1-0.1C313.9,10.1,298,10,297.9,10C297.6,10,297.3,9.8,297.2,9.6z"/>
				</g>
				<g>
					<path class="st38" d="M307,34.7c-2.7-7.1-2.1-15.3-2.1-15.7c0-0.4,0.4-0.7,0.8-0.7c0.4,0,0.7,0.4,0.7,0.8
						c0,0.1-0.8,10.9,3.4,18.1c0.2,0.3,0.1,0.8-0.3,1c-0.3,0.2-0.8,0.1-1-0.3C307.9,36.9,307.4,35.8,307,34.7z"/>
				</g>
				<g>
					<path class="st38" d="M288.3-35.3c0-0.1,0-0.1,0-0.2c0-0.4,0.3-0.7,0.7-0.8c0.3,0,7.4-0.5,16.7,6.7
						c15.3,11.9,24.4,35.2,29.4,52.7c0.1,0.4-0.1,0.8-0.5,0.9c-0.4,0.1-0.8-0.1-0.9-0.5c-4.8-17.2-13.8-40.2-28.7-51.9
						c-8.9-6.9-15.8-6.5-15.9-6.5C288.7-34.8,288.4-35,288.3-35.3z"/>
				</g>
				<g>
					<path class="st38" d="M283,4.3c-3.6-9.4-5.1-18.4-2.2-25c3-6.7,9.1-7.8,9.4-7.8c0.4-0.1,0.8,0.2,0.8,0.6
						c0.1,0.4-0.2,0.8-0.6,0.8l0,0c-0.2,0-5.6,1-8.3,7c-3.1,6.9-2.7,21.4,16.6,50.9c0.2,0.3,0.1,0.8-0.2,1c-0.3,0.2-0.8,0.1-1-0.2
						C292.1,23.2,286.5,13.5,283,4.3z"/>
				</g>
				<g>
					<path class="st38" d="M290.5-17.3c-0.1-0.2-0.1-0.4,0-0.6c0.2-0.3,0.6-0.5,1-0.3c0,0,4.6,2.4,9.9,6.3c5,3.5,11.8,9.1,15.7,15.3
						c0.2,0.3,0.1,0.8-0.2,1c-0.3,0.2-0.8,0.1-1-0.2c-7.4-11.6-25-21-25.1-21.1C290.7-17.1,290.6-17.2,290.5-17.3z"/>
				</g>
			</g>
		</g>
		<g>
			<g>
				<g>
					<path class="st42" d="M4,116c-3-3.9-8.5-4.6-12.4-1.6c-3.9,3-4.6,8.5-1.6,12.4c3,3.9,8.5,4.6,12.4,1.6C6.2,125.4,7,119.9,4,116
						z"/>
				</g>
			</g>
			<g>
				<g>
					<path class="st52" d="M5.4,122.2c0,0-5-2.1-7.2-9.4c0,0,4.7-1.1,7.8,0.3C8,114,6.6,124.4,5.4,122.2z"/>
				</g>
			</g>
			<g>
				<g>
					<g>
						<path class="st42" d="M28.5,103c-2.8,4-1.9,9.5,2,12.3c4,2.8,9.5,1.9,12.3-2c2.8-4,1.9-9.5-2-12.3
							C36.8,98.2,31.3,99.1,28.5,103z"/>
					</g>
				</g>
				<g>
					<g>
						<path class="st52" d="M34,99.9c0,0-0.6,5.4-6.9,9.6c0,0-2.4-4.2-2-7.5C25.4,99.9,35.8,98.2,34,99.9z"/>
					</g>
				</g>
			</g>
			<g>
				<g>
					<g>
						<path class="st42" d="M20.7,117.4c-4.7,1.2-7.6,6-6.3,10.8c1.2,4.7,6,7.6,10.8,6.3c4.7-1.2,7.6-6,6.3-10.8
							C30.3,119,25.5,116.2,20.7,117.4z"/>
					</g>
				</g>
				<g>
					<g>
						<path class="st52" d="M27,118.5c0,0-3.9,3.8-11.4,3c0,0,0.8-4.7,3.3-7.1C20.4,113,29.5,118.3,27,118.5z"/>
					</g>
				</g>
			</g>
			<g>
				<g>
					<path class="st52" d="M-0.2,85.9c-0.1,0.1-0.2,0.2-0.3,0.4c-0.2,0.5,0,1,0.5,1.2c7.9,3.4,13.5,8.1,15,9.3
						c-0.4,3.6-0.9,7.7-1.3,8.3c-0.4,0.5-5.6,5.4-8.9,8.6c-0.4,0.4-0.4,0.9,0,1.3c0.4,0.4,1,0.4,1.3,0c0.9-0.8,8.3-8,9-8.8
						c0.6-0.7,1.2-4,1.7-9.8l0-0.5l-0.3-0.3c-0.3-0.2-6.4-5.8-15.8-9.9C0.4,85.7,0,85.7-0.2,85.9z"/>
				</g>
			</g>
			<g>
				<g>
					<path class="st52" d="M13.8,104.9c-0.4,0.3-0.5,0.8-0.3,1.2l5.1,9.4c0.2,0.5,0.8,0.6,1.3,0.4c0.5-0.2,0.6-0.8,0.4-1.3l-5.1-9.4
						c-0.2-0.5-0.8-0.6-1.3-0.4C13.9,104.9,13.8,104.9,13.8,104.9z"/>
				</g>
			</g>
			<g>
				<g>
					<path class="st52" d="M15.3,95.7c-0.1,0.1-0.3,0.3-0.3,0.5c-0.2,0.5,0.1,1,0.6,1.2l6.6,2l3.8,4.3c0.3,0.4,0.9,0.4,1.3,0.1
						c0.4-0.3,0.4-0.9,0.1-1.3l-4.2-4.7l-7.1-2.2C15.9,95.4,15.6,95.5,15.3,95.7z"/>
				</g>
			</g>
			<g>
				<g>
					<path class="st52" d="M26.7,92.9l-5,3.9c-0.4,0.3-0.5,0.9-0.2,1.3c0.3,0.4,0.9,0.5,1.3,0.2l4.2-3.2c1.5,0.7,3.1,1.4,3.4,1.6
						c0.4,0.3,1,0.2,1.3-0.3c0.3-0.4,0.2-1-0.2-1.3c-0.6-0.4-3.4-1.6-4.2-1.9L26.7,92.9z"/>
				</g>
			</g>
		</g>
		<g>
			<g>
				<path class="st39" d="M192.9-49.2c0,0,3.3,22,11.7,38c8.4,16,7.5,18.6,4.3,30.2c-3.2,11.6-33.1,39.5-45.8,62
					c0,0-2.2-20.2-8.5-37.1c-6.3-16.8-11.6-29.5-9.9-38.6c1.7-9,1.8-13.1,7.8-20.6C158.4-22.6,183.8-34.8,192.9-49.2z"/>
			</g>
			<g>
				<g>
					<path class="st43" d="M188.1-34.3c0.4-0.4,1.1-0.4,1.6,0c0.5,0.4,0.6,1.2,0.1,1.7l0,0c-0.1,0.1-9.5,11.5-6.7,27.2
						c2.7,14.9,2.2,25.2-1.7,35.5c-1.3,3.4-3,6.3-4.6,9.2c-2.7,4.7-5.4,9.5-6.4,16.2c-0.1,0.7-0.7,1.1-1.4,1c-0.7-0.1-1.1-0.7-1-1.4
						c1.1-7.1,4-12.1,6.7-17c1.7-2.9,3.2-5.7,4.5-8.8c2.8-7.2,4.9-16.4,1.6-34.3C177.7-21.8,187.6-33.7,188.1-34.3
						C188-34.2,188-34.2,188.1-34.3z"/>
				</g>
				<g>
					<path class="st43" d="M167.9-16.4c7.5-7.1,15.4-10.3,15.5-10.3c0.3-0.1,0.7,0,0.8,0.3c0.1,0.3,0,0.7-0.3,0.8
						c-0.2,0.1-19,7.6-25.4,25.4c-4.3,11.9-2.3,25.6,6,40.8c0.2,0.3,0.1,0.7-0.2,0.8c-0.3,0.2-0.7,0.1-0.8-0.2
						c-8.5-15.5-10.5-29.6-6-41.8C159.7-7.1,163.7-12.4,167.9-16.4z"/>
				</g>
				<g>
					<path class="st43" d="M182.8-21.2c0.2-0.2,0.5-0.2,0.8-0.1c0.3,0.2,7.2,5,12.2,13.6c4.6,8,8.2,20.9-0.7,36.9
						c-0.2,0.3-0.5,0.4-0.8,0.2c-0.3-0.2-0.4-0.5-0.2-0.8c6.9-12.5,7.1-24.5,0.7-35.7c-4.8-8.4-11.8-13.2-11.8-13.2
						C182.6-20.4,182.5-20.8,182.8-21.2C182.7-21.1,182.8-21.2,182.8-21.2z"/>
				</g>
				<g>
					<path class="st43" d="M174.7,1c3.4-3.2,6.6-3.6,6.9-3.6c0.3,0,0.6,0.2,0.7,0.5c0,0.3-0.2,0.6-0.5,0.7l0,0
						c-0.1,0-11.8,1.4-13.4,22.7c0,0.3-0.3,0.6-0.6,0.6c-0.3,0-0.6-0.3-0.6-0.6C168,10,171.4,4.1,174.7,1z"/>
				</g>
				<g>
					<path class="st43" d="M183.6,15.8C183.6,15.7,183.7,15.7,183.6,15.8c0.4-0.3,0.7-0.2,0.9,0.1c0.1,0.1,7,11.1,1.2,24.5
						c-0.1,0.3-0.5,0.4-0.8,0.3c-0.3-0.1-0.4-0.5-0.3-0.8c5.5-12.8-1-23.2-1.1-23.3C183.4,16.3,183.4,16,183.6,15.8z"/>
				</g>
			</g>
		</g>
		<g>
			<g>
				<path class="st42" d="M206.9-16.7c0,0,29.9,4.4,32.2,31.8c2.3,27.4-17.2,29.4-21.6,37.8c0,0,5.2-11.2,1.6-17.2
					c-3.7-6-11.3-19-12.1-24.6C203.8-9.6,211-11.1,206.9-16.7z"/>
			</g>
			<g>
				<path class="st43" d="M212.8-8.5c0-0.3,0-0.5,0.2-0.8c0.3-0.5,1-0.6,1.4-0.3c0.2,0.1,4.7,3.2,8.3,10.4c6.1,12,5.2,26,3.3,35.6
					c-0.1,0.6-0.7,0.9-1.2,0.8c-0.6-0.1-0.9-0.7-0.8-1.2C230.1,4,213.4-7.7,213.2-7.8C213-7.9,212.8-8.2,212.8-8.5z"/>
			</g>
			<g>
				<path class="st43" d="M216.5-4.2c0-0.1,0-0.1,0-0.2c0.1-0.3,0.4-0.5,0.6-0.4c0.2,0,4.4,1.1,8.7,5c4,3.5,8.7,10.2,8.9,21.9
					c0,0.3-0.2,0.5-0.5,0.5c-0.3,0-0.5-0.2-0.5-0.5C233.4,0.6,217-3.7,216.9-3.8C216.7-3.8,216.5-4,216.5-4.2z"/>
			</g>
			<g>
				<path class="st43" d="M215.8,17.6c-0.8-4.9-0.3-8.9,0.5-11.7c1.1-4.1,2.9-6.5,3-6.6c0.2-0.2,0.5-0.3,0.7-0.1
					c0.2,0.2,0.3,0.5,0.1,0.7c-0.1,0.1-6.9,9.2-1.8,23c0.1,0.3,0,0.6-0.3,0.7c-0.3,0.1-0.6,0-0.7-0.3
					C216.6,21.3,216.1,19.4,215.8,17.6z"/>
			</g>
			<g>
				<path class="st43" d="M225.9,22.1c0-0.1,0-0.3,0.1-0.4c0.2-0.2,0.5-0.3,0.7-0.2c0.1,0,5.8,3.9,4.5,11.1
					c-0.1,0.3-0.3,0.5-0.6,0.4c-0.3-0.1-0.5-0.3-0.4-0.6c1.2-6.5-4-10-4-10C226,22.3,225.9,22.2,225.9,22.1z"/>
			</g>
		</g>
		<g>
			<g>
				<path class="st39" d="M297.2-38.5c0,0,2.6,22.1,10.4,38.4c7.9,16.3,6.8,18.9,3.3,30.4c-3.6,11.5-34.4,38.4-47.9,60.4
					c0,0-1.5-20.3-7.3-37.3c-5.8-17-10.6-29.9-8.6-38.9c2-9,2.2-13,8.5-20.3C261.8-13,287.6-24.4,297.2-38.5z"/>
			</g>
			<g>
				<g>
					<path class="st43" d="M291.9-23.7c0.5-0.4,1.2-0.4,1.6,0c0.5,0.4,0.5,1.2,0.1,1.7l0,0c-0.1,0.1-9.9,11.2-7.6,27
						c2.2,15,1.4,25.3-2.9,35.5c-1.4,3.3-3.2,6.2-4.9,9c-2.8,4.6-5.7,9.3-7,15.9c-0.1,0.7-0.8,1.1-1.4,1c-0.7-0.1-1.1-0.8-1-1.4
						c1.3-7.1,4.4-12,7.3-16.8c1.8-2.9,3.4-5.5,4.7-8.7c3-7.1,5.4-16.2,2.8-34.2C281.1-11.7,291.4-23.2,291.9-23.7
						C291.8-23.7,291.9-23.7,291.9-23.7z"/>
				</g>
				<g>
					<path class="st43" d="M271.1-6.5c7.7-6.8,15.7-9.8,15.9-9.8c0.3-0.1,0.7,0.1,0.8,0.4c0.1,0.3-0.1,0.7-0.4,0.8
						c-0.2,0.1-19.2,7-26.3,24.6c-4.7,11.7-3.2,25.5,4.6,41c0.1,0.3,0,0.7-0.3,0.8c-0.3,0.1-0.7,0-0.8-0.3
						c-7.9-15.8-9.5-29.9-4.6-42C262.6,2.4,266.8-2.7,271.1-6.5z"/>
				</g>
				<g>
					<path class="st43" d="M286.2-10.8c0.2-0.2,0.5-0.2,0.8,0c0.3,0.2,7.1,5.2,11.7,14c4.3,8.1,7.5,21.1-1.9,36.9
						c-0.2,0.3-0.5,0.4-0.8,0.2c-0.3-0.2-0.4-0.5-0.2-0.8c7.3-12.2,8-24.2,1.9-35.6c-4.5-8.6-11.3-13.6-11.4-13.6
						C285.9-10.1,285.9-10.5,286.2-10.8C286.1-10.8,286.1-10.8,286.2-10.8z"/>
				</g>
				<g>
					<path class="st43" d="M277.3,11c3.5-3.1,6.7-3.3,7-3.4c0.3,0,0.6,0.2,0.6,0.6c0,0.3-0.2,0.6-0.6,0.6l0,0
						c-0.1,0-11.8,1-14.1,22.2c0,0.3-0.3,0.6-0.7,0.5c-0.3,0-0.6-0.3-0.5-0.7C270.3,19.9,273.9,14.1,277.3,11z"/>
				</g>
				<g>
					<path class="st43" d="M285.7,26.1C285.8,26.1,285.8,26.1,285.7,26.1c0.4-0.2,0.7-0.1,0.9,0.1c0.1,0.1,6.6,11.3,0.4,24.5
						c-0.1,0.3-0.5,0.4-0.8,0.3c-0.3-0.1-0.4-0.5-0.3-0.8c5.9-12.6-0.2-23.2-0.3-23.3C285.5,26.6,285.5,26.3,285.7,26.1z"/>
				</g>
			</g>
		</g>
		<g>
			<g>
				<path class="st39" d="M424.6,116.6c0,0-2.2,18.7,1.1,33.6c3.3,14.9,1.9,16.9-3.2,25.6c-5.2,8.8-35.8,24.9-51.2,40.4
					c0,0,2.7-17,1.3-32.1c-1.4-15.1-2.9-26.7,0.5-33.7c3.4-7,4.4-10.3,10.9-15C390.5,130.6,414,126.3,424.6,116.6z"/>
			</g>
			<g>
				<g>
					<path class="st43" d="M417.3,127.7c0.5-0.2,1-0.1,1.3,0.3c0.3,0.5,0.2,1.1-0.3,1.4l0,0c-0.1,0.1-10.3,7.2-11.5,20.7
						c-1.1,12.8-3.8,21-9.3,28.6c-1.8,2.5-3.8,4.5-5.8,6.5c-3.2,3.2-6.5,6.5-8.9,11.7c-0.2,0.5-0.8,0.7-1.3,0.5
						c-0.5-0.2-0.7-0.8-0.5-1.3c2.5-5.6,5.9-9,9.3-12.4c2-2,3.9-3.9,5.6-6.2c3.9-5.3,7.6-12.3,9-27.6
						C406.1,135.5,416.8,128.1,417.3,127.7C417.3,127.7,417.3,127.7,417.3,127.7z"/>
				</g>
				<g>
					<path class="st43" d="M396.9,137.8c7.7-4.1,14.9-5,15-5c0.3,0,0.5,0.2,0.6,0.5c0,0.3-0.2,0.5-0.5,0.6c-0.2,0-17.2,2-26.4,15.1
						c-6.2,8.7-7.6,20.4-4.2,34.6c0.1,0.3-0.1,0.5-0.4,0.6c-0.3,0.1-0.5-0.1-0.6-0.4c-3.4-14.6-2-26.5,4.4-35.5
						C388.1,143.5,392.6,140.1,396.9,137.8z"/>
				</g>
				<g>
					<path class="st43" d="M410.1,137.2c0.2-0.1,0.5-0.1,0.6,0.1c0.2,0.2,4.8,5.7,6.9,13.8c2,7.5,2,18.9-8.8,30
						c-0.2,0.2-0.5,0.2-0.7,0c-0.2-0.2-0.2-0.5,0-0.7c8.4-8.6,11.3-18.4,8.5-28.9c-2.1-7.9-6.7-13.4-6.7-13.4
						C409.8,137.8,409.8,137.5,410.1,137.2C410,137.2,410.1,137.2,410.1,137.2z"/>
				</g>
				<g>
					<path class="st43" d="M398.6,153.5c3.5-1.9,6.2-1.4,6.4-1.4c0.3,0,0.5,0.3,0.4,0.6c0,0.3-0.3,0.5-0.6,0.4l0,0
						c-0.1,0-9.9-1.5-16,15.5c-0.1,0.3-0.4,0.4-0.7,0.3c-0.3-0.1-0.4-0.4-0.3-0.7C391,159.4,395.2,155.3,398.6,153.5z"/>
				</g>
				<g>
					<path class="st43" d="M402.5,167.5C402.6,167.5,402.6,167.5,402.5,167.5c0.4-0.1,0.6,0,0.7,0.3c0,0.1,3.2,10.6-4.5,20.2
						c-0.2,0.2-0.5,0.3-0.7,0.1c-0.2-0.2-0.3-0.5-0.1-0.7c7.4-9.2,4.3-19.2,4.3-19.3C402.2,167.9,402.3,167.6,402.5,167.5z"/>
				</g>
			</g>
		</g>
		<g>
			<g>
				<path class="st42" d="M400,260.2c5.5,3.7,14,2.8,14,2.8c-1.6-1-18.3-7.5-13.5-20.7c4-10.9,21.2-11.3,27.2-11.1
					c28.1-22.3,51.5-1.8,51.5-1.8c-28.6-16.9-47.2-0.1-49.6,2.2c-9.2,8.9,8.2,33.1,12.7,36.3c4.5,3.2,5.6,13.9,8.1,10.9
					c2.6-3-1.4-18.7-3.8-25.5c-5.6-15.6-3.3-20.6-3.3-20.6s1-3.9,10-6c0,0-6.9,2.8-8.4,5.9c5.1,0.2,31,8.3,41.7,9.9
					c10.8,1.7,6.1-2.3,12.5-0.6c6.4,1.7,44,20.4,45.6,19.3c1.7-1,5.2-2.4-0.9-5.8c-6.2-3.4-38.1-11.1-43-21.1
					c-5-10-10.6-12-15.1-18.5c-3.5-5-4.5-10.2-4.8-12.3c-9.9,1.5-13.4,15.2-13.4,15.2c2.9-22.2,25.4-19.5,37.1-10.3
					c9.5,7.5,13.4,18.3,13.4,18.3c15.6-47.9-36.5-43.8-36.5-43.8c-0.5,0.4-6.6,1.6-9.3,15.8c0.5-2.6,0.9-13.1,8.7-16.6
					c2.1-4.7,5.4-6.5,6.9-7.1c0,0,0.1-0.1,0.1-0.1c3.4,1.1,6.7,5.2,6.7,5.2l-0.3-9.5c0.2-0.1,0.3-0.1,0.4-0.2l0,0
					c0,0,9.3-4.7,18.8-3.3c9.5,1.4,14.8,14.5,14.8,14.5c-4.6-34.2-39.9-19.4-39.9-19.4c-7.2-8.3-16.2-5-20.2-1.5
					c-4,3.5-7.5,6.1-7.5,6.1c-17.9,6.7-9.5,31.4-9.5,31.4c0,0,0,0,0,0c0.8,2.6,3.1,9.7,5.6,14.5c0,0-4.8-5.9-8.1-17.1
					c-4.9-4.4-10.3-2.1-10.3-2.1c-0.3,7.9-11.9,11-11.9,11c0.5,3.8,14.6,11.6,19,13.6c0,0-7-2.5-12.1-5.1c-33.6,5-36.8,26-36.8,26
					C389.2,247,394.5,256.5,400,260.2z M469.8,185.3c-5.5-14.3-0.3-18-0.3-18c2.5-1.4,8,2.9,8,2.9
					C471.7,173.1,469.8,185.3,469.8,185.3z M472.4,199.6c0,0-0.1-0.3-0.1-0.8C472.3,199,472.3,199.3,472.4,199.6z"/>
			</g>
			<g>
				<path class="st22" d="M459,215.3c0.1-0.1,0.3-0.2,0.3-0.3c0.1-0.3,0-0.6-0.3-0.7c-0.2-0.1-18.9-7.9-22.9-25.3
					c-1.8-7.9-2.5-12.6-2.8-15.4c-0.2-1.6-0.3-2.5-0.6-3.1c-0.1-0.3-0.4-0.4-0.7-0.3c-0.3,0.1-0.4,0.4-0.3,0.7
					c0.2,0.5,0.3,1.4,0.5,2.9c0.4,2.8,1,7.6,2.9,15.5c4.1,18,23.4,26,23.6,26.1C458.7,215.4,458.8,215.4,459,215.3z"/>
			</g>
			<g>
				<path class="st22" d="M450.9,210.9c0.2-0.1,0.3-0.2,0.3-0.3c0.1-0.3,0-0.6-0.3-0.7c-24.1-8.8-28-45.2-28-45.5
					c0-0.3-0.3-0.5-0.6-0.5c-0.3,0-0.5,0.3-0.5,0.6c0,0.1,1,9.4,5,19.8c5.3,13.7,13.5,23,23.8,26.7
					C450.6,210.9,450.7,210.9,450.9,210.9z"/>
			</g>
			<g>
				<path class="st22" d="M441.2,209.3c0.1,0,0.2-0.1,0.2-0.1c0.2-0.2,0.2-0.6,0-0.8c-6.8-6.4-15.8-22.7-18.2-29.2
					c-1.9-5-4.4-12.1-5.5-15.1c-0.3-0.7-0.4-1.2-0.5-1.3c-0.1-0.3-0.4-0.4-0.7-0.3c-0.3,0.1-0.4,0.4-0.3,0.7c0,0.1,0.2,0.5,0.5,1.3
					c1.1,3,3.6,10,5.5,15.1c2.5,6.7,11.4,23,18.5,29.6C440.8,209.3,441,209.3,441.2,209.3z"/>
			</g>
			<g>
				<path class="st22" d="M454.6,215.3c0.2-0.1,0.3-0.2,0.4-0.4c0.1-0.3-0.1-0.6-0.4-0.7c-13.5-3.2-25.2-13.5-33.7-29.9
					c-3.2-6.1-11.2-23.8-11.2-24c-0.1-0.3-0.5-0.4-0.8-0.3c-0.3,0.1-0.4,0.5-0.3,0.8c0.1,0.2,8.1,17.9,11.3,24
					c8.7,16.7,20.7,27.3,34.5,30.5C454.4,215.3,454.5,215.3,454.6,215.3z"/>
			</g>
			<g>
				<path class="st22" d="M450.2,217.8c0.3-0.1,0.4-0.4,0.4-0.7c-1.4-5.7-7.8-14.7-18.4-25.8c-15.1-15.7-19.9-29.2-20-29.4
					c-0.1-0.3-0.4-0.5-0.7-0.4c0,0,0,0,0,0c-0.3,0.1-0.4,0.4-0.3,0.7c0,0.1,5,13.9,20.2,29.8c10.4,10.8,16.8,19.8,18.1,25.3
					C449.6,217.7,449.9,217.9,450.2,217.8C450.2,217.9,450.2,217.8,450.2,217.8z"/>
			</g>
			<g>
				<path class="st22" d="M430,162.4c1.4,0.6,1.9,1.9,2.6,3c0.8,1.3,3.6,5.6,1.3,7c-2.4,1.4-3.1-3.8-3.7-5c-0.7-1.5-1.1-0.7-2.1-1.5
					C426,164.3,427.5,161.3,430,162.4z"/>
			</g>
			<g>
				<path class="st22" d="M423.8,163.9c0.6,1,3,3.3,1.7,4.5c-1.7,1.6-2.3-3-3.2-3.6c-0.4-0.2-1,0.1-1.5-0.1
					c-1.1-0.6-2.1-2.7-0.6-3.4C421.8,160.7,423.2,162.8,423.8,163.9z"/>
			</g>
			<g>
				<path class="st22" d="M417.6,161.5c0.5,0.9,2.3,4.1,1.5,5.1c-1.6,2.1-3.3-2.9-3.6-3.9c-0.3-1.1-2.4-3.4-0.8-4.1
					C416.2,157.9,417,160.5,417.6,161.5z"/>
			</g>
			<g>
				<path class="st22" d="M407.7,157.9c0.7,1.1,4.3,3.8,1.4,4.6c-1.4,0.3-1.7-0.6-2.2-1.4c-0.6-0.9-1-1.3-1.8-1.9
					c-0.9-0.6-2.6-2.6-1.9-3.7C404.6,153,407.1,156.9,407.7,157.9z"/>
			</g>
			<g>
				<path class="st22" d="M413.3,160c0.3,1.2,0.2,4.5-2,3.5c-1.7-0.8-0.1-3.1-0.4-4.5c-0.2-1-3.2-2.8-1.2-3.3
					C411.7,155.2,413,158.7,413.3,160z"/>
			</g>
			<g>
				<g>
					<path class="st22" d="M512.2,204c0,0-16.3-16.9-34.3-7.4C477.9,196.6,492.3,190.6,512.2,204z"/>
				</g>
				<g>
					<path class="st22" d="M464.5,168.2c0,0-7.7,13.5,1.1,31.2c0,0-1,1.8-1,3.1C464.6,202.5,454.1,181.4,464.5,168.2z"/>
				</g>
				<g>
					<path class="st22" d="M495.6,234.1c0,0-2.1-3.2-7.2-6.2s-11.5-13.5-12.3-16.6l-1.2,0.9c0,0,1.9,8.8,8.7,13.3
						C490.2,230.1,490.9,229,495.6,234.1z"/>
				</g>
				<g>
					<path class="st22" d="M432,224c0,0-13.3-0.7-23.6,6.7c0,0,12.8-6,21.1-4.5L432,224z"/>
				</g>
			</g>
		</g>
	</g>
</g>
</svg>
