<?xml version="1.0" encoding="utf-8"?>
<!-- Generator: Adobe Illustrator 22.0.1, SVG Export Plug-In . SVG Version: 6.00 Build 0)  -->
<svg version="1.1" id="圖層_1" xmlns="http://www.w3.org/2000/svg" xmlns:xlink="http://www.w3.org/1999/xlink" x="0px" y="0px"
	 viewBox="0 0 261 186" style="enable-background:new 0 0 261 186;" xml:space="preserve">
<style type="text/css">
	.st0{fill:#76C4AA;}
	.st1{fill:#FFFFFF;}
	.st2{fill:#008BD5;}
	.st3{fill:#4E2D1A;}
</style>
<g>
	<path class="st0" d="M261,43.1c0,0-90.5-59.1-123.9-35.1c0,0-19,16.4-30.7,28C94.7,47.7,129.5,90.3,261,183.7V43.1z"/>
	<path class="st1" d="M164.7,36c0,6.8-5.5,12.3-12.3,12.3s-12.3-5.5-12.3-12.3s5.5-12.3,12.3-12.3C159.2,23.8,164.7,29.3,164.7,36z"
		/>
	<path class="st2" d="M157.2,36c0,2.6-2.1,4.8-4.7,4.8c-2.6,0-4.8-2.1-4.8-4.8c0-2.6,2.1-4.8,4.8-4.8
		C155.1,31.3,157.2,33.4,157.2,36z"/>
	<path class="st1" d="M106.1,45.7c-8.2,0.6-4.4-4.3-102.1,42.7C4,88.4,73.4,78,89.8,78s38.7-9,38.7-9S114.2,45.2,106.1,45.7z"/>
	<path class="st3" d="M104.8,44.6c-15.2,0-29.3,9-100.8,43.9c0,0,66.3-23.7,82.3-23.7s37.3-3.2,37.3-3.2S112.8,44.6,104.8,44.6z"/>
</g>
</svg>
