<svg id="圖層_1" data-name="圖層 1" xmlns="http://www.w3.org/2000/svg" viewBox="0 0 394 394"><defs><style>.cls-1{fill:#ffe100;}.cls-2{fill:#f19975;}.cls-3{fill:#eb6d65;}.cls-4{fill:#4e2d1a;}.cls-5,.cls-6,.cls-8,.cls-9{fill:none;}.cls-5{stroke:#4e2d1a;}.cls-5,.cls-8{stroke-linecap:round;}.cls-5,.cls-9{stroke-width:1.2px;}.cls-6,.cls-8,.cls-9{stroke:#009fe8;}.cls-6{stroke-width:1.08px;}.cls-7{fill:#76c4aa;}.cls-8{stroke-linejoin:round;stroke-width:0.81px;}</style></defs><title>工作區域 3</title><rect class="cls-1" width="394" height="394"/><path class="cls-2" d="M196.69,285,233,198.48s-33.61-10.39-73.35,2.33Z"/><path class="cls-3" d="M196.59,286.51l36.33-87.81s-34.21,14.05-73.2,2.23Z"/><path class="cls-4" d="M189.53,270.52s6.94-7.7,14.13-.51l-7.07,16.5Z"/><path class="cls-5" d="M190.07,299.24c0,2.4.37,5.25-.31,7.46"/><path class="cls-5" d="M196.91,296c-.91.88-.78,2.85-.32,4.35"/><path class="cls-5" d="M203.43,296.45c-1,1.37-.62,3.49-.62,5.28"/><path class="cls-5" d="M197.53,313.54c-1.53,1.74-.94,4.61-.94,6.83"/><path class="cls-5" d="M191.62,329.69c.37,2.42,1,4.67,1.25,7.15"/><path class="cls-5" d="M205.91,324.1c-.84,1.41-1.28,4-1.86,5.9"/><path class="cls-5" d="M201.26,341.19a3.19,3.19,0,0,0-.32,3.1"/><path class="cls-5" d="M198.15,355.48a14.19,14.19,0,0,1,.31,4"/><path class="cls-6" d="M152.87,183.2l7.37,17.61s34.43,12.61,72.47-2.25l3.9-18.81Z"/><path class="cls-7" d="M238.9,179.75c0,7.1-19.87,12.84-44.39,12.84s-44.41-5.74-44.41-12.84,19.89-12.84,44.41-12.84S238.9,172.66,238.9,179.75Z"/><path class="cls-4" d="M179.12,174.77c-2.13.76-7,2.18-6.23,5.45.47,2,5.39,3.81,7.18,4.45,3.42,1.24,6.82-.22,10.08,1.08,3.84,1.52,6.14,1.65,10.26,1a14,14,0,0,1,5.38.45c2.34.5,3.81.11,6.14-.51,3.44-.92,8.55-1.71,11-4.62,2.23-2.71,2.06-6.86-1.23-8.59-4-2.11-10.11-.39-14.31-.23-5.25.19-10.52.82-15.76.94C187.23,174.32,183.4,173.27,179.12,174.77Z"/><path class="cls-3" d="M187.1,178.76c1.11-10.12.67-20.35,1.32-30.49.14-2.21,1.44-7.86,0-9.62-1.1-1.39-5.9-2-7.68-2.88a110.22,110.22,0,0,1-18.89-11.42c-3.25-2.5-6.37-5.26-10-7.2-6.41-3.42-12.72-3.16-19.54-1.75-2.84.59-5.69,2.28-8.5,2.53a10.46,10.46,0,0,1-.79-9.81,37.82,37.82,0,0,1,14-2.27c1.78.09,9.68,1.9,10.79.68.79-.87-1-5.67-1.3-6.89a49.24,49.24,0,0,1-1-7.36c-.14-2.33.06-4.69-.23-7s.31-4.35.08-6.58a5.41,5.41,0,0,1,5.3-.28c-.69.14,0,7.68.17,8.64a61.57,61.57,0,0,0,1.66,7.26c1.57,4.38,5.44,6.84,9,9.47,2.19,1.59,4,3.82,6.19,5.37,3.33,2.35,7,3.86,10.22,6.46,4.16,3.36,8.43,6.65,13.44,8,.42-4.22,2.17-12.39-.19-15.29-2.55-3.14-7.18-4.88-10.95-6-1.61-.49-8.13-5.84-9.06-5.4.83-5.73,4.95-8.63,7.53-9.16,2.09,1.44,4.26,2.76,6.35,4.19.71.48,6.09,2.56,6.11,2.66-.74-5.09-1.09-10.17-1.6-15.3-.42-4.13-2.26-7.94-3.47-11.89-1.13-3.68-1.54-7.82-3-11.35-1.16-2.72-2.41-5.22-2.84-8.24.6-2.75,4.86-4.07,7-3.74.83,6.25,4.66,11.46,6,17.6,1.46,6.92,1.77,14,3,21,1.06,6.13,1.89,13.62,4.33,19.16,4.85-1.79,10.59-8.92,13.91-12.89,3.72-4.45,7-8.62,11.62-12.23a5.18,5.18,0,0,1,4.34,5.15c-3.76,3-5.35,7.13-8.29,10.66-.69.82-6.41,8.7-7.17,8.61a103.11,103.11,0,0,1,12.36,2.05c.22,3-.26,4.69-2.74,6.89-4.46-1.28-8.83-3.18-13.73-3.23-5.36,0-5.72,2.85-7,7.91-1.4,5.73,0,11.44.12,17.25.07,4.68.21,9.21.12,13.91,3,.15,6-2.34,8.29-4a73.23,73.23,0,0,1,9-5.61c2.12,1.38,3.18,2.45,3.18,4.7-3.43,3.39-8.72,5.07-12.62,7.86-5.24,3.75-7.57,5.1-6,12.08,1.3,5.7,4.83,11.87,4.37,17.72-3.92.9-8,.33-12.09.24C194.54,178.78,189.53,179.09,187.1,178.76Z"/><path class="cls-8" d="M226.19,138.13a3.08,3.08,0,0,1-2.08,2.74,2.17,2.17,0,0,1-2.74-2.35c.11-1.67,1.14-2.3,2.64-2.56C225.25,135.74,226.21,136.39,226.19,138.13Z"/><path class="cls-8" d="M224.14,105.51c-.83,1.75-.39,3.14.89,3.84,2,1.13,3.43.34,3.89-1.28.54-1.86,0-3.52-1.37-4.14S225,103.74,224.14,105.51Z"/><path class="cls-8" d="M231,76.49c1.48,1.51,1.13,3.06-.18,4.35s-2.19,1-3.67-.46-1.41-2.81-.35-3.86C228,75.26,229.5,75,231,76.49Z"/><path class="cls-8" d="M186.72,43.71c.6,1.43-.39,3.21-2.21,4s-3.53,1.09-4.14-.35a4.13,4.13,0,0,1,2-4.86C184.16,41.7,186.12,42.27,186.72,43.71Z"/><path class="cls-8" d="M178,87.61c1.38,1.25.82,3.84-1.27,6.16s-3.91,3.44-5.3,2.17-1.83-4.39.26-6.71S176.6,86.35,178,87.61Z"/><path class="cls-8" d="M149.86,77.89c.45,2.2-1.74,1.72-2.4,1.68-1.25-.08-1.66-.72-1.6-1.73s.87-1.65,2.13-1.58A1.74,1.74,0,0,1,149.86,77.89Z"/><path class="cls-8" d="M127.07,112.77c-.17,2.7-1.55,4.66-3.82,4.52A3.81,3.81,0,0,1,119.4,113c.32-4.06,3.35-4.59,3.37-4.59C126,108.1,127.23,110.08,127.07,112.77Z"/><path class="cls-9" d="M159.69,200.81s27.25-11.62,72.91-2.33"/></svg>