<svg id="圖層_1" data-name="圖層 1" xmlns="http://www.w3.org/2000/svg" viewBox="0 0 394 394"><defs><style>.cls-1{fill:#76c4aa;}.cls-2,.cls-8{fill:none;}.cls-2,.cls-9{stroke:#009fe8;}.cls-2,.cls-3,.cls-8,.cls-9{stroke-width:2.42px;}.cls-3{fill:#ffe100;}.cls-3,.cls-8{stroke:#008bd5;}.cls-4{fill:#a0d7e5;}.cls-5,.cls-9{fill:#fff;}.cls-6{fill:#009fe8;}.cls-7{fill:#0d131a;}.cls-10{fill:#008bd5;}</style></defs><title>工作區域 5</title><rect class="cls-1" width="394" height="394"/><line class="cls-2" x1="67.92" y1="137.77" x2="67.92" y2="270.4"/><path class="cls-3" d="M140.15,190.46c-14.26-.71-25.7,2.77-39.1,6.76-11.31,3.37-23.59,6.66-28.78,18.45-5.51,12.48,6.21,15.22,11.28,24.52S73,253.88,69.05,260.57c-8.13,13.86,4.4,19.42,17,21.3,14.29,2.16,15.2,8.25,14.66,21.36-.55,13.51-1,22.39,13.74,24.12,15.41,1.81,35.89,1,51.36.66,16.41-.36,32.85-1.11,48.87-5,13.71-3.33,27.33-6.6,41-10.19,11.77-3.12,23.14-9.35,35-11.52,9-1.64,19.35.08,28.44.87,7,.62,12-4.85,3.33-7.94-4.69-1.66-12.42-3.21-5.74-8.15,3.87-2.86,8.56-2.27,4.62-10.18-2.7-5.4-8.6-3.39-11.26-7-4.19-5.7,3.79-14.16,0-20.23-5.89-9.5-19.48-10.94-29.77-11.86-13.83-1.23-27.76-1.55-41.59-2.75-12.37-1.08-28.68,1-29.06-15.07-.11-4.72,1.33-8.09-1.37-12.41-3.58-5.69-10.69-6.85-16.77-7.61-8.87-1.09-17,3.5-25.42-.42C157.28,194.43,150.24,191,140.15,190.46Z"/><path class="cls-4" d="M110.84,253.94s35.53-43.59,71.53-2.61C182.37,251.33,150.6,297.81,110.84,253.94Z"/><path class="cls-5" d="M166.25,253.34a18.1,18.1,0,1,1-18.1-18.1A18.1,18.1,0,0,1,166.25,253.34Z"/><path class="cls-6" d="M154.7,253.34a6.55,6.55,0,1,1-6.55-6.55A6.55,6.55,0,0,1,154.7,253.34Z"/><path class="cls-7" d="M182.37,251.51a106.55,106.55,0,0,1,14-8.68s-1.5,15.61-1.5,18.07Z"/><path class="cls-4" d="M161.32,280.92s27.39-33.6,55.15-2C216.47,278.91,192,314.75,161.32,280.92Z"/><path class="cls-5" d="M204,280.33a14,14,0,1,1-13.95-13.95A14,14,0,0,1,204,280.33Z"/><path class="cls-6" d="M195.14,280.33a5.05,5.05,0,1,1-5-5.05A5,5,0,0,1,195.14,280.33Z"/><path class="cls-7" d="M216.47,279.14a78.79,78.79,0,0,1,9.49-4.47s-1,8-1,9.32Z"/><path class="cls-4" d="M177.16,221.52S197.46,196.63,218,220C218,220,199.87,246.58,177.16,221.52Z"/><path class="cls-5" d="M208.81,221a10.34,10.34,0,1,1-10.34-10.34A10.33,10.33,0,0,1,208.81,221Z"/><path class="cls-6" d="M202.22,221a3.75,3.75,0,1,1-3.75-3.75A3.74,3.74,0,0,1,202.22,221Z"/><path class="cls-7" d="M218,220.2A44.61,44.61,0,0,1,223.7,217s-.61,5.8-.61,6.71Z"/><path class="cls-4" d="M208.74,255.52s23.13-28.4,46.58-1.71C255.32,253.81,234.63,284.08,208.74,255.52Z"/><path class="cls-5" d="M244.82,254.93A11.79,11.79,0,1,1,233,243.14,11.78,11.78,0,0,1,244.82,254.93Z"/><path class="cls-6" d="M237.3,254.93a4.27,4.27,0,1,1-4.26-4.27A4.26,4.26,0,0,1,237.3,254.93Z"/><path class="cls-7" d="M255.32,254a49.16,49.16,0,0,1,6.48-4.16s-.7,7.48-.7,8.67Z"/><path class="cls-4" d="M271.7,281.64s14.95-18.33,30.1-1.08C301.8,280.56,288.43,300.11,271.7,281.64Z"/><path class="cls-5" d="M295,281.08a7.62,7.62,0,1,1-7.62-7.62A7.62,7.62,0,0,1,295,281.08Z"/><path class="cls-6" d="M290.16,281.08a2.76,2.76,0,1,1-2.76-2.76A2.76,2.76,0,0,1,290.16,281.08Z"/><path class="cls-7" d="M301.8,280.59a35.56,35.56,0,0,1,4.18-4.33s-.45,7.8-.45,9Z"/><path class="cls-4" d="M109.66,175.51s-15-18.34-30.1-1.1C79.56,174.41,92.93,194,109.66,175.51Z"/><path class="cls-5" d="M86.34,174.94A7.62,7.62,0,1,0,94,167.32,7.61,7.61,0,0,0,86.34,174.94Z"/><path class="cls-6" d="M91.2,174.94A2.76,2.76,0,1,0,94,172.18,2.75,2.75,0,0,0,91.2,174.94Z"/><path class="cls-7" d="M79.56,174.46a35.34,35.34,0,0,0-4.18-4.34s.44,7.8.44,9Z"/><line class="cls-2" x1="72.27" y1="94.16" x2="72.87" y2="227.73"/><line class="cls-2" x1="325.74" y1="171.13" x2="325.74" y2="300.58"/><line class="cls-2" x1="314.21" y1="161.04" x2="314.21" y2="271.84"/><line class="cls-2" x1="104.28" y1="191.48" x2="104.28" y2="323.66"/><path class="cls-8" d="M140.15,61.52c-14.26-.72-25.7,2.77-39.1,6.76C89.74,71.65,79,74.94,73.8,86.73c-5.5,12.48,4.68,15.22,9.75,24.52S73.8,124.86,70,131.63c-7.2,12.93,4.72,19.42,16,21.31,14.26,2.39,15.2,8.25,14.66,21.34-.55,13.52,3.51,23.27,18.24,25,15.41,1.82,31.39.14,46.86-.2,16.41-.36,32.85-1.11,48.87-5,13.71-3.33,27.33-6.6,41-10.19,11.77-3.12,23.14-9.35,35-11.52,9-1.65,19.35.07,28.44.87,7,.62,10.38-4.85,3.33-7.93-4.57-2-12.42-3.22-5.74-8.17,3.87-2.85,9.71-3,4.62-10.16-2.7-3.83-8.6-3.41-11.26-7-4.19-5.69,2.76-13.13-1-19.19-5.87-9.5-18.44-12-28.73-12.89-13.83-1.23-27.76-1.55-41.59-2.76-12.37-1.07-28.68,1-29.06-15.06-.11-4.73,1.33-8.1-1.37-12.4-3.58-5.7-10.69-6.86-16.77-7.62-8.87-1.1-17,3.5-25.42-.43C157.28,65.49,150.24,62,140.15,61.52Z"/><path class="cls-9" d="M236.28,139.82c0-9.48-8.31-17.24-18.47-17.24s-18.48,7.76-18.48,17.24v36.42h36.95Z"/><polygon class="cls-10" points="261.95 144.5 236.83 135.66 236.28 149.41 261.95 144.5"/><path class="cls-4" d="M228,138.4a7.29,7.29,0,1,1-7.29-7.29A7.28,7.28,0,0,1,228,138.4Z"/><path class="cls-7" d="M199.76,155.27h17.05s1.25,16.35-17.05,15.11Z"/><line class="cls-2" x1="199.76" y1="155.27" x2="236.71" y2="155.27"/><path class="cls-6" d="M223.74,138.4a3,3,0,1,1-3-3A3,3,0,0,1,223.74,138.4Z"/><path class="cls-9" d="M172.43,130.42c0-9.47-8.32-17.23-18.48-17.23s-18.48,7.76-18.48,17.23v36.42h37Z"/><polygon class="cls-10" points="197.43 133.49 172.3 124.64 171.76 138.4 197.43 133.49"/><path class="cls-7" d="M135.9,145.88H153s1.24,16.34-17.06,15.1Z"/><line class="cls-2" x1="135.9" y1="145.88" x2="172.85" y2="145.88"/><path class="cls-4" d="M150.08,123.85h14.23s1,10.53-7.85,10.53C149.23,134.38,150.08,124.32,150.08,123.85Z"/><path class="cls-6" d="M160.08,126.74a3,3,0,1,1-3-3A3,3,0,0,1,160.08,126.74Z"/></svg>