<svg id="圖層_1" data-name="圖層 1" xmlns="http://www.w3.org/2000/svg" viewBox="0 0 394 394"><defs><style>.cls-1{fill:#76c4aa;}.cls-2{fill:#008bd5;}.cls-3{fill:#0d131a;}.cls-4{fill:none;stroke:#231815;stroke-width:1.32px;}.cls-5{fill:#ffe100;}</style></defs><title>工作區域 1</title><rect class="cls-1" width="394" height="394"/><path class="cls-2" d="M197.62,160.08a7.92,7.92,0,1,1-8-7.87A7.93,7.93,0,0,1,197.62,160.08Z"/><path class="cls-3" d="M193.06,160.1a3.37,3.37,0,1,1-3.39-3.34A3.35,3.35,0,0,1,193.06,160.1Z"/><path class="cls-2" d="M260.54,152.17a7.91,7.91,0,1,1-8-7.86A7.92,7.92,0,0,1,260.54,152.17Z"/><line class="cls-4" x1="189.76" y1="168.03" x2="190.21" y2="235.42"/><line class="cls-4" x1="252.68" y1="160.14" x2="252.16" y2="243.08"/><path class="cls-3" d="M256,152.19a3.37,3.37,0,1,1-3.38-3.34A3.37,3.37,0,0,1,256,152.19Z"/><path class="cls-3" d="M209.73,234.32c-11.6-1.83-24.62-1.75-35.17,3.65-19.72,10.06-34.22,34.48-27.9,55.69,8.4,28.12,53.19,33.44,78.74,30.82,15.86-1.61,28.08-6.06,37.29-18.64,9.66-13.22,16-28.27,15.14-44.54-.5-9.36-3-24.22-14.53-26.44-8.58-1.67-14.72,5.13-22.7,6.3C229.35,242.81,220.38,236,209.73,234.32Z"/><path class="cls-5" d="M153.49,265.4S120,271.12,95.35,221.23s17.27-78.37,17.27-78.37-13-58.12,90.51-65.53c0,0,23.74,63.63-58.23,78.34C144.9,155.67,182.84,252.6,153.49,265.4Z"/><path class="cls-3" d="M223.14,67.35s-26.65-5.64-26.49,18.5c.07,9.26,7.38,8.33,7.37,8.34s15.73-.58,22-17.91c0,0-8.86,11.71-21.16,10.09C204.84,86.37,199.73,81.48,223.14,67.35Z"/><path class="cls-3" d="M148.91,275s-20.1,7.95-25.12,13.06-10.19,17.36-10.18,18.83,3.06,3,5.53.51,8.79-4.1,10-16.08c0,0,13-1.19,18.54-6.75C147.69,284.54,152.8,278.81,148.91,275Z"/><path class="cls-3" d="M149.77,291.34s-14.25,5.35-17.26,8.4c0,0-5.72,9.52-10.76,14.62,0,0-2.35,5.72,4.65,5.68,0,0,9.71-4.67,9.63-17.19,0,0,9.67-.34,14.87-5.62C150.9,297.23,155.29,293,149.77,291.34Z"/><path class="cls-3" d="M157.2,302.89s-13.76,6.54-18.72,9.32a57.49,57.49,0,0,1-9.65,13.15s-.53,3.85,4.8,2.9c0,0,7.11-3.43,8.93-11.29,0,0,14-4,17.43-9.87C160,307.1,161.62,302.86,157.2,302.89Z"/><path class="cls-3" d="M274.92,265.83s17.19,10.57,25.3,13.63c0,0,6.53,13.59,6.6,21.87,0,0-2.74,3.52-7.55.61,0,0-3-6.24-3-17.11,0,0-16.43.31-22.37-10.34C273.85,274.49,270.7,267.52,274.92,265.83Z"/><path class="cls-3" d="M271.35,282.61s13.5,8.92,20.48,9.61c0,0,.66,12.7,3.45,19.31,0,0-2.35,4.43-6.06.77s-3.49-9.29-2.68-15.25c0,0-14.18-2.49-17-8.36C269.55,288.69,265.47,283.93,271.35,282.61Z"/><path class="cls-3" d="M265.73,295.35s10.08,5.95,15.33,8.54c0,0,1.37,9.75,4.35,16.54,0,0-2.23,5.8-6.5,1.6,0,0-3.65-5.39-3.71-15.15,0,0-9.41-2-12.19-6.54C263,300.34,263,293.73,265.73,295.35Z"/><path class="cls-2" d="M306.82,300.48c.31,1.4-1.18,2.95-3.34,3.42a4,4,0,0,1-4.48-2.59c-.31-1.41,1.19-2.08,3.34-2.55S306.51,299,306.82,300.48Z"/><path class="cls-2" d="M295.28,311.53c.33,1.41-.71,1.93-2.36,2.3a2.84,2.84,0,0,1-3.53-1.91c-.32-1.42,1.14-2.24,2.77-2.61A2.61,2.61,0,0,1,295.28,311.53Z"/><path class="cls-2" d="M285.41,320.43c.33,1.4-1.35,2.73-3,3.08a2.65,2.65,0,1,1-1.12-5.13C282.93,318,285.1,319,285.41,320.43Z"/><path class="cls-2" d="M134.28,327.9c-1.22.79-2.5,1.89-4.56,1.18a2.39,2.39,0,0,1-1-3.64,2.87,2.87,0,0,1,4-.39C134.06,326,135.18,327.32,134.28,327.9Z"/><path class="cls-2" d="M127.1,319.54c-.83,1.19-2.58,1.3-4,.41a4.44,4.44,0,0,1-1.34-5.59c.84-1.19,3,.31,4.37,1.28A2.86,2.86,0,0,1,127.1,319.54Z"/><path class="cls-2" d="M117.86,308.42a2.54,2.54,0,0,1-3.39.84c-1.57-1-1.31-3.79-.48-5s2.48-.07,3.51.66A2.48,2.48,0,0,1,117.86,308.42Z"/><path class="cls-5" d="M268.27,241.66s-5.17-14.74,11.56-20.6c0,0-8.41-3.17-3.49-11,0,0,26.54,12.18-5,33.76C271.29,243.84,268.74,243.6,268.27,241.66Z"/><path class="cls-2" d="M263.79,202.39c3.88.18,9,2.79,10.62,6.59-.17-2.41-1.16-4.69-1.13-7.16,0-2.06.75-4,1-6a23.28,23.28,0,0,1,5.11,12c.54,4.85-1.71,8.59-6.6,6.25C268.47,212,263.68,207.66,263.79,202.39Z"/></svg>