<svg id="圖層_1" data-name="圖層 1" xmlns="http://www.w3.org/2000/svg" viewBox="0 0 394 394"><defs><style>.cls-1{fill:#eb6d65;}.cls-2{fill:#0d131a;}.cls-3{fill:#ffe100;}.cls-4,.cls-8{fill:#fff;}.cls-10,.cls-4,.cls-5{stroke:#009fe8;stroke-width:1.21px;}.cls-10,.cls-5{fill:none;}.cls-6{fill:#a0d7e5;}.cls-7{fill:#76c4aa;}.cls-9{fill:#009fe8;}.cls-10{stroke-linecap:round;}</style></defs><title>工作區域 6</title><rect class="cls-1" width="394" height="394"/><path class="cls-2" d="M187.63,235.84c6.21,5.57,22.19,3.17,30.09,2.84,10.42-.42,19-.38,25.58-9.34,6.18-8.38,9.42-19.74,13.36-29.18-7.07-.18-13.9,2.49-21,2.77-10,.39-19.89-.13-29.7,1.77-9.6,1.88-18.8-.47-28.49.68C177.08,214.1,181,229.88,187.63,235.84Z"/><path class="cls-3" d="M104.11,173.25c5.86,8.9,9.58,11.14,13.57,20,4.63,10.31,13.12,13.88,23.7,17,29.13,8.71,61.13,5.63,90.43-.67,17.15-3.67,45.55-3.81,58-18,5-5.76,6.23-10.19,6.23-21.72,0-20-.42-18.08-10.82-19.07-43.13-4.07-88.71,2.84-131.84-.16-9.92-.7-20.07,0-29.83.42-5.16.21-15.28-3.19-19.07,1.41C102.65,154.69,101.34,169.05,104.11,173.25Z"/><path class="cls-4" d="M82.49,320.12c0-2-4.61-125.33,19.5-137s37-9.47,41.47,2.44c8.13,21.55-24.39,13.83-24.39,45.13,0,0,4.47,52.43.4,88.6"/><path class="cls-5" d="M109.31,190c-5.61,5.94-9.21,7.16-10.59,15.87-1.08,6.86-2.35,14.25-2.41,21.13"/><path class="cls-5" d="M95.49,237.19c-1.71,5.31-.41,13-.41,18.61v22.48c0,10.8-.81,21.4-.81,32.08"/><path class="cls-5" d="M114.19,203.46c-7.61,1.7-6.76,16.46-6.5,22.35.38,8.81.81,17.53.81,26.43"/><path class="cls-5" d="M107.27,268.49c-1.8,5.75.37,12.79.42,18.71"/><path class="cls-5" d="M108.1,301.42v15"/><path class="cls-6" d="M104.67,157.3c9.22,5.34,9.59,11.15,13.57,20,4.63,10.32,13.12,13.87,23.7,17,29.14,8.7,61.14,5.62,90.44-.67,17.14-3.68,47.24-2.1,59.66-16.3,5-5.76,3.68-15.84,3.91-23.36.34-11.2-1.72-15.2-12.13-16.19-43.13-4.07-86.78-.11-129.93-3.11-9.9-.68-20.07,0-29.82.42-5.16.23-14.43-2.34-18.22,2.25C104.06,139.59,103,156.32,104.67,157.3Z"/><path class="cls-2" d="M140.22,115.09c-11.14,1.57-28.21,7.6-33.28,18.48-5.33,11.43,4.65,15.71,12.68,21.77,4.81,3.63,6.33,8.42,9.21,13.43,3.65,6.37,9.48,8.16,16.38,10.17,18.51,5.42,38.21,3.8,57.34,4.46s38.22-2.77,56.91-5.84c13-2.13,32.8-6.91,35.37-22.47,4.57-27.59-28.9-26.82-46.24-30.34-9.07-1.84-11.62-6.51-18.43-11.12-8.59-5.82-30.08-3.19-39.92-3.07C173.48,110.74,156.79,112.73,140.22,115.09Z"/><path class="cls-7" d="M160.91,155a3.62,3.62,0,0,0-2.1,2c.57.29,2.14-.24,2.41.07s-.82,1.1-.22,1.64,2.31-.71,2.81-1.08c-.4.42-1,1.61-.37,1.94,1,.5,3.13-1.75,3.69-2.36,2.6-2.81,1.31-7.71-3-7.16-2.2.29-1,1.86-1.46,3.28A3.16,3.16,0,0,1,160.91,155Z"/><path class="cls-8" d="M250.3,129.66c-1.08,5.85-10.23,12-21.91,8.45-8.75-2.69-16.73-2.69-16.73-14,0-6,10.32-9.07,20.63-7.17S251.38,123.8,250.3,129.66Z"/><path class="cls-8" d="M216.68,131.88c0,14.56-12.79,26.35-30.67,26.35s-32.37-11.79-32.37-26.35,14.49-26.36,32.37-26.36S216.68,117.32,216.68,131.88Z"/><path class="cls-7" d="M162.59,98.73s1.41-21.4,39.14-21.4,49.4,32.24,50.53,57c0,0,8.59-5.64,8.59-1.69,0,1.33.49,2.63.37,4a19.08,19.08,0,0,1-1.1,5.36c-.94,2.17-1.16.1-1.06-1.1-.07.5-1.2,2.74-1.78,2.25-.44-.34.35-2,.57-2.33-.37.69-1.23,2-2.15,1.82-.11-1,.58-1.86.84-2.74s.35-1.86.64-2.78c0,0-8.26,7.78-11.68,4.36-.7-.7-.42-4.36.84-7.74,0,0-17.59-9.71-29.56-12.11,0,2.7,0,5.4-.07,8.11-.08,5.47-.23,11-.52,16.42-.13,2.49-.3,5-.58,7.46-.23,2.1-.59,5.69-2.44,6.94-.53.35-2,1.44-2.63,1.41-1.2-.06-.52-1.39.07-2-.46.57-2.34,1.88-3.08,1.59-1.12-.45.32-1.93.94-2.14-.57.92-4,1.56-3.63.17s2.06-1.54,2.84-2.5a3.35,3.35,0,0,0,.58-2.09c.16-1.85.31-3.68.45-5.52.41-5.4.73-10.81.82-16.23.07-3.83.54-8.62-.91-12.28,0,0-53.44,10.18-51.6-4.88C157,116.09,161.61,104.92,162.59,98.73Z"/><path class="cls-8" d="M160.15,101S166.34,86.58,190.93,90s20.64,12.19,20.64,12.19-3.93,17.83-50.1,17.08c0,0-6.76-.38-4.7-4.5s2.63-4.7,2.63-6.39S158.39,103.76,160.15,101Z"/><path class="cls-8" d="M170.48,93.8a5.17,5.17,0,1,1-5.16-5.16A5.17,5.17,0,0,1,170.48,93.8Z"/><path class="cls-9" d="M167.65,93.8a2.35,2.35,0,1,1-2.33-2.35A2.34,2.34,0,0,1,167.65,93.8Z"/><path class="cls-8" d="M214.09,95.8a5.16,5.16,0,1,1-5.16-5.16A5.15,5.15,0,0,1,214.09,95.8Z"/><path class="cls-9" d="M211.28,95.8a2.35,2.35,0,1,1-2.35-2.35A2.35,2.35,0,0,1,211.28,95.8Z"/><line class="cls-10" x1="162.94" y1="114.71" x2="163.53" y2="116.05"/><line class="cls-10" x1="168.93" y1="114.08" x2="167.26" y2="115.85"/></svg>