<svg id="圖層_1" data-name="圖層 1" xmlns="http://www.w3.org/2000/svg" viewBox="0 0 394 394"><defs><style>.cls-1{fill:#ffe100;}.cls-2{fill:#fff;}.cls-3{fill:#0d131a;}.cls-4{fill:#ccc;}</style></defs><title>工作區域 4</title><rect class="cls-1" width="394" height="394"/><path class="cls-2" d="M146.05,179.94c-9.29,0-16.87,8.34-16.87,18.55V274H162.9V198.49C162.9,188.28,155.32,179.94,146.05,179.94Z"/><path class="cls-3" d="M147,197.86a2.17,2.17,0,0,0,.56-.79,9.39,9.39,0,0,0,1.53-5.13c0-5.5-4.73-9.95-10.57-9.95a20.05,20.05,0,0,0-5.05,1.19c-3.35,1.63-17.83,13.79-31.54,20.89S79.6,209,73,215.25s1.14,13.36,11.72,11.45,14.58-8.73,31.73-14.45c12.91-4.31,21.26-8,26.4-11.27A10.42,10.42,0,0,0,147,197.86Z"/><path class="cls-2" d="M145.35,190.71a4.87,4.87,0,1,1-4.86-4.64A4.76,4.76,0,0,1,145.35,190.71Z"/><path class="cls-3" d="M143.7,189.81a2.27,2.27,0,1,1-2.27-2.17A2.22,2.22,0,0,1,143.7,189.81Z"/><path class="cls-2" d="M129.18,270.54s17.74,6.65,33.72-8.59c0,0,14.61-1.43,27.48,10.84s22.29,9,22.29,9-31.77,17.89-55.1,15.55c-20.36-2.05-19.87-2.12-24.22-5.31C131,290.31,124.8,284.23,129.18,270.54Z"/><path class="cls-4" d="M162.71,262.74s-11.43,10.3-.3,14.34,19.29-.13,25.93-8.22C188.34,268.86,174.53,258.84,162.71,262.74Z"/><path class="cls-4" d="M251.72,236.23S232,250.32,248.51,260c13.3,7.81,26.92.91,42.65-8.54C291.16,251.45,271.2,232.08,251.72,236.23Z"/><path class="cls-2" d="M162.71,261.08s-11.43,10.29-.3,14.33,19.29-.13,25.93-8.22C188.34,267.19,174.53,257.17,162.71,261.08Z"/><path class="cls-2" d="M223.74,98.05c-14.81,0-26.91,14-26.91,31V255.41h53.82V129.08C250.65,112,238.54,98.05,223.74,98.05Z"/><path class="cls-3" d="M225.21,128a4,4,0,0,0,.9-1.33,16.25,16.25,0,0,0,2.45-8.59,16.77,16.77,0,0,0-16.88-16.66c-2.91,0-8,2-8,2-5.48,2.66-28.45,23.08-50.34,34.93s-35.58,8.22-46.07,18.7,1.82,22.35,18.7,19.16,23.27-14.59,50.63-24.17c20.58-7.2,33.9-13.37,42.11-18.84A16.91,16.91,0,0,0,225.21,128Z"/><path class="cls-2" d="M222.62,116.07a7.75,7.75,0,1,1-7.75-7.75A7.75,7.75,0,0,1,222.62,116.07Z"/><path class="cls-3" d="M217.06,118.29a3.33,3.33,0,1,1-3.33-3.32A3.34,3.34,0,0,1,217.06,118.29Z"/><path class="cls-2" d="M196.83,249.59s28.31,11.13,53.82-14.36c0,0,23.29-2.4,43.81,18.12s35.58,15,35.58,15-50.68,29.93-87.91,26c-32.5-3.42-31.7-3.54-38.65-8.88C199.77,282.65,189.85,272.51,196.83,249.59Z"/><path class="cls-4" d="M251,236.66s-18.3,15.84-1,24c14,6.55,26.89-1.57,41.68-12.44C291.69,248.17,270,230.73,251,236.66Z"/><path class="cls-2" d="M250.83,234.67s-18.3,15.84-1,24c14,6.55,26.89-1.57,41.68-12.44C291.5,246.18,269.84,228.73,250.83,234.67Z"/></svg>