<svg id="圖層_1" data-name="圖層 1" xmlns="http://www.w3.org/2000/svg" xmlns:xlink="http://www.w3.org/1999/xlink" viewBox="0 0 394 394"><defs><style>.cls-1,.cls-3{fill:none;}.cls-2{fill:#eb6d65;}.cls-3{stroke:#4e2d1a;stroke-width:1.93px;}.cls-4,.cls-8{fill:#ffe100;}.cls-5{fill:#a0d7e5;}.cls-5,.cls-6,.cls-7,.cls-8{fill-rule:evenodd;}.cls-6{fill:#fff;}.cls-7{fill:#0d131a;}.cls-9{clip-path:url(#clip-path);}.cls-10{fill:#76c4aa;}</style><clipPath id="clip-path"><path class="cls-1" d="M341.72,117.84A53.68,53.68,0,1,1,288,64.16,53.68,53.68,0,0,1,341.72,117.84Z"/></clipPath></defs><title>工作區域 1 複本</title><rect class="cls-2" x="0.61" width="394" height="394"/><line class="cls-3" x1="125.4" y1="201.74" x2="93.41" y2="161"/><path class="cls-4" d="M97,157.41a7,7,0,1,1-7-7A7,7,0,0,1,97,157.41Z"/><line class="cls-3" x1="151.27" y1="195.69" x2="119.28" y2="154.95"/><path class="cls-4" d="M122.85,151.37a7,7,0,1,1-7-7A7,7,0,0,1,122.85,151.37Z"/><path class="cls-5" d="M93.63,306.12H219.26s17.86-123.65-73.44-111.34C69.37,205.09,93.63,306.12,93.63,306.12Z"/><path class="cls-6" d="M142.49,226.53A10.47,10.47,0,1,1,132,216.05,10.47,10.47,0,0,1,142.49,226.53Z"/><path class="cls-7" d="M141.86,226.22a6.17,6.17,0,1,1-6.17-6.37A6.27,6.27,0,0,1,141.86,226.22Z"/><path class="cls-6" d="M187.35,216.9a10.47,10.47,0,1,1-10.46-10.47A10.47,10.47,0,0,1,187.35,216.9Z"/><path class="cls-7" d="M186.73,216.57a6.17,6.17,0,1,1-6.17-6.36A6.27,6.27,0,0,1,186.73,216.57Z"/><path class="cls-7" d="M172.56,235.59s-13.21,11.71-2,26.67l84,.75,5.23-19.44Z"/><path class="cls-8" d="M264.24,254.79c-.79,5.32-4.56,9.15-8.43,8.59s-5.56-6.16-4.79-11.48,4.81-8.91,8.68-8.35S265,249.47,264.24,254.79Z"/><g class="cls-9"><path class="cls-10" d="M297.63,76.5a58.28,58.28,0,0,1-1.71,13.94c-1.84,7.24.34,9.13,3.1,8.73,3-.43,2.69-6.49,1.24-10A57.18,57.18,0,0,1,297.63,76.5Z"/><path class="cls-10" d="M291.72,104.78a59.22,59.22,0,0,1-1.7,13.94c-1.85,7.23.32,9.13,3.09,8.73,3-.43,2.69-6.5,1.24-10S291.72,106.09,291.72,104.78Z"/><path class="cls-10" d="M253.8,77.52a58.89,58.89,0,0,1-1.71,13.94c-1.84,7.23.33,9.13,3.1,8.74,3-.44,2.69-6.5,1.24-10A56.6,56.6,0,0,1,253.8,77.52Z"/><path class="cls-10" d="M309.26,111.9a67.26,67.26,0,0,1-1.95,15.92c-2.11,8.26.37,10.42,3.53,10,3.42-.49,3.07-7.42,1.42-11.48S309.26,113.4,309.26,111.9Z"/><path class="cls-10" d="M312.05,87.84A47.09,47.09,0,0,1,310.67,99c-1.47,5.8.27,7.32,2.49,7,2.39-.36,2.15-5.21,1-8.06A45.14,45.14,0,0,1,312.05,87.84Z"/><path class="cls-10" d="M280.14,93.22a46.87,46.87,0,0,1-1.37,11.17c-1.47,5.79.26,7.31,2.49,7,2.39-.35,2.14-5.21,1-8A45.37,45.37,0,0,1,280.14,93.22Z"/><path class="cls-10" d="M245.77,106.74a46.82,46.82,0,0,1-1.37,11.17c-1.47,5.8.27,7.32,2.49,7,2.39-.35,2.15-5.2,1-8A46,46,0,0,1,245.77,106.74Z"/><path class="cls-10" d="M284.13,59.92a47.2,47.2,0,0,1-1.38,11.17c-1.47,5.79.27,7.31,2.49,7,2.4-.34,2.15-5.2,1-8A45.82,45.82,0,0,1,284.13,59.92Z"/><path class="cls-10" d="M270.69,73.36a46.76,46.76,0,0,1-1.37,11.16c-1.47,5.79.27,7.31,2.49,7,2.39-.35,2.15-5.21,1-8A45.48,45.48,0,0,1,270.69,73.36Z"/><path class="cls-10" d="M316,63.87A47.15,47.15,0,0,1,314.65,75c-1.48,5.79.26,7.32,2.48,7,2.39-.35,2.15-5.2,1-8A45.37,45.37,0,0,1,316,63.87Z"/><path class="cls-10" d="M325.91,91.28a47.1,47.1,0,0,1-1.36,11.17c-1.48,5.8.26,7.32,2.48,7,2.39-.35,2.15-5.21,1-8A45.44,45.44,0,0,1,325.91,91.28Z"/><path class="cls-10" d="M325.22,121.2a32.05,32.05,0,0,1-.93,7.58c-1,3.94.18,5,1.68,4.75s1.46-3.53.68-5.46A30.72,30.72,0,0,1,325.22,121.2Z"/><path class="cls-10" d="M335.11,108.27a32.05,32.05,0,0,1-.93,7.58c-1,3.94.18,5,1.69,4.76s1.46-3.54.67-5.48A31,31,0,0,1,335.11,108.27Z"/><path class="cls-10" d="M263.2,102.68a32.16,32.16,0,0,1-.93,7.59c-1,3.94.18,5,1.68,4.75s1.47-3.53.68-5.47A30.61,30.61,0,0,1,263.2,102.68Z"/><path class="cls-10" d="M256.11,127.93a31.51,31.51,0,0,1-.93,7.59c-1,3.93.18,5,1.69,4.76s1.47-3.54.68-5.48A30.74,30.74,0,0,1,256.11,127.93Z"/><path class="cls-10" d="M243.43,135a32.11,32.11,0,0,1-.93,7.59c-1,3.94.18,5,1.69,4.76s1.46-3.54.68-5.48A30.74,30.74,0,0,1,243.43,135Z"/><path class="cls-10" d="M324.81,145.63a32.05,32.05,0,0,1-.93,7.58c-1,3.94.18,5,1.69,4.76s1.46-3.54.68-5.47A30.74,30.74,0,0,1,324.81,145.63Z"/><path class="cls-10" d="M306.47,145.14a40.48,40.48,0,0,1-1.17,9.57c-1.26,5,.23,6.27,2.13,6s1.84-4.46.85-6.89A39.14,39.14,0,0,1,306.47,145.14Z"/><path class="cls-10" d="M287.8,134.23A58.37,58.37,0,0,1,286.11,148c-1.82,7.16.33,9,3.07,8.65,3-.43,2.66-6.44,1.23-9.95A55.81,55.81,0,0,1,287.8,134.23Z"/><path class="cls-10" d="M267.12,146.45a59,59,0,0,1-1.69,13.81c-1.83,7.16.32,9,3.06,8.64,3-.42,2.66-6.43,1.23-9.94A56.26,56.26,0,0,1,267.12,146.45Z"/><path class="cls-10" d="M273.38,119a58.42,58.42,0,0,1-1.69,13.81c-1.82,7.16.32,9,3.06,8.64,3-.43,2.67-6.44,1.24-9.95S273.38,120.29,273.38,119Z"/></g></svg>