<?xml version="1.0" encoding="utf-8"?>
<!-- Generator: Adobe Illustrator 22.0.1, SVG Export Plug-In . SVG Version: 6.00 Build 0)  -->
<svg version="1.1" id="圖層_1" xmlns="http://www.w3.org/2000/svg" xmlns:xlink="http://www.w3.org/1999/xlink" x="0px" y="0px"
	 viewBox="0 0 507.5 332.8" style="enable-background:new 0 0 507.5 332.8;" xml:space="preserve">
<style type="text/css">
	.st0{fill:#008BD5;}
	.st1{fill:#FFE100;}
	.st2{fill:#FFF000;}
</style>
<g>
	<g>
		<g>
			<path class="st0" d="M476.7,27.2c-1.5,0.8-7.2,1.1-9.6,1.3c-0.9,7.7,0.4,15.1-1.8,22.8c-1.4,5-3.7,11.4-7.4,15.2
				c5.4-4.7,10.5-9.7,13-17.2c2.4-7.1,5.8-13.9,5.8-21.3V27.2z"/>
		</g>
		<g>
			<polygon class="st0" points="377.7,60.2 418.4,46.6 418.9,59.2 377.3,73.7 			"/>
		</g>
		<g>
			<path class="st0" d="M386.5,94.8l3.7-54.7l7.8-3l1.7-0.7L397,91.1l34-10.6v13.7l-56.6,18.6l0.1-14.2L386.5,94.8z M387.8,96
				l-9.8,3.1l-0.2,8.9l47.3-16v-8l-32.1,10.2l2.7-54.2l-4.1,1.5L387.8,96z"/>
		</g>
		<polyline class="st1" points="425.8,48.9 504.5,32.5 484.2,55.8 491.1,41.5 		"/>
		<path class="st1" d="M490,112.7c-51.6-0.7-59.2-41.7-59.1-64.4l0,0c0-9.1,1.2-15.5,1.2-15.6l0,0l0.2-0.9l17.2-2.3l1.6-0.2
			l-0.3,1.6c-1.2,6.9-1.8,13-1.8,18.6l0,0c0,48.6,42,49.6,42.1,49.7l0,0l1.3,0l-1.2,13.5L490,112.7L490,112.7z M433.3,48.3
			c0.1,22.4,6.8,60.7,55.7,62l0,0l0.8-8.9c-7.2-0.8-43.1-6.6-43.1-52l0,0c0-5.3,0.5-11,1.5-17.4l0,0L434.3,34
			C434,36,433.3,41.3,433.3,48.3L433.3,48.3z"/>
	</g>
	<g>
		<g>
			<polygon class="st0" points="183.8,249.9 183.8,258.1 214,254.7 			"/>
		</g>
		<g>
			<path class="st0" d="M200.4,305.4c1.4-3.7,1.9-7.8,1.9-11.9l0,0c0-6.6-1.4-13.3-2.8-18.2l0,0c-1.4-5-2.8-8.2-2.8-8.2l0,0
				l-0.7-1.6l8.7-11.8l0,0l4.8,3.5l-6.8,9.1c1.6,4.1,5.4,15.3,5.4,27.1l0,0c0,4.7-0.6,9.5-2.3,14l0,0L200.4,305.4L200.4,305.4z"/>
		</g>
		<g>
			<polygon class="st0" points="185.5,296.6 201.4,308.2 204.5,304.3 			"/>
		</g>
		<g>
			<path class="st0" d="M171.1,285.3c0.1,0,29.6-9,54.3-9l0,0c2.9,0,5.7,0.1,8.4,0.4l0,0l-0.3,2.9c-2.6-0.3-5.3-0.4-8.1-0.4l0,0
				c-24,0-53.4,8.9-53.4,8.9l0,0L171.1,285.3L171.1,285.3z"/>
		</g>
		<g>
			<path class="st0" d="M164.9,185.3l0.3-1.8l8.6,9.3l-4.9,38l-12.3,1.2L164.9,185.3L164.9,185.3z M158.8,230.1l8.5-0.9l4.6-35.8
				l-5.6-6.1L158.8,230.1L158.8,230.1z M165.2,186l0.7-0.6L165.2,186L165.2,186z"/>
		</g>
		<path class="st0" d="M228.5,166.6l-1.5,11.9c0,0,13.6,6.5,15.6,8.1c2,1.6,6-9.9,10-11.3"/>
		<path class="st0" d="M165.2,183.6c0,0,13.7-7.7,19.2-12.8c5,3.2,6.9,6.2,7.8,9.6c0,0-6.6,3-10.9,5.6c-4.2,2.6-7.9,7.1-7.9,7.1
			L165.2,183.6z"/>
		<g>
			<path class="st0" d="M242.7,186.7l0-0.2l0.1-0.2c4.5-8.9,8.6-10.6,8.8-10.7l0,0l1.2-0.5l0.1,1.3c1.4,28.7,1.8,31.7,1.8,36.2l0,0
				c0,0.6,0,1.1,0,1.8l0,0c0,0,0,0,0,0.1l0,0c0.1,0.6,0.9,3.7,1.8,6.3l0,0c0.9,2.8,1.8,5.4,1.8,5.4l0,0l0.4,1.2l-18,0.6L242.7,186.7
				L242.7,186.7z M242.4,226.1l13.7-0.4c-1-2.7-3.3-9.5-3.3-11.2l0,0v0c0,0,0-0.1,0-0.1l0,0c0-0.6,0-1.2,0-1.7l0,0
				c0-4.3-0.4-7.3-1.7-34.6l0,0c-0.3,0.2-0.6,0.5-1,0.9l0,0c-1.4,1.4-3.4,3.8-5.6,8l0,0L242.4,226.1L242.4,226.1z"/>
		</g>
		<g>
			<polygon class="st0" points="199.2,197.5 211.2,186.8 212.8,188.6 200.8,199.3 199.2,197.5 			"/>
		</g>
		<g>
			<polygon class="st0" points="200.2,187.9 202.8,185.4 212,198.7 211.3,199.7 200.2,187.9 			"/>
		</g>
		<g>
			<polygon class="st0" points="198.1,214.1 210.8,204.2 211.7,205.2 199.4,217.8 198.1,214.1 			"/>
		</g>
		<g>
			<polygon class="st0" points="199.1,204.5 200.1,203.6 212.6,214 210.1,216.4 199.1,204.5 			"/>
		</g>
		<polygon class="st0" points="185.3,205 167.9,207.7 167.9,199.3 185.3,199.3 		"/>
		<polygon class="st0" points="185.5,221.5 166.4,222.1 169.1,213.6 184.3,213.6 		"/>
		<polygon class="st0" points="245.9,200 232.1,202.8 232.1,194 245.9,194 		"/>
		<polygon class="st0" points="244.7,218.6 229.7,219.2 231.8,210.3 243.8,210.3 		"/>
		<polygon class="st1" points="152.9,279.6 126.1,282.3 128,229.4 152.5,228 		"/>
		<path class="st1" d="M237.6,250.6l12.1,4.5l11.3-27.9c-3.4,1.1-9.7,2.5-13.6,3.6l0,0c-7.7,2-18.2,2.3-45.4,2.3l0,0
			c-27,0-51,2.6-51,2.6l0,0l-0.6-5.9c0.1,0,24.3-2.6,51.6-2.6l0,0c27.1,0,37.5-0.4,43.9-2.1l0,0c6.9-1.8,16.5-5.1,16.5-5.1l0,0
			l5.1-1.8l-12.1,50.4L237.6,250.6L237.6,250.6z"/>
	</g>
	<g>
		<g>
			<path class="st2" d="M319,271"/>
		</g>
		<g>
			<path class="st0" d="M347,198c0,0-52.5,6.4-66.9,6.4l0.7,10c0,0,23.1-6.7,67.2-4.3C347.9,210,344.4,201.9,347,198z"/>
		</g>
		<g>
			<path class="st0" d="M299.7,226.2c0,0,0.9,22.8-12.4,22.8c0,0-5.6-1.6-1.7-5.5C289.4,239.7,292.9,243.7,299.7,226.2z"/>
		</g>
		<g>
			<path class="st0" d="M329.6,224.4c0,0-0.9,22.8,12.4,22.8c0,0,5.6-1.6,1.7-5.5C339.9,237.9,336.4,242,329.6,224.4z"/>
		</g>
		<g>
			<polygon class="st0" points="390.7,164.3 377.5,166.3 382.2,189.1 388.4,187.9 			"/>
		</g>
		<g>
			<path class="st0" d="M357.5,201.5c0-0.1,0-0.1,0-0.1l0,0c0-0.2,0.1-0.3,0.1-0.4l0,0c0-0.2,0.1-0.4,0.2-0.7l0,0
				c0.1-0.6,0.3-1.4,0.5-2.2l0,0c0.3-1.2,0.5-2.4,0.6-2.9l0,0c-0.5-0.8-2-3.8-2.1-5.6l0,0c0-0.7,0.5-1.6,1.4-1.6l0,0
				c2.2,0,64.9-1.7,64.9-1.7l0,0l0.3,0l3.5,4.1l-11.4,5.5v3.8l-0.7,0c0,0-13.7,0.4-27.7,0.8l0,0c-13.1,0.4-26.7,1-28.5,1.3l0,0
				c-0.1,0.1-0.2,0.1-0.5,0.2l0,0C357.4,202,357.5,201.5,357.5,201.5L357.5,201.5z M358.1,189.6c0,1.4,2,5.2,2,5.2l0,0l0.1,0.2
				l0,0.3c0,0.1-0.7,3.4-1.1,5.2l0,0c0.4,0,0.9-0.1,1.4-0.1l0,0c1.6-0.1,3.8-0.2,6.4-0.4l0,0c5.3-0.2,12.4-0.5,19.5-0.7l0,0
				c12.4-0.4,24.7-0.8,27.7-0.8l0,0v-3.4l10.6-5.1l-2-2.3c-4.8,0.1-62.5,1.7-64.6,1.7l0,0l0,0C358.1,189.3,358.1,189.4,358.1,189.6
				L358.1,189.6z M422.6,187.4l0.5-0.5L422.6,187.4L422.6,187.4z"/>
		</g>
		<g>
			<path class="st0" d="M352.1,191.1l75.1-3.5l-1.1,4c0,0-60,3-70.2,4.2L352.1,191.1z"/>
		</g>
		<g>
			<path class="st0" d="M370,206c0,0,3.7,4,9.4,6.2l-0.7,3.5l-3.5-0.5c0,0-8.4,17.9-23.8,22.6C351.4,237.8,365.5,231.3,370,206z"/>
		</g>
		<g>
			<path class="st0" d="M404.7,225l4.8,3.8c0,0-20.7,52.4-61.3,65.4C348.2,294.2,381.9,273.3,404.7,225z"/>
		</g>
		<g>
			<path class="st1" d="M300.9,329.5l2.7-4.1c2-15.1,5.4-148.5,5.4-148.6l0,0l-2.3-3.9l6.2,2l13.4-0.1l-6,154.1l-14.2-0.9
				L300.9,329.5z M310.4,324.5c0.4-14.5,3.4-126.4,6.1-146.6l0,0l-6.2,0.3c-0.4,13.7-3.4,125.9-5.3,146l0,0L310.4,324.5L310.4,324.5
				z"/>
		</g>
		<path class="st1" d="M405.4,204.1c0,0-1.8,6-5.4,11l2.4,1.7l1.6-2.3c0,0,5.1,11.1,27.1,16C431.2,230.5,409.6,220.8,405.4,204.1z"
			/>
		<path class="st1" d="M380.5,236.3c-1.6,0.5-3.5,0.2-5.2,0.3c0.4,0.5,0.5,1.6,0.9,2.2c-1.5,0.7-1.2,1.1-1,2.3
			c0.3,1.4,2.4,3.1,3.3,4.2c1.8,2.4,3.4,5,5,7.5c7,10.8,14.6,21.5,22.5,31.7c4.8,6.2,10.1,11.9,15.7,17.4c2.9,2.9,6.5,5,9.2,8.1
			c-1.6-2.3-3.1-4.7-4.5-7c0.5,0.7,1.1,1.1,1.7,1.6c-0.2-0.6-0.3-1.5-0.6-2.2c1.8,0.6,3.6,2.7,5.3,3.7c0.1-1.3-1.2-2.8-0.2-3.7
			c0.6-0.5,2.7,0.3,3.1,0.5c-15.1-15.2-29.4-31.8-43.1-48.4c-5.1-6.2-7.3-14.8-13.3-20.2c-0.2,1.2,0,2.5,0.7,2.9"/>
	</g>
	<g>
		<g>
			<path class="st0" d="M262.8,36l-7.4,6.5c0,0,10.9,15.9,15.7,22.9l1.2-3.8"/>
		</g>
		<g>
			<path class="st0" d="M259.4,66c0,0-5.2,2.5-6.2,2.5c-1,0,14.9,13.4,14.9,13.4l5-5.3L259.4,66z"/>
		</g>
		<g>
			<path class="st0" d="M249.1,90.6c1.2-0.6,28.7,4.6,28.7,4.6s-0.3,31.7-23.7,36.4l-2.5-10c0,0,14.4-3.5,16.9-22.6L249.1,90.6z"/>
		</g>
		<g>
			<g>
				<polygon class="st0" points="288.2,133.4 295.7,116.2 299,116 291.6,133 288.2,133.4 				"/>
			</g>
		</g>
		<g>
			<g>
				<polygon class="st0" points="321.7,129.2 329.2,112.1 332.5,111.9 325,128.9 321.7,129.2 				"/>
			</g>
		</g>
		<path class="st1" d="M309.2,2.9c-16.9,0-30.6,13.7-30.6,30.6c0,16.9,13.7,30.6,30.6,30.6s30.6-13.7,30.6-30.6
			C339.8,16.6,326.1,2.9,309.2,2.9z M309.2,37.6c-2.2,0-4-1.8-4-4c0-2.2,1.8-4,4-4c2.2,0,4,1.8,4,4
			C313.3,35.8,311.4,37.6,309.2,37.6z"/>
		<path class="st1" d="M300.5,73.3l1.1-1.7l13.9,16.8l-27,3L300.5,73.3L300.5,73.3z M294.8,87.6l14.8-1.6l-7.6-9.2L294.8,87.6
			L294.8,87.6z M300.6,75.1l1.2-1L300.6,75.1L300.6,75.1z"/>
		<path class="st1" d="M330.7,62.6l1.3-2.1l14.4,18.8l-27.9,3.3L330.7,62.6L330.7,62.6z M324.9,78.6l15.3-1.8l-7.9-10.4L324.9,78.6
			L324.9,78.6z M330.8,64.5l1.3-1L330.8,64.5L330.8,64.5z"/>
		<path class="st1" d="M333.9,82l1.2-2.2l13.1,18.8l-25.3,3.3L333.9,82L333.9,82z M328.7,97.9l13.9-1.8l-7.2-10.4L328.7,97.9
			L328.7,97.9z M333.9,83.6l1.3-0.9L333.9,83.6L333.9,83.6z"/>
		<path class="st1" d="M302,90.8l1.2-1.7l13.9,16.8l-27,3L302,90.8L302,90.8z M296.3,105.1l14.8-1.6l-7.6-9.2L296.3,105.1
			L296.3,105.1z M302.1,92.7l1.2-1L302.1,92.7L302.1,92.7z"/>
		<g>
			<polygon class="st1" points="300.6,131.8 308.1,114.7 311.4,114.5 303.9,131.5 300.6,131.8 			"/>
		</g>
		<g>
			<polygon class="st1" points="334,127.7 341.5,110.5 344.8,110.3 337.4,127.3 334,127.7 			"/>
		</g>
	</g>
	<g>
		<g>
			<polygon class="st0" points="57.4,130.5 79.1,126.9 77.3,99.9 80.1,99.7 82,129.2 57.9,133.2 57.4,130.5 			"/>
		</g>
		<g>
			<g>
				<path class="st0" d="M11,79.1l-6.6-9.7l22.5-2.9l15-55.2l2.1,1.4l4,2.7l9.2-0.7l1.6-0.1l-10.4,50l53.5-6l0,12.6l6,1.2L6.2,91
					L11,79.1L11,79.1z M9.4,70.6l4.8,6.9L12.6,83l86.1-14.7l0.2-8.3l-53.6,6l10.4-48.4l-7.9,0.9l-12.3,48L9.4,70.6z"/>
			</g>
		</g>
		<path class="st1" d="M54.7,137.3c1.1-0.9,2.1-2,2.6-3.4c1.1-3-0.1-29.2-0.6-29c7.7-3.8,20.3-0.2,25.4-8.3
			c1.8-2.9,3.3-7.8,3.5-11.2c-14.3,7.1-30.3,5.9-45.1,11.8c-0.2,16.4,9.8,32.9,3.5,48.5C45.9,141.1,51.3,140,54.7,137.3z"/>
	</g>
	<g>
		<g>
			<polygon class="st0" points="190,57.1 196,56.9 197.1,104.2 191.1,104.3 190,57.1 			"/>
		</g>
		<g>
			<polygon class="st0" points="163.4,107.1 168.2,111.8 229.4,105.6 232.9,100 			"/>
		</g>
		<g>
			<path class="st0" d="M136.8,32.5c0,0-5.6,8.2-8.2,8.2c-2.6,0,7.1,1.5,23.4,23.4L136.8,32.5z"/>
		</g>
		<g>
			<path class="st0" d="M153,84.2c-4.2-3-15.7-9.7-21.3-13.5l0,0c-1.9-1.5-3-1.7-3.4-3.4l0,0c0-0.4,0.2-0.8,0.4-0.9l0,0
				c1-0.8,6.3-6.3,6.3-6.4l0,0l0.7-0.7l20.8,18.4l-2.3,7.3L153,84.2L153,84.2z M130.9,67.4c0.5,0.4,1.2,0.9,2.1,1.6l0,0
				c1.8,1.2,4.3,2.8,6.9,4.5l0,0c4.7,2.9,10,6.1,13.2,8.2l0,0l1.1-3.4l-18.3-16.2C134.7,63.4,132.2,66,130.9,67.4L130.9,67.4
				C130.8,67.4,130.8,67.4,130.9,67.4L130.9,67.4z M135.1,61.5l0.7-0.8L135.1,61.5L135.1,61.5z"/>
		</g>
		<path class="st1" d="M159.6,89.3l-8.7,6c0,0-30.2,14.6-17.9,32.9c0,0,11.5,6.3,11.5-6.3C144.5,109.2,141,109.4,159.6,89.3z"/>
		<path class="st1" d="M164.4,50.6l0.4,5.9c0,0-1.2,5.6-1.2,6.7c0,1.1,5.1,1.1,23.1-1.4c18-2.5,35.2-3.4,36.4-2.5
			c1.2,0.8-0.8-5.6-0.8-5.6s2-10.9,0-9.5C220.4,45.6,169.5,50.6,164.4,50.6z"/>
	</g>
</g>
</svg>
