<?xml version="1.0" encoding="utf-8"?>
<!-- Generator: Adobe Illustrator 22.0.1, SVG Export Plug-In . SVG Version: 6.00 Build 0)  -->
<svg version="1.1" id="圖層_1" xmlns="http://www.w3.org/2000/svg" xmlns:xlink="http://www.w3.org/1999/xlink" x="0px" y="0px"
	 viewBox="0 0 198.1 263.3" style="enable-background:new 0 0 198.1 263.3;" xml:space="preserve">
<style type="text/css">
	.st0{fill:#0D131A;}
	.st1{clip-path:url(#SVGID_2_);}
	.st2{fill:#76C4AA;}
	.st3{fill:#EB6D65;}
	.st4{fill:#EB6D65;stroke:#009FE8;stroke-width:0.2466;}
	.st5{fill:none;stroke:#009FE8;stroke-width:0.2466;}
	.st6{fill:none;stroke:#4E2D1A;stroke-width:0.2466;}
	.st7{fill:#4E2D1A;}
	.st8{fill:#EB6D65;stroke:#009FE8;stroke-width:0.1092;}
	.st9{fill:none;stroke:#009FE8;stroke-width:0.1092;}
	.st10{fill:none;stroke:#4E2D1A;stroke-width:0.1092;}
	.st11{fill:#EB6D65;stroke:#009FE8;stroke-width:0.1503;}
	.st12{fill:none;stroke:#009FE8;stroke-width:0.1503;}
	.st13{fill:none;stroke:#4E2D1A;stroke-width:0.1503;}
	.st14{fill:#EB6D65;stroke:#009FE8;stroke-width:0.2731;}
	.st15{fill:none;stroke:#009FE8;stroke-width:0.2731;}
	.st16{fill:none;stroke:#4E2D1A;stroke-width:0.2731;}
	.st17{fill:#EB6D65;stroke:#009FE8;stroke-width:0.2031;}
	.st18{fill:none;stroke:#009FE8;stroke-width:0.2031;}
	.st19{fill:none;stroke:#4E2D1A;stroke-width:0.2031;}
	.st20{fill:#EB6D65;stroke:#009FE8;stroke-width:0.4455;}
	.st21{fill:none;stroke:#009FE8;stroke-width:0.4455;}
	.st22{fill:none;stroke:#4E2D1A;stroke-width:0.4455;}
</style>
<g>
	<g>
		<path class="st0" d="M146.7,52c0,24.6-19.9,44.5-44.5,44.5S57.7,76.6,57.7,52s20-44.5,44.5-44.5C126.8,7.5,146.7,27.4,146.7,52z"
			/>
		<g>
			<g>
				<defs>
					<path id="SVGID_1_" d="M151.1,53.3c0,24.6-19.9,44.5-44.5,44.5c-24.5,0-44.5-19.9-44.5-44.5S82,8.8,106.6,8.8
						C131.2,8.9,151.1,28.8,151.1,53.3z"/>
				</defs>
				<clipPath id="SVGID_2_">
					<use xlink:href="#SVGID_1_"  style="overflow:visible;"/>
				</clipPath>
				<g class="st1">
					<path class="st2" d="M114.6,19.1c0,0,0.1,5.6-1.4,11.5c-1.5,6,0.3,7.6,2.6,7.2c2.5-0.4,2.2-5.4,1-8.3
						C115.5,26.6,114.6,20.2,114.6,19.1z"/>
					<path class="st2" d="M109.7,42.5c0,0,0.1,5.6-1.4,11.5c-1.5,6,0.3,7.6,2.6,7.2c2.5-0.4,2.2-5.4,1-8.3
						C110.6,50,109.7,43.6,109.7,42.5z"/>
					<path class="st2" d="M78.3,19.9c0,0,0.1,5.6-1.4,11.5c-1.5,6,0.3,7.6,2.6,7.2c2.5-0.4,2.2-5.4,1-8.3
						C79.2,27.4,78.3,21,78.3,19.9z"/>
					<path class="st2" d="M124.2,48.4c0,0,0.1,6.3-1.6,13.2c-1.7,6.8,0.3,8.6,2.9,8.3c2.8-0.4,2.5-6.1,1.2-9.5
						C125.3,57,124.2,49.6,124.2,48.4z"/>
					<path class="st2" d="M126.5,28.5c0,0,0.1,4.4-1.1,9.2s0.2,6.1,2.1,5.8c2-0.3,1.8-4.3,0.8-6.7C127.3,34.5,126.5,29.3,126.5,28.5
						z"/>
					<path class="st2" d="M100.1,32.9c0,0,0.1,4.4-1.1,9.2s0.2,6.1,2.1,5.8c2-0.3,1.8-4.3,0.8-6.7C100.9,38.9,100.1,33.8,100.1,32.9
						z"/>
					<path class="st2" d="M71.6,44.1c0,0,0.1,4.4-1.1,9.2s0.2,6.1,2.1,5.8c2-0.3,1.8-4.3,0.8-6.7C72.4,50.2,71.6,45,71.6,44.1z"/>
					<path class="st2" d="M103.4,5.3c0,0,0.1,4.4-1.1,9.2s0.2,6.1,2.1,5.8c2-0.3,1.8-4.3,0.8-6.7C104.2,11.4,103.4,6.2,103.4,5.3z"
						/>
					<path class="st2" d="M92.2,16.5c0,0,0.1,4.4-1.1,9.2s0.2,6.1,2.1,5.8c2-0.3,1.8-4.3,0.8-6.7C93,22.5,92.2,17.4,92.2,16.5z"/>
					<path class="st2" d="M129.8,8.6c0,0,0.1,4.4-1.1,9.2c-1.2,4.8,0.2,6.1,2.1,5.8c2-0.3,1.8-4.3,0.8-6.7
						C130.6,14.6,129.8,9.5,129.8,8.6z"/>
					<path class="st2" d="M138,31.3c0,0,0.1,4.5-1.1,9.3c-1.2,4.8,0.2,6.1,2.1,5.8c2-0.3,1.8-4.3,0.8-6.7
						C138.8,37.3,138,32.2,138,31.3z"/>
					<path class="st2" d="M137.4,56.1c0,0,0.1,3-0.8,6.3c-0.8,3.3,0.1,4.1,1.4,3.9c1.4-0.2,1.2-2.9,0.6-4.5
						C137.9,60.2,137.4,56.7,137.4,56.1z"/>
					<path class="st2" d="M145.6,45.4c0,0,0.1,3-0.8,6.3c-0.8,3.3,0.1,4.1,1.4,3.9c1.3-0.2,1.2-2.9,0.6-4.5
						C146.1,49.5,145.6,46,145.6,45.4z"/>
					<path class="st2" d="M86,40.8c0,0,0.1,3-0.8,6.3c-0.8,3.3,0.1,4.1,1.4,3.9c1.3-0.2,1.2-2.9,0.6-4.5S86,41.4,86,40.8z"/>
					<path class="st2" d="M80.2,61.7c0,0,0.1,3-0.8,6.3c-0.8,3.3,0.2,4.1,1.4,3.9c1.3-0.2,1.2-2.9,0.6-4.5
						C80.7,65.8,80.2,62.3,80.2,61.7z"/>
					<path class="st2" d="M69.7,67.5c0,0,0.1,3-0.8,6.3c-0.8,3.3,0.1,4.1,1.4,3.9s1.2-2.9,0.6-4.5C70.2,71.6,69.7,68.1,69.7,67.5z"
						/>
					<path class="st2" d="M137.1,76.3c0,0,0.1,3-0.8,6.3c-0.8,3.3,0.1,4.1,1.4,3.9c1.3-0.2,1.2-2.9,0.6-4.5
						C137.6,80.4,137.1,76.9,137.1,76.3z"/>
					<path class="st2" d="M121.9,75.9c0,0,0.1,3.8-1,7.9c-1,4.1,0.2,5.2,1.8,5c1.7-0.2,1.5-3.7,0.7-5.7
						C122.6,81.1,121.9,76.7,121.9,75.9z"/>
					<path class="st2" d="M106.4,66.9c0,0,0.1,5.5-1.4,11.4s0.3,7.5,2.5,7.2c2.5-0.4,2.2-5.3,1-8.2C107.4,74.3,106.4,68,106.4,66.9z
						"/>
					<path class="st2" d="M89.3,77c0,0,0.1,5.5-1.4,11.4s0.3,7.5,2.5,7.2c2.5-0.4,2.2-5.3,1-8.2C90.3,84.5,89.3,78.1,89.3,77z"/>
					<path class="st2" d="M94.5,54.3c0,0,0.1,5.5-1.4,11.4s0.3,7.5,2.5,7.2c2.5-0.4,2.2-5.3,1-8.2C95.4,61.7,94.5,55.4,94.5,54.3z"
						/>
				</g>
			</g>
		</g>
	</g>
	<g>
		<g>
			<polygon class="st3" points="89.5,166.6 95.6,166.4 149.1,105 137.6,99.7 86.2,159.3 			"/>
			<polygon class="st4" points="137.7,99.5 145.4,100 149.1,104.9 141.5,104.7 			"/>
			<line class="st5" x1="141.5" y1="104.7" x2="89.5" y2="166.6"/>
			<polygon class="st6" points="137.8,99.7 160.1,85 149.1,104.9 			"/>
			<polygon class="st7" points="159.9,85.1 159.9,85.1 153.6,89.3 156.6,91.5 			"/>
		</g>
		<g>
			<polygon class="st3" points="150.3,111.3 152.4,112.9 187.9,106.4 185.4,101.4 151.1,107.8 			"/>
			<polygon class="st8" points="185.5,101.4 188,103.7 187.9,106.4 185.3,104.2 			"/>
			<line class="st9" x1="185.3" y1="104.2" x2="150.3" y2="111.3"/>
			<polygon class="st10" points="185.4,101.5 197.2,102.5 187.9,106.4 			"/>
			<polygon class="st7" points="197.1,102.5 197.1,102.5 193.8,102.2 194.2,103.8 			"/>
		</g>
		<g>
			<polygon class="st3" points="33.2,144.5 36.2,142.4 41.9,93 34.3,94.3 29,142 			"/>
			<polygon class="st11" points="34.2,94.2 38.3,91.8 41.9,93 38,95.5 			"/>
			<line class="st12" x1="38" y1="95.5" x2="33.2" y2="144.5"/>
			<polygon class="st13" points="34.4,94.3 40.5,79.2 41.9,93 			"/>
			<polygon class="st7" points="40.4,79.4 40.4,79.4 38.7,83.6 41,83.7 			"/>
		</g>
		<g>
			<polygon class="st3" points="85.2,203.5 85.8,196.9 24.8,130.5 17.5,142.3 76.8,206.3 			"/>
			<polygon class="st14" points="17.3,142.3 18.8,133.9 24.7,130.4 23.6,138.7 			"/>
			<line class="st15" x1="23.6" y1="138.7" x2="85.2" y2="203.5"/>
			<polygon class="st16" points="17.5,142.2 4.1,115.8 24.7,130.4 			"/>
			<polygon class="st7" points="4.3,116.1 4.3,116.1 8.1,123.4 10.8,120.5 			"/>
		</g>
		<g>
			<polygon class="st3" points="83,83 84.9,78.4 57.8,17.2 49.8,23.8 76.4,83 			"/>
			<polygon class="st17" points="49.7,23.7 52.8,18.1 57.7,17.1 54.9,22.7 			"/>
			<line class="st18" x1="54.9" y1="22.7" x2="83" y2="83"/>
			<polygon class="st19" points="49.9,23.7 46.7,2 57.7,17.1 			"/>
			<polygon class="st7" points="46.7,2.2 46.7,2.2 47.6,8.3 50.3,6.8 			"/>
		</g>
		<g>
			<polygon class="st3" points="46.4,28.5 45.4,26 12.8,13.1 12.3,18.7 43.8,30.9 			"/>
			<polygon class="st8" points="12.2,18.7 11.3,15.4 12.8,13.1 13.9,16.3 			"/>
			<line class="st9" x1="13.9" y1="16.3" x2="46.4" y2="28.5"/>
			<polygon class="st10" points="12.3,18.6 2.9,11.5 12.8,13.1 			"/>
			<polygon class="st7" points="3,11.6 3,11.6 5.6,13.6 6.1,12 			"/>
		</g>
		<g>
			<polygon class="st3" points="90.4,260.6 98.2,253 94.3,106.1 72.6,112.8 77.1,255.1 			"/>
			<polygon class="st20" points="72.4,112.7 83.3,103.8 94.1,105.9 83.8,115 			"/>
			<line class="st21" x1="83.8" y1="115" x2="90.4" y2="260.6"/>
			<polygon class="st22" points="72.8,112.8 84.4,65.9 94.1,105.9 			"/>
			<polygon class="st7" points="84.3,66.4 84.3,66.4 81.1,79.5 87.7,78.8 			"/>
		</g>
	</g>
</g>
</svg>
