<?xml version="1.0" encoding="utf-8"?>
<!-- Generator: Adobe Illustrator 22.0.1, SVG Export Plug-In . SVG Version: 6.00 Build 0)  -->
<svg version="1.1" id="圖層_1" xmlns="http://www.w3.org/2000/svg" xmlns:xlink="http://www.w3.org/1999/xlink" x="0px" y="0px"
	 viewBox="0 0 348 163" style="enable-background:new 0 0 348 163;" xml:space="preserve">
<style type="text/css">
	.st0{fill:none;stroke:#000000;stroke-width:0.9574;stroke-miterlimit:10;}
	.st1{fill:none;stroke:#000000;stroke-miterlimit:10;}
</style>
<g>
	<g>
		<path d="M143.6,36.1h8.5V39h-2.8v12.5h-3V39h-2.7V36.1z"/>
		<path d="M162.2,40.2h2.9v11.4h-2.9v-1.2c-0.6,0.5-1.1,0.9-1.7,1.1c-0.6,0.2-1.2,0.4-1.8,0.4c-1.5,0-2.7-0.6-3.8-1.7
			c-1.1-1.1-1.6-2.6-1.6-4.3c0-1.8,0.5-3.2,1.6-4.3c1-1.1,2.3-1.7,3.8-1.7c0.7,0,1.3,0.1,1.9,0.4s1.2,0.6,1.7,1.2V40.2z M159.2,42.5
			c-0.9,0-1.6,0.3-2.2,0.9c-0.6,0.6-0.9,1.4-0.9,2.4c0,1,0.3,1.8,0.9,2.4s1.3,1,2.2,1c0.9,0,1.6-0.3,2.2-0.9s0.9-1.4,0.9-2.5
			c0-1-0.3-1.8-0.9-2.4S160.1,42.5,159.2,42.5z"/>
		<path d="M169.1,35.5c0.5,0,0.9,0.2,1.3,0.5c0.4,0.4,0.5,0.8,0.5,1.3c0,0.5-0.2,0.9-0.5,1.3c-0.4,0.4-0.8,0.5-1.3,0.5
			c-0.5,0-0.9-0.2-1.3-0.5s-0.5-0.8-0.5-1.3c0-0.5,0.2-0.9,0.5-1.3C168.1,35.6,168.6,35.5,169.1,35.5z M167.6,40.2h2.9v11.4h-2.9
			V40.2z"/>
		<path d="M175.9,40.2v1.3c0.5-0.5,1.1-0.9,1.7-1.2s1.2-0.4,1.9-0.4c1.5,0,2.8,0.6,3.8,1.7c1,1.1,1.6,2.6,1.6,4.3
			c0,1.7-0.5,3.1-1.6,4.3c-1.1,1.1-2.3,1.7-3.8,1.7c-0.7,0-1.3-0.1-1.8-0.4s-1.1-0.6-1.7-1.1v5.4h-2.8V40.2H175.9z M178.9,42.5
			c-0.9,0-1.6,0.3-2.2,0.9c-0.6,0.6-0.9,1.4-0.9,2.4c0,1,0.3,1.8,0.9,2.5c0.6,0.6,1.3,0.9,2.2,0.9c0.9,0,1.6-0.3,2.2-1
			s0.9-1.4,0.9-2.4c0-1-0.3-1.8-0.9-2.4C180.6,42.8,179.8,42.5,178.9,42.5z"/>
		<path d="M198.6,46.7h-9.2c0.1,0.8,0.5,1.5,1.1,1.9c0.6,0.5,1.3,0.7,2.2,0.7c1.1,0,2-0.4,2.8-1.1l2.4,1.1c-0.6,0.9-1.3,1.5-2.2,1.9
			c-0.8,0.4-1.8,0.6-3,0.6c-1.8,0-3.2-0.6-4.4-1.7c-1.1-1.1-1.7-2.5-1.7-4.2c0-1.7,0.6-3.2,1.7-4.3c1.1-1.1,2.5-1.7,4.2-1.7
			c1.8,0,3.3,0.6,4.4,1.7c1.1,1.1,1.7,2.7,1.7,4.5L198.6,46.7z M195.8,44.4c-0.2-0.6-0.6-1.2-1.1-1.5c-0.6-0.4-1.2-0.6-1.9-0.6
			c-0.8,0-1.5,0.2-2.1,0.7c-0.4,0.3-0.7,0.8-1,1.5H195.8z"/>
		<path d="M202.1,35.5c0.5,0,0.9,0.2,1.3,0.5c0.4,0.4,0.5,0.8,0.5,1.3c0,0.5-0.2,0.9-0.5,1.3c-0.4,0.4-0.8,0.5-1.3,0.5
			c-0.5,0-0.9-0.2-1.3-0.5s-0.5-0.8-0.5-1.3c0-0.5,0.2-0.9,0.5-1.3C201.1,35.6,201.6,35.5,202.1,35.5z M200.6,40.2h2.9v11.4h-2.9
			V40.2z"/>
		<path d="M164.4,59.8c2.2,0,4.1,0.8,5.6,2.4c1.6,1.6,2.4,3.5,2.4,5.8c0,2.2-0.8,4.1-2.3,5.7c-1.5,1.6-3.4,2.3-5.6,2.3
			c-2.3,0-4.2-0.8-5.8-2.4s-2.3-3.5-2.3-5.7c0-1.5,0.4-2.8,1.1-4.1c0.7-1.2,1.7-2.2,2.9-2.9C161.6,60.1,162.9,59.8,164.4,59.8z
			 M164.3,62.6c-1.4,0-2.6,0.5-3.6,1.5c-1,1-1.5,2.3-1.5,3.8c0,1.7,0.6,3,1.8,4c1,0.8,2,1.2,3.3,1.2c1.4,0,2.6-0.5,3.6-1.5
			c1-1,1.5-2.2,1.5-3.7c0-1.5-0.5-2.7-1.5-3.7S165.8,62.6,164.3,62.6z"/>
		<path d="M174.5,59.8h2.9v15.8h-2.9V59.8z"/>
		<path d="M188.3,59.8h2.9v15.8h-2.9v-1.2c-0.6,0.5-1.1,0.9-1.7,1.1c-0.6,0.2-1.2,0.4-1.8,0.4c-1.5,0-2.7-0.6-3.8-1.7
			c-1.1-1.1-1.6-2.6-1.6-4.3c0-1.8,0.5-3.2,1.6-4.3c1-1.1,2.3-1.7,3.8-1.7c0.7,0,1.3,0.1,1.9,0.4s1.2,0.6,1.7,1.2V59.8z M185.3,66.5
			c-0.9,0-1.6,0.3-2.2,0.9c-0.6,0.6-0.9,1.4-0.9,2.4c0,1,0.3,1.8,0.9,2.4s1.3,1,2.2,1c0.9,0,1.6-0.3,2.2-0.9s0.9-1.4,0.9-2.5
			c0-1-0.3-1.8-0.9-2.4S186.2,66.5,185.3,66.5z"/>
		<path d="M143.6,84.1h3V90h5.1v-5.8h3v15.4h-3v-6.8h-5.1v6.8h-3V84.1z"/>
		<path d="M163.2,87.9c1.1,0,2.1,0.3,3,0.8c0.9,0.5,1.7,1.3,2.2,2.2s0.8,1.9,0.8,3c0,1.1-0.3,2.1-0.8,3c-0.5,0.9-1.3,1.7-2.2,2.2
			c-0.9,0.5-1.9,0.8-3,0.8c-1.6,0-3-0.6-4.2-1.7c-1.2-1.2-1.7-2.6-1.7-4.2c0-1.8,0.7-3.3,2-4.4C160.4,88.4,161.7,87.9,163.2,87.9z
			 M163.3,90.6c-0.9,0-1.6,0.3-2.2,0.9c-0.6,0.6-0.9,1.4-0.9,2.4c0,1,0.3,1.8,0.9,2.4s1.3,0.9,2.2,0.9s1.6-0.3,2.2-0.9
			c0.6-0.6,0.9-1.4,0.9-2.4c0-1-0.3-1.8-0.9-2.4C164.9,90.9,164.2,90.6,163.3,90.6z"/>
		<path d="M171.6,88.2h2.9v5.5c0,1.1,0.1,1.8,0.2,2.2c0.1,0.4,0.4,0.7,0.7,1s0.7,0.3,1.2,0.3s0.9-0.1,1.2-0.3c0.3-0.2,0.6-0.6,0.7-1
			c0.1-0.3,0.2-1,0.2-2.1v-5.6h2.9V93c0,2-0.2,3.3-0.5,4.1c-0.4,0.9-0.9,1.6-1.7,2.1c-0.7,0.5-1.7,0.7-2.8,0.7c-1.2,0-2.3-0.3-3-0.8
			c-0.8-0.6-1.3-1.3-1.6-2.3c-0.2-0.7-0.3-1.9-0.3-3.8V88.2z"/>
		<path d="M191.4,89.8l-1.8,1.8c-0.7-0.7-1.4-1.1-2-1.1c-0.3,0-0.6,0.1-0.8,0.2c-0.2,0.1-0.3,0.3-0.3,0.5c0,0.2,0.1,0.3,0.2,0.4
			s0.4,0.3,0.9,0.5l1,0.5c1.1,0.5,1.9,1.1,2.3,1.7c0.4,0.6,0.6,1.2,0.6,2c0,1-0.4,1.9-1.1,2.5c-0.7,0.7-1.7,1-3,1
			c-1.7,0-3-0.6-4-1.9l1.8-1.9c0.3,0.4,0.7,0.7,1.2,0.9c0.5,0.2,0.8,0.4,1.2,0.4c0.4,0,0.7-0.1,0.9-0.3c0.2-0.2,0.3-0.4,0.3-0.6
			c0-0.4-0.4-0.9-1.2-1.3l-1-0.5c-1.8-0.9-2.8-2.1-2.8-3.5c0-0.9,0.3-1.7,1-2.3s1.6-1,2.7-1c0.7,0,1.4,0.2,2.1,0.5
			C190.4,88.7,191,89.1,191.4,89.8z"/>
		<path d="M205.3,94.7h-9.2c0.1,0.8,0.5,1.5,1.1,1.9c0.6,0.5,1.3,0.7,2.2,0.7c1.1,0,2-0.4,2.8-1.1l2.4,1.1c-0.6,0.9-1.3,1.5-2.2,1.9
			c-0.8,0.4-1.8,0.6-3,0.6c-1.8,0-3.2-0.6-4.4-1.7c-1.1-1.1-1.7-2.5-1.7-4.2c0-1.7,0.6-3.2,1.7-4.3c1.1-1.1,2.5-1.7,4.2-1.7
			c1.8,0,3.3,0.6,4.4,1.7c1.1,1.1,1.7,2.7,1.7,4.5L205.3,94.7z M202.4,92.4c-0.2-0.6-0.6-1.2-1.1-1.5c-0.6-0.4-1.2-0.6-1.9-0.6
			c-0.8,0-1.5,0.2-2.1,0.7c-0.4,0.3-0.7,0.8-1,1.5H202.4z"/>
		<path d="M149.8,108.1h2.9v15.4h-2.9V108.1z"/>
		<path d="M162.7,113.8l-1.8,1.8c-0.7-0.7-1.4-1.1-2-1.1c-0.3,0-0.6,0.1-0.8,0.2s-0.3,0.3-0.3,0.5c0,0.2,0.1,0.3,0.2,0.4
			s0.4,0.3,0.9,0.5l1,0.5c1.1,0.5,1.9,1.1,2.3,1.7c0.4,0.6,0.6,1.2,0.6,2c0,1-0.4,1.9-1.1,2.5c-0.7,0.7-1.7,1-3,1
			c-1.7,0-3-0.6-4-1.9l1.8-1.9c0.3,0.4,0.7,0.7,1.2,0.9c0.5,0.2,0.8,0.4,1.2,0.4c0.4,0,0.7-0.1,0.9-0.3s0.3-0.4,0.3-0.6
			c0-0.4-0.4-0.9-1.2-1.3l-1-0.5c-1.8-0.9-2.8-2.1-2.8-3.5c0-0.9,0.3-1.7,1-2.3c0.7-0.6,1.6-1,2.7-1c0.7,0,1.4,0.2,2.1,0.5
			C161.7,112.7,162.2,113.1,162.7,113.8z"/>
		<path d="M172.1,113.8l-1.8,1.8c-0.7-0.7-1.4-1.1-2-1.1c-0.3,0-0.6,0.1-0.8,0.2c-0.2,0.1-0.3,0.3-0.3,0.5c0,0.2,0.1,0.3,0.2,0.4
			s0.4,0.3,0.9,0.5l1,0.5c1.1,0.5,1.9,1.1,2.3,1.7c0.4,0.6,0.6,1.2,0.6,2c0,1-0.4,1.9-1.1,2.5c-0.7,0.7-1.7,1-3,1
			c-1.7,0-3-0.6-4-1.9l1.8-1.9c0.3,0.4,0.7,0.7,1.2,0.9c0.5,0.2,0.8,0.4,1.2,0.4c0.4,0,0.7-0.1,0.9-0.3c0.2-0.2,0.3-0.4,0.3-0.6
			c0-0.4-0.4-0.9-1.2-1.3l-1-0.5c-1.8-0.9-2.8-2.1-2.8-3.5c0-0.9,0.3-1.7,1-2.3s1.6-1,2.7-1c0.7,0,1.4,0.2,2.1,0.5
			C171.1,112.7,171.7,113.1,172.1,113.8z"/>
		<path d="M174.6,112.2h2.9v5.5c0,1.1,0.1,1.8,0.2,2.2s0.4,0.7,0.7,1s0.7,0.3,1.2,0.3s0.9-0.1,1.2-0.3s0.6-0.6,0.7-1
			c0.1-0.3,0.2-1,0.2-2.1v-5.6h2.9v4.8c0,2-0.2,3.3-0.5,4.1c-0.4,0.9-0.9,1.6-1.7,2.1c-0.7,0.5-1.7,0.7-2.8,0.7
			c-1.2,0-2.3-0.3-3-0.8c-0.8-0.6-1.3-1.3-1.6-2.3c-0.2-0.7-0.3-1.9-0.3-3.8V112.2z"/>
		<path d="M198.9,118.7h-9.2c0.1,0.8,0.5,1.5,1.1,1.9c0.6,0.5,1.3,0.7,2.2,0.7c1.1,0,2-0.4,2.8-1.1l2.4,1.1
			c-0.6,0.9-1.3,1.5-2.2,1.9c-0.8,0.4-1.8,0.6-3,0.6c-1.8,0-3.2-0.6-4.4-1.7c-1.1-1.1-1.7-2.5-1.7-4.2c0-1.7,0.6-3.2,1.7-4.3
			c1.1-1.1,2.5-1.7,4.2-1.7c1.8,0,3.3,0.6,4.4,1.7c1.1,1.1,1.7,2.7,1.7,4.5L198.9,118.7z M196,116.4c-0.2-0.6-0.6-1.2-1.1-1.5
			c-0.6-0.4-1.2-0.6-1.9-0.6c-0.8,0-1.5,0.2-2.1,0.7c-0.4,0.3-0.7,0.8-1,1.5H196z"/>
	</g>
	<path class="st0" d="M1,66.9c120-89.5,243.4-86.3,346,0"/>
	<path class="st1" d="M1,97.9c120,87,243.4,83.9,346,0"/>
</g>
</svg>
