<?xml version="1.0" encoding="utf-8"?>
<!-- Generator: Adobe Illustrator 22.0.1, SVG Export Plug-In . SVG Version: 6.00 Build 0)  -->
<svg version="1.1" id="圖層_1" xmlns="http://www.w3.org/2000/svg" xmlns:xlink="http://www.w3.org/1999/xlink" x="0px" y="0px"
	 viewBox="0 0 1432 583" style="enable-background:new 0 0 1432 583;" xml:space="preserve">
<style type="text/css">
	.st0{fill:#FFFFFF;}
	.st1{clip-path:url(#SVGID_2_);}
	.st2{fill:none;stroke:#5EFFFF;stroke-width:0.7406;stroke-miterlimit:10;}
</style>
<rect x="0" width="1432" height="583"/>
<g>
	<g>
		<g>
			<g>
				<rect x="823.9" y="267.6" class="st0" width="31.6" height="7"/>
			</g>
			<g>
				<rect x="848.6" y="205" class="st0" width="7" height="106.2"/>
			</g>
			<g>
				<rect x="812.1" y="309.8" class="st0" width="80" height="7"/>
			</g>
			<g>
				<rect x="864.5" y="267.6" class="st0" width="22.6" height="7"/>
			</g>
			<rect x="864.5" y="231.8" class="st0" width="24.8" height="7"/>
			<g>
				<path class="st0" d="M802.7,268.6l0.4-2c15-20.9,14.6-56.7,14.6-56.9h10.1C827.8,210.9,827.7,248.7,802.7,268.6z"/>
			</g>
			<path class="st0" d="M834.3,231.8c-0.6,2.3-1.3,4.6-2.1,7h23.4v-7H834.3z"/>
		</g>
		<g>
			<g>
				<rect x="907.2" y="215.6" class="st0" width="34.9" height="7"/>
			</g>
			<g>
				<rect x="949.5" y="221.5" class="st0" width="26" height="7.2"/>
			</g>
			<g>
				<rect x="953.4" y="251.5" class="st0" width="22.9" height="7.2"/>
			</g>
			<g>
				<rect x="985.3" y="221.5" class="st0" width="14.6" height="7.2"/>
			</g>
			<g>
				<rect x="985.3" y="251.5" class="st0" width="10.3" height="7.2"/>
			</g>
			<g>
				<rect x="913.3" y="235.4" class="st0" width="22.9" height="7"/>
			</g>
			<g>
				<rect x="913.3" y="255.2" class="st0" width="22.9" height="7"/>
			</g>
			<g>
				<rect x="969.4" y="205.6" class="st0" width="7" height="49.5"/>
			</g>
			<g>
				<path class="st0" d="M956.7,276.8l-1,0.6c-1.2,9.4-8.8,15.7-8.8,15.7l5.9,4.9C953,297.8,958.9,291.3,956.7,276.8z"/>
			</g>
			<g>
				<path class="st0" d="M926.7,217.7c-4-8.8-10.6-12.9-10.7-12.9l7.2-2.9C928.6,205.1,926.7,217.7,926.7,217.7z"/>
			</g>
			<g>
				<path class="st0" d="M976.2,268.6l-0.3,1.2c5.9,8,5.6,17.5,5.6,17.6l7.3-1.8C988.9,285.2,988.5,277.9,976.2,268.6z"/>
			</g>
			<g>
				<path class="st0" d="M988.5,272.5l-0.1,1.3c7.4,6.8,9.3,16.2,9.3,16.2l6.5-3C1004.2,286.6,1002.4,279.5,988.5,272.5z"/>
			</g>
			<g>
				<g>
					<polyline class="st0" points="914.5,317.2 907.5,317.2 907.5,275.8 914.5,275.8 					"/>
				</g>
				<g>
					<rect x="923.5" y="303.8" class="st0" width="15.5" height="7"/>
				</g>
				<polygon class="st0" points="923.5,275.8 923.5,282.8 934.9,282.8 934.9,317.2 941.9,317.2 941.9,275.8 				"/>
			</g>
			<path class="st0" d="M976,298.2c-6.6-8.8-6.4-24.6-6.2-27.6h-7c-0.2,4.7-0.1,21.8,7.8,32.3c6.1,8.2,15.3,13,27.4,14.3l0.7-7.5
				C988.5,308.5,980.9,304.7,976,298.2z"/>
		</g>
		<g>
			<g>
				<path class="st0" d="M692.9,312.2l0-1.2c11.1-11.9,12.4-27.6,12.4-27.7h8.2C713.4,283.9,712.3,299.7,692.9,312.2z"/>
			</g>
			<g>
				<path class="st0" d="M723.8,217.7c-4.1-8.8-10.6-12.9-10.7-12.9l7.2-2.9C725.7,205.1,723.8,217.7,723.8,217.7z"/>
			</g>
			<g>
				<rect x="698.3" y="215.6" class="st0" width="47" height="6.7"/>
			</g>
			<g>
				<rect x="756.4" y="209.7" class="st0" width="35.4" height="7"/>
			</g>
			<g>
				<rect x="771.6" y="232.5" class="st0" width="20.1" height="7"/>
			</g>
			<g>
				<rect x="700.9" y="249.2" class="st0" width="41.8" height="6.7"/>
			</g>
			<g>
				<rect x="718.3" y="251.2" class="st0" width="7" height="65.7"/>
			</g>
			<g>
				<rect x="778.6" y="236" class="st0" width="7" height="80.9"/>
			</g>
			<g>
				<path class="st0" d="M744.5,316.1l-0.2-1c11.7-9.6,12.1-58,12.1-58.4v-43.5h7v43.4C763.4,267.3,763.8,302.1,744.5,316.1z"/>
			</g>
			<polygon class="st0" points="704.3,228.9 709,242.5 715.9,241.7 711.4,228.9 			"/>
			<polygon class="st0" points="732.3,228.9 727.8,241.7 734.6,242.5 739.4,228.9 			"/>
			<rect x="698.3" y="267.7" class="st0" width="26" height="6.7"/>
			<rect x="734.3" y="267.7" class="st0" width="11.4" height="6.7"/>
			<g>
				<path class="st0" d="M734.3,284v9.8c3.4,1,7.2,6.1,8.6,9.4l0.7-0.3C742.8,295.9,741.1,288.5,734.3,284z"/>
			</g>
		</g>
		<g>
			<g>
				<rect x="503.6" y="223.5" class="st0" width="27.3" height="7"/>
			</g>
			<g>
				<rect x="541.9" y="223.5" class="st0" width="10.5" height="7"/>
			</g>
			<g>
				<rect x="493.5" y="249.7" class="st0" width="39.5" height="7"/>
			</g>
			<g>
				<rect x="541.9" y="283.8" class="st0" width="25.3" height="7"/>
			</g>
			<g>
				<rect x="526" y="204.8" class="st0" width="7" height="48.5"/>
			</g>
			<path class="st0" d="M554.1,204.8c-5.1,20.3-22.6,61-60.3,98.3l-0.5,1.3c54.1-38,68.3-91.1,70.8-99.6H554.1z"/>
			<path class="st0" d="M564,309.8c-13.8,0.2-23.7,0.3-28-4c-2-2-3-5.2-3-9.9v-15.4c-2.2,2.6-4.5,5.2-7,7.8v7.6
				c0,6.7,1.7,11.6,5,14.9c5.4,5.3,14.2,6.1,26.1,6.1c2.2,0,4.5,0,6.9,0c2.7,0,8.4-0.1,11.3-0.1v-7
				C572.4,309.7,566.7,309.7,564,309.8z"/>
			<path class="st0" d="M553.6,249.7c-1.2,2.3-2.5,4.6-4,7h29.4v-7H553.6z"/>
		</g>
		<g>
			<g>
				<path class="st0" d="M593.4,316.1l-0.2-1c11.7-9.6,12.1-58,12.1-58.4V205h7v51.6C612.3,267.3,612.7,302.1,593.4,316.1z"/>
			</g>
			<g>
				<rect x="620.7" y="292.3" class="st0" width="24.7" height="7"/>
			</g>
			<g>
				<rect x="613.8" y="310" class="st0" width="35.1" height="7"/>
			</g>
			<g>
				<rect x="657.8" y="292.3" class="st0" width="12.1" height="7"/>
			</g>
			<g>
				<rect x="657.8" y="310" class="st0" width="19.9" height="7"/>
			</g>
			<g>
				<rect x="617.8" y="271.5" class="st0" width="55.2" height="7"/>
			</g>
			<g>
				<g>
					
						<rect x="621.8" y="260.3" transform="matrix(0.3466 -0.938 0.938 0.3466 166.5863 766.8222)" class="st0" width="23.8" height="7"/>
				</g>
				<g>
					<polygon class="st0" points="642.8,249.2 620.1,249.2 620.1,256.2 640.2,256.2 					"/>
					<polygon class="st0" points="651.9,249.2 649.3,256.2 670.1,256.2 670.1,249.2 					"/>
				</g>
			</g>
			<g>
				<rect x="641.9" y="275.1" class="st0" width="7" height="37.4"/>
			</g>
			<g>
				<polyline class="st0" points="670.1,205 670.1,235.9 677.1,235.9 677.1,205 				"/>
			</g>
			<g>
				<path class="st0" d="M660.7,228.9h-55.3c-0.1,2.1,0.2,4.5,0,7h55.3"/>
			</g>
			<g>
				<rect x="621.4" y="205" class="st0" width="55.6" height="7"/>
			</g>
		</g>
		<g>
			<g>
				<g>
					<polygon class="st0" points="468.7,226.9 429,226.9 429,222.7 466.3,222.7 					"/>
				</g>
				<g>
					<rect x="437.6" y="234.4" class="st0" width="4.2" height="24.8"/>
					<polygon class="st0" points="448.1,234.4 448.1,238.5 464.5,238.5 464.5,259.2 468.7,259.2 468.7,234.4 					"/>
				</g>
				<g>
					<rect x="448.1" y="249.8" class="st0" width="18.7" height="4.2"/>
				</g>
				<polygon class="st0" points="444,217.8 450.5,205.4 446.7,203.4 439.4,217.8 				"/>
				<polygon class="st0" points="481.4,229.4 474.7,217.8 469.9,217.8 476.6,229.4 				"/>
			</g>
			<g>
				<g>
					<rect x="444.9" y="268.7" class="st0" width="4.2" height="49"/>
				</g>
				<g>
					<path class="st0" d="M479,317.2h-9.2c-5,0-9-4-9-9v-39.5h4.2v39.5c0,2.6,2.2,4.8,4.8,4.8h9.2V317.2z"/>
				</g>
				<rect x="427.8" y="282.3" class="st0" width="10.9" height="4.2"/>
				<polygon class="st0" points="427.8,304.4 427.8,309 438.7,304.4 438.7,299.7 				"/>
				<polygon class="st0" points="470.8,280.8 470.8,285.4 482.1,280.4 482.1,275.8 				"/>
			</g>
		</g>
	</g>
	<g>
		<g>
			<path class="st0" d="M590,351.6h13.9l-0.3,2.2h-5.8l-2.8,21h-2.3l2.8-21h-5.7L590,351.6z"/>
			<path class="st0" d="M623.4,374.8h-2.2l0.3-2.6c-2,2-4.2,3-6.8,3c-2.3,0-4.2-0.8-5.7-2.3c-1.5-1.5-2.2-3.4-2.2-5.8
				c0-2.7,1-5.1,2.9-7c2-2,4.2-2.9,6.9-2.9c1.4,0,2.7,0.3,3.8,0.9c1.1,0.6,2,1.5,2.7,2.8l0.4-3.3h2.3L623.4,374.8z M615,373.2
				c1.4,0,2.7-0.3,3.9-1c1.2-0.7,2.1-1.6,2.8-2.9c0.7-1.3,1-2.6,1-4.1c0-1.8-0.6-3.2-1.7-4.3c-1.1-1.1-2.6-1.7-4.4-1.7
				c-2.1,0-3.9,0.8-5.4,2.3c-1.5,1.5-2.2,3.4-2.2,5.6c0,1.8,0.6,3.3,1.7,4.4C611.8,372.6,613.2,373.2,615,373.2z"/>
			<path class="st0" d="M633.6,357.6h2.1l-2.2,17.1h-2.2L633.6,357.6z M635.4,350.5c0.5,0,0.9,0.2,1.2,0.5c0.3,0.3,0.5,0.8,0.5,1.2
				c0,0.5-0.2,0.9-0.5,1.3c-0.3,0.3-0.8,0.5-1.2,0.5c-0.5,0-0.9-0.2-1.3-0.5c-0.3-0.3-0.5-0.8-0.5-1.3c0-0.5,0.2-0.9,0.5-1.2
				C634.5,350.7,634.9,350.5,635.4,350.5z"/>
			<path class="st0" d="M644.1,357.6h2.2l-0.3,2.6c2-2,4.2-3,6.8-3c2.3,0,4.3,0.7,5.7,2.3c1.5,1.5,2.2,3.4,2.2,5.8
				c0,2.7-1,5.1-2.9,7c-1.9,2-4.2,2.9-6.9,2.9c-1.4,0-2.7-0.3-3.8-0.9c-1.1-0.6-2-1.5-2.8-2.8l-1.3,9.5h-2.3L644.1,357.6z
				 M652.5,359.2c-1.4,0-2.7,0.3-3.9,1c-1.2,0.7-2.1,1.6-2.8,2.9c-0.7,1.3-1,2.6-1,4.1c0,1.8,0.6,3.2,1.7,4.3
				c1.1,1.1,2.6,1.7,4.4,1.7c2.1,0,3.9-0.8,5.4-2.3c1.5-1.5,2.2-3.4,2.2-5.6c0-1.8-0.6-3.3-1.7-4.4
				C655.8,359.7,654.3,359.2,652.5,359.2z"/>
			<path class="st0" d="M684.4,366.6h-15.3c0,2,0.5,3.6,1.6,4.8c1.1,1.2,2.5,1.8,4.4,1.8c1.2,0,2.3-0.2,3.4-0.7
				c1-0.5,1.9-1.2,2.6-2.1l1.6,1.3c-0.8,1.1-1.9,1.9-3.3,2.5c-1.3,0.6-2.8,1-4.3,1c-2.7,0-4.7-0.8-6.1-2.5c-1.3-1.7-2-3.5-2-5.6
				c0-1.7,0.5-3.3,1.4-4.9c0.9-1.6,2.1-2.8,3.6-3.7c1.5-0.9,3.2-1.3,4.9-1.3c2.2,0,4,0.7,5.5,2.2c1.4,1.5,2.2,3.4,2.2,5.7
				C684.5,365.5,684.5,366,684.4,366.6z M682.4,364.7c-0.1-1.6-0.6-2.9-1.7-3.9c-1-1-2.4-1.5-3.9-1.5c-1.7,0-3.2,0.5-4.5,1.4
				c-1.3,1-2.2,2.3-2.8,4H682.4z"/>
			<path class="st0" d="M692.8,357.6h2.1l-2.2,17.1h-2.2L692.8,357.6z M694.5,350.5c0.5,0,0.9,0.2,1.2,0.5c0.3,0.3,0.5,0.8,0.5,1.2
				c0,0.5-0.2,0.9-0.5,1.3c-0.3,0.3-0.8,0.5-1.2,0.5c-0.5,0-0.9-0.2-1.3-0.5c-0.3-0.3-0.5-0.8-0.5-1.3c0-0.5,0.2-0.9,0.5-1.2
				C693.6,350.7,694,350.5,694.5,350.5z"/>
			<path class="st0" d="M727.1,351c3.1,0,5.7,1,7.8,3.1c2.1,2,3.1,4.6,3.1,7.8c0,3.8-1.3,7-3.9,9.6c-2.6,2.6-5.9,3.9-9.8,3.9
				c-3.3,0-6-1-8-3c-2-2-3-4.6-3-7.8c0-2.5,0.6-4.8,1.8-6.9c1.2-2.1,2.9-3.7,5-4.9C722.2,351.6,724.5,351,727.1,351z M727.1,353.2
				c-2.2,0-4.2,0.5-5.9,1.4c-1.7,1-3.1,2.3-4.1,4.1c-1,1.8-1.5,3.7-1.5,5.7c0,1.7,0.4,3.2,1.1,4.6c0.7,1.4,1.8,2.4,3,3.1
				c1.3,0.7,2.8,1.1,4.6,1.1c2.1,0,4-0.5,5.8-1.5c1.8-1,3.2-2.4,4.2-4.2c1-1.8,1.5-3.7,1.5-5.8c0-2.7-1-4.9-2.9-6.5
				C731.3,353.8,729.3,353.2,727.1,353.2z"/>
			<path class="st0" d="M746.8,351h2.1l-3.2,23.8h-2.2L746.8,351z"/>
			<path class="st0" d="M770.7,374.8h-2.2l0.4-2.7c-2,2.1-4.3,3.1-6.9,3.1c-2.3,0-4.2-0.8-5.7-2.3c-1.5-1.5-2.2-3.4-2.2-5.8
				c0-2.7,1-5.1,2.9-7c1.9-2,4.2-2.9,6.9-2.9c1.4,0,2.7,0.3,3.7,0.9c1.1,0.6,2,1.5,2.8,2.8l1.3-9.9h2.3L770.7,374.8z M762.3,373.2
				c1.4,0,2.7-0.3,3.9-1c1.2-0.7,2.1-1.6,2.8-2.9c0.7-1.3,1-2.6,1-4.1c0-1.8-0.6-3.2-1.7-4.3c-1.1-1.1-2.6-1.7-4.4-1.7
				c-2.1,0-3.9,0.8-5.4,2.3c-1.5,1.5-2.2,3.4-2.2,5.6c0,1.8,0.6,3.3,1.7,4.4C759,372.6,760.5,373.2,762.3,373.2z"/>
			<path class="st0" d="M794.4,351.6h2.3l-1.3,9.4h11.9l1.3-9.4h2.3l-3.1,23.2h-2.3l1.6-11.6h-11.9l-1.5,11.6h-2.3L794.4,351.6z"/>
			<path class="st0" d="M826.5,357.2c1.5,0,2.8,0.3,4,1c1.2,0.7,2.2,1.7,2.9,2.9c0.7,1.2,1,2.7,1,4.2c0,1.8-0.4,3.5-1.3,5
				c-0.9,1.5-2,2.7-3.5,3.6c-1.5,0.8-3.1,1.3-5,1.3c-2.3,0-4.2-0.8-5.7-2.3c-1.5-1.5-2.2-3.4-2.2-5.8c0-1.8,0.4-3.5,1.3-5.1
				c0.9-1.5,2.1-2.8,3.6-3.6C823.1,357.6,824.8,357.2,826.5,357.2z M826.5,359.3c-1.4,0-2.7,0.3-3.9,1c-1.2,0.7-2.1,1.6-2.8,2.8
				c-0.6,1.2-1,2.5-1,3.9c0,1.8,0.6,3.3,1.7,4.4c1.1,1.1,2.6,1.7,4.3,1.7c1.4,0,2.6-0.3,3.7-1c1.1-0.7,2-1.6,2.7-2.8
				c0.7-1.2,1-2.6,1-4c0-1.2-0.2-2.2-0.7-3.2c-0.5-0.9-1.2-1.6-2.1-2.1C828.5,359.5,827.5,359.3,826.5,359.3z"/>
			<path class="st0" d="M844.2,357.6h2.2l-1,7.2c-0.3,2.1-0.5,3.4-0.5,4c0,1.3,0.4,2.3,1.2,3.1c0.8,0.8,1.9,1.2,3.2,1.2
				c1.1,0,2.1-0.3,2.9-0.9c0.8-0.6,1.4-1.5,1.7-2.5c0.2-0.5,0.4-1.7,0.6-3.5l1.2-8.6h2.2l-0.8,6.5c-0.4,3.1-0.8,5.3-1.3,6.6
				c-0.4,1.3-1.2,2.4-2.4,3.2c-1.1,0.8-2.5,1.3-4.2,1.3c-1.9,0-3.4-0.6-4.6-1.8c-1.2-1.2-1.8-2.7-1.8-4.5c0-0.7,0.1-1.6,0.2-2.5
				l0.2-1.5l0.1-0.6L844.2,357.6z"/>
			<path class="st0" d="M874,359.5l-1.2,1.8c-1-1.4-2.1-2.1-3.4-2.1c-0.8,0-1.4,0.2-1.9,0.7c-0.5,0.5-0.8,1-0.8,1.6
				c0,0.5,0.2,0.9,0.5,1.3c0.3,0.4,1,1,2.2,1.7c1.6,1.1,2.7,2,3.2,2.8c0.5,0.8,0.8,1.7,0.8,2.8c0,1.4-0.5,2.6-1.5,3.6
				c-1,0.9-2.3,1.4-3.9,1.4c-2.1,0-3.9-0.9-5.4-2.8l1.3-1.6c1.3,1.5,2.7,2.3,4.1,2.3c0.8,0,1.6-0.3,2.2-0.9c0.6-0.6,0.9-1.3,0.9-2.1
				c0-0.6-0.2-1.3-0.7-1.8c-0.3-0.4-1.1-1-2.5-1.9c-1.4-1-2.4-1.8-2.8-2.5c-0.5-0.6-0.7-1.4-0.7-2.2c0-1.3,0.5-2.4,1.4-3.2
				c1-0.9,2.2-1.3,3.6-1.3c0.9,0,1.6,0.2,2.3,0.5C872.5,358,873.2,358.6,874,359.5z"/>
			<path class="st0" d="M897.1,366.6h-15.3c0,2,0.5,3.6,1.6,4.8c1.1,1.2,2.5,1.8,4.4,1.8c1.2,0,2.3-0.2,3.4-0.7
				c1-0.5,1.9-1.2,2.6-2.1l1.6,1.3c-0.8,1.1-1.9,1.9-3.3,2.5c-1.3,0.6-2.8,1-4.3,1c-2.7,0-4.7-0.8-6.1-2.5c-1.3-1.7-2-3.5-2-5.6
				c0-1.7,0.5-3.3,1.4-4.9c0.9-1.6,2.1-2.8,3.6-3.7c1.5-0.9,3.2-1.3,4.9-1.3c2.2,0,4,0.7,5.5,2.2c1.4,1.5,2.2,3.4,2.2,5.7
				C897.3,365.5,897.2,366,897.1,366.6z M895.1,364.7c-0.1-1.6-0.6-2.9-1.7-3.9c-1-1-2.4-1.5-3.9-1.5c-1.7,0-3.2,0.5-4.5,1.4
				c-1.3,1-2.2,2.3-2.8,4H895.1z"/>
			<path class="st0" d="M918.9,351.6h2.3l-3.1,23.2h-2.3L918.9,351.6z"/>
			<path class="st0" d="M936.6,359.5l-1.2,1.8c-1-1.4-2.1-2.1-3.4-2.1c-0.8,0-1.4,0.2-1.9,0.7c-0.5,0.5-0.8,1-0.8,1.6
				c0,0.5,0.2,0.9,0.5,1.3c0.3,0.4,1,1,2.2,1.7c1.6,1.1,2.7,2,3.2,2.8c0.5,0.8,0.8,1.7,0.8,2.8c0,1.4-0.5,2.6-1.5,3.6
				c-1,0.9-2.3,1.4-3.9,1.4c-2.1,0-3.9-0.9-5.4-2.8l1.3-1.6c1.3,1.5,2.7,2.3,4.1,2.3c0.8,0,1.6-0.3,2.2-0.9c0.6-0.6,0.9-1.3,0.9-2.1
				c0-0.6-0.2-1.3-0.7-1.8c-0.3-0.4-1.1-1-2.5-1.9c-1.4-1-2.4-1.8-2.8-2.5c-0.5-0.6-0.7-1.4-0.7-2.2c0-1.3,0.5-2.4,1.4-3.2
				c1-0.9,2.2-1.3,3.6-1.3c0.9,0,1.6,0.2,2.3,0.5C935.2,358,935.9,358.6,936.6,359.5z"/>
			<path class="st0" d="M952.4,359.5l-1.2,1.8c-1-1.4-2.1-2.1-3.4-2.1c-0.8,0-1.4,0.2-1.9,0.7c-0.5,0.5-0.8,1-0.8,1.6
				c0,0.5,0.2,0.9,0.5,1.3c0.3,0.4,1,1,2.2,1.7c1.6,1.1,2.7,2,3.2,2.8c0.5,0.8,0.8,1.7,0.8,2.8c0,1.4-0.5,2.6-1.5,3.6
				c-1,0.9-2.3,1.4-3.9,1.4c-2.1,0-3.9-0.9-5.4-2.8l1.3-1.6c1.3,1.5,2.7,2.3,4.1,2.3c0.8,0,1.6-0.3,2.2-0.9c0.6-0.6,0.9-1.3,0.9-2.1
				c0-0.6-0.2-1.3-0.7-1.8c-0.3-0.4-1.1-1-2.5-1.9c-1.4-1-2.4-1.8-2.8-2.5c-0.5-0.6-0.7-1.4-0.7-2.2c0-1.3,0.5-2.4,1.4-3.2
				c1-0.9,2.2-1.3,3.6-1.3c0.9,0,1.6,0.2,2.3,0.5C950.9,358,951.6,358.6,952.4,359.5z"/>
			<path class="st0" d="M961.2,357.6h2.2l-1,7.2c-0.3,2.1-0.5,3.4-0.5,4c0,1.3,0.4,2.3,1.2,3.1c0.8,0.8,1.9,1.2,3.2,1.2
				c1.1,0,2.1-0.3,2.9-0.9c0.8-0.6,1.4-1.5,1.7-2.5c0.2-0.5,0.4-1.7,0.6-3.5l1.2-8.6h2.2l-0.8,6.5c-0.4,3.1-0.8,5.3-1.3,6.6
				c-0.4,1.3-1.2,2.4-2.4,3.2c-1.1,0.8-2.5,1.3-4.2,1.3c-1.9,0-3.4-0.6-4.6-1.8c-1.2-1.2-1.8-2.7-1.8-4.5c0-0.7,0.1-1.6,0.2-2.5
				l0.2-1.5l0.1-0.6L961.2,357.6z"/>
			<path class="st0" d="M998.4,366.6h-15.3c0,2,0.5,3.6,1.6,4.8c1.1,1.2,2.5,1.8,4.4,1.8c1.2,0,2.3-0.2,3.4-0.7
				c1-0.5,1.9-1.2,2.6-2.1l1.6,1.3c-0.8,1.1-1.9,1.9-3.3,2.5c-1.3,0.6-2.8,1-4.3,1c-2.7,0-4.7-0.8-6.1-2.5c-1.3-1.7-2-3.5-2-5.6
				c0-1.7,0.5-3.3,1.4-4.9c0.9-1.6,2.1-2.8,3.6-3.7c1.5-0.9,3.2-1.3,4.9-1.3c2.2,0,4,0.7,5.5,2.2c1.4,1.5,2.2,3.4,2.2,5.7
				C998.5,365.5,998.5,366,998.4,366.6z M996.4,364.7c-0.1-1.6-0.6-2.9-1.7-3.9c-1-1-2.4-1.5-3.9-1.5c-1.7,0-3.2,0.5-4.5,1.4
				c-1.3,1-2.2,2.3-2.8,4H996.4z"/>
		</g>
	</g>
</g>
<g>
	<defs>
		<rect id="SVGID_1_" x="1017" width="415" height="583"/>
	</defs>
	<clipPath id="SVGID_2_">
		<use xlink:href="#SVGID_1_"  style="overflow:visible;"/>
	</clipPath>
	<g class="st1">
		<path class="st2" d="M1204.8-19.3h3.8l-5.1,37.6h-3.8L1204.8-19.3z"/>
		<path class="st2" d="M1233.5-6.4l-1.9,2.9c-1.6-2.2-3.4-3.3-5.6-3.3c-1.2,0-2.3,0.4-3.1,1.2c-0.9,0.8-1.3,1.7-1.3,2.7
			c0,0.7,0.3,1.5,0.8,2.1c0.5,0.7,1.7,1.6,3.5,2.8c2.7,1.7,4.4,3.2,5.3,4.5c0.8,1.3,1.3,2.8,1.3,4.5c0,2.3-0.8,4.3-2.4,5.8
			c-1.6,1.5-3.7,2.3-6.3,2.3c-3.4,0-6.3-1.5-8.7-4.6l2.2-2.5c2.1,2.5,4.3,3.8,6.7,3.8c1.4,0,2.6-0.5,3.6-1.5c1-1,1.5-2.1,1.5-3.4
			c0-1-0.4-2-1.1-3c-0.5-0.6-1.8-1.7-4-3.1c-2.3-1.6-3.9-2.9-4.6-4c-0.7-1-1.1-2.2-1.1-3.5c0-2.1,0.8-3.8,2.3-5.3
			c1.5-1.4,3.5-2.2,5.9-2.2c1.4,0,2.7,0.3,3.8,0.8C1231.2-8.8,1232.4-7.8,1233.5-6.4z"/>
		<path class="st2" d="M1259.1-6.4l-1.9,2.9c-1.6-2.2-3.4-3.3-5.6-3.3c-1.2,0-2.3,0.4-3.1,1.2c-0.9,0.8-1.3,1.7-1.3,2.7
			c0,0.7,0.3,1.5,0.8,2.1c0.5,0.7,1.7,1.6,3.5,2.8c2.7,1.7,4.4,3.2,5.3,4.5c0.8,1.3,1.3,2.8,1.3,4.5c0,2.3-0.8,4.3-2.4,5.8
			c-1.6,1.5-3.7,2.3-6.3,2.3c-3.4,0-6.3-1.5-8.7-4.6l2.2-2.5c2.1,2.5,4.3,3.8,6.7,3.8c1.4,0,2.6-0.5,3.6-1.5c1-1,1.5-2.1,1.5-3.4
			c0-1-0.4-2-1.1-3c-0.5-0.6-1.8-1.7-4-3.1c-2.3-1.6-3.9-2.9-4.6-4c-0.7-1-1.1-2.2-1.1-3.5c0-2.1,0.8-3.8,2.3-5.3
			c1.5-1.4,3.5-2.2,5.9-2.2c1.4,0,2.7,0.3,3.8,0.8C1256.8-8.8,1257.9-7.8,1259.1-6.4z"/>
		<path class="st2" d="M1273.3-9.5h3.6l-1.7,11.6c-0.5,3.4-0.7,5.6-0.7,6.5c0,2.1,0.7,3.8,2,5.1c1.3,1.3,3,2,5.2,2
			c1.8,0,3.3-0.5,4.6-1.5c1.3-1,2.2-2.4,2.8-4c0.3-0.8,0.6-2.8,1-5.8l1.9-13.9h3.5L1294.1,1c-0.6,5-1.3,8.6-2,10.7
			c-0.7,2.1-2,3.9-3.9,5.2c-1.8,1.4-4.1,2-6.8,2c-3,0-5.5-1-7.4-3c-1.9-2-2.9-4.4-2.9-7.4c0-1.2,0.1-2.5,0.3-4.1l0.2-2.5l0.1-1
			L1273.3-9.5z"/>
		<path class="st2" d="M1333.7,5.1h-24.8c0,3.3,0.8,5.9,2.6,7.8c1.8,1.9,4.1,2.8,7.1,2.8c2,0,3.8-0.4,5.4-1.2c1.7-0.8,3-1.9,4.1-3.4
			l2.7,2.2c-1.3,1.7-3.1,3.1-5.3,4.1c-2.2,1-4.5,1.5-7,1.5c-4.4,0-7.6-1.4-9.8-4c-2.2-2.7-3.3-5.7-3.3-9.1c0-2.8,0.7-5.4,2.2-8
			c1.5-2.6,3.4-4.5,5.9-6c2.5-1.4,5.1-2.1,8-2.1c3.6,0,6.5,1.2,8.8,3.6c2.3,2.4,3.5,5.5,3.5,9.2C1333.9,3.3,1333.8,4.1,1333.7,5.1z
			 M1330.4,2c-0.1-2.6-1-4.7-2.7-6.4c-1.7-1.6-3.8-2.4-6.4-2.4c-2.8,0-5.2,0.8-7.3,2.3c-2.1,1.6-3.6,3.7-4.5,6.4H1330.4z"/>
	</g>
	<g class="st1">
		<path class="st2" d="M1221.8,255.7h3.8l-5.1,37.6h-3.8L1221.8,255.7z"/>
		<path class="st2" d="M1250.5,268.6l-1.9,2.9c-1.6-2.2-3.4-3.3-5.6-3.3c-1.2,0-2.3,0.4-3.1,1.2c-0.9,0.8-1.3,1.7-1.3,2.7
			c0,0.7,0.3,1.5,0.8,2.1c0.5,0.7,1.7,1.6,3.5,2.8c2.7,1.7,4.4,3.2,5.3,4.5c0.8,1.3,1.3,2.8,1.3,4.5c0,2.3-0.8,4.3-2.4,5.8
			c-1.6,1.5-3.7,2.3-6.3,2.3c-3.4,0-6.3-1.5-8.7-4.6l2.2-2.5c2.1,2.5,4.3,3.8,6.7,3.8c1.4,0,2.6-0.5,3.6-1.5c1-1,1.5-2.1,1.5-3.4
			c0-1-0.4-2-1.1-3c-0.5-0.6-1.8-1.7-4-3.1c-2.3-1.6-3.9-2.9-4.6-4c-0.7-1-1.1-2.2-1.1-3.5c0-2.1,0.8-3.8,2.3-5.3
			c1.5-1.4,3.5-2.2,5.9-2.2c1.4,0,2.7,0.3,3.8,0.8C1248.2,266.2,1249.4,267.2,1250.5,268.6z"/>
		<path class="st2" d="M1276.1,268.6l-1.9,2.9c-1.6-2.2-3.4-3.3-5.6-3.3c-1.2,0-2.3,0.4-3.1,1.2c-0.9,0.8-1.3,1.7-1.3,2.7
			c0,0.7,0.3,1.5,0.8,2.1c0.5,0.7,1.7,1.6,3.5,2.8c2.7,1.7,4.4,3.2,5.3,4.5c0.8,1.3,1.3,2.8,1.3,4.5c0,2.3-0.8,4.3-2.4,5.8
			c-1.6,1.5-3.7,2.3-6.3,2.3c-3.4,0-6.3-1.5-8.7-4.6l2.2-2.5c2.1,2.5,4.3,3.8,6.7,3.8c1.4,0,2.6-0.5,3.6-1.5c1-1,1.5-2.1,1.5-3.4
			c0-1-0.4-2-1.1-3c-0.5-0.6-1.8-1.7-4-3.1c-2.3-1.6-3.9-2.9-4.6-4c-0.7-1-1.1-2.2-1.1-3.5c0-2.1,0.8-3.8,2.3-5.3
			c1.5-1.4,3.5-2.2,5.9-2.2c1.4,0,2.7,0.3,3.8,0.8C1273.8,266.2,1274.9,267.2,1276.1,268.6z"/>
		<path class="st2" d="M1290.3,265.5h3.6l-1.7,11.6c-0.5,3.4-0.7,5.6-0.7,6.5c0,2.1,0.7,3.8,2,5.1c1.3,1.3,3,2,5.2,2
			c1.8,0,3.3-0.5,4.6-1.5c1.3-1,2.2-2.4,2.8-4c0.3-0.8,0.6-2.8,1-5.8l1.9-13.9h3.5l-1.3,10.5c-0.6,5-1.3,8.6-2,10.7
			c-0.7,2.1-2,3.9-3.9,5.2c-1.8,1.4-4.1,2-6.8,2c-3,0-5.5-1-7.4-3c-1.9-2-2.9-4.4-2.9-7.4c0-1.2,0.1-2.5,0.3-4.1l0.2-2.5l0.1-1
			L1290.3,265.5z"/>
		<path class="st2" d="M1350.7,280.1h-24.8c0,3.3,0.8,5.9,2.6,7.8c1.8,1.9,4.1,2.8,7.1,2.8c2,0,3.8-0.4,5.4-1.2
			c1.7-0.8,3-1.9,4.1-3.4l2.7,2.2c-1.3,1.7-3.1,3.1-5.3,4.1c-2.2,1-4.5,1.5-7,1.5c-4.4,0-7.6-1.4-9.8-4c-2.2-2.7-3.3-5.7-3.3-9.1
			c0-2.8,0.7-5.4,2.2-8c1.5-2.6,3.4-4.5,5.9-6c2.5-1.4,5.1-2.1,8-2.1c3.6,0,6.5,1.2,8.8,3.6c2.3,2.4,3.5,5.5,3.5,9.2
			C1350.9,278.3,1350.8,279.1,1350.7,280.1z M1347.4,277c-0.1-2.6-1-4.7-2.7-6.4c-1.7-1.6-3.8-2.4-6.4-2.4c-2.8,0-5.2,0.8-7.3,2.3
			c-2.1,1.6-3.6,3.7-4.5,6.4H1347.4z"/>
	</g>
	<g class="st1">
		<path class="st2" d="M1256.2,75.3h22.5l-0.5,3.6h-9.5l-4.6,34h-3.8l4.6-34h-9.2L1256.2,75.3z"/>
		<path class="st2" d="M1310.4,112.8h-3.6l0.6-4.2c-3.2,3.3-6.9,4.9-11,4.9c-3.8,0-6.9-1.2-9.3-3.7c-2.4-2.4-3.6-5.6-3.6-9.4
			c0-4.4,1.6-8.2,4.7-11.4c3.2-3.2,6.9-4.8,11.2-4.8c2.3,0,4.4,0.5,6.1,1.4c1.8,1,3.2,2.5,4.4,4.5l0.6-5.3h3.7L1310.4,112.8z
			 M1296.7,110.3c2.3,0,4.4-0.5,6.3-1.6c1.9-1.1,3.4-2.6,4.5-4.7c1.1-2,1.7-4.2,1.7-6.6c0-2.9-0.9-5.2-2.7-7
			c-1.8-1.8-4.2-2.7-7.1-2.7c-3.4,0-6.3,1.2-8.8,3.7c-2.4,2.5-3.6,5.5-3.6,9.1c0,2.9,0.9,5.3,2.7,7.1
			C1291.5,109.4,1293.8,110.3,1296.7,110.3z"/>
		<path class="st2" d="M1327,85h3.4l-3.6,27.8h-3.5L1327,85z M1329.8,73.6c0.8,0,1.5,0.3,2,0.8c0.6,0.6,0.8,1.2,0.8,2
			c0,0.8-0.3,1.5-0.8,2c-0.6,0.6-1.2,0.8-2,0.8c-0.8,0-1.5-0.3-2-0.8c-0.6-0.6-0.8-1.2-0.8-2c0-0.8,0.3-1.5,0.8-2
			C1328.3,73.9,1329,73.6,1329.8,73.6z"/>
		<path class="st2" d="M1343.8,85h3.6l-0.6,4.2c3.2-3.3,6.9-4.9,11-4.9c3.8,0,6.9,1.2,9.3,3.7c2.4,2.4,3.6,5.6,3.6,9.4
			c0,4.4-1.6,8.2-4.7,11.4c-3.1,3.2-6.8,4.8-11.1,4.8c-2.3,0-4.3-0.5-6.1-1.5c-1.8-1-3.2-2.5-4.5-4.6l-2.1,15.5h-3.7L1343.8,85z
			 M1357.5,87.6c-2.3,0-4.4,0.5-6.3,1.6c-1.9,1.1-3.4,2.6-4.5,4.7c-1.1,2-1.7,4.2-1.7,6.6c0,2.9,0.9,5.2,2.7,7
			c1.8,1.8,4.2,2.7,7.1,2.7c3.4,0,6.3-1.2,8.8-3.7c2.4-2.5,3.6-5.5,3.6-9.1c0-3-0.9-5.3-2.7-7.1
			C1362.8,88.5,1360.4,87.6,1357.5,87.6z"/>
		<path class="st2" d="M1409.2,99.6h-24.8c0,3.3,0.8,5.9,2.6,7.8c1.8,1.9,4.1,2.8,7.1,2.8c2,0,3.8-0.4,5.4-1.2
			c1.7-0.8,3-1.9,4.1-3.4l2.7,2.2c-1.3,1.7-3.1,3.1-5.3,4.1c-2.2,1-4.5,1.5-7,1.5c-4.4,0-7.6-1.4-9.8-4c-2.2-2.7-3.3-5.7-3.3-9.1
			c0-2.8,0.7-5.4,2.2-8c1.5-2.6,3.4-4.5,5.9-6c2.5-1.4,5.1-2.1,8-2.1c3.6,0,6.5,1.2,8.8,3.6c2.3,2.4,3.5,5.5,3.5,9.2
			C1409.4,97.8,1409.3,98.7,1409.2,99.6z M1406,96.5c-0.1-2.6-1-4.7-2.7-6.4c-1.7-1.6-3.8-2.4-6.4-2.4c-2.8,0-5.2,0.8-7.3,2.3
			c-2.1,1.6-3.6,3.7-4.5,6.4H1406z"/>
		<path class="st2" d="M1422.8,85h3.4l-3.6,27.8h-3.5L1422.8,85z M1425.6,73.6c0.8,0,1.5,0.3,2,0.8c0.6,0.6,0.8,1.2,0.8,2
			c0,0.8-0.3,1.5-0.8,2c-0.6,0.6-1.2,0.8-2,0.8c-0.8,0-1.5-0.3-2-0.8c-0.6-0.6-0.8-1.2-0.8-2c0-0.8,0.3-1.5,0.8-2
			C1424.1,73.9,1424.8,73.6,1425.6,73.6z"/>
	</g>
	<g class="st1">
		<path class="st2" d="M1325.8,156.8h3.7l-2.1,15.3h19.3l2.1-15.3h3.7l-5.1,37.6h-3.7l2.5-18.7h-19.3l-2.5,18.7h-3.7L1325.8,156.8z"
			/>
		<path class="st2" d="M1377.8,165.8c2.4,0,4.5,0.6,6.5,1.7c2,1.1,3.5,2.7,4.6,4.7c1.1,2,1.7,4.3,1.7,6.9c0,2.9-0.7,5.6-2.1,8.1
			c-1.4,2.5-3.3,4.4-5.7,5.8c-2.4,1.4-5.1,2-8.1,2c-3.7,0-6.8-1.2-9.2-3.7c-2.4-2.4-3.6-5.6-3.6-9.3c0-3,0.7-5.7,2.1-8.2
			c1.4-2.5,3.4-4.5,5.8-5.9C1372.3,166.5,1375,165.8,1377.8,165.8z M1377.8,169.2c-2.2,0-4.3,0.6-6.2,1.7c-2,1.1-3.5,2.6-4.5,4.6
			c-1,1.9-1.6,4.1-1.6,6.4c0,2.9,0.9,5.3,2.7,7.1c1.8,1.8,4.1,2.7,7,2.7c2.2,0,4.3-0.5,6.1-1.6c1.8-1.1,3.3-2.6,4.3-4.6
			c1.1-2,1.6-4.2,1.6-6.5c0-1.9-0.4-3.6-1.2-5.1c-0.8-1.5-1.9-2.6-3.4-3.5C1381.1,169.6,1379.5,169.2,1377.8,169.2z"/>
		<path class="st2" d="M1406.4,166.6h3.6l-1.7,11.6c-0.5,3.4-0.7,5.6-0.7,6.5c0,2.1,0.7,3.8,2,5.1c1.3,1.3,3,2,5.2,2
			c1.8,0,3.3-0.5,4.6-1.5c1.3-1,2.2-2.4,2.8-4c0.3-0.8,0.6-2.8,1-5.8l1.9-13.9h3.5l-1.3,10.5c-0.6,5-1.3,8.6-2,10.7
			c-0.7,2.1-2,3.9-3.9,5.2c-1.8,1.4-4.1,2-6.8,2c-3,0-5.5-1-7.4-3c-1.9-2-2.9-4.4-2.9-7.4c0-1.2,0.1-2.5,0.3-4.1l0.2-2.5l0.1-1
			L1406.4,166.6z"/>
		<path class="st2" d="M1454.7,169.7l-1.9,2.9c-1.6-2.2-3.4-3.3-5.6-3.3c-1.2,0-2.3,0.4-3.1,1.2c-0.9,0.8-1.3,1.7-1.3,2.7
			c0,0.7,0.3,1.5,0.8,2.1c0.5,0.7,1.7,1.6,3.5,2.8c2.7,1.7,4.4,3.2,5.3,4.5c0.8,1.3,1.3,2.8,1.3,4.5c0,2.3-0.8,4.3-2.4,5.8
			c-1.6,1.5-3.7,2.3-6.3,2.3c-3.4,0-6.3-1.5-8.7-4.6l2.2-2.5c2.1,2.5,4.3,3.8,6.7,3.8c1.4,0,2.6-0.5,3.6-1.5c1-1,1.5-2.1,1.5-3.4
			c0-1-0.4-2-1.1-3c-0.5-0.6-1.8-1.7-4-3.1c-2.3-1.6-3.9-2.9-4.6-4c-0.7-1-1.1-2.2-1.1-3.5c0-2.1,0.8-3.8,2.3-5.3
			c1.5-1.4,3.5-2.2,5.9-2.2c1.4,0,2.7,0.3,3.8,0.8C1452.4,167.2,1453.6,168.2,1454.7,169.7z"/>
		<path class="st2" d="M1492.3,181.2h-24.8c0,3.3,0.8,5.9,2.6,7.8c1.8,1.9,4.1,2.8,7.1,2.8c2,0,3.8-0.4,5.4-1.2
			c1.7-0.8,3-1.9,4.1-3.4l2.7,2.2c-1.3,1.7-3.1,3.1-5.3,4.1c-2.2,1-4.5,1.5-7,1.5c-4.4,0-7.6-1.4-9.8-4c-2.2-2.7-3.3-5.7-3.3-9.1
			c0-2.8,0.7-5.4,2.2-8c1.5-2.6,3.4-4.5,5.9-6c2.5-1.4,5.1-2.1,8-2.1c3.6,0,6.5,1.2,8.8,3.6c2.3,2.4,3.5,5.5,3.5,9.2
			C1492.5,179.3,1492.4,180.2,1492.3,181.2z M1489,178c-0.1-2.6-1-4.7-2.7-6.4c-1.7-1.6-3.8-2.4-6.4-2.4c-2.8,0-5.2,0.8-7.3,2.3
			c-2.1,1.6-3.6,3.7-4.5,6.4H1489z"/>
	</g>
	<g class="st1">
		<path class="st2" d="M1070.2,471.3h22.5l-0.5,3.6h-9.5l-4.6,34h-3.8l4.6-34h-9.2L1070.2,471.3z"/>
		<path class="st2" d="M1124.4,508.8h-3.6l0.6-4.2c-3.2,3.3-6.9,4.9-11,4.9c-3.8,0-6.9-1.2-9.3-3.7c-2.4-2.4-3.6-5.6-3.6-9.4
			c0-4.4,1.6-8.2,4.7-11.4c3.2-3.2,6.9-4.8,11.2-4.8c2.3,0,4.4,0.5,6.1,1.4c1.8,1,3.2,2.5,4.4,4.5l0.6-5.3h3.7L1124.4,508.8z
			 M1110.7,506.3c2.3,0,4.4-0.5,6.3-1.6c1.9-1.1,3.4-2.6,4.5-4.7c1.1-2,1.7-4.2,1.7-6.6c0-2.9-0.9-5.2-2.7-7
			c-1.8-1.8-4.2-2.7-7.1-2.7c-3.4,0-6.3,1.2-8.8,3.7c-2.4,2.5-3.6,5.5-3.6,9.1c0,2.9,0.9,5.3,2.7,7.1
			C1105.5,505.4,1107.8,506.3,1110.7,506.3z"/>
		<path class="st2" d="M1141,481h3.4l-3.6,27.8h-3.5L1141,481z M1143.8,469.6c0.8,0,1.5,0.3,2,0.8c0.6,0.6,0.8,1.2,0.8,2
			c0,0.8-0.3,1.5-0.8,2c-0.6,0.6-1.2,0.8-2,0.8c-0.8,0-1.5-0.3-2-0.8c-0.6-0.6-0.8-1.2-0.8-2c0-0.8,0.3-1.5,0.8-2
			C1142.3,469.9,1143,469.6,1143.8,469.6z"/>
		<path class="st2" d="M1157.8,481h3.6l-0.6,4.2c3.2-3.3,6.9-4.9,11-4.9c3.8,0,6.9,1.2,9.3,3.7c2.4,2.4,3.6,5.6,3.6,9.4
			c0,4.4-1.6,8.2-4.7,11.4c-3.1,3.2-6.8,4.8-11.1,4.8c-2.3,0-4.3-0.5-6.1-1.5c-1.8-1-3.2-2.5-4.5-4.6l-2.1,15.5h-3.7L1157.8,481z
			 M1171.5,483.6c-2.3,0-4.4,0.5-6.3,1.6c-1.9,1.1-3.4,2.6-4.5,4.7c-1.1,2-1.7,4.2-1.7,6.6c0,2.9,0.9,5.2,2.7,7
			c1.8,1.8,4.2,2.7,7.1,2.7c3.4,0,6.3-1.2,8.8-3.7c2.4-2.5,3.6-5.5,3.6-9.1c0-3-0.9-5.3-2.7-7.1
			C1176.8,484.5,1174.4,483.6,1171.5,483.6z"/>
		<path class="st2" d="M1223.2,495.6h-24.8c0,3.3,0.8,5.9,2.6,7.8c1.8,1.9,4.1,2.8,7.1,2.8c2,0,3.8-0.4,5.4-1.2
			c1.7-0.8,3-1.9,4.1-3.4l2.7,2.2c-1.3,1.7-3.1,3.1-5.3,4.1c-2.2,1-4.5,1.5-7,1.5c-4.4,0-7.6-1.4-9.8-4c-2.2-2.7-3.3-5.7-3.3-9.1
			c0-2.8,0.7-5.4,2.2-8c1.5-2.6,3.4-4.5,5.9-6c2.5-1.4,5.1-2.1,8-2.1c3.6,0,6.5,1.2,8.8,3.6c2.3,2.4,3.5,5.5,3.5,9.2
			C1223.4,493.8,1223.3,494.7,1223.2,495.6z M1220,492.5c-0.1-2.6-1-4.7-2.7-6.4c-1.7-1.6-3.8-2.4-6.4-2.4c-2.8,0-5.2,0.8-7.3,2.3
			c-2.1,1.6-3.6,3.7-4.5,6.4H1220z"/>
		<path class="st2" d="M1236.8,481h3.4l-3.6,27.8h-3.5L1236.8,481z M1239.6,469.6c0.8,0,1.5,0.3,2,0.8c0.6,0.6,0.8,1.2,0.8,2
			c0,0.8-0.3,1.5-0.8,2c-0.6,0.6-1.2,0.8-2,0.8c-0.8,0-1.5-0.3-2-0.8c-0.6-0.6-0.8-1.2-0.8-2c0-0.8,0.3-1.5,0.8-2
			C1238.1,469.9,1238.8,469.6,1239.6,469.6z"/>
	</g>
	<g class="st1">
		<path class="st2" d="M1302.3,419.7c5.1,0,9.3,1.7,12.6,5c3.4,3.3,5,7.5,5,12.6c0,6.2-2.1,11.4-6.4,15.6c-4.3,4.2-9.6,6.3-16,6.3
			c-5.4,0-9.7-1.6-13-4.9c-3.3-3.2-4.9-7.5-4.9-12.7c0-4,1-7.7,2.9-11.1c1.9-3.4,4.6-6,8.1-7.9
			C1294.2,420.6,1298.1,419.7,1302.3,419.7z M1302.2,423.2c-3.6,0-6.8,0.8-9.6,2.3c-2.8,1.6-5,3.8-6.7,6.7c-1.6,2.9-2.5,5.9-2.5,9.2
			c0,2.8,0.6,5.2,1.8,7.4c1.2,2.2,2.8,3.9,4.9,5c2.1,1.2,4.6,1.7,7.4,1.7c3.4,0,6.5-0.8,9.4-2.4c2.9-1.6,5.1-3.9,6.8-6.8
			c1.6-2.9,2.5-6,2.5-9.4c0-4.4-1.6-8-4.7-10.6C1309,424.3,1305.9,423.2,1302.2,423.2z"/>
		<path class="st2" d="M1334.1,419.7h3.5l-5.2,38.5h-3.5L1334.1,419.7z"/>
		<path class="st2" d="M1372.9,458.2h-3.6l0.6-4.3c-3.3,3.4-7,5-11.1,5c-3.7,0-6.8-1.2-9.2-3.7c-2.4-2.4-3.6-5.6-3.6-9.4
			c0-4.4,1.6-8.2,4.7-11.4c3.1-3.2,6.9-4.8,11.1-4.8c2.3,0,4.3,0.5,6.1,1.5c1.7,1,3.2,2.5,4.5,4.5l2.1-16h3.7L1372.9,458.2z
			 M1359.2,455.6c2.3,0,4.4-0.5,6.3-1.6c1.9-1.1,3.4-2.6,4.5-4.7c1.1-2,1.7-4.2,1.7-6.6c0-2.9-0.9-5.2-2.7-7
			c-1.8-1.8-4.2-2.7-7.1-2.7c-3.4,0-6.3,1.2-8.8,3.7c-2.4,2.5-3.6,5.5-3.6,9.1c0,2.9,0.9,5.3,2.7,7.1
			C1353.9,454.7,1356.3,455.6,1359.2,455.6z"/>
	</g>
	<g class="st1">
		<path class="st2" d="M1122.8,549.8h3.7l-2.1,15.3h19.3l2.1-15.3h3.7l-5.1,37.6h-3.7l2.5-18.7h-19.3l-2.5,18.7h-3.7L1122.8,549.8z"
			/>
		<path class="st2" d="M1174.8,558.8c2.4,0,4.5,0.6,6.5,1.7c2,1.1,3.5,2.7,4.6,4.7c1.1,2,1.7,4.3,1.7,6.9c0,2.9-0.7,5.6-2.1,8.1
			c-1.4,2.5-3.3,4.4-5.7,5.8c-2.4,1.4-5.1,2-8.1,2c-3.7,0-6.8-1.2-9.2-3.7c-2.4-2.4-3.6-5.6-3.6-9.3c0-3,0.7-5.7,2.1-8.2
			c1.4-2.5,3.4-4.5,5.8-5.9S1172,558.8,1174.8,558.8z M1174.8,562.2c-2.2,0-4.3,0.6-6.2,1.7c-2,1.1-3.5,2.6-4.5,4.6
			c-1,1.9-1.6,4.1-1.6,6.4c0,2.9,0.9,5.3,2.7,7.1c1.8,1.8,4.1,2.7,7,2.7c2.2,0,4.3-0.5,6.1-1.6c1.8-1.1,3.3-2.6,4.3-4.6
			c1.1-2,1.6-4.2,1.6-6.5c0-1.9-0.4-3.6-1.2-5.1c-0.8-1.5-1.9-2.6-3.4-3.5C1178.1,562.6,1176.5,562.2,1174.8,562.2z"/>
		<path class="st2" d="M1203.4,559.6h3.6l-1.7,11.6c-0.5,3.4-0.7,5.6-0.7,6.5c0,2.1,0.7,3.8,2,5.1c1.3,1.3,3,2,5.2,2
			c1.8,0,3.3-0.5,4.6-1.5c1.3-1,2.2-2.4,2.8-4c0.3-0.8,0.6-2.8,1-5.8l1.9-13.9h3.5l-1.3,10.5c-0.6,5-1.3,8.6-2,10.7
			c-0.7,2.1-2,3.9-3.9,5.2c-1.8,1.4-4.1,2-6.8,2c-3,0-5.5-1-7.4-3c-1.9-2-2.9-4.4-2.9-7.4c0-1.2,0.1-2.5,0.3-4.1l0.2-2.5l0.1-1
			L1203.4,559.6z"/>
		<path class="st2" d="M1251.7,562.7l-1.9,2.9c-1.6-2.2-3.4-3.3-5.6-3.3c-1.2,0-2.3,0.4-3.1,1.2c-0.9,0.8-1.3,1.7-1.3,2.7
			c0,0.7,0.3,1.5,0.8,2.1c0.5,0.7,1.7,1.6,3.5,2.8c2.7,1.7,4.4,3.2,5.3,4.5c0.8,1.3,1.3,2.8,1.3,4.5c0,2.3-0.8,4.3-2.4,5.8
			c-1.6,1.5-3.7,2.3-6.3,2.3c-3.4,0-6.3-1.5-8.7-4.6l2.2-2.5c2.1,2.5,4.3,3.8,6.7,3.8c1.4,0,2.6-0.5,3.6-1.5c1-1,1.5-2.1,1.5-3.4
			c0-1-0.4-2-1.1-3c-0.5-0.6-1.8-1.7-4-3.1c-2.3-1.6-3.9-2.9-4.6-4c-0.7-1-1.1-2.2-1.1-3.5c0-2.1,0.8-3.8,2.3-5.3
			c1.5-1.4,3.5-2.2,5.9-2.2c1.4,0,2.7,0.3,3.8,0.8C1249.4,560.2,1250.6,561.2,1251.7,562.7z"/>
		<path class="st2" d="M1289.3,574.2h-24.8c0,3.3,0.8,5.9,2.6,7.8c1.8,1.9,4.1,2.8,7.1,2.8c2,0,3.8-0.4,5.4-1.2
			c1.7-0.8,3-1.9,4.1-3.4l2.7,2.2c-1.3,1.7-3.1,3.1-5.3,4.1c-2.2,1-4.5,1.5-7,1.5c-4.4,0-7.6-1.4-9.8-4c-2.2-2.7-3.3-5.7-3.3-9.1
			c0-2.8,0.7-5.4,2.2-8c1.5-2.6,3.4-4.5,5.9-6c2.5-1.4,5.1-2.1,8-2.1c3.6,0,6.5,1.2,8.8,3.6c2.3,2.4,3.5,5.5,3.5,9.2
			C1289.5,572.3,1289.4,573.2,1289.3,574.2z M1286,571c-0.1-2.6-1-4.7-2.7-6.4c-1.7-1.6-3.8-2.4-6.4-2.4c-2.8,0-5.2,0.8-7.3,2.3
			c-2.1,1.6-3.6,3.7-4.5,6.4H1286z"/>
	</g>
	<g class="st1">
		<path class="st2" d="M1324.8,493.7h3.8l-5.1,37.6h-3.8L1324.8,493.7z"/>
		<path class="st2" d="M1353.5,506.6l-1.9,2.9c-1.6-2.2-3.4-3.3-5.6-3.3c-1.2,0-2.3,0.4-3.1,1.2c-0.9,0.8-1.3,1.7-1.3,2.7
			c0,0.7,0.3,1.5,0.8,2.1c0.5,0.7,1.7,1.6,3.5,2.8c2.7,1.7,4.4,3.2,5.3,4.5c0.8,1.3,1.3,2.8,1.3,4.5c0,2.3-0.8,4.3-2.4,5.8
			c-1.6,1.5-3.7,2.3-6.3,2.3c-3.4,0-6.3-1.5-8.7-4.6l2.2-2.5c2.1,2.5,4.3,3.8,6.7,3.8c1.4,0,2.6-0.5,3.6-1.5c1-1,1.5-2.1,1.5-3.4
			c0-1-0.4-2-1.1-3c-0.5-0.6-1.8-1.7-4-3.1c-2.3-1.6-3.9-2.9-4.6-4c-0.7-1-1.1-2.2-1.1-3.5c0-2.1,0.8-3.8,2.3-5.3
			c1.5-1.4,3.5-2.2,5.9-2.2c1.4,0,2.7,0.3,3.8,0.8C1351.2,504.2,1352.4,505.2,1353.5,506.6z"/>
		<path class="st2" d="M1379.1,506.6l-1.9,2.9c-1.6-2.2-3.4-3.3-5.6-3.3c-1.2,0-2.3,0.4-3.1,1.2c-0.9,0.8-1.3,1.7-1.3,2.7
			c0,0.7,0.3,1.5,0.8,2.1c0.5,0.7,1.7,1.6,3.5,2.8c2.7,1.7,4.4,3.2,5.3,4.5c0.8,1.3,1.3,2.8,1.3,4.5c0,2.3-0.8,4.3-2.4,5.8
			c-1.6,1.5-3.7,2.3-6.3,2.3c-3.4,0-6.3-1.5-8.7-4.6l2.2-2.5c2.1,2.5,4.3,3.8,6.7,3.8c1.4,0,2.6-0.5,3.6-1.5c1-1,1.5-2.1,1.5-3.4
			c0-1-0.4-2-1.1-3c-0.5-0.6-1.8-1.7-4-3.1c-2.3-1.6-3.9-2.9-4.6-4c-0.7-1-1.1-2.2-1.1-3.5c0-2.1,0.8-3.8,2.3-5.3
			c1.5-1.4,3.5-2.2,5.9-2.2c1.4,0,2.7,0.3,3.8,0.8C1376.8,504.2,1377.9,505.2,1379.1,506.6z"/>
		<path class="st2" d="M1393.3,503.5h3.6l-1.7,11.6c-0.5,3.4-0.7,5.6-0.7,6.5c0,2.1,0.7,3.8,2,5.1c1.3,1.3,3,2,5.2,2
			c1.8,0,3.3-0.5,4.6-1.5c1.3-1,2.2-2.4,2.8-4c0.3-0.8,0.6-2.8,1-5.8l1.9-13.9h3.5l-1.3,10.5c-0.6,5-1.3,8.6-2,10.7
			c-0.7,2.1-2,3.9-3.9,5.2c-1.8,1.4-4.1,2-6.8,2c-3,0-5.5-1-7.4-3c-1.9-2-2.9-4.4-2.9-7.4c0-1.2,0.1-2.5,0.3-4.1l0.2-2.5l0.1-1
			L1393.3,503.5z"/>
		<path class="st2" d="M1453.7,518.1h-24.8c0,3.3,0.8,5.9,2.6,7.8c1.8,1.9,4.1,2.8,7.1,2.8c2,0,3.8-0.4,5.4-1.2
			c1.7-0.8,3-1.9,4.1-3.4l2.7,2.2c-1.3,1.7-3.1,3.1-5.3,4.1c-2.2,1-4.5,1.5-7,1.5c-4.4,0-7.6-1.4-9.8-4c-2.2-2.7-3.3-5.7-3.3-9.1
			c0-2.8,0.7-5.4,2.2-8c1.5-2.6,3.4-4.5,5.9-6c2.5-1.4,5.1-2.1,8-2.1c3.6,0,6.5,1.2,8.8,3.6c2.3,2.4,3.5,5.5,3.5,9.2
			C1453.9,516.3,1453.8,517.1,1453.7,518.1z M1450.4,515c-0.1-2.6-1-4.7-2.7-6.4c-1.7-1.6-3.8-2.4-6.4-2.4c-2.8,0-5.2,0.8-7.3,2.3
			c-2.1,1.6-3.6,3.7-4.5,6.4H1450.4z"/>
	</g>
	<g class="st1">
		<path class="st2" d="M1428.3,223.7c5.1,0,9.3,1.7,12.6,5c3.4,3.3,5,7.5,5,12.6c0,6.2-2.1,11.4-6.4,15.6c-4.3,4.2-9.6,6.3-16,6.3
			c-5.4,0-9.7-1.6-13-4.9c-3.3-3.2-4.9-7.5-4.9-12.7c0-4,1-7.7,2.9-11.1c1.9-3.4,4.6-6,8.1-7.9
			C1420.2,224.6,1424.1,223.7,1428.3,223.7z M1428.2,227.2c-3.6,0-6.8,0.8-9.6,2.3c-2.8,1.6-5,3.8-6.7,6.7c-1.6,2.9-2.5,5.9-2.5,9.2
			c0,2.8,0.6,5.2,1.8,7.4c1.2,2.2,2.8,3.9,4.9,5c2.1,1.2,4.6,1.7,7.4,1.7c3.4,0,6.5-0.8,9.4-2.4c2.9-1.6,5.1-3.9,6.8-6.8
			c1.6-2.9,2.5-6,2.5-9.4c0-4.4-1.6-8-4.7-10.6C1435,228.3,1431.9,227.2,1428.2,227.2z"/>
		<path class="st2" d="M1460.1,223.7h3.5l-5.2,38.5h-3.5L1460.1,223.7z"/>
		<path class="st2" d="M1498.9,262.2h-3.6l0.6-4.3c-3.3,3.4-7,5-11.1,5c-3.7,0-6.8-1.2-9.2-3.7c-2.4-2.4-3.6-5.6-3.6-9.4
			c0-4.4,1.6-8.2,4.7-11.4c3.1-3.2,6.9-4.8,11.1-4.8c2.3,0,4.3,0.5,6.1,1.5c1.7,1,3.2,2.5,4.5,4.5l2.1-16h3.7L1498.9,262.2z
			 M1485.2,259.6c2.3,0,4.4-0.5,6.3-1.6c1.9-1.1,3.4-2.6,4.5-4.7c1.1-2,1.7-4.2,1.7-6.6c0-2.9-0.9-5.2-2.7-7
			c-1.8-1.8-4.2-2.7-7.1-2.7c-3.4,0-6.3,1.2-8.8,3.7c-2.4,2.5-3.6,5.5-3.6,9.1c0,2.9,0.9,5.3,2.7,7.1
			C1479.9,258.7,1482.3,259.6,1485.2,259.6z"/>
	</g>
	<g class="st1">
		<path class="st2" d="M1269.8,335.8h3.7l-2.1,15.3h19.3l2.1-15.3h3.7l-5.1,37.6h-3.7l2.5-18.7h-19.3l-2.5,18.7h-3.7L1269.8,335.8z"
			/>
		<path class="st2" d="M1321.8,344.8c2.4,0,4.5,0.6,6.5,1.7c2,1.1,3.5,2.7,4.6,4.7c1.1,2,1.7,4.3,1.7,6.9c0,2.9-0.7,5.6-2.1,8.1
			c-1.4,2.5-3.3,4.4-5.7,5.8c-2.4,1.4-5.1,2-8.1,2c-3.7,0-6.8-1.2-9.2-3.7c-2.4-2.4-3.6-5.6-3.6-9.3c0-3,0.7-5.7,2.1-8.2
			c1.4-2.5,3.4-4.5,5.8-5.9S1319,344.8,1321.8,344.8z M1321.8,348.2c-2.2,0-4.3,0.6-6.2,1.7c-2,1.1-3.5,2.6-4.5,4.6
			c-1,1.9-1.6,4.1-1.6,6.4c0,2.9,0.9,5.3,2.7,7.1c1.8,1.8,4.1,2.7,7,2.7c2.2,0,4.3-0.5,6.1-1.6c1.8-1.1,3.3-2.6,4.3-4.6
			c1.1-2,1.6-4.2,1.6-6.5c0-1.9-0.4-3.6-1.2-5.1c-0.8-1.5-1.9-2.6-3.4-3.5C1325.1,348.6,1323.5,348.2,1321.8,348.2z"/>
		<path class="st2" d="M1350.4,345.6h3.6l-1.7,11.6c-0.5,3.4-0.7,5.6-0.7,6.5c0,2.1,0.7,3.8,2,5.1c1.3,1.3,3,2,5.2,2
			c1.8,0,3.3-0.5,4.6-1.5c1.3-1,2.2-2.4,2.8-4c0.3-0.8,0.6-2.8,1-5.8l1.9-13.9h3.5l-1.3,10.5c-0.6,5-1.3,8.6-2,10.7
			c-0.7,2.1-2,3.9-3.9,5.2c-1.8,1.4-4.1,2-6.8,2c-3,0-5.5-1-7.4-3c-1.9-2-2.9-4.4-2.9-7.4c0-1.2,0.1-2.5,0.3-4.1l0.2-2.5l0.1-1
			L1350.4,345.6z"/>
		<path class="st2" d="M1398.7,348.7l-1.9,2.9c-1.6-2.2-3.4-3.3-5.6-3.3c-1.2,0-2.3,0.4-3.1,1.2c-0.9,0.8-1.3,1.7-1.3,2.7
			c0,0.7,0.3,1.5,0.8,2.1c0.5,0.7,1.7,1.6,3.5,2.8c2.7,1.7,4.4,3.2,5.3,4.5c0.8,1.3,1.3,2.8,1.3,4.5c0,2.3-0.8,4.3-2.4,5.8
			c-1.6,1.5-3.7,2.3-6.3,2.3c-3.4,0-6.3-1.5-8.7-4.6l2.2-2.5c2.1,2.5,4.3,3.8,6.7,3.8c1.4,0,2.6-0.5,3.6-1.5c1-1,1.5-2.1,1.5-3.4
			c0-1-0.4-2-1.1-3c-0.5-0.6-1.8-1.7-4-3.1c-2.3-1.6-3.9-2.9-4.6-4c-0.7-1-1.1-2.2-1.1-3.5c0-2.1,0.8-3.8,2.3-5.3
			c1.5-1.4,3.5-2.2,5.9-2.2c1.4,0,2.7,0.3,3.8,0.8C1396.4,346.2,1397.6,347.2,1398.7,348.7z"/>
		<path class="st2" d="M1436.3,360.2h-24.8c0,3.3,0.8,5.9,2.6,7.8c1.8,1.9,4.1,2.8,7.1,2.8c2,0,3.8-0.4,5.4-1.2
			c1.7-0.8,3-1.9,4.1-3.4l2.7,2.2c-1.3,1.7-3.1,3.1-5.3,4.1c-2.2,1-4.5,1.5-7,1.5c-4.4,0-7.6-1.4-9.8-4c-2.2-2.7-3.3-5.7-3.3-9.1
			c0-2.8,0.7-5.4,2.2-8c1.5-2.6,3.4-4.5,5.9-6c2.5-1.4,5.1-2.1,8-2.1c3.6,0,6.5,1.2,8.8,3.6c2.3,2.4,3.5,5.5,3.5,9.2
			C1436.5,358.3,1436.4,359.2,1436.3,360.2z M1433,357c-0.1-2.6-1-4.7-2.7-6.4c-1.7-1.6-3.8-2.4-6.4-2.4c-2.8,0-5.2,0.8-7.3,2.3
			c-2.1,1.6-3.6,3.7-4.5,6.4H1433z"/>
	</g>
</g>
</svg>
