<?xml version="1.0" encoding="utf-8"?>
<!-- Generator: Adobe Illustrator 22.0.1, SVG Export Plug-In . SVG Version: 6.00 Build 0)  -->
<svg version="1.1" id="圖層_1" xmlns="http://www.w3.org/2000/svg" xmlns:xlink="http://www.w3.org/1999/xlink" x="0px" y="0px"
	 viewBox="0 0 400 124.5" style="enable-background:new 0 0 400 124.5;" xml:space="preserve">
<g>
	<g>
		<g>
			<g>
				<rect x="274.7" y="45.7" width="21.9" height="4.9"/>
			</g>
			<g>
				<rect x="291.8" y="2.4" width="4.8" height="73.5"/>
			</g>
			<g>
				<rect x="266.5" y="75" width="55.4" height="4.9"/>
			</g>
			<g>
				<rect x="302.8" y="45.7" width="15.7" height="4.9"/>
			</g>
			<rect x="302.8" y="20.9" width="17.2" height="4.9"/>
			<g>
				<path d="M260,46.4l0.3-1.4c10.4-14.5,10.1-39.2,10.1-39.4h7C277.4,6.5,277.3,32.6,260,46.4z"/>
			</g>
			<path d="M281.9,20.9c-0.4,1.6-0.9,3.2-1.5,4.9h16.2v-4.9H281.9z"/>
		</g>
		<g>
			<g>
				<rect x="332.4" y="9.7" width="24.2" height="4.8"/>
			</g>
			<g>
				<rect x="361.7" y="13.8" width="18" height="5"/>
			</g>
			<g>
				<rect x="364.4" y="34.6" width="15.9" height="5"/>
			</g>
			<g>
				<rect x="386.4" y="13.8" width="10.1" height="5"/>
			</g>
			<g>
				<rect x="386.4" y="34.6" width="7.1" height="5"/>
			</g>
			<g>
				<rect x="336.5" y="23.4" width="15.8" height="4.9"/>
			</g>
			<g>
				<rect x="336.5" y="37.2" width="15.8" height="4.9"/>
			</g>
			<g>
				<rect x="375.4" y="2.8" width="4.8" height="34.2"/>
			</g>
			<g>
				<path d="M366.6,52.1l-0.7,0.4c-0.8,6.5-6.1,10.8-6.1,10.9l4,3.4C364,66.6,368.2,62.1,366.6,52.1z"/>
			</g>
			<g>
				<path d="M345.9,11.2c-2.8-6.1-7.4-8.9-7.4-8.9l5-2C347.2,2.5,345.9,11.2,345.9,11.2z"/>
			</g>
			<g>
				<path d="M380.1,46.4l-0.2,0.8c4.1,5.5,3.9,12.1,3.9,12.2l5.1-1.2C388.9,57.9,388.7,52.9,380.1,46.4z"/>
			</g>
			<g>
				<path d="M388.6,49.1l0,0.9c5.1,4.7,6.4,11.2,6.4,11.2l4.5-2.1C399.5,58.9,398.3,53.9,388.6,49.1z"/>
			</g>
			<g>
				<g>
					<polyline points="337.4,80 332.6,80 332.6,51.4 337.4,51.4 					"/>
				</g>
				<g>
					<rect x="343.6" y="70.8" width="10.7" height="4.9"/>
				</g>
				<polygon points="343.6,51.4 343.6,56.3 351.5,56.3 351.5,80 356.3,80 356.3,51.4 				"/>
			</g>
			<path d="M380,66.9c-4.6-6.1-4.4-17-4.3-19.1h-4.9c-0.1,3.3-0.1,15.1,5.4,22.3c4.2,5.7,10.6,9,19,9.9l0.5-5.2
				C388.6,74.1,383.4,71.4,380,66.9z"/>
		</g>
		<g>
			<g>
				<path d="M184,76.6l0-0.8c7.7-8.2,8.6-19.1,8.6-19.2h5.7C198.2,57,197.5,68,184,76.6z"/>
			</g>
			<g>
				<path d="M205.4,11.2c-2.8-6.1-7.4-8.9-7.4-8.9l5-2C206.7,2.5,205.4,11.2,205.4,11.2z"/>
			</g>
			<g>
				<rect x="187.8" y="9.7" width="32.6" height="4.7"/>
			</g>
			<g>
				<rect x="227.9" y="5.7" width="24.5" height="4.9"/>
			</g>
			<g>
				<rect x="238.5" y="21.4" width="13.9" height="4.9"/>
			</g>
			<g>
				<rect x="189.6" y="33" width="28.9" height="4.7"/>
			</g>
			<g>
				<rect x="201.6" y="34.4" width="4.8" height="45.5"/>
			</g>
			<g>
				<rect x="243.3" y="23.9" width="4.9" height="56"/>
			</g>
			<g>
				<path d="M219.7,79.3l-0.1-0.7c8.1-6.7,8.4-40.2,8.4-40.4V8.1h4.8v30C232.8,45.5,233.1,69.6,219.7,79.3z"/>
			</g>
			<polygon points="191.9,18.9 195.2,28.3 199.9,27.8 196.8,18.9 			"/>
			<polygon points="211.3,18.9 208.1,27.8 212.9,28.3 216.2,18.9 			"/>
			<rect x="187.8" y="45.8" width="18" height="4.7"/>
			<rect x="212.6" y="45.8" width="7.9" height="4.7"/>
			<g>
				<path d="M212.6,57.1v6.8c2.4,0.7,5,4.2,5.9,6.5l0.5-0.2C218.5,65.3,217.4,60.2,212.6,57.1z"/>
			</g>
		</g>
		<g>
			<g>
				<rect x="53" y="15.2" width="18.9" height="4.8"/>
			</g>
			<g>
				<rect x="79.5" y="15.2" width="7.3" height="4.8"/>
			</g>
			<g>
				<rect x="46" y="33.4" width="27.3" height="4.8"/>
			</g>
			<g>
				<rect x="79.5" y="56.9" width="17.5" height="4.9"/>
			</g>
			<g>
				<rect x="68.5" y="2.2" width="4.8" height="33.5"/>
			</g>
			<path d="M87.9,2.2c-3.5,14.1-15.6,42.2-41.7,68l-0.3,0.9c37.5-26.3,47.3-63.1,49-68.9H87.9z"/>
			<path d="M94.8,74.9c-9.5,0.1-16.4,0.2-19.4-2.8c-1.4-1.4-2.1-3.6-2.1-6.9V54.6c-1.5,1.8-3.1,3.6-4.8,5.4v5.3
				c0,4.6,1.1,8,3.5,10.3c3.7,3.7,9.8,4.2,18.1,4.2c1.5,0,3.1,0,4.8,0c1.8,0,5.8,0,7.8,0v-4.9C100.6,74.9,96.7,74.9,94.8,74.9z"/>
			<path d="M87.6,33.4c-0.9,1.6-1.8,3.2-2.8,4.8h20.4v-4.8H87.6z"/>
		</g>
		<g>
			<g>
				<path d="M115.1,79.3l-0.1-0.7c8.1-6.7,8.4-40.2,8.4-40.4V2.4h4.8v35.7C128.2,45.5,128.5,69.6,115.1,79.3z"/>
			</g>
			<g>
				<rect x="134" y="62.9" width="17.1" height="4.8"/>
			</g>
			<g>
				<rect x="129.2" y="75.1" width="24.3" height="4.9"/>
			</g>
			<g>
				<rect x="159.7" y="62.9" width="8.4" height="4.8"/>
			</g>
			<g>
				<rect x="159.7" y="75.1" width="13.8" height="4.9"/>
			</g>
			<g>
				<rect x="132" y="48.4" width="38.2" height="4.9"/>
			</g>
			<g>
				<g>
					<rect x="134.8" y="40.7" transform="matrix(0.3466 -0.938 0.938 0.3466 53.0063 162.3486)" width="16.5" height="4.8"/>
				</g>
				<g>
					<polygon points="149.3,33 133.6,33 133.6,37.8 147.5,37.8 					"/>
					<polygon points="155.6,33 153.8,37.8 168.2,37.8 168.2,33 					"/>
				</g>
			</g>
			<g>
				<rect x="148.7" y="50.9" width="4.8" height="25.9"/>
			</g>
			<g>
				<polyline points="168.2,2.4 168.2,23.8 173.1,23.8 173.1,2.4 				"/>
			</g>
			<g>
				<path d="M161.7,18.9h-38.3c-0.1,1.5,0.1,3.1,0,4.9h38.3"/>
			</g>
			<g>
				<rect x="134.5" y="2.4" width="38.5" height="4.9"/>
			</g>
		</g>
		<g>
			<g>
				<g>
					<polygon points="28.8,17.6 1.3,17.6 1.3,14.7 27.2,14.7 					"/>
				</g>
				<g>
					<rect x="7.3" y="22.7" width="2.9" height="17.2"/>
					<polygon points="14.5,22.7 14.5,25.6 25.9,25.6 25.9,39.9 28.8,39.9 28.8,22.7 					"/>
				</g>
				<g>
					<rect x="14.5" y="33.4" width="13" height="2.9"/>
				</g>
				<polygon points="11.8,11.2 16.2,2.6 13.6,1.3 8.5,11.2 				"/>
				<polygon points="37.6,19.3 33,11.2 29.6,11.2 34.3,19.3 				"/>
			</g>
			<g>
				<g>
					<rect x="12.3" y="46.5" width="2.9" height="33.9"/>
				</g>
				<g>
					<path d="M36,80h-6.4c-3.4,0-6.2-2.8-6.2-6.2V46.5h2.9v27.3c0,1.8,1.5,3.3,3.3,3.3H36V80z"/>
				</g>
				<rect x="0.5" y="55.9" width="7.6" height="2.9"/>
				<polygon points="0.5,71.2 0.5,74.4 8.1,71.2 8.1,68 				"/>
				<polygon points="30.3,54.9 30.3,58.1 38.1,54.6 38.1,51.4 				"/>
			</g>
		</g>
	</g>
	<g>
		<g>
			<path d="M112.8,103.9h9.6l-0.2,1.5h-4l-2,14.5h-1.6l2-14.5h-3.9L112.8,103.9z"/>
			<path d="M135.9,119.9h-1.5l0.2-1.8c-1.4,1.4-2.9,2.1-4.7,2.1c-1.6,0-2.9-0.5-4-1.6c-1-1-1.6-2.4-1.6-4c0-1.9,0.7-3.5,2-4.9
				c1.3-1.4,2.9-2,4.8-2c1,0,1.9,0.2,2.6,0.6c0.7,0.4,1.4,1.1,1.9,1.9l0.3-2.3h1.6L135.9,119.9z M130.1,118.8c1,0,1.9-0.2,2.7-0.7
				s1.4-1.1,1.9-2c0.5-0.9,0.7-1.8,0.7-2.8c0-1.2-0.4-2.2-1.2-3s-1.8-1.2-3-1.2c-1.5,0-2.7,0.5-3.7,1.6c-1,1.1-1.6,2.3-1.6,3.9
				c0,1.3,0.4,2.3,1.2,3C127.8,118.4,128.8,118.8,130.1,118.8z"/>
			<path d="M143,108h1.4l-1.5,11.9h-1.5L143,108z M144.2,103.1c0.3,0,0.6,0.1,0.9,0.4c0.2,0.2,0.4,0.5,0.4,0.9
				c0,0.3-0.1,0.6-0.4,0.9c-0.2,0.2-0.5,0.4-0.9,0.4c-0.3,0-0.6-0.1-0.9-0.4c-0.2-0.2-0.4-0.5-0.4-0.9c0-0.3,0.1-0.6,0.4-0.9
				C143.6,103.3,143.8,103.1,144.2,103.1z"/>
			<path d="M150.2,108h1.5l-0.2,1.8c1.4-1.4,2.9-2.1,4.7-2.1c1.6,0,2.9,0.5,4,1.6c1,1,1.6,2.4,1.6,4c0,1.9-0.7,3.5-2,4.9
				c-1.3,1.4-2.9,2-4.7,2c-1,0-1.9-0.2-2.6-0.6c-0.7-0.4-1.4-1.1-1.9-1.9l-0.9,6.6H148L150.2,108z M156,109.1c-1,0-1.9,0.2-2.7,0.7
				c-0.8,0.5-1.5,1.1-1.9,2c-0.5,0.9-0.7,1.8-0.7,2.8c0,1.2,0.4,2.2,1.2,3c0.8,0.8,1.8,1.2,3,1.2c1.5,0,2.7-0.5,3.7-1.6
				c1-1.1,1.6-2.3,1.6-3.9c0-1.3-0.4-2.3-1.2-3C158.3,109.5,157.3,109.1,156,109.1z"/>
			<path d="M178.1,114.3h-10.6c0,1.4,0.3,2.5,1.1,3.3c0.8,0.8,1.8,1.2,3,1.2c0.8,0,1.6-0.2,2.3-0.5c0.7-0.3,1.3-0.8,1.8-1.4l1.1,0.9
				c-0.6,0.7-1.3,1.3-2.3,1.8c-0.9,0.4-1.9,0.7-3,0.7c-1.9,0-3.3-0.6-4.2-1.7c-0.9-1.2-1.4-2.5-1.4-3.9c0-1.2,0.3-2.3,0.9-3.4
				c0.6-1.1,1.5-1.9,2.5-2.5c1.1-0.6,2.2-0.9,3.4-0.9c1.5,0,2.8,0.5,3.8,1.5c1,1,1.5,2.3,1.5,3.9
				C178.2,113.5,178.2,113.9,178.1,114.3z M176.7,112.9c0-1.1-0.4-2-1.1-2.7c-0.7-0.7-1.6-1-2.7-1c-1.2,0-2.2,0.3-3.1,1
				c-0.9,0.7-1.5,1.6-1.9,2.8H176.7z"/>
			<path d="M183.9,108h1.4l-1.5,11.9h-1.5L183.9,108z M185.1,103.1c0.3,0,0.6,0.1,0.9,0.4c0.2,0.2,0.4,0.5,0.4,0.9
				c0,0.3-0.1,0.6-0.4,0.9c-0.2,0.2-0.5,0.4-0.9,0.4c-0.3,0-0.6-0.1-0.9-0.4c-0.2-0.2-0.4-0.5-0.4-0.9c0-0.3,0.1-0.6,0.4-0.9
				C184.5,103.3,184.8,103.1,185.1,103.1z"/>
			<path d="M207.7,103.5c2.2,0,4,0.7,5.4,2.1c1.4,1.4,2.2,3.2,2.2,5.4c0,2.6-0.9,4.9-2.7,6.7c-1.8,1.8-4.1,2.7-6.8,2.7
				c-2.3,0-4.2-0.7-5.6-2.1c-1.4-1.4-2.1-3.2-2.1-5.4c0-1.7,0.4-3.3,1.2-4.7c0.8-1.4,2-2.6,3.5-3.4
				C204.3,103.9,205.9,103.5,207.7,103.5z M207.7,105c-1.5,0-2.9,0.3-4.1,1s-2.2,1.6-2.9,2.8c-0.7,1.2-1.1,2.5-1.1,3.9
				c0,1.2,0.3,2.2,0.8,3.2c0.5,0.9,1.2,1.6,2.1,2.1c0.9,0.5,2,0.7,3.2,0.7c1.4,0,2.8-0.3,4-1c1.2-0.7,2.2-1.7,2.9-2.9
				c0.7-1.2,1.1-2.6,1.1-4c0-1.9-0.7-3.4-2-4.5C210.6,105.4,209.2,105,207.7,105z"/>
			<path d="M221.3,103.5h1.5l-2.2,16.4h-1.5L221.3,103.5z"/>
			<path d="M237.9,119.9h-1.5l0.2-1.8c-1.4,1.4-3,2.1-4.8,2.1c-1.6,0-2.9-0.5-3.9-1.6c-1-1-1.5-2.4-1.5-4c0-1.9,0.7-3.5,2-4.9
				c1.3-1.4,2.9-2,4.7-2c1,0,1.9,0.2,2.6,0.6c0.7,0.4,1.4,1.1,1.9,1.9l0.9-6.8h1.6L237.9,119.9z M232,118.8c1,0,1.9-0.2,2.7-0.7
				c0.8-0.5,1.4-1.1,1.9-2c0.5-0.9,0.7-1.8,0.7-2.8c0-1.2-0.4-2.2-1.2-3c-0.8-0.8-1.8-1.2-3-1.2c-1.5,0-2.7,0.5-3.7,1.6
				c-1,1.1-1.6,2.3-1.6,3.9c0,1.3,0.4,2.3,1.2,3C229.8,118.4,230.8,118.8,232,118.8z"/>
			<path d="M254.3,103.9h1.6l-0.9,6.5h8.2l0.9-6.5h1.6l-2.2,16h-1.6l1.1-8h-8.2l-1.1,8h-1.6L254.3,103.9z"/>
			<path d="M276.5,107.7c1,0,1.9,0.2,2.8,0.7c0.8,0.5,1.5,1.2,2,2c0.5,0.9,0.7,1.8,0.7,2.9c0,1.2-0.3,2.4-0.9,3.5
				c-0.6,1.1-1.4,1.9-2.4,2.5c-1,0.6-2.2,0.9-3.5,0.9c-1.6,0-2.9-0.5-3.9-1.6c-1-1-1.5-2.4-1.5-4c0-1.3,0.3-2.4,0.9-3.5
				c0.6-1.1,1.4-1.9,2.5-2.5S275.3,107.7,276.5,107.7z M276.5,109.2c-0.9,0-1.8,0.2-2.7,0.7c-0.8,0.5-1.5,1.1-1.9,1.9
				c-0.4,0.8-0.7,1.7-0.7,2.7c0,1.2,0.4,2.3,1.2,3c0.8,0.8,1.8,1.2,3,1.2c1,0,1.8-0.2,2.6-0.7c0.8-0.5,1.4-1.1,1.9-2
				c0.5-0.9,0.7-1.8,0.7-2.8c0-0.8-0.2-1.6-0.5-2.2c-0.3-0.6-0.8-1.1-1.5-1.5C277.9,109.4,277.2,109.2,276.5,109.2z"/>
			<path d="M288.7,108h1.5l-0.7,5c-0.2,1.5-0.3,2.4-0.3,2.8c0,0.9,0.3,1.6,0.8,2.2c0.6,0.6,1.3,0.8,2.2,0.8c0.8,0,1.4-0.2,2-0.7
				c0.6-0.4,1-1,1.2-1.7c0.1-0.4,0.3-1.2,0.4-2.5l0.8-5.9h1.5l-0.6,4.5c-0.3,2.2-0.6,3.7-0.9,4.6c-0.3,0.9-0.9,1.6-1.6,2.2
				c-0.8,0.6-1.8,0.9-2.9,0.9c-1.3,0-2.3-0.4-3.2-1.3c-0.8-0.8-1.2-1.9-1.2-3.1c0-0.5,0-1.1,0.1-1.8l0.1-1l0.1-0.4L288.7,108z"/>
			<path d="M309.3,109.4l-0.8,1.2c-0.7-1-1.5-1.4-2.4-1.4c-0.5,0-1,0.2-1.3,0.5c-0.4,0.3-0.6,0.7-0.6,1.1c0,0.3,0.1,0.6,0.3,0.9
				c0.2,0.3,0.7,0.7,1.5,1.2c1.1,0.7,1.9,1.4,2.2,1.9c0.4,0.6,0.5,1.2,0.5,1.9c0,1-0.3,1.8-1,2.5c-0.7,0.7-1.6,1-2.7,1
				c-1.5,0-2.7-0.6-3.7-2l0.9-1.1c0.9,1.1,1.8,1.6,2.9,1.6c0.6,0,1.1-0.2,1.5-0.6c0.4-0.4,0.7-0.9,0.7-1.4c0-0.4-0.2-0.9-0.5-1.3
				c-0.2-0.3-0.8-0.7-1.7-1.3c-1-0.7-1.6-1.3-2-1.7c-0.3-0.4-0.5-0.9-0.5-1.5c0-0.9,0.3-1.6,1-2.2c0.7-0.6,1.5-0.9,2.5-0.9
				c0.6,0,1.1,0.1,1.6,0.4C308.4,108.3,308.8,108.8,309.3,109.4z"/>
			<path d="M325.4,114.3h-10.6c0,1.4,0.3,2.5,1.1,3.3c0.8,0.8,1.8,1.2,3,1.2c0.8,0,1.6-0.2,2.3-0.5c0.7-0.3,1.3-0.8,1.8-1.4l1.1,0.9
				c-0.6,0.7-1.3,1.3-2.3,1.8c-0.9,0.4-1.9,0.7-3,0.7c-1.9,0-3.3-0.6-4.2-1.7c-0.9-1.2-1.4-2.5-1.4-3.9c0-1.2,0.3-2.3,0.9-3.4
				c0.6-1.1,1.5-1.9,2.5-2.5c1.1-0.6,2.2-0.9,3.4-0.9c1.5,0,2.8,0.5,3.8,1.5c1,1,1.5,2.3,1.5,3.9
				C325.5,113.5,325.4,113.9,325.4,114.3z M324,112.9c0-1.1-0.4-2-1.1-2.7c-0.7-0.7-1.6-1-2.7-1c-1.2,0-2.2,0.3-3.1,1
				c-0.9,0.7-1.5,1.6-1.9,2.8H324z"/>
			<path d="M340.4,103.9h1.6l-2.2,16h-1.6L340.4,103.9z"/>
			<path d="M352.7,109.4l-0.8,1.2c-0.7-1-1.5-1.4-2.4-1.4c-0.5,0-1,0.2-1.3,0.5c-0.4,0.3-0.6,0.7-0.6,1.1c0,0.3,0.1,0.6,0.3,0.9
				c0.2,0.3,0.7,0.7,1.5,1.2c1.1,0.7,1.9,1.4,2.2,1.9c0.4,0.6,0.5,1.2,0.5,1.9c0,1-0.3,1.8-1,2.5c-0.7,0.7-1.6,1-2.7,1
				c-1.5,0-2.7-0.6-3.7-2l0.9-1.1c0.9,1.1,1.8,1.6,2.9,1.6c0.6,0,1.1-0.2,1.5-0.6c0.4-0.4,0.7-0.9,0.7-1.4c0-0.4-0.2-0.9-0.5-1.3
				c-0.2-0.3-0.8-0.7-1.7-1.3c-1-0.7-1.6-1.3-2-1.7c-0.3-0.4-0.5-0.9-0.5-1.5c0-0.9,0.3-1.6,1-2.2c0.7-0.6,1.5-0.9,2.5-0.9
				c0.6,0,1.1,0.1,1.6,0.4C351.7,108.3,352.2,108.8,352.7,109.4z"/>
			<path d="M363.6,109.4l-0.8,1.2c-0.7-1-1.5-1.4-2.4-1.4c-0.5,0-1,0.2-1.3,0.5c-0.4,0.3-0.6,0.7-0.6,1.1c0,0.3,0.1,0.6,0.3,0.9
				c0.2,0.3,0.7,0.7,1.5,1.2c1.1,0.7,1.9,1.4,2.2,1.9c0.4,0.6,0.5,1.2,0.5,1.9c0,1-0.3,1.8-1,2.5c-0.7,0.7-1.6,1-2.7,1
				c-1.5,0-2.7-0.6-3.7-2l0.9-1.1c0.9,1.1,1.8,1.6,2.9,1.6c0.6,0,1.1-0.2,1.5-0.6c0.4-0.4,0.7-0.9,0.7-1.4c0-0.4-0.2-0.9-0.5-1.3
				c-0.2-0.3-0.8-0.7-1.7-1.3c-1-0.7-1.6-1.3-2-1.7c-0.3-0.4-0.5-0.9-0.5-1.5c0-0.9,0.3-1.6,1-2.2c0.7-0.6,1.5-0.9,2.5-0.9
				c0.6,0,1.1,0.1,1.6,0.4C362.6,108.3,363.1,108.8,363.6,109.4z"/>
			<path d="M369.7,108h1.5l-0.7,5c-0.2,1.5-0.3,2.4-0.3,2.8c0,0.9,0.3,1.6,0.8,2.2c0.6,0.6,1.3,0.8,2.2,0.8c0.8,0,1.4-0.2,2-0.7
				c0.6-0.4,1-1,1.2-1.7c0.1-0.4,0.3-1.2,0.4-2.5l0.8-5.9h1.5l-0.6,4.5c-0.3,2.2-0.6,3.7-0.9,4.6c-0.3,0.9-0.9,1.6-1.6,2.2
				c-0.8,0.6-1.8,0.9-2.9,0.9c-1.3,0-2.3-0.4-3.2-1.3c-0.8-0.8-1.2-1.9-1.2-3.1c0-0.5,0-1.1,0.1-1.8l0.1-1l0.1-0.4L369.7,108z"/>
			<path d="M395.5,114.3h-10.6c0,1.4,0.3,2.5,1.1,3.3c0.8,0.8,1.8,1.2,3,1.2c0.8,0,1.6-0.2,2.3-0.5c0.7-0.3,1.3-0.8,1.8-1.4l1.1,0.9
				c-0.6,0.7-1.3,1.3-2.3,1.8c-0.9,0.4-1.9,0.7-3,0.7c-1.9,0-3.3-0.6-4.2-1.7c-0.9-1.2-1.4-2.5-1.4-3.9c0-1.2,0.3-2.3,0.9-3.4
				c0.6-1.1,1.5-1.9,2.5-2.5c1.1-0.6,2.2-0.9,3.4-0.9c1.5,0,2.8,0.5,3.8,1.5c1,1,1.5,2.3,1.5,3.9
				C395.5,113.5,395.5,113.9,395.5,114.3z M394.1,112.9c0-1.1-0.4-2-1.1-2.7c-0.7-0.7-1.6-1-2.7-1c-1.2,0-2.2,0.3-3.1,1
				c-0.9,0.7-1.5,1.6-1.9,2.8H394.1z"/>
		</g>
	</g>
</g>
</svg>
